%TF.GenerationSoftware,KiCad,Pcbnew,9.0.6*%
%TF.CreationDate,2026-02-08T16:41:29-05:00*%
%TF.ProjectId,1_Distribution_Board,315f4469-7374-4726-9962-7574696f6e5f,0.3*%
%TF.SameCoordinates,Original*%
%TF.FileFunction,Plated,1,2,PTH,Drill*%
%TF.FilePolarity,Positive*%
%FSLAX46Y46*%
G04 Gerber Fmt 4.6, Leading zero omitted, Abs format (unit mm)*
G04 Created by KiCad (PCBNEW 9.0.6) date 2026-02-08 16:41:29*
%MOMM*%
%LPD*%
G01*
G04 APERTURE LIST*
%TA.AperFunction,ViaDrill*%
%ADD10C,0.300000*%
%TD*%
%TA.AperFunction,ComponentDrill*%
%ADD11C,0.750000*%
%TD*%
%TA.AperFunction,ComponentDrill*%
%ADD12C,0.800000*%
%TD*%
%TA.AperFunction,ComponentDrill*%
%ADD13C,0.950000*%
%TD*%
%TA.AperFunction,ComponentDrill*%
%ADD14C,1.000000*%
%TD*%
%TA.AperFunction,ComponentDrill*%
%ADD15C,1.100000*%
%TD*%
%TA.AperFunction,ComponentDrill*%
%ADD16C,1.200000*%
%TD*%
%TA.AperFunction,ViaDrill*%
%ADD17C,1.700000*%
%TD*%
%TA.AperFunction,ComponentDrill*%
%ADD18C,1.700000*%
%TD*%
%TA.AperFunction,ComponentDrill*%
%ADD19C,3.200000*%
%TD*%
G04 APERTURE END LIST*
D10*
X35250000Y-116400000D03*
X37900000Y-116400000D03*
X40350000Y-116400000D03*
X47950000Y-116500000D03*
X50400000Y-116500000D03*
X52600000Y-38300000D03*
X52700000Y-40750000D03*
X52800000Y-33100000D03*
X52800000Y-35400000D03*
X53000000Y-116600000D03*
X53350000Y-57250000D03*
X53650000Y-62650000D03*
X56000000Y-63500000D03*
X57950000Y-58000000D03*
X59550000Y-63400000D03*
X59600000Y-136600000D03*
X60350000Y-38350000D03*
X60450000Y-35650000D03*
X60550000Y-40750000D03*
X60650000Y-51000000D03*
X62050000Y-53950000D03*
X63150000Y-116500000D03*
X64100000Y-125350000D03*
X64850000Y-85950000D03*
X66450000Y-33100000D03*
X66500000Y-49550000D03*
X66600000Y-67600000D03*
X67100000Y-59700000D03*
X68250000Y-64750000D03*
X68300000Y-116400000D03*
X68950000Y-40800000D03*
X69000000Y-37750000D03*
X73350000Y-121900000D03*
X73950000Y-80100000D03*
X74300000Y-48000000D03*
X74700000Y-50500000D03*
X75950000Y-116350000D03*
X78432000Y-116425000D03*
X79350000Y-48100000D03*
X81000000Y-116400000D03*
X83300000Y-116800000D03*
X83350000Y-104700000D03*
X86700000Y-121900000D03*
X88000000Y-51400000D03*
X91500000Y-131250000D03*
X93150000Y-39250000D03*
X93200000Y-41750000D03*
X94050000Y-100050000D03*
X94100000Y-35700000D03*
X94950000Y-131950000D03*
X95600000Y-30400000D03*
X98950000Y-35700000D03*
X102450000Y-35900000D03*
X105400000Y-36000000D03*
X105700000Y-136400000D03*
X107400000Y-57550000D03*
X107500000Y-55500000D03*
X109950000Y-136800000D03*
X110700000Y-42200000D03*
X111275000Y-39975000D03*
X111350000Y-113300000D03*
X111420000Y-88700000D03*
X111500000Y-64300000D03*
X114500000Y-36100000D03*
X114600000Y-48100000D03*
X115500000Y-42100000D03*
X117800000Y-126000000D03*
X117850000Y-51500000D03*
X119100000Y-112080000D03*
X119100000Y-114580000D03*
X120200000Y-42100000D03*
X121200000Y-126000000D03*
X121650000Y-77150000D03*
X121750000Y-36450000D03*
X121900000Y-40200000D03*
X122000000Y-45800000D03*
X125700000Y-111800000D03*
X126300000Y-62300000D03*
X126300000Y-86800000D03*
X126840000Y-111300000D03*
X127350000Y-91600000D03*
X127400000Y-42300000D03*
X127400000Y-51300000D03*
X127400000Y-67000000D03*
X127400000Y-100200000D03*
X127400000Y-116200000D03*
X127400000Y-124700000D03*
X127440000Y-75760000D03*
X127800000Y-86700000D03*
X128000000Y-62200000D03*
X132600000Y-30500000D03*
X132750000Y-109400000D03*
X132900000Y-60600000D03*
X132950000Y-84850000D03*
X133650000Y-35850000D03*
D11*
%TO.C,Q2*%
X143560000Y-127430000D03*
X143560000Y-128700000D03*
X143560000Y-129970000D03*
%TO.C,Q3*%
X143560000Y-135430000D03*
X143560000Y-136700000D03*
X143560000Y-137970000D03*
%TO.C,J3*%
X151740000Y-42000000D03*
X151740000Y-44000000D03*
X151740000Y-46000000D03*
X151740000Y-48000000D03*
%TO.C,J34*%
X151800000Y-66400000D03*
X151800000Y-68400000D03*
X151800000Y-70400000D03*
X151800000Y-72400000D03*
%TO.C,J41*%
X151800000Y-90865000D03*
X151800000Y-92865000D03*
X151800000Y-94865000D03*
X151800000Y-96865000D03*
%TO.C,J48*%
X151800000Y-115390000D03*
X151800000Y-117390000D03*
X151800000Y-119390000D03*
X151800000Y-121390000D03*
D12*
%TO.C,C2*%
X31500000Y-48652651D03*
X31500000Y-51152651D03*
%TO.C,C3*%
X31500000Y-75152651D03*
X31500000Y-77652651D03*
%TO.C,C1*%
X142390000Y-31097349D03*
X142390000Y-33597349D03*
%TO.C,C16*%
X142850000Y-106227349D03*
X142850000Y-108727349D03*
%TO.C,C15*%
X142981325Y-81687349D03*
X142981325Y-84187349D03*
%TO.C,C14*%
X143000000Y-57247349D03*
X143000000Y-59747349D03*
D13*
%TO.C,J53*%
X44500000Y-127250000D03*
%TO.C,J20*%
X44750000Y-137750000D03*
%TO.C,J53*%
X47000000Y-127250000D03*
%TO.C,J20*%
X47250000Y-137750000D03*
%TO.C,J53*%
X49500000Y-127250000D03*
%TO.C,J20*%
X49750000Y-137750000D03*
%TO.C,J53*%
X52000000Y-127250000D03*
%TO.C,J20*%
X52250000Y-137750000D03*
%TO.C,J53*%
X54500000Y-127250000D03*
X57000000Y-127250000D03*
X59500000Y-127250000D03*
X62000000Y-127250000D03*
X64500000Y-127250000D03*
X67000000Y-127250000D03*
D14*
%TO.C,J12*%
X28735000Y-35250000D03*
%TO.C,J13*%
X28735000Y-42000000D03*
%TO.C,J8*%
X28735000Y-61000000D03*
%TO.C,J9*%
X28735000Y-68500000D03*
%TO.C,J59*%
X28907000Y-101925000D03*
X28907000Y-104465000D03*
X28907000Y-107005000D03*
X28907000Y-109545000D03*
X28907000Y-112085000D03*
X28907000Y-114625000D03*
%TO.C,J12*%
X31275000Y-35250000D03*
%TO.C,J13*%
X31275000Y-42000000D03*
%TO.C,J8*%
X31275000Y-61000000D03*
%TO.C,J9*%
X31275000Y-68500000D03*
%TO.C,J55*%
X33982000Y-114625000D03*
X36522000Y-114625000D03*
%TO.C,J14*%
X38500000Y-29300000D03*
X38500000Y-31840000D03*
X38500000Y-34380000D03*
X38500000Y-36920000D03*
X38500000Y-39460000D03*
X38500000Y-42000000D03*
X38500000Y-44540000D03*
X38500000Y-47080000D03*
%TO.C,J10*%
X38500000Y-55880000D03*
X38500000Y-58420000D03*
X38500000Y-60960000D03*
X38500000Y-63500000D03*
X38500000Y-66040000D03*
X38500000Y-68580000D03*
X38500000Y-71120000D03*
X38500000Y-73660000D03*
%TO.C,J55*%
X39062000Y-114625000D03*
X41602000Y-114625000D03*
%TO.C,J56*%
X46682000Y-114625000D03*
X49222000Y-114625000D03*
%TO.C,J15*%
X51200000Y-29300000D03*
X51200000Y-31840000D03*
X51200000Y-34380000D03*
X51200000Y-36920000D03*
X51200000Y-39460000D03*
X51200000Y-42000000D03*
X51200000Y-44540000D03*
X51200000Y-47080000D03*
%TO.C,J11*%
X51200000Y-55880000D03*
X51200000Y-58420000D03*
X51200000Y-60960000D03*
X51200000Y-63500000D03*
X51200000Y-66040000D03*
X51200000Y-68580000D03*
X51200000Y-71120000D03*
X51200000Y-73660000D03*
%TO.C,J56*%
X51762000Y-114625000D03*
X54302000Y-114625000D03*
%TO.C,J60*%
X61932000Y-114625000D03*
%TO.C,J58*%
X62170000Y-135750000D03*
X62170000Y-138290000D03*
%TO.C,J60*%
X64472000Y-114625000D03*
%TO.C,J58*%
X64710000Y-135750000D03*
X64710000Y-138290000D03*
%TO.C,J60*%
X67012000Y-114625000D03*
%TO.C,J58*%
X67250000Y-135750000D03*
X67250000Y-138290000D03*
%TO.C,J60*%
X69552000Y-114625000D03*
%TO.C,J58*%
X69790000Y-135750000D03*
X69790000Y-138290000D03*
%TO.C,A1*%
X72110000Y-27680000D03*
X72110000Y-30220000D03*
X72110000Y-32760000D03*
X72110000Y-35300000D03*
X72110000Y-37840000D03*
X72110000Y-40380000D03*
X72110000Y-42920000D03*
X72110000Y-45460000D03*
X72110000Y-48000000D03*
X72110000Y-50540000D03*
X72110000Y-53080000D03*
X72110000Y-55620000D03*
X72110000Y-58160000D03*
X72110000Y-60700000D03*
X72110000Y-63240000D03*
X72110000Y-65780000D03*
X72110000Y-68320000D03*
X72110000Y-70860000D03*
X72110000Y-73400000D03*
X72110000Y-75940000D03*
%TO.C,J58*%
X72330000Y-135750000D03*
X72330000Y-138290000D03*
%TO.C,J54*%
X74000000Y-124050000D03*
%TO.C,J61*%
X74632000Y-114625000D03*
%TO.C,J58*%
X74870000Y-135750000D03*
X74870000Y-138290000D03*
%TO.C,J54*%
X76540000Y-124050000D03*
%TO.C,J61*%
X77172000Y-114625000D03*
%TO.C,J58*%
X77410000Y-135750000D03*
X77410000Y-138290000D03*
%TO.C,J54*%
X79080000Y-124050000D03*
%TO.C,J61*%
X79712000Y-114625000D03*
%TO.C,J58*%
X79950000Y-135750000D03*
X79950000Y-138290000D03*
%TO.C,J54*%
X81620000Y-124050000D03*
%TO.C,J61*%
X82252000Y-114625000D03*
%TO.C,J54*%
X84160000Y-124050000D03*
X86700000Y-124050000D03*
%TO.C,J57*%
X87200000Y-101925000D03*
X87200000Y-104465000D03*
X87200000Y-107005000D03*
X87200000Y-109545000D03*
X87200000Y-112085000D03*
X87200000Y-114625000D03*
%TO.C,A1*%
X89890000Y-27680000D03*
X89890000Y-30220000D03*
X89890000Y-32760000D03*
X89890000Y-35300000D03*
X89890000Y-37840000D03*
X89890000Y-40380000D03*
X89890000Y-42920000D03*
X89890000Y-45460000D03*
X89890000Y-48000000D03*
X89890000Y-50540000D03*
X89890000Y-53080000D03*
X89890000Y-55620000D03*
X89890000Y-58160000D03*
X89890000Y-60700000D03*
X89890000Y-63240000D03*
X89890000Y-65780000D03*
X89890000Y-68320000D03*
X89890000Y-70860000D03*
X89890000Y-73400000D03*
X89890000Y-75940000D03*
%TO.C,J24*%
X93300000Y-128800000D03*
%TO.C,J25*%
X93320000Y-139400000D03*
%TO.C,U1*%
X93667500Y-111150000D03*
%TO.C,J24*%
X95840000Y-128800000D03*
%TO.C,J25*%
X95860000Y-139400000D03*
%TO.C,U1*%
X96207500Y-111150000D03*
%TO.C,J24*%
X98380000Y-128800000D03*
%TO.C,J25*%
X98400000Y-139400000D03*
%TO.C,U1*%
X98747500Y-111150000D03*
%TO.C,U3*%
X103820000Y-28192500D03*
X106360000Y-28192500D03*
%TO.C,J26*%
X107200000Y-128800000D03*
%TO.C,J27*%
X107220000Y-139400000D03*
%TO.C,U3*%
X108900000Y-28192500D03*
%TO.C,J26*%
X109740000Y-128800000D03*
%TO.C,J27*%
X109760000Y-139400000D03*
%TO.C,J46*%
X112060000Y-109080000D03*
%TO.C,J47*%
X112060000Y-117580000D03*
%TO.C,J39*%
X112170000Y-84491667D03*
%TO.C,J40*%
X112170000Y-93100000D03*
%TO.C,J33*%
X112210000Y-68600000D03*
%TO.C,J32*%
X112250000Y-59900000D03*
%TO.C,J26*%
X112280000Y-128800000D03*
%TO.C,J27*%
X112300000Y-139400000D03*
%TO.C,J1*%
X112950000Y-37900000D03*
%TO.C,J2*%
X112990000Y-46400000D03*
%TO.C,J46*%
X114600000Y-109080000D03*
%TO.C,J47*%
X114600000Y-117580000D03*
%TO.C,J39*%
X114710000Y-84491667D03*
%TO.C,J40*%
X114710000Y-93100000D03*
%TO.C,J33*%
X114750000Y-68600000D03*
%TO.C,J32*%
X114790000Y-59900000D03*
%TO.C,J1*%
X115490000Y-37900000D03*
%TO.C,J2*%
X115530000Y-46400000D03*
%TO.C,J46*%
X117140000Y-109080000D03*
%TO.C,J47*%
X117140000Y-117580000D03*
%TO.C,J39*%
X117250000Y-84491667D03*
%TO.C,J40*%
X117250000Y-93100000D03*
%TO.C,J33*%
X117290000Y-68600000D03*
%TO.C,J32*%
X117330000Y-59900000D03*
%TO.C,J1*%
X118030000Y-37900000D03*
%TO.C,J2*%
X118070000Y-46400000D03*
%TO.C,PDN_2*%
X119500000Y-74223333D03*
%TO.C,PDN_3*%
X119500000Y-99241667D03*
%TO.C,PDN_1*%
X119700000Y-50600000D03*
%TO.C,PDN_4*%
X119900000Y-121250000D03*
%TO.C,J50*%
X123500000Y-109500000D03*
X123500000Y-112040000D03*
X123500000Y-114580000D03*
X123500000Y-117120000D03*
X123500000Y-119660000D03*
X123500000Y-122200000D03*
X123500000Y-124740000D03*
X123500000Y-127280000D03*
%TO.C,J5*%
X123650000Y-36110000D03*
X123650000Y-38650000D03*
X123650000Y-41190000D03*
X123650000Y-43730000D03*
X123650000Y-46270000D03*
X123650000Y-48810000D03*
X123650000Y-51350000D03*
X123650000Y-53890000D03*
%TO.C,J36*%
X123650000Y-60520000D03*
X123650000Y-63060000D03*
X123650000Y-65600000D03*
X123650000Y-68140000D03*
X123650000Y-70680000D03*
X123650000Y-73220000D03*
X123650000Y-75760000D03*
X123650000Y-78300000D03*
%TO.C,J43*%
X123650000Y-84975000D03*
X123650000Y-87515000D03*
X123650000Y-90055000D03*
X123650000Y-92595000D03*
X123650000Y-95135000D03*
X123650000Y-97675000D03*
X123650000Y-100215000D03*
X123650000Y-102755000D03*
%TO.C,J51*%
X126040000Y-109500000D03*
%TO.C,J6*%
X126190000Y-36110000D03*
%TO.C,J37*%
X126190000Y-60520000D03*
%TO.C,J44*%
X126190000Y-84975000D03*
%TO.C,J51*%
X128580000Y-109500000D03*
%TO.C,J6*%
X128730000Y-36110000D03*
%TO.C,J37*%
X128730000Y-60520000D03*
%TO.C,J44*%
X128730000Y-84975000D03*
%TO.C,J52*%
X136200000Y-109500000D03*
X136200000Y-112040000D03*
X136200000Y-114580000D03*
X136200000Y-117120000D03*
X136200000Y-119660000D03*
X136200000Y-122200000D03*
X136200000Y-124740000D03*
X136200000Y-127280000D03*
%TO.C,J7*%
X136350000Y-36110000D03*
X136350000Y-38650000D03*
X136350000Y-41190000D03*
X136350000Y-43730000D03*
X136350000Y-46270000D03*
X136350000Y-48810000D03*
X136350000Y-51350000D03*
X136350000Y-53890000D03*
%TO.C,J38*%
X136350000Y-60520000D03*
X136350000Y-63060000D03*
X136350000Y-65600000D03*
X136350000Y-68140000D03*
X136350000Y-70680000D03*
X136350000Y-73220000D03*
X136350000Y-75760000D03*
X136350000Y-78300000D03*
%TO.C,J45*%
X136350000Y-84975000D03*
X136350000Y-87515000D03*
X136350000Y-90055000D03*
X136350000Y-92595000D03*
X136350000Y-95135000D03*
X136350000Y-97675000D03*
X136350000Y-100215000D03*
X136350000Y-102755000D03*
%TO.C,J49*%
X145840000Y-114580000D03*
X145840000Y-117120000D03*
X145840000Y-119660000D03*
X145840000Y-122200000D03*
%TO.C,J4*%
X145940000Y-41190000D03*
X145940000Y-43730000D03*
X145940000Y-46270000D03*
X145940000Y-48810000D03*
%TO.C,J42*%
X145990000Y-90055000D03*
X145990000Y-92595000D03*
X145990000Y-95135000D03*
X145990000Y-97675000D03*
%TO.C,J35*%
X146000000Y-65590000D03*
X146000000Y-68130000D03*
X146000000Y-70670000D03*
X146000000Y-73210000D03*
%TO.C,J28*%
X149460000Y-127700000D03*
%TO.C,J29*%
X149460000Y-133100000D03*
%TO.C,J28*%
X152000000Y-127700000D03*
%TO.C,J29*%
X152000000Y-133100000D03*
D15*
%TO.C,SW1*%
X96250000Y-49050000D03*
X96250000Y-53550000D03*
X102750000Y-49050000D03*
X102750000Y-53550000D03*
D16*
%TO.C,U2*%
X50917500Y-87457500D03*
X53457500Y-87457500D03*
X55997500Y-87457500D03*
%TD*%
D17*
X135700000Y-132200000D03*
X137300000Y-142600000D03*
D18*
%TO.C,J17*%
X35650000Y-86987500D03*
X35650000Y-90947500D03*
%TO.C,J18*%
X35700000Y-128802500D03*
X35700000Y-132762500D03*
%TO.C,J16*%
X121400000Y-135400000D03*
X121400000Y-139360000D03*
D19*
%TO.C,M1*%
X30000000Y-30000000D03*
X30000000Y-140000000D03*
X150000000Y-30000000D03*
X150000000Y-140000000D03*
M02*
