%TF.GenerationSoftware,KiCad,Pcbnew,9.0.6*%
%TF.CreationDate,2026-02-08T16:41:29-05:00*%
%TF.ProjectId,1_Distribution_Board,315f4469-7374-4726-9962-7574696f6e5f,0.3*%
%TF.SameCoordinates,Original*%
%TF.FileFunction,Drillmap*%
%TF.FilePolarity,Positive*%
%FSLAX45Y45*%
G04 Gerber Fmt 4.5, Leading zero omitted, Abs format (unit mm)*
G04 Created by KiCad (PCBNEW 9.0.6) date 2026-02-08 16:41:29*
%MOMM*%
%LPD*%
G01*
G04 APERTURE LIST*
%ADD10C,0.050000*%
%ADD11C,0.200000*%
%ADD12C,0.100000*%
%ADD13C,0.110000*%
%ADD14C,0.120000*%
%ADD15C,0.170000*%
%ADD16C,0.320000*%
G04 APERTURE END LIST*
D10*
X3000000Y-14500000D02*
G75*
G02*
X2500000Y-14000000I0J500000D01*
G01*
X3000000Y-14500000D02*
X15000000Y-14500000D01*
X15000000Y-2500000D02*
X3000000Y-2500000D01*
X15500000Y-14000000D02*
X15500000Y-3000000D01*
X15000000Y-2500000D02*
G75*
G02*
X15500000Y-3000000I0J-500000D01*
G01*
X15500000Y-14000000D02*
G75*
G02*
X15000000Y-14500000I-500000J0D01*
G01*
X2500000Y-3000000D02*
G75*
G02*
X3000000Y-2500000I500000J0D01*
G01*
X2500000Y-3000000D02*
X2500000Y-14000000D01*
D11*
D12*
X3510000Y-11625000D02*
X3540000Y-11655000D01*
X3540000Y-11625000D02*
X3510000Y-11655000D01*
X3775000Y-11625000D02*
X3805000Y-11655000D01*
X3805000Y-11625000D02*
X3775000Y-11655000D01*
X4020000Y-11625000D02*
X4050000Y-11655000D01*
X4050000Y-11625000D02*
X4020000Y-11655000D01*
X4780000Y-11635000D02*
X4810000Y-11665000D01*
X4810000Y-11635000D02*
X4780000Y-11665000D01*
X5025000Y-11635000D02*
X5055000Y-11665000D01*
X5055000Y-11635000D02*
X5025000Y-11665000D01*
X5245000Y-3815000D02*
X5275000Y-3845000D01*
X5275000Y-3815000D02*
X5245000Y-3845000D01*
X5255000Y-4060000D02*
X5285000Y-4090000D01*
X5285000Y-4060000D02*
X5255000Y-4090000D01*
X5265000Y-3295000D02*
X5295000Y-3325000D01*
X5295000Y-3295000D02*
X5265000Y-3325000D01*
X5265000Y-3525000D02*
X5295000Y-3555000D01*
X5295000Y-3525000D02*
X5265000Y-3555000D01*
X5285000Y-11645000D02*
X5315000Y-11675000D01*
X5315000Y-11645000D02*
X5285000Y-11675000D01*
X5320000Y-5710000D02*
X5350000Y-5740000D01*
X5350000Y-5710000D02*
X5320000Y-5740000D01*
X5350000Y-6250000D02*
X5380000Y-6280000D01*
X5380000Y-6250000D02*
X5350000Y-6280000D01*
X5585000Y-6335000D02*
X5615000Y-6365000D01*
X5615000Y-6335000D02*
X5585000Y-6365000D01*
X5780000Y-5785000D02*
X5810000Y-5815000D01*
X5810000Y-5785000D02*
X5780000Y-5815000D01*
X5940000Y-6325000D02*
X5970000Y-6355000D01*
X5970000Y-6325000D02*
X5940000Y-6355000D01*
X5945000Y-13645000D02*
X5975000Y-13675000D01*
X5975000Y-13645000D02*
X5945000Y-13675000D01*
X6020000Y-3820000D02*
X6050000Y-3850000D01*
X6050000Y-3820000D02*
X6020000Y-3850000D01*
X6030000Y-3550000D02*
X6060000Y-3580000D01*
X6060000Y-3550000D02*
X6030000Y-3580000D01*
X6040000Y-4060000D02*
X6070000Y-4090000D01*
X6070000Y-4060000D02*
X6040000Y-4090000D01*
X6050000Y-5085000D02*
X6080000Y-5115000D01*
X6080000Y-5085000D02*
X6050000Y-5115000D01*
X6190000Y-5380000D02*
X6220000Y-5410000D01*
X6220000Y-5380000D02*
X6190000Y-5410000D01*
X6300000Y-11635000D02*
X6330000Y-11665000D01*
X6330000Y-11635000D02*
X6300000Y-11665000D01*
X6395000Y-12520000D02*
X6425000Y-12550000D01*
X6425000Y-12520000D02*
X6395000Y-12550000D01*
X6470000Y-8580000D02*
X6500000Y-8610000D01*
X6500000Y-8580000D02*
X6470000Y-8610000D01*
X6630000Y-3295000D02*
X6660000Y-3325000D01*
X6660000Y-3295000D02*
X6630000Y-3325000D01*
X6635000Y-4940000D02*
X6665000Y-4970000D01*
X6665000Y-4940000D02*
X6635000Y-4970000D01*
X6645000Y-6745000D02*
X6675000Y-6775000D01*
X6675000Y-6745000D02*
X6645000Y-6775000D01*
X6695000Y-5955000D02*
X6725000Y-5985000D01*
X6725000Y-5955000D02*
X6695000Y-5985000D01*
X6810000Y-6460000D02*
X6840000Y-6490000D01*
X6840000Y-6460000D02*
X6810000Y-6490000D01*
X6815000Y-11625000D02*
X6845000Y-11655000D01*
X6845000Y-11625000D02*
X6815000Y-11655000D01*
X6880000Y-4065000D02*
X6910000Y-4095000D01*
X6910000Y-4065000D02*
X6880000Y-4095000D01*
X6885000Y-3760000D02*
X6915000Y-3790000D01*
X6915000Y-3760000D02*
X6885000Y-3790000D01*
X7320000Y-12175000D02*
X7350000Y-12205000D01*
X7350000Y-12175000D02*
X7320000Y-12205000D01*
X7380000Y-7995000D02*
X7410000Y-8025000D01*
X7410000Y-7995000D02*
X7380000Y-8025000D01*
X7415000Y-4785000D02*
X7445000Y-4815000D01*
X7445000Y-4785000D02*
X7415000Y-4815000D01*
X7455000Y-5035000D02*
X7485000Y-5065000D01*
X7485000Y-5035000D02*
X7455000Y-5065000D01*
X7580000Y-11620000D02*
X7610000Y-11650000D01*
X7610000Y-11620000D02*
X7580000Y-11650000D01*
X7828200Y-11627500D02*
X7858200Y-11657500D01*
X7858200Y-11627500D02*
X7828200Y-11657500D01*
X7920000Y-4795000D02*
X7950000Y-4825000D01*
X7950000Y-4795000D02*
X7920000Y-4825000D01*
X8085000Y-11625000D02*
X8115000Y-11655000D01*
X8115000Y-11625000D02*
X8085000Y-11655000D01*
X8315000Y-11665000D02*
X8345000Y-11695000D01*
X8345000Y-11665000D02*
X8315000Y-11695000D01*
X8320000Y-10455000D02*
X8350000Y-10485000D01*
X8350000Y-10455000D02*
X8320000Y-10485000D01*
X8655000Y-12175000D02*
X8685000Y-12205000D01*
X8685000Y-12175000D02*
X8655000Y-12205000D01*
X8785000Y-5125000D02*
X8815000Y-5155000D01*
X8815000Y-5125000D02*
X8785000Y-5155000D01*
X9135000Y-13110000D02*
X9165000Y-13140000D01*
X9165000Y-13110000D02*
X9135000Y-13140000D01*
X9300000Y-3910000D02*
X9330000Y-3940000D01*
X9330000Y-3910000D02*
X9300000Y-3940000D01*
X9305000Y-4160000D02*
X9335000Y-4190000D01*
X9335000Y-4160000D02*
X9305000Y-4190000D01*
X9390000Y-9990000D02*
X9420000Y-10020000D01*
X9420000Y-9990000D02*
X9390000Y-10020000D01*
X9395000Y-3555000D02*
X9425000Y-3585000D01*
X9425000Y-3555000D02*
X9395000Y-3585000D01*
X9480000Y-13180000D02*
X9510000Y-13210000D01*
X9510000Y-13180000D02*
X9480000Y-13210000D01*
X9545000Y-3025000D02*
X9575000Y-3055000D01*
X9575000Y-3025000D02*
X9545000Y-3055000D01*
X9880000Y-3555000D02*
X9910000Y-3585000D01*
X9910000Y-3555000D02*
X9880000Y-3585000D01*
X10230000Y-3575000D02*
X10260000Y-3605000D01*
X10260000Y-3575000D02*
X10230000Y-3605000D01*
X10525000Y-3585000D02*
X10555000Y-3615000D01*
X10555000Y-3585000D02*
X10525000Y-3615000D01*
X10555000Y-13625000D02*
X10585000Y-13655000D01*
X10585000Y-13625000D02*
X10555000Y-13655000D01*
X10725000Y-5740000D02*
X10755000Y-5770000D01*
X10755000Y-5740000D02*
X10725000Y-5770000D01*
X10735000Y-5535000D02*
X10765000Y-5565000D01*
X10765000Y-5535000D02*
X10735000Y-5565000D01*
X10980000Y-13665000D02*
X11010000Y-13695000D01*
X11010000Y-13665000D02*
X10980000Y-13695000D01*
X11055000Y-4205000D02*
X11085000Y-4235000D01*
X11085000Y-4205000D02*
X11055000Y-4235000D01*
X11112500Y-3982500D02*
X11142500Y-4012500D01*
X11142500Y-3982500D02*
X11112500Y-4012500D01*
X11120000Y-11315000D02*
X11150000Y-11345000D01*
X11150000Y-11315000D02*
X11120000Y-11345000D01*
X11127000Y-8855000D02*
X11157000Y-8885000D01*
X11157000Y-8855000D02*
X11127000Y-8885000D01*
X11135000Y-6415000D02*
X11165000Y-6445000D01*
X11165000Y-6415000D02*
X11135000Y-6445000D01*
X11435000Y-3595000D02*
X11465000Y-3625000D01*
X11465000Y-3595000D02*
X11435000Y-3625000D01*
X11445000Y-4795000D02*
X11475000Y-4825000D01*
X11475000Y-4795000D02*
X11445000Y-4825000D01*
X11535000Y-4195000D02*
X11565000Y-4225000D01*
X11565000Y-4195000D02*
X11535000Y-4225000D01*
X11765000Y-12585000D02*
X11795000Y-12615000D01*
X11795000Y-12585000D02*
X11765000Y-12615000D01*
X11770000Y-5135000D02*
X11800000Y-5165000D01*
X11800000Y-5135000D02*
X11770000Y-5165000D01*
X11895000Y-11193000D02*
X11925000Y-11223000D01*
X11925000Y-11193000D02*
X11895000Y-11223000D01*
X11895000Y-11443000D02*
X11925000Y-11473000D01*
X11925000Y-11443000D02*
X11895000Y-11473000D01*
X12005000Y-4195000D02*
X12035000Y-4225000D01*
X12035000Y-4195000D02*
X12005000Y-4225000D01*
X12105000Y-12585000D02*
X12135000Y-12615000D01*
X12135000Y-12585000D02*
X12105000Y-12615000D01*
X12150000Y-7700000D02*
X12180000Y-7730000D01*
X12180000Y-7700000D02*
X12150000Y-7730000D01*
X12160000Y-3630000D02*
X12190000Y-3660000D01*
X12190000Y-3630000D02*
X12160000Y-3660000D01*
X12175000Y-4005000D02*
X12205000Y-4035000D01*
X12205000Y-4005000D02*
X12175000Y-4035000D01*
X12185000Y-4565000D02*
X12215000Y-4595000D01*
X12215000Y-4565000D02*
X12185000Y-4595000D01*
X12555000Y-11165000D02*
X12585000Y-11195000D01*
X12585000Y-11165000D02*
X12555000Y-11195000D01*
X12615000Y-6215000D02*
X12645000Y-6245000D01*
X12645000Y-6215000D02*
X12615000Y-6245000D01*
X12615000Y-8665000D02*
X12645000Y-8695000D01*
X12645000Y-8665000D02*
X12615000Y-8695000D01*
X12669000Y-11115000D02*
X12699000Y-11145000D01*
X12699000Y-11115000D02*
X12669000Y-11145000D01*
X12720000Y-9145000D02*
X12750000Y-9175000D01*
X12750000Y-9145000D02*
X12720000Y-9175000D01*
X12725000Y-4215000D02*
X12755000Y-4245000D01*
X12755000Y-4215000D02*
X12725000Y-4245000D01*
X12725000Y-5115000D02*
X12755000Y-5145000D01*
X12755000Y-5115000D02*
X12725000Y-5145000D01*
X12725000Y-6685000D02*
X12755000Y-6715000D01*
X12755000Y-6685000D02*
X12725000Y-6715000D01*
X12725000Y-10005000D02*
X12755000Y-10035000D01*
X12755000Y-10005000D02*
X12725000Y-10035000D01*
X12725000Y-11605000D02*
X12755000Y-11635000D01*
X12755000Y-11605000D02*
X12725000Y-11635000D01*
X12725000Y-12455000D02*
X12755000Y-12485000D01*
X12755000Y-12455000D02*
X12725000Y-12485000D01*
X12729000Y-7561000D02*
X12759000Y-7591000D01*
X12759000Y-7561000D02*
X12729000Y-7591000D01*
X12765000Y-8655000D02*
X12795000Y-8685000D01*
X12795000Y-8655000D02*
X12765000Y-8685000D01*
X12785000Y-6205000D02*
X12815000Y-6235000D01*
X12815000Y-6205000D02*
X12785000Y-6235000D01*
X13245000Y-3035000D02*
X13275000Y-3065000D01*
X13275000Y-3035000D02*
X13245000Y-3065000D01*
X13260000Y-10925000D02*
X13290000Y-10955000D01*
X13290000Y-10925000D02*
X13260000Y-10955000D01*
X13275000Y-6045000D02*
X13305000Y-6075000D01*
X13305000Y-6045000D02*
X13275000Y-6075000D01*
X13280000Y-8470000D02*
X13310000Y-8500000D01*
X13310000Y-8470000D02*
X13280000Y-8500000D01*
X13350000Y-3570000D02*
X13380000Y-3600000D01*
X13380000Y-3570000D02*
X13350000Y-3600000D01*
X14393500Y-12743000D02*
G75*
G02*
X14318500Y-12743000I-37500J0D01*
G01*
X14318500Y-12743000D02*
G75*
G02*
X14393500Y-12743000I37500J0D01*
G01*
X14393500Y-12870000D02*
G75*
G02*
X14318500Y-12870000I-37500J0D01*
G01*
X14318500Y-12870000D02*
G75*
G02*
X14393500Y-12870000I37500J0D01*
G01*
X14393500Y-12997000D02*
G75*
G02*
X14318500Y-12997000I-37500J0D01*
G01*
X14318500Y-12997000D02*
G75*
G02*
X14393500Y-12997000I37500J0D01*
G01*
X14393500Y-13543000D02*
G75*
G02*
X14318500Y-13543000I-37500J0D01*
G01*
X14318500Y-13543000D02*
G75*
G02*
X14393500Y-13543000I37500J0D01*
G01*
X14393500Y-13670000D02*
G75*
G02*
X14318500Y-13670000I-37500J0D01*
G01*
X14318500Y-13670000D02*
G75*
G02*
X14393500Y-13670000I37500J0D01*
G01*
X14393500Y-13797000D02*
G75*
G02*
X14318500Y-13797000I-37500J0D01*
G01*
X14318500Y-13797000D02*
G75*
G02*
X14393500Y-13797000I37500J0D01*
G01*
X15211500Y-4200000D02*
G75*
G02*
X15136500Y-4200000I-37500J0D01*
G01*
X15136500Y-4200000D02*
G75*
G02*
X15211500Y-4200000I37500J0D01*
G01*
X15211500Y-4400000D02*
G75*
G02*
X15136500Y-4400000I-37500J0D01*
G01*
X15136500Y-4400000D02*
G75*
G02*
X15211500Y-4400000I37500J0D01*
G01*
X15211500Y-4600000D02*
G75*
G02*
X15136500Y-4600000I-37500J0D01*
G01*
X15136500Y-4600000D02*
G75*
G02*
X15211500Y-4600000I37500J0D01*
G01*
X15211500Y-4800000D02*
G75*
G02*
X15136500Y-4800000I-37500J0D01*
G01*
X15136500Y-4800000D02*
G75*
G02*
X15211500Y-4800000I37500J0D01*
G01*
X15217500Y-6640000D02*
G75*
G02*
X15142500Y-6640000I-37500J0D01*
G01*
X15142500Y-6640000D02*
G75*
G02*
X15217500Y-6640000I37500J0D01*
G01*
X15217500Y-6840000D02*
G75*
G02*
X15142500Y-6840000I-37500J0D01*
G01*
X15142500Y-6840000D02*
G75*
G02*
X15217500Y-6840000I37500J0D01*
G01*
X15217500Y-7040000D02*
G75*
G02*
X15142500Y-7040000I-37500J0D01*
G01*
X15142500Y-7040000D02*
G75*
G02*
X15217500Y-7040000I37500J0D01*
G01*
X15217500Y-7240000D02*
G75*
G02*
X15142500Y-7240000I-37500J0D01*
G01*
X15142500Y-7240000D02*
G75*
G02*
X15217500Y-7240000I37500J0D01*
G01*
X15217500Y-9086500D02*
G75*
G02*
X15142500Y-9086500I-37500J0D01*
G01*
X15142500Y-9086500D02*
G75*
G02*
X15217500Y-9086500I37500J0D01*
G01*
X15217500Y-9286500D02*
G75*
G02*
X15142500Y-9286500I-37500J0D01*
G01*
X15142500Y-9286500D02*
G75*
G02*
X15217500Y-9286500I37500J0D01*
G01*
X15217500Y-9486500D02*
G75*
G02*
X15142500Y-9486500I-37500J0D01*
G01*
X15142500Y-9486500D02*
G75*
G02*
X15217500Y-9486500I37500J0D01*
G01*
X15217500Y-9686500D02*
G75*
G02*
X15142500Y-9686500I-37500J0D01*
G01*
X15142500Y-9686500D02*
G75*
G02*
X15217500Y-9686500I37500J0D01*
G01*
X15217500Y-11539000D02*
G75*
G02*
X15142500Y-11539000I-37500J0D01*
G01*
X15142500Y-11539000D02*
G75*
G02*
X15217500Y-11539000I37500J0D01*
G01*
X15217500Y-11739000D02*
G75*
G02*
X15142500Y-11739000I-37500J0D01*
G01*
X15142500Y-11739000D02*
G75*
G02*
X15217500Y-11739000I37500J0D01*
G01*
X15217500Y-11939000D02*
G75*
G02*
X15142500Y-11939000I-37500J0D01*
G01*
X15142500Y-11939000D02*
G75*
G02*
X15217500Y-11939000I37500J0D01*
G01*
X15217500Y-12139000D02*
G75*
G02*
X15142500Y-12139000I-37500J0D01*
G01*
X15142500Y-12139000D02*
G75*
G02*
X15217500Y-12139000I37500J0D01*
G01*
X3150000Y-4825265D02*
X3150000Y-4905265D01*
X3110000Y-4865265D02*
X3190000Y-4865265D01*
X3150000Y-5075265D02*
X3150000Y-5155265D01*
X3110000Y-5115265D02*
X3190000Y-5115265D01*
X3150000Y-7475265D02*
X3150000Y-7555265D01*
X3110000Y-7515265D02*
X3190000Y-7515265D01*
X3150000Y-7725265D02*
X3150000Y-7805265D01*
X3110000Y-7765265D02*
X3190000Y-7765265D01*
X14239000Y-3069735D02*
X14239000Y-3149735D01*
X14199000Y-3109735D02*
X14279000Y-3109735D01*
X14239000Y-3319735D02*
X14239000Y-3399735D01*
X14199000Y-3359735D02*
X14279000Y-3359735D01*
X14285000Y-10582735D02*
X14285000Y-10662735D01*
X14245000Y-10622735D02*
X14325000Y-10622735D01*
X14285000Y-10832735D02*
X14285000Y-10912735D01*
X14245000Y-10872735D02*
X14325000Y-10872735D01*
X14298132Y-8128735D02*
X14298132Y-8208735D01*
X14258132Y-8168735D02*
X14338132Y-8168735D01*
X14298132Y-8378735D02*
X14298132Y-8458735D01*
X14258132Y-8418735D02*
X14338132Y-8418735D01*
X14300000Y-5684735D02*
X14300000Y-5764735D01*
X14260000Y-5724735D02*
X14340000Y-5724735D01*
X14300000Y-5934735D02*
X14300000Y-6014735D01*
X14260000Y-5974735D02*
X14340000Y-5974735D01*
X4483588Y-12758588D02*
X4483588Y-12691412D01*
X4416412Y-12691412D01*
X4416412Y-12758588D01*
X4483588Y-12758588D01*
X4508588Y-13808588D02*
X4508588Y-13741412D01*
X4441412Y-13741412D01*
X4441412Y-13808588D01*
X4508588Y-13808588D01*
X4733588Y-12758588D02*
X4733588Y-12691412D01*
X4666412Y-12691412D01*
X4666412Y-12758588D01*
X4733588Y-12758588D01*
X4758588Y-13808588D02*
X4758588Y-13741412D01*
X4691412Y-13741412D01*
X4691412Y-13808588D01*
X4758588Y-13808588D01*
X4983588Y-12758588D02*
X4983588Y-12691412D01*
X4916412Y-12691412D01*
X4916412Y-12758588D01*
X4983588Y-12758588D01*
X5008588Y-13808588D02*
X5008588Y-13741412D01*
X4941412Y-13741412D01*
X4941412Y-13808588D01*
X5008588Y-13808588D01*
X5233588Y-12758588D02*
X5233588Y-12691412D01*
X5166412Y-12691412D01*
X5166412Y-12758588D01*
X5233588Y-12758588D01*
X5258588Y-13808588D02*
X5258588Y-13741412D01*
X5191412Y-13741412D01*
X5191412Y-13808588D01*
X5258588Y-13808588D01*
X5483588Y-12758588D02*
X5483588Y-12691412D01*
X5416412Y-12691412D01*
X5416412Y-12758588D01*
X5483588Y-12758588D01*
X5733588Y-12758588D02*
X5733588Y-12691412D01*
X5666412Y-12691412D01*
X5666412Y-12758588D01*
X5733588Y-12758588D01*
X5983588Y-12758588D02*
X5983588Y-12691412D01*
X5916412Y-12691412D01*
X5916412Y-12758588D01*
X5983588Y-12758588D01*
X6233588Y-12758588D02*
X6233588Y-12691412D01*
X6166412Y-12691412D01*
X6166412Y-12758588D01*
X6233588Y-12758588D01*
X6483588Y-12758588D02*
X6483588Y-12691412D01*
X6416412Y-12691412D01*
X6416412Y-12758588D01*
X6483588Y-12758588D01*
X6733588Y-12758588D02*
X6733588Y-12691412D01*
X6666412Y-12691412D01*
X6666412Y-12758588D01*
X6733588Y-12758588D01*
X2873500Y-3575000D02*
X2923500Y-3525000D01*
X2873500Y-3475000D01*
X2823500Y-3525000D01*
X2873500Y-3575000D01*
X2873500Y-4250000D02*
X2923500Y-4200000D01*
X2873500Y-4150000D01*
X2823500Y-4200000D01*
X2873500Y-4250000D01*
X2873500Y-6150000D02*
X2923500Y-6100000D01*
X2873500Y-6050000D01*
X2823500Y-6100000D01*
X2873500Y-6150000D01*
X2873500Y-6900000D02*
X2923500Y-6850000D01*
X2873500Y-6800000D01*
X2823500Y-6850000D01*
X2873500Y-6900000D01*
X2890700Y-10242500D02*
X2940700Y-10192500D01*
X2890700Y-10142500D01*
X2840700Y-10192500D01*
X2890700Y-10242500D01*
X2890700Y-10496500D02*
X2940700Y-10446500D01*
X2890700Y-10396500D01*
X2840700Y-10446500D01*
X2890700Y-10496500D01*
X2890700Y-10750500D02*
X2940700Y-10700500D01*
X2890700Y-10650500D01*
X2840700Y-10700500D01*
X2890700Y-10750500D01*
X2890700Y-11004500D02*
X2940700Y-10954500D01*
X2890700Y-10904500D01*
X2840700Y-10954500D01*
X2890700Y-11004500D01*
X2890700Y-11258500D02*
X2940700Y-11208500D01*
X2890700Y-11158500D01*
X2840700Y-11208500D01*
X2890700Y-11258500D01*
X2890700Y-11512500D02*
X2940700Y-11462500D01*
X2890700Y-11412500D01*
X2840700Y-11462500D01*
X2890700Y-11512500D01*
X3127500Y-3575000D02*
X3177500Y-3525000D01*
X3127500Y-3475000D01*
X3077500Y-3525000D01*
X3127500Y-3575000D01*
X3127500Y-4250000D02*
X3177500Y-4200000D01*
X3127500Y-4150000D01*
X3077500Y-4200000D01*
X3127500Y-4250000D01*
X3127500Y-6150000D02*
X3177500Y-6100000D01*
X3127500Y-6050000D01*
X3077500Y-6100000D01*
X3127500Y-6150000D01*
X3127500Y-6900000D02*
X3177500Y-6850000D01*
X3127500Y-6800000D01*
X3077500Y-6850000D01*
X3127500Y-6900000D01*
X3398200Y-11512500D02*
X3448200Y-11462500D01*
X3398200Y-11412500D01*
X3348200Y-11462500D01*
X3398200Y-11512500D01*
X3652200Y-11512500D02*
X3702200Y-11462500D01*
X3652200Y-11412500D01*
X3602200Y-11462500D01*
X3652200Y-11512500D01*
X3850000Y-2980000D02*
X3900000Y-2930000D01*
X3850000Y-2880000D01*
X3800000Y-2930000D01*
X3850000Y-2980000D01*
X3850000Y-3234000D02*
X3900000Y-3184000D01*
X3850000Y-3134000D01*
X3800000Y-3184000D01*
X3850000Y-3234000D01*
X3850000Y-3488000D02*
X3900000Y-3438000D01*
X3850000Y-3388000D01*
X3800000Y-3438000D01*
X3850000Y-3488000D01*
X3850000Y-3742000D02*
X3900000Y-3692000D01*
X3850000Y-3642000D01*
X3800000Y-3692000D01*
X3850000Y-3742000D01*
X3850000Y-3996000D02*
X3900000Y-3946000D01*
X3850000Y-3896000D01*
X3800000Y-3946000D01*
X3850000Y-3996000D01*
X3850000Y-4250000D02*
X3900000Y-4200000D01*
X3850000Y-4150000D01*
X3800000Y-4200000D01*
X3850000Y-4250000D01*
X3850000Y-4504000D02*
X3900000Y-4454000D01*
X3850000Y-4404000D01*
X3800000Y-4454000D01*
X3850000Y-4504000D01*
X3850000Y-4758000D02*
X3900000Y-4708000D01*
X3850000Y-4658000D01*
X3800000Y-4708000D01*
X3850000Y-4758000D01*
X3850000Y-5638000D02*
X3900000Y-5588000D01*
X3850000Y-5538000D01*
X3800000Y-5588000D01*
X3850000Y-5638000D01*
X3850000Y-5892000D02*
X3900000Y-5842000D01*
X3850000Y-5792000D01*
X3800000Y-5842000D01*
X3850000Y-5892000D01*
X3850000Y-6146000D02*
X3900000Y-6096000D01*
X3850000Y-6046000D01*
X3800000Y-6096000D01*
X3850000Y-6146000D01*
X3850000Y-6400000D02*
X3900000Y-6350000D01*
X3850000Y-6300000D01*
X3800000Y-6350000D01*
X3850000Y-6400000D01*
X3850000Y-6654000D02*
X3900000Y-6604000D01*
X3850000Y-6554000D01*
X3800000Y-6604000D01*
X3850000Y-6654000D01*
X3850000Y-6908000D02*
X3900000Y-6858000D01*
X3850000Y-6808000D01*
X3800000Y-6858000D01*
X3850000Y-6908000D01*
X3850000Y-7162000D02*
X3900000Y-7112000D01*
X3850000Y-7062000D01*
X3800000Y-7112000D01*
X3850000Y-7162000D01*
X3850000Y-7416000D02*
X3900000Y-7366000D01*
X3850000Y-7316000D01*
X3800000Y-7366000D01*
X3850000Y-7416000D01*
X3906200Y-11512500D02*
X3956200Y-11462500D01*
X3906200Y-11412500D01*
X3856200Y-11462500D01*
X3906200Y-11512500D01*
X4160200Y-11512500D02*
X4210200Y-11462500D01*
X4160200Y-11412500D01*
X4110200Y-11462500D01*
X4160200Y-11512500D01*
X4668200Y-11512500D02*
X4718200Y-11462500D01*
X4668200Y-11412500D01*
X4618200Y-11462500D01*
X4668200Y-11512500D01*
X4922200Y-11512500D02*
X4972200Y-11462500D01*
X4922200Y-11412500D01*
X4872200Y-11462500D01*
X4922200Y-11512500D01*
X5120000Y-2980000D02*
X5170000Y-2930000D01*
X5120000Y-2880000D01*
X5070000Y-2930000D01*
X5120000Y-2980000D01*
X5120000Y-3234000D02*
X5170000Y-3184000D01*
X5120000Y-3134000D01*
X5070000Y-3184000D01*
X5120000Y-3234000D01*
X5120000Y-3488000D02*
X5170000Y-3438000D01*
X5120000Y-3388000D01*
X5070000Y-3438000D01*
X5120000Y-3488000D01*
X5120000Y-3742000D02*
X5170000Y-3692000D01*
X5120000Y-3642000D01*
X5070000Y-3692000D01*
X5120000Y-3742000D01*
X5120000Y-3996000D02*
X5170000Y-3946000D01*
X5120000Y-3896000D01*
X5070000Y-3946000D01*
X5120000Y-3996000D01*
X5120000Y-4250000D02*
X5170000Y-4200000D01*
X5120000Y-4150000D01*
X5070000Y-4200000D01*
X5120000Y-4250000D01*
X5120000Y-4504000D02*
X5170000Y-4454000D01*
X5120000Y-4404000D01*
X5070000Y-4454000D01*
X5120000Y-4504000D01*
X5120000Y-4758000D02*
X5170000Y-4708000D01*
X5120000Y-4658000D01*
X5070000Y-4708000D01*
X5120000Y-4758000D01*
X5120000Y-5638000D02*
X5170000Y-5588000D01*
X5120000Y-5538000D01*
X5070000Y-5588000D01*
X5120000Y-5638000D01*
X5120000Y-5892000D02*
X5170000Y-5842000D01*
X5120000Y-5792000D01*
X5070000Y-5842000D01*
X5120000Y-5892000D01*
X5120000Y-6146000D02*
X5170000Y-6096000D01*
X5120000Y-6046000D01*
X5070000Y-6096000D01*
X5120000Y-6146000D01*
X5120000Y-6400000D02*
X5170000Y-6350000D01*
X5120000Y-6300000D01*
X5070000Y-6350000D01*
X5120000Y-6400000D01*
X5120000Y-6654000D02*
X5170000Y-6604000D01*
X5120000Y-6554000D01*
X5070000Y-6604000D01*
X5120000Y-6654000D01*
X5120000Y-6908000D02*
X5170000Y-6858000D01*
X5120000Y-6808000D01*
X5070000Y-6858000D01*
X5120000Y-6908000D01*
X5120000Y-7162000D02*
X5170000Y-7112000D01*
X5120000Y-7062000D01*
X5070000Y-7112000D01*
X5120000Y-7162000D01*
X5120000Y-7416000D02*
X5170000Y-7366000D01*
X5120000Y-7316000D01*
X5070000Y-7366000D01*
X5120000Y-7416000D01*
X5176200Y-11512500D02*
X5226200Y-11462500D01*
X5176200Y-11412500D01*
X5126200Y-11462500D01*
X5176200Y-11512500D01*
X5430200Y-11512500D02*
X5480200Y-11462500D01*
X5430200Y-11412500D01*
X5380200Y-11462500D01*
X5430200Y-11512500D01*
X6193200Y-11512500D02*
X6243200Y-11462500D01*
X6193200Y-11412500D01*
X6143200Y-11462500D01*
X6193200Y-11512500D01*
X6217000Y-13625000D02*
X6267000Y-13575000D01*
X6217000Y-13525000D01*
X6167000Y-13575000D01*
X6217000Y-13625000D01*
X6217000Y-13879000D02*
X6267000Y-13829000D01*
X6217000Y-13779000D01*
X6167000Y-13829000D01*
X6217000Y-13879000D01*
X6447200Y-11512500D02*
X6497200Y-11462500D01*
X6447200Y-11412500D01*
X6397200Y-11462500D01*
X6447200Y-11512500D01*
X6471000Y-13625000D02*
X6521000Y-13575000D01*
X6471000Y-13525000D01*
X6421000Y-13575000D01*
X6471000Y-13625000D01*
X6471000Y-13879000D02*
X6521000Y-13829000D01*
X6471000Y-13779000D01*
X6421000Y-13829000D01*
X6471000Y-13879000D01*
X6701200Y-11512500D02*
X6751200Y-11462500D01*
X6701200Y-11412500D01*
X6651200Y-11462500D01*
X6701200Y-11512500D01*
X6725000Y-13625000D02*
X6775000Y-13575000D01*
X6725000Y-13525000D01*
X6675000Y-13575000D01*
X6725000Y-13625000D01*
X6725000Y-13879000D02*
X6775000Y-13829000D01*
X6725000Y-13779000D01*
X6675000Y-13829000D01*
X6725000Y-13879000D01*
X6955200Y-11512500D02*
X7005200Y-11462500D01*
X6955200Y-11412500D01*
X6905200Y-11462500D01*
X6955200Y-11512500D01*
X6979000Y-13625000D02*
X7029000Y-13575000D01*
X6979000Y-13525000D01*
X6929000Y-13575000D01*
X6979000Y-13625000D01*
X6979000Y-13879000D02*
X7029000Y-13829000D01*
X6979000Y-13779000D01*
X6929000Y-13829000D01*
X6979000Y-13879000D01*
X7211000Y-2818000D02*
X7261000Y-2768000D01*
X7211000Y-2718000D01*
X7161000Y-2768000D01*
X7211000Y-2818000D01*
X7211000Y-3072000D02*
X7261000Y-3022000D01*
X7211000Y-2972000D01*
X7161000Y-3022000D01*
X7211000Y-3072000D01*
X7211000Y-3326000D02*
X7261000Y-3276000D01*
X7211000Y-3226000D01*
X7161000Y-3276000D01*
X7211000Y-3326000D01*
X7211000Y-3580000D02*
X7261000Y-3530000D01*
X7211000Y-3480000D01*
X7161000Y-3530000D01*
X7211000Y-3580000D01*
X7211000Y-3834000D02*
X7261000Y-3784000D01*
X7211000Y-3734000D01*
X7161000Y-3784000D01*
X7211000Y-3834000D01*
X7211000Y-4088000D02*
X7261000Y-4038000D01*
X7211000Y-3988000D01*
X7161000Y-4038000D01*
X7211000Y-4088000D01*
X7211000Y-4342000D02*
X7261000Y-4292000D01*
X7211000Y-4242000D01*
X7161000Y-4292000D01*
X7211000Y-4342000D01*
X7211000Y-4596000D02*
X7261000Y-4546000D01*
X7211000Y-4496000D01*
X7161000Y-4546000D01*
X7211000Y-4596000D01*
X7211000Y-4850000D02*
X7261000Y-4800000D01*
X7211000Y-4750000D01*
X7161000Y-4800000D01*
X7211000Y-4850000D01*
X7211000Y-5104000D02*
X7261000Y-5054000D01*
X7211000Y-5004000D01*
X7161000Y-5054000D01*
X7211000Y-5104000D01*
X7211000Y-5358000D02*
X7261000Y-5308000D01*
X7211000Y-5258000D01*
X7161000Y-5308000D01*
X7211000Y-5358000D01*
X7211000Y-5612000D02*
X7261000Y-5562000D01*
X7211000Y-5512000D01*
X7161000Y-5562000D01*
X7211000Y-5612000D01*
X7211000Y-5866000D02*
X7261000Y-5816000D01*
X7211000Y-5766000D01*
X7161000Y-5816000D01*
X7211000Y-5866000D01*
X7211000Y-6120000D02*
X7261000Y-6070000D01*
X7211000Y-6020000D01*
X7161000Y-6070000D01*
X7211000Y-6120000D01*
X7211000Y-6374000D02*
X7261000Y-6324000D01*
X7211000Y-6274000D01*
X7161000Y-6324000D01*
X7211000Y-6374000D01*
X7211000Y-6628000D02*
X7261000Y-6578000D01*
X7211000Y-6528000D01*
X7161000Y-6578000D01*
X7211000Y-6628000D01*
X7211000Y-6882000D02*
X7261000Y-6832000D01*
X7211000Y-6782000D01*
X7161000Y-6832000D01*
X7211000Y-6882000D01*
X7211000Y-7136000D02*
X7261000Y-7086000D01*
X7211000Y-7036000D01*
X7161000Y-7086000D01*
X7211000Y-7136000D01*
X7211000Y-7390000D02*
X7261000Y-7340000D01*
X7211000Y-7290000D01*
X7161000Y-7340000D01*
X7211000Y-7390000D01*
X7211000Y-7644000D02*
X7261000Y-7594000D01*
X7211000Y-7544000D01*
X7161000Y-7594000D01*
X7211000Y-7644000D01*
X7233000Y-13625000D02*
X7283000Y-13575000D01*
X7233000Y-13525000D01*
X7183000Y-13575000D01*
X7233000Y-13625000D01*
X7233000Y-13879000D02*
X7283000Y-13829000D01*
X7233000Y-13779000D01*
X7183000Y-13829000D01*
X7233000Y-13879000D01*
X7400000Y-12455000D02*
X7450000Y-12405000D01*
X7400000Y-12355000D01*
X7350000Y-12405000D01*
X7400000Y-12455000D01*
X7463200Y-11512500D02*
X7513200Y-11462500D01*
X7463200Y-11412500D01*
X7413200Y-11462500D01*
X7463200Y-11512500D01*
X7487000Y-13625000D02*
X7537000Y-13575000D01*
X7487000Y-13525000D01*
X7437000Y-13575000D01*
X7487000Y-13625000D01*
X7487000Y-13879000D02*
X7537000Y-13829000D01*
X7487000Y-13779000D01*
X7437000Y-13829000D01*
X7487000Y-13879000D01*
X7654000Y-12455000D02*
X7704000Y-12405000D01*
X7654000Y-12355000D01*
X7604000Y-12405000D01*
X7654000Y-12455000D01*
X7717200Y-11512500D02*
X7767200Y-11462500D01*
X7717200Y-11412500D01*
X7667200Y-11462500D01*
X7717200Y-11512500D01*
X7741000Y-13625000D02*
X7791000Y-13575000D01*
X7741000Y-13525000D01*
X7691000Y-13575000D01*
X7741000Y-13625000D01*
X7741000Y-13879000D02*
X7791000Y-13829000D01*
X7741000Y-13779000D01*
X7691000Y-13829000D01*
X7741000Y-13879000D01*
X7908000Y-12455000D02*
X7958000Y-12405000D01*
X7908000Y-12355000D01*
X7858000Y-12405000D01*
X7908000Y-12455000D01*
X7971200Y-11512500D02*
X8021200Y-11462500D01*
X7971200Y-11412500D01*
X7921200Y-11462500D01*
X7971200Y-11512500D01*
X7995000Y-13625000D02*
X8045000Y-13575000D01*
X7995000Y-13525000D01*
X7945000Y-13575000D01*
X7995000Y-13625000D01*
X7995000Y-13879000D02*
X8045000Y-13829000D01*
X7995000Y-13779000D01*
X7945000Y-13829000D01*
X7995000Y-13879000D01*
X8162000Y-12455000D02*
X8212000Y-12405000D01*
X8162000Y-12355000D01*
X8112000Y-12405000D01*
X8162000Y-12455000D01*
X8225200Y-11512500D02*
X8275200Y-11462500D01*
X8225200Y-11412500D01*
X8175200Y-11462500D01*
X8225200Y-11512500D01*
X8416000Y-12455000D02*
X8466000Y-12405000D01*
X8416000Y-12355000D01*
X8366000Y-12405000D01*
X8416000Y-12455000D01*
X8670000Y-12455000D02*
X8720000Y-12405000D01*
X8670000Y-12355000D01*
X8620000Y-12405000D01*
X8670000Y-12455000D01*
X8720000Y-10242500D02*
X8770000Y-10192500D01*
X8720000Y-10142500D01*
X8670000Y-10192500D01*
X8720000Y-10242500D01*
X8720000Y-10496500D02*
X8770000Y-10446500D01*
X8720000Y-10396500D01*
X8670000Y-10446500D01*
X8720000Y-10496500D01*
X8720000Y-10750500D02*
X8770000Y-10700500D01*
X8720000Y-10650500D01*
X8670000Y-10700500D01*
X8720000Y-10750500D01*
X8720000Y-11004500D02*
X8770000Y-10954500D01*
X8720000Y-10904500D01*
X8670000Y-10954500D01*
X8720000Y-11004500D01*
X8720000Y-11258500D02*
X8770000Y-11208500D01*
X8720000Y-11158500D01*
X8670000Y-11208500D01*
X8720000Y-11258500D01*
X8720000Y-11512500D02*
X8770000Y-11462500D01*
X8720000Y-11412500D01*
X8670000Y-11462500D01*
X8720000Y-11512500D01*
X8989000Y-2818000D02*
X9039000Y-2768000D01*
X8989000Y-2718000D01*
X8939000Y-2768000D01*
X8989000Y-2818000D01*
X8989000Y-3072000D02*
X9039000Y-3022000D01*
X8989000Y-2972000D01*
X8939000Y-3022000D01*
X8989000Y-3072000D01*
X8989000Y-3326000D02*
X9039000Y-3276000D01*
X8989000Y-3226000D01*
X8939000Y-3276000D01*
X8989000Y-3326000D01*
X8989000Y-3580000D02*
X9039000Y-3530000D01*
X8989000Y-3480000D01*
X8939000Y-3530000D01*
X8989000Y-3580000D01*
X8989000Y-3834000D02*
X9039000Y-3784000D01*
X8989000Y-3734000D01*
X8939000Y-3784000D01*
X8989000Y-3834000D01*
X8989000Y-4088000D02*
X9039000Y-4038000D01*
X8989000Y-3988000D01*
X8939000Y-4038000D01*
X8989000Y-4088000D01*
X8989000Y-4342000D02*
X9039000Y-4292000D01*
X8989000Y-4242000D01*
X8939000Y-4292000D01*
X8989000Y-4342000D01*
X8989000Y-4596000D02*
X9039000Y-4546000D01*
X8989000Y-4496000D01*
X8939000Y-4546000D01*
X8989000Y-4596000D01*
X8989000Y-4850000D02*
X9039000Y-4800000D01*
X8989000Y-4750000D01*
X8939000Y-4800000D01*
X8989000Y-4850000D01*
X8989000Y-5104000D02*
X9039000Y-5054000D01*
X8989000Y-5004000D01*
X8939000Y-5054000D01*
X8989000Y-5104000D01*
X8989000Y-5358000D02*
X9039000Y-5308000D01*
X8989000Y-5258000D01*
X8939000Y-5308000D01*
X8989000Y-5358000D01*
X8989000Y-5612000D02*
X9039000Y-5562000D01*
X8989000Y-5512000D01*
X8939000Y-5562000D01*
X8989000Y-5612000D01*
X8989000Y-5866000D02*
X9039000Y-5816000D01*
X8989000Y-5766000D01*
X8939000Y-5816000D01*
X8989000Y-5866000D01*
X8989000Y-6120000D02*
X9039000Y-6070000D01*
X8989000Y-6020000D01*
X8939000Y-6070000D01*
X8989000Y-6120000D01*
X8989000Y-6374000D02*
X9039000Y-6324000D01*
X8989000Y-6274000D01*
X8939000Y-6324000D01*
X8989000Y-6374000D01*
X8989000Y-6628000D02*
X9039000Y-6578000D01*
X8989000Y-6528000D01*
X8939000Y-6578000D01*
X8989000Y-6628000D01*
X8989000Y-6882000D02*
X9039000Y-6832000D01*
X8989000Y-6782000D01*
X8939000Y-6832000D01*
X8989000Y-6882000D01*
X8989000Y-7136000D02*
X9039000Y-7086000D01*
X8989000Y-7036000D01*
X8939000Y-7086000D01*
X8989000Y-7136000D01*
X8989000Y-7390000D02*
X9039000Y-7340000D01*
X8989000Y-7290000D01*
X8939000Y-7340000D01*
X8989000Y-7390000D01*
X8989000Y-7644000D02*
X9039000Y-7594000D01*
X8989000Y-7544000D01*
X8939000Y-7594000D01*
X8989000Y-7644000D01*
X9330000Y-12930000D02*
X9380000Y-12880000D01*
X9330000Y-12830000D01*
X9280000Y-12880000D01*
X9330000Y-12930000D01*
X9332000Y-13990000D02*
X9382000Y-13940000D01*
X9332000Y-13890000D01*
X9282000Y-13940000D01*
X9332000Y-13990000D01*
X9366750Y-11165000D02*
X9416750Y-11115000D01*
X9366750Y-11065000D01*
X9316750Y-11115000D01*
X9366750Y-11165000D01*
X9584000Y-12930000D02*
X9634000Y-12880000D01*
X9584000Y-12830000D01*
X9534000Y-12880000D01*
X9584000Y-12930000D01*
X9586000Y-13990000D02*
X9636000Y-13940000D01*
X9586000Y-13890000D01*
X9536000Y-13940000D01*
X9586000Y-13990000D01*
X9620750Y-11165000D02*
X9670750Y-11115000D01*
X9620750Y-11065000D01*
X9570750Y-11115000D01*
X9620750Y-11165000D01*
X9838000Y-12930000D02*
X9888000Y-12880000D01*
X9838000Y-12830000D01*
X9788000Y-12880000D01*
X9838000Y-12930000D01*
X9840000Y-13990000D02*
X9890000Y-13940000D01*
X9840000Y-13890000D01*
X9790000Y-13940000D01*
X9840000Y-13990000D01*
X9874750Y-11165000D02*
X9924750Y-11115000D01*
X9874750Y-11065000D01*
X9824750Y-11115000D01*
X9874750Y-11165000D01*
X10382000Y-2869250D02*
X10432000Y-2819250D01*
X10382000Y-2769250D01*
X10332000Y-2819250D01*
X10382000Y-2869250D01*
X10636000Y-2869250D02*
X10686000Y-2819250D01*
X10636000Y-2769250D01*
X10586000Y-2819250D01*
X10636000Y-2869250D01*
X10720000Y-12930000D02*
X10770000Y-12880000D01*
X10720000Y-12830000D01*
X10670000Y-12880000D01*
X10720000Y-12930000D01*
X10722000Y-13990000D02*
X10772000Y-13940000D01*
X10722000Y-13890000D01*
X10672000Y-13940000D01*
X10722000Y-13990000D01*
X10890000Y-2869250D02*
X10940000Y-2819250D01*
X10890000Y-2769250D01*
X10840000Y-2819250D01*
X10890000Y-2869250D01*
X10974000Y-12930000D02*
X11024000Y-12880000D01*
X10974000Y-12830000D01*
X10924000Y-12880000D01*
X10974000Y-12930000D01*
X10976000Y-13990000D02*
X11026000Y-13940000D01*
X10976000Y-13890000D01*
X10926000Y-13940000D01*
X10976000Y-13990000D01*
X11206000Y-10958000D02*
X11256000Y-10908000D01*
X11206000Y-10858000D01*
X11156000Y-10908000D01*
X11206000Y-10958000D01*
X11206000Y-11808000D02*
X11256000Y-11758000D01*
X11206000Y-11708000D01*
X11156000Y-11758000D01*
X11206000Y-11808000D01*
X11217000Y-8499167D02*
X11267000Y-8449167D01*
X11217000Y-8399167D01*
X11167000Y-8449167D01*
X11217000Y-8499167D01*
X11217000Y-9360000D02*
X11267000Y-9310000D01*
X11217000Y-9260000D01*
X11167000Y-9310000D01*
X11217000Y-9360000D01*
X11221000Y-6910000D02*
X11271000Y-6860000D01*
X11221000Y-6810000D01*
X11171000Y-6860000D01*
X11221000Y-6910000D01*
X11225000Y-6040000D02*
X11275000Y-5990000D01*
X11225000Y-5940000D01*
X11175000Y-5990000D01*
X11225000Y-6040000D01*
X11228000Y-12930000D02*
X11278000Y-12880000D01*
X11228000Y-12830000D01*
X11178000Y-12880000D01*
X11228000Y-12930000D01*
X11230000Y-13990000D02*
X11280000Y-13940000D01*
X11230000Y-13890000D01*
X11180000Y-13940000D01*
X11230000Y-13990000D01*
X11295000Y-3840000D02*
X11345000Y-3790000D01*
X11295000Y-3740000D01*
X11245000Y-3790000D01*
X11295000Y-3840000D01*
X11299000Y-4690000D02*
X11349000Y-4640000D01*
X11299000Y-4590000D01*
X11249000Y-4640000D01*
X11299000Y-4690000D01*
X11460000Y-10958000D02*
X11510000Y-10908000D01*
X11460000Y-10858000D01*
X11410000Y-10908000D01*
X11460000Y-10958000D01*
X11460000Y-11808000D02*
X11510000Y-11758000D01*
X11460000Y-11708000D01*
X11410000Y-11758000D01*
X11460000Y-11808000D01*
X11471000Y-8499167D02*
X11521000Y-8449167D01*
X11471000Y-8399167D01*
X11421000Y-8449167D01*
X11471000Y-8499167D01*
X11471000Y-9360000D02*
X11521000Y-9310000D01*
X11471000Y-9260000D01*
X11421000Y-9310000D01*
X11471000Y-9360000D01*
X11475000Y-6910000D02*
X11525000Y-6860000D01*
X11475000Y-6810000D01*
X11425000Y-6860000D01*
X11475000Y-6910000D01*
X11479000Y-6040000D02*
X11529000Y-5990000D01*
X11479000Y-5940000D01*
X11429000Y-5990000D01*
X11479000Y-6040000D01*
X11549000Y-3840000D02*
X11599000Y-3790000D01*
X11549000Y-3740000D01*
X11499000Y-3790000D01*
X11549000Y-3840000D01*
X11553000Y-4690000D02*
X11603000Y-4640000D01*
X11553000Y-4590000D01*
X11503000Y-4640000D01*
X11553000Y-4690000D01*
X11714000Y-10958000D02*
X11764000Y-10908000D01*
X11714000Y-10858000D01*
X11664000Y-10908000D01*
X11714000Y-10958000D01*
X11714000Y-11808000D02*
X11764000Y-11758000D01*
X11714000Y-11708000D01*
X11664000Y-11758000D01*
X11714000Y-11808000D01*
X11725000Y-8499167D02*
X11775000Y-8449167D01*
X11725000Y-8399167D01*
X11675000Y-8449167D01*
X11725000Y-8499167D01*
X11725000Y-9360000D02*
X11775000Y-9310000D01*
X11725000Y-9260000D01*
X11675000Y-9310000D01*
X11725000Y-9360000D01*
X11729000Y-6910000D02*
X11779000Y-6860000D01*
X11729000Y-6810000D01*
X11679000Y-6860000D01*
X11729000Y-6910000D01*
X11733000Y-6040000D02*
X11783000Y-5990000D01*
X11733000Y-5940000D01*
X11683000Y-5990000D01*
X11733000Y-6040000D01*
X11803000Y-3840000D02*
X11853000Y-3790000D01*
X11803000Y-3740000D01*
X11753000Y-3790000D01*
X11803000Y-3840000D01*
X11807000Y-4690000D02*
X11857000Y-4640000D01*
X11807000Y-4590000D01*
X11757000Y-4640000D01*
X11807000Y-4690000D01*
X11950000Y-7472333D02*
X12000000Y-7422333D01*
X11950000Y-7372333D01*
X11900000Y-7422333D01*
X11950000Y-7472333D01*
X11950000Y-9974167D02*
X12000000Y-9924167D01*
X11950000Y-9874167D01*
X11900000Y-9924167D01*
X11950000Y-9974167D01*
X11970000Y-5110000D02*
X12020000Y-5060000D01*
X11970000Y-5010000D01*
X11920000Y-5060000D01*
X11970000Y-5110000D01*
X11990000Y-12175000D02*
X12040000Y-12125000D01*
X11990000Y-12075000D01*
X11940000Y-12125000D01*
X11990000Y-12175000D01*
X12350000Y-11000000D02*
X12400000Y-10950000D01*
X12350000Y-10900000D01*
X12300000Y-10950000D01*
X12350000Y-11000000D01*
X12350000Y-11254000D02*
X12400000Y-11204000D01*
X12350000Y-11154000D01*
X12300000Y-11204000D01*
X12350000Y-11254000D01*
X12350000Y-11508000D02*
X12400000Y-11458000D01*
X12350000Y-11408000D01*
X12300000Y-11458000D01*
X12350000Y-11508000D01*
X12350000Y-11762000D02*
X12400000Y-11712000D01*
X12350000Y-11662000D01*
X12300000Y-11712000D01*
X12350000Y-11762000D01*
X12350000Y-12016000D02*
X12400000Y-11966000D01*
X12350000Y-11916000D01*
X12300000Y-11966000D01*
X12350000Y-12016000D01*
X12350000Y-12270000D02*
X12400000Y-12220000D01*
X12350000Y-12170000D01*
X12300000Y-12220000D01*
X12350000Y-12270000D01*
X12350000Y-12524000D02*
X12400000Y-12474000D01*
X12350000Y-12424000D01*
X12300000Y-12474000D01*
X12350000Y-12524000D01*
X12350000Y-12778000D02*
X12400000Y-12728000D01*
X12350000Y-12678000D01*
X12300000Y-12728000D01*
X12350000Y-12778000D01*
X12365000Y-3661000D02*
X12415000Y-3611000D01*
X12365000Y-3561000D01*
X12315000Y-3611000D01*
X12365000Y-3661000D01*
X12365000Y-3915000D02*
X12415000Y-3865000D01*
X12365000Y-3815000D01*
X12315000Y-3865000D01*
X12365000Y-3915000D01*
X12365000Y-4169000D02*
X12415000Y-4119000D01*
X12365000Y-4069000D01*
X12315000Y-4119000D01*
X12365000Y-4169000D01*
X12365000Y-4423000D02*
X12415000Y-4373000D01*
X12365000Y-4323000D01*
X12315000Y-4373000D01*
X12365000Y-4423000D01*
X12365000Y-4677000D02*
X12415000Y-4627000D01*
X12365000Y-4577000D01*
X12315000Y-4627000D01*
X12365000Y-4677000D01*
X12365000Y-4931000D02*
X12415000Y-4881000D01*
X12365000Y-4831000D01*
X12315000Y-4881000D01*
X12365000Y-4931000D01*
X12365000Y-5185000D02*
X12415000Y-5135000D01*
X12365000Y-5085000D01*
X12315000Y-5135000D01*
X12365000Y-5185000D01*
X12365000Y-5439000D02*
X12415000Y-5389000D01*
X12365000Y-5339000D01*
X12315000Y-5389000D01*
X12365000Y-5439000D01*
X12365000Y-6102000D02*
X12415000Y-6052000D01*
X12365000Y-6002000D01*
X12315000Y-6052000D01*
X12365000Y-6102000D01*
X12365000Y-6356000D02*
X12415000Y-6306000D01*
X12365000Y-6256000D01*
X12315000Y-6306000D01*
X12365000Y-6356000D01*
X12365000Y-6610000D02*
X12415000Y-6560000D01*
X12365000Y-6510000D01*
X12315000Y-6560000D01*
X12365000Y-6610000D01*
X12365000Y-6864000D02*
X12415000Y-6814000D01*
X12365000Y-6764000D01*
X12315000Y-6814000D01*
X12365000Y-6864000D01*
X12365000Y-7118000D02*
X12415000Y-7068000D01*
X12365000Y-7018000D01*
X12315000Y-7068000D01*
X12365000Y-7118000D01*
X12365000Y-7372000D02*
X12415000Y-7322000D01*
X12365000Y-7272000D01*
X12315000Y-7322000D01*
X12365000Y-7372000D01*
X12365000Y-7626000D02*
X12415000Y-7576000D01*
X12365000Y-7526000D01*
X12315000Y-7576000D01*
X12365000Y-7626000D01*
X12365000Y-7880000D02*
X12415000Y-7830000D01*
X12365000Y-7780000D01*
X12315000Y-7830000D01*
X12365000Y-7880000D01*
X12365000Y-8547500D02*
X12415000Y-8497500D01*
X12365000Y-8447500D01*
X12315000Y-8497500D01*
X12365000Y-8547500D01*
X12365000Y-8801500D02*
X12415000Y-8751500D01*
X12365000Y-8701500D01*
X12315000Y-8751500D01*
X12365000Y-8801500D01*
X12365000Y-9055500D02*
X12415000Y-9005500D01*
X12365000Y-8955500D01*
X12315000Y-9005500D01*
X12365000Y-9055500D01*
X12365000Y-9309500D02*
X12415000Y-9259500D01*
X12365000Y-9209500D01*
X12315000Y-9259500D01*
X12365000Y-9309500D01*
X12365000Y-9563500D02*
X12415000Y-9513500D01*
X12365000Y-9463500D01*
X12315000Y-9513500D01*
X12365000Y-9563500D01*
X12365000Y-9817500D02*
X12415000Y-9767500D01*
X12365000Y-9717500D01*
X12315000Y-9767500D01*
X12365000Y-9817500D01*
X12365000Y-10071500D02*
X12415000Y-10021500D01*
X12365000Y-9971500D01*
X12315000Y-10021500D01*
X12365000Y-10071500D01*
X12365000Y-10325500D02*
X12415000Y-10275500D01*
X12365000Y-10225500D01*
X12315000Y-10275500D01*
X12365000Y-10325500D01*
X12604000Y-11000000D02*
X12654000Y-10950000D01*
X12604000Y-10900000D01*
X12554000Y-10950000D01*
X12604000Y-11000000D01*
X12619000Y-3661000D02*
X12669000Y-3611000D01*
X12619000Y-3561000D01*
X12569000Y-3611000D01*
X12619000Y-3661000D01*
X12619000Y-6102000D02*
X12669000Y-6052000D01*
X12619000Y-6002000D01*
X12569000Y-6052000D01*
X12619000Y-6102000D01*
X12619000Y-8547500D02*
X12669000Y-8497500D01*
X12619000Y-8447500D01*
X12569000Y-8497500D01*
X12619000Y-8547500D01*
X12858000Y-11000000D02*
X12908000Y-10950000D01*
X12858000Y-10900000D01*
X12808000Y-10950000D01*
X12858000Y-11000000D01*
X12873000Y-3661000D02*
X12923000Y-3611000D01*
X12873000Y-3561000D01*
X12823000Y-3611000D01*
X12873000Y-3661000D01*
X12873000Y-6102000D02*
X12923000Y-6052000D01*
X12873000Y-6002000D01*
X12823000Y-6052000D01*
X12873000Y-6102000D01*
X12873000Y-8547500D02*
X12923000Y-8497500D01*
X12873000Y-8447500D01*
X12823000Y-8497500D01*
X12873000Y-8547500D01*
X13620000Y-11000000D02*
X13670000Y-10950000D01*
X13620000Y-10900000D01*
X13570000Y-10950000D01*
X13620000Y-11000000D01*
X13620000Y-11254000D02*
X13670000Y-11204000D01*
X13620000Y-11154000D01*
X13570000Y-11204000D01*
X13620000Y-11254000D01*
X13620000Y-11508000D02*
X13670000Y-11458000D01*
X13620000Y-11408000D01*
X13570000Y-11458000D01*
X13620000Y-11508000D01*
X13620000Y-11762000D02*
X13670000Y-11712000D01*
X13620000Y-11662000D01*
X13570000Y-11712000D01*
X13620000Y-11762000D01*
X13620000Y-12016000D02*
X13670000Y-11966000D01*
X13620000Y-11916000D01*
X13570000Y-11966000D01*
X13620000Y-12016000D01*
X13620000Y-12270000D02*
X13670000Y-12220000D01*
X13620000Y-12170000D01*
X13570000Y-12220000D01*
X13620000Y-12270000D01*
X13620000Y-12524000D02*
X13670000Y-12474000D01*
X13620000Y-12424000D01*
X13570000Y-12474000D01*
X13620000Y-12524000D01*
X13620000Y-12778000D02*
X13670000Y-12728000D01*
X13620000Y-12678000D01*
X13570000Y-12728000D01*
X13620000Y-12778000D01*
X13635000Y-3661000D02*
X13685000Y-3611000D01*
X13635000Y-3561000D01*
X13585000Y-3611000D01*
X13635000Y-3661000D01*
X13635000Y-3915000D02*
X13685000Y-3865000D01*
X13635000Y-3815000D01*
X13585000Y-3865000D01*
X13635000Y-3915000D01*
X13635000Y-4169000D02*
X13685000Y-4119000D01*
X13635000Y-4069000D01*
X13585000Y-4119000D01*
X13635000Y-4169000D01*
X13635000Y-4423000D02*
X13685000Y-4373000D01*
X13635000Y-4323000D01*
X13585000Y-4373000D01*
X13635000Y-4423000D01*
X13635000Y-4677000D02*
X13685000Y-4627000D01*
X13635000Y-4577000D01*
X13585000Y-4627000D01*
X13635000Y-4677000D01*
X13635000Y-4931000D02*
X13685000Y-4881000D01*
X13635000Y-4831000D01*
X13585000Y-4881000D01*
X13635000Y-4931000D01*
X13635000Y-5185000D02*
X13685000Y-5135000D01*
X13635000Y-5085000D01*
X13585000Y-5135000D01*
X13635000Y-5185000D01*
X13635000Y-5439000D02*
X13685000Y-5389000D01*
X13635000Y-5339000D01*
X13585000Y-5389000D01*
X13635000Y-5439000D01*
X13635000Y-6102000D02*
X13685000Y-6052000D01*
X13635000Y-6002000D01*
X13585000Y-6052000D01*
X13635000Y-6102000D01*
X13635000Y-6356000D02*
X13685000Y-6306000D01*
X13635000Y-6256000D01*
X13585000Y-6306000D01*
X13635000Y-6356000D01*
X13635000Y-6610000D02*
X13685000Y-6560000D01*
X13635000Y-6510000D01*
X13585000Y-6560000D01*
X13635000Y-6610000D01*
X13635000Y-6864000D02*
X13685000Y-6814000D01*
X13635000Y-6764000D01*
X13585000Y-6814000D01*
X13635000Y-6864000D01*
X13635000Y-7118000D02*
X13685000Y-7068000D01*
X13635000Y-7018000D01*
X13585000Y-7068000D01*
X13635000Y-7118000D01*
X13635000Y-7372000D02*
X13685000Y-7322000D01*
X13635000Y-7272000D01*
X13585000Y-7322000D01*
X13635000Y-7372000D01*
X13635000Y-7626000D02*
X13685000Y-7576000D01*
X13635000Y-7526000D01*
X13585000Y-7576000D01*
X13635000Y-7626000D01*
X13635000Y-7880000D02*
X13685000Y-7830000D01*
X13635000Y-7780000D01*
X13585000Y-7830000D01*
X13635000Y-7880000D01*
X13635000Y-8547500D02*
X13685000Y-8497500D01*
X13635000Y-8447500D01*
X13585000Y-8497500D01*
X13635000Y-8547500D01*
X13635000Y-8801500D02*
X13685000Y-8751500D01*
X13635000Y-8701500D01*
X13585000Y-8751500D01*
X13635000Y-8801500D01*
X13635000Y-9055500D02*
X13685000Y-9005500D01*
X13635000Y-8955500D01*
X13585000Y-9005500D01*
X13635000Y-9055500D01*
X13635000Y-9309500D02*
X13685000Y-9259500D01*
X13635000Y-9209500D01*
X13585000Y-9259500D01*
X13635000Y-9309500D01*
X13635000Y-9563500D02*
X13685000Y-9513500D01*
X13635000Y-9463500D01*
X13585000Y-9513500D01*
X13635000Y-9563500D01*
X13635000Y-9817500D02*
X13685000Y-9767500D01*
X13635000Y-9717500D01*
X13585000Y-9767500D01*
X13635000Y-9817500D01*
X13635000Y-10071500D02*
X13685000Y-10021500D01*
X13635000Y-9971500D01*
X13585000Y-10021500D01*
X13635000Y-10071500D01*
X13635000Y-10325500D02*
X13685000Y-10275500D01*
X13635000Y-10225500D01*
X13585000Y-10275500D01*
X13635000Y-10325500D01*
X14584000Y-11508000D02*
X14634000Y-11458000D01*
X14584000Y-11408000D01*
X14534000Y-11458000D01*
X14584000Y-11508000D01*
X14584000Y-11762000D02*
X14634000Y-11712000D01*
X14584000Y-11662000D01*
X14534000Y-11712000D01*
X14584000Y-11762000D01*
X14584000Y-12016000D02*
X14634000Y-11966000D01*
X14584000Y-11916000D01*
X14534000Y-11966000D01*
X14584000Y-12016000D01*
X14584000Y-12270000D02*
X14634000Y-12220000D01*
X14584000Y-12170000D01*
X14534000Y-12220000D01*
X14584000Y-12270000D01*
X14594000Y-4169000D02*
X14644000Y-4119000D01*
X14594000Y-4069000D01*
X14544000Y-4119000D01*
X14594000Y-4169000D01*
X14594000Y-4423000D02*
X14644000Y-4373000D01*
X14594000Y-4323000D01*
X14544000Y-4373000D01*
X14594000Y-4423000D01*
X14594000Y-4677000D02*
X14644000Y-4627000D01*
X14594000Y-4577000D01*
X14544000Y-4627000D01*
X14594000Y-4677000D01*
X14594000Y-4931000D02*
X14644000Y-4881000D01*
X14594000Y-4831000D01*
X14544000Y-4881000D01*
X14594000Y-4931000D01*
X14599000Y-9055500D02*
X14649000Y-9005500D01*
X14599000Y-8955500D01*
X14549000Y-9005500D01*
X14599000Y-9055500D01*
X14599000Y-9309500D02*
X14649000Y-9259500D01*
X14599000Y-9209500D01*
X14549000Y-9259500D01*
X14599000Y-9309500D01*
X14599000Y-9563500D02*
X14649000Y-9513500D01*
X14599000Y-9463500D01*
X14549000Y-9513500D01*
X14599000Y-9563500D01*
X14599000Y-9817500D02*
X14649000Y-9767500D01*
X14599000Y-9717500D01*
X14549000Y-9767500D01*
X14599000Y-9817500D01*
X14600000Y-6609000D02*
X14650000Y-6559000D01*
X14600000Y-6509000D01*
X14550000Y-6559000D01*
X14600000Y-6609000D01*
X14600000Y-6863000D02*
X14650000Y-6813000D01*
X14600000Y-6763000D01*
X14550000Y-6813000D01*
X14600000Y-6863000D01*
X14600000Y-7117000D02*
X14650000Y-7067000D01*
X14600000Y-7017000D01*
X14550000Y-7067000D01*
X14600000Y-7117000D01*
X14600000Y-7371000D02*
X14650000Y-7321000D01*
X14600000Y-7271000D01*
X14550000Y-7321000D01*
X14600000Y-7371000D01*
X14946000Y-12820000D02*
X14996000Y-12770000D01*
X14946000Y-12720000D01*
X14896000Y-12770000D01*
X14946000Y-12820000D01*
X14946000Y-13360000D02*
X14996000Y-13310000D01*
X14946000Y-13260000D01*
X14896000Y-13310000D01*
X14946000Y-13360000D01*
X15200000Y-12820000D02*
X15250000Y-12770000D01*
X15200000Y-12720000D01*
X15150000Y-12770000D01*
X15200000Y-12820000D01*
X15200000Y-13360000D02*
X15250000Y-13310000D01*
X15200000Y-13260000D01*
X15150000Y-13310000D01*
X15200000Y-13360000D01*
D13*
X9570000Y-4850000D02*
X9680000Y-4960000D01*
X9680000Y-4850000D02*
X9570000Y-4960000D01*
X9680000Y-4905000D02*
G75*
G02*
X9570000Y-4905000I-55000J0D01*
G01*
X9570000Y-4905000D02*
G75*
G02*
X9680000Y-4905000I55000J0D01*
G01*
X9570000Y-5300000D02*
X9680000Y-5410000D01*
X9680000Y-5300000D02*
X9570000Y-5410000D01*
X9680000Y-5355000D02*
G75*
G02*
X9570000Y-5355000I-55000J0D01*
G01*
X9570000Y-5355000D02*
G75*
G02*
X9680000Y-5355000I55000J0D01*
G01*
X10220000Y-4850000D02*
X10330000Y-4960000D01*
X10330000Y-4850000D02*
X10220000Y-4960000D01*
X10330000Y-4905000D02*
G75*
G02*
X10220000Y-4905000I-55000J0D01*
G01*
X10220000Y-4905000D02*
G75*
G02*
X10330000Y-4905000I55000J0D01*
G01*
X10220000Y-5300000D02*
X10330000Y-5410000D01*
X10330000Y-5300000D02*
X10220000Y-5410000D01*
X10330000Y-5355000D02*
G75*
G02*
X10220000Y-5355000I-55000J0D01*
G01*
X10220000Y-5355000D02*
G75*
G02*
X10330000Y-5355000I55000J0D01*
G01*
D14*
X5031750Y-8685750D02*
X5151750Y-8805750D01*
X5151750Y-8685750D02*
X5031750Y-8805750D01*
X5091750Y-8685750D02*
X5091750Y-8805750D01*
X5031750Y-8745750D02*
X5151750Y-8745750D01*
X5285750Y-8685750D02*
X5405750Y-8805750D01*
X5405750Y-8685750D02*
X5285750Y-8805750D01*
X5345750Y-8685750D02*
X5345750Y-8805750D01*
X5285750Y-8745750D02*
X5405750Y-8745750D01*
X5539750Y-8685750D02*
X5659750Y-8805750D01*
X5659750Y-8685750D02*
X5539750Y-8805750D01*
X5599750Y-8685750D02*
X5599750Y-8805750D01*
X5539750Y-8745750D02*
X5659750Y-8745750D01*
D15*
X13485000Y-13135000D02*
X13655000Y-13305000D01*
X13655000Y-13135000D02*
X13485000Y-13305000D01*
X13630105Y-13280105D02*
X13630105Y-13159895D01*
X13509895Y-13159895D01*
X13509895Y-13280105D01*
X13630105Y-13280105D01*
X13645000Y-14175000D02*
X13815000Y-14345000D01*
X13815000Y-14175000D02*
X13645000Y-14345000D01*
X13790105Y-14320105D02*
X13790105Y-14199895D01*
X13669895Y-14199895D01*
X13669895Y-14320105D01*
X13790105Y-14320105D01*
X3480000Y-8613750D02*
X3650000Y-8783750D01*
X3650000Y-8613750D02*
X3480000Y-8783750D01*
X3565000Y-8783750D02*
X3650000Y-8698750D01*
X3565000Y-8613750D01*
X3480000Y-8698750D01*
X3565000Y-8783750D01*
X3480000Y-9009750D02*
X3650000Y-9179750D01*
X3650000Y-9009750D02*
X3480000Y-9179750D01*
X3565000Y-9179750D02*
X3650000Y-9094750D01*
X3565000Y-9009750D01*
X3480000Y-9094750D01*
X3565000Y-9179750D01*
X3485000Y-12795250D02*
X3655000Y-12965250D01*
X3655000Y-12795250D02*
X3485000Y-12965250D01*
X3570000Y-12965250D02*
X3655000Y-12880250D01*
X3570000Y-12795250D01*
X3485000Y-12880250D01*
X3570000Y-12965250D01*
X3485000Y-13191250D02*
X3655000Y-13361250D01*
X3655000Y-13191250D02*
X3485000Y-13361250D01*
X3570000Y-13361250D02*
X3655000Y-13276250D01*
X3570000Y-13191250D01*
X3485000Y-13276250D01*
X3570000Y-13361250D01*
X12055000Y-13455000D02*
X12225000Y-13625000D01*
X12225000Y-13455000D02*
X12055000Y-13625000D01*
X12140000Y-13625000D02*
X12225000Y-13540000D01*
X12140000Y-13455000D01*
X12055000Y-13540000D01*
X12140000Y-13625000D01*
X12055000Y-13851000D02*
X12225000Y-14021000D01*
X12225000Y-13851000D02*
X12055000Y-14021000D01*
X12140000Y-14021000D02*
X12225000Y-13936000D01*
X12140000Y-13851000D01*
X12055000Y-13936000D01*
X12140000Y-14021000D01*
D16*
X3000000Y-2840000D02*
X3000000Y-3160000D01*
X2840000Y-3000000D02*
X3160000Y-3000000D01*
X3160000Y-3000000D02*
G75*
G02*
X2840000Y-3000000I-160000J0D01*
G01*
X2840000Y-3000000D02*
G75*
G02*
X3160000Y-3000000I160000J0D01*
G01*
X3000000Y-13840000D02*
X3000000Y-14160000D01*
X2840000Y-14000000D02*
X3160000Y-14000000D01*
X3160000Y-14000000D02*
G75*
G02*
X2840000Y-14000000I-160000J0D01*
G01*
X2840000Y-14000000D02*
G75*
G02*
X3160000Y-14000000I160000J0D01*
G01*
X15000000Y-2840000D02*
X15000000Y-3160000D01*
X14840000Y-3000000D02*
X15160000Y-3000000D01*
X15160000Y-3000000D02*
G75*
G02*
X14840000Y-3000000I-160000J0D01*
G01*
X14840000Y-3000000D02*
G75*
G02*
X15160000Y-3000000I160000J0D01*
G01*
X15000000Y-13840000D02*
X15000000Y-14160000D01*
X14840000Y-14000000D02*
X15160000Y-14000000D01*
X15160000Y-14000000D02*
G75*
G02*
X14840000Y-14000000I-160000J0D01*
G01*
X14840000Y-14000000D02*
G75*
G02*
X15160000Y-14000000I160000J0D01*
G01*
D11*
X2758277Y-14813984D02*
X2758277Y-14613984D01*
X2758277Y-14613984D02*
X2805896Y-14613984D01*
X2805896Y-14613984D02*
X2834467Y-14623508D01*
X2834467Y-14623508D02*
X2853515Y-14642555D01*
X2853515Y-14642555D02*
X2863039Y-14661603D01*
X2863039Y-14661603D02*
X2872562Y-14699698D01*
X2872562Y-14699698D02*
X2872562Y-14728269D01*
X2872562Y-14728269D02*
X2863039Y-14766365D01*
X2863039Y-14766365D02*
X2853515Y-14785412D01*
X2853515Y-14785412D02*
X2834467Y-14804460D01*
X2834467Y-14804460D02*
X2805896Y-14813984D01*
X2805896Y-14813984D02*
X2758277Y-14813984D01*
X2958277Y-14813984D02*
X2958277Y-14680650D01*
X2958277Y-14718746D02*
X2967801Y-14699698D01*
X2967801Y-14699698D02*
X2977324Y-14690174D01*
X2977324Y-14690174D02*
X2996372Y-14680650D01*
X2996372Y-14680650D02*
X3015420Y-14680650D01*
X3082086Y-14813984D02*
X3082086Y-14680650D01*
X3082086Y-14613984D02*
X3072562Y-14623508D01*
X3072562Y-14623508D02*
X3082086Y-14633031D01*
X3082086Y-14633031D02*
X3091610Y-14623508D01*
X3091610Y-14623508D02*
X3082086Y-14613984D01*
X3082086Y-14613984D02*
X3082086Y-14633031D01*
X3205896Y-14813984D02*
X3186848Y-14804460D01*
X3186848Y-14804460D02*
X3177324Y-14785412D01*
X3177324Y-14785412D02*
X3177324Y-14613984D01*
X3310658Y-14813984D02*
X3291610Y-14804460D01*
X3291610Y-14804460D02*
X3282086Y-14785412D01*
X3282086Y-14785412D02*
X3282086Y-14613984D01*
X3539229Y-14813984D02*
X3539229Y-14613984D01*
X3539229Y-14613984D02*
X3605896Y-14756841D01*
X3605896Y-14756841D02*
X3672562Y-14613984D01*
X3672562Y-14613984D02*
X3672562Y-14813984D01*
X3853515Y-14813984D02*
X3853515Y-14709222D01*
X3853515Y-14709222D02*
X3843991Y-14690174D01*
X3843991Y-14690174D02*
X3824943Y-14680650D01*
X3824943Y-14680650D02*
X3786848Y-14680650D01*
X3786848Y-14680650D02*
X3767801Y-14690174D01*
X3853515Y-14804460D02*
X3834467Y-14813984D01*
X3834467Y-14813984D02*
X3786848Y-14813984D01*
X3786848Y-14813984D02*
X3767801Y-14804460D01*
X3767801Y-14804460D02*
X3758277Y-14785412D01*
X3758277Y-14785412D02*
X3758277Y-14766365D01*
X3758277Y-14766365D02*
X3767801Y-14747317D01*
X3767801Y-14747317D02*
X3786848Y-14737793D01*
X3786848Y-14737793D02*
X3834467Y-14737793D01*
X3834467Y-14737793D02*
X3853515Y-14728269D01*
X3948753Y-14680650D02*
X3948753Y-14880650D01*
X3948753Y-14690174D02*
X3967801Y-14680650D01*
X3967801Y-14680650D02*
X4005896Y-14680650D01*
X4005896Y-14680650D02*
X4024943Y-14690174D01*
X4024943Y-14690174D02*
X4034467Y-14699698D01*
X4034467Y-14699698D02*
X4043991Y-14718746D01*
X4043991Y-14718746D02*
X4043991Y-14775888D01*
X4043991Y-14775888D02*
X4034467Y-14794936D01*
X4034467Y-14794936D02*
X4024943Y-14804460D01*
X4024943Y-14804460D02*
X4005896Y-14813984D01*
X4005896Y-14813984D02*
X3967801Y-14813984D01*
X3967801Y-14813984D02*
X3948753Y-14804460D01*
X4129705Y-14794936D02*
X4139229Y-14804460D01*
X4139229Y-14804460D02*
X4129705Y-14813984D01*
X4129705Y-14813984D02*
X4120182Y-14804460D01*
X4120182Y-14804460D02*
X4129705Y-14794936D01*
X4129705Y-14794936D02*
X4129705Y-14813984D01*
X4129705Y-14690174D02*
X4139229Y-14699698D01*
X4139229Y-14699698D02*
X4129705Y-14709222D01*
X4129705Y-14709222D02*
X4120182Y-14699698D01*
X4120182Y-14699698D02*
X4129705Y-14690174D01*
X4129705Y-14690174D02*
X4129705Y-14709222D01*
D12*
X2467500Y-15127500D02*
X2497500Y-15157500D01*
X2497500Y-15127500D02*
X2467500Y-15157500D01*
D11*
X2796372Y-15033984D02*
X2815420Y-15033984D01*
X2815420Y-15033984D02*
X2834467Y-15043508D01*
X2834467Y-15043508D02*
X2843991Y-15053031D01*
X2843991Y-15053031D02*
X2853515Y-15072079D01*
X2853515Y-15072079D02*
X2863039Y-15110174D01*
X2863039Y-15110174D02*
X2863039Y-15157793D01*
X2863039Y-15157793D02*
X2853515Y-15195888D01*
X2853515Y-15195888D02*
X2843991Y-15214936D01*
X2843991Y-15214936D02*
X2834467Y-15224460D01*
X2834467Y-15224460D02*
X2815420Y-15233984D01*
X2815420Y-15233984D02*
X2796372Y-15233984D01*
X2796372Y-15233984D02*
X2777324Y-15224460D01*
X2777324Y-15224460D02*
X2767801Y-15214936D01*
X2767801Y-15214936D02*
X2758277Y-15195888D01*
X2758277Y-15195888D02*
X2748753Y-15157793D01*
X2748753Y-15157793D02*
X2748753Y-15110174D01*
X2748753Y-15110174D02*
X2758277Y-15072079D01*
X2758277Y-15072079D02*
X2767801Y-15053031D01*
X2767801Y-15053031D02*
X2777324Y-15043508D01*
X2777324Y-15043508D02*
X2796372Y-15033984D01*
X2948753Y-15214936D02*
X2958277Y-15224460D01*
X2958277Y-15224460D02*
X2948753Y-15233984D01*
X2948753Y-15233984D02*
X2939229Y-15224460D01*
X2939229Y-15224460D02*
X2948753Y-15214936D01*
X2948753Y-15214936D02*
X2948753Y-15233984D01*
X3024943Y-15033984D02*
X3148753Y-15033984D01*
X3148753Y-15033984D02*
X3082086Y-15110174D01*
X3082086Y-15110174D02*
X3110658Y-15110174D01*
X3110658Y-15110174D02*
X3129705Y-15119698D01*
X3129705Y-15119698D02*
X3139229Y-15129222D01*
X3139229Y-15129222D02*
X3148753Y-15148269D01*
X3148753Y-15148269D02*
X3148753Y-15195888D01*
X3148753Y-15195888D02*
X3139229Y-15214936D01*
X3139229Y-15214936D02*
X3129705Y-15224460D01*
X3129705Y-15224460D02*
X3110658Y-15233984D01*
X3110658Y-15233984D02*
X3053515Y-15233984D01*
X3053515Y-15233984D02*
X3034467Y-15224460D01*
X3034467Y-15224460D02*
X3024943Y-15214936D01*
X3272562Y-15033984D02*
X3291610Y-15033984D01*
X3291610Y-15033984D02*
X3310658Y-15043508D01*
X3310658Y-15043508D02*
X3320182Y-15053031D01*
X3320182Y-15053031D02*
X3329705Y-15072079D01*
X3329705Y-15072079D02*
X3339229Y-15110174D01*
X3339229Y-15110174D02*
X3339229Y-15157793D01*
X3339229Y-15157793D02*
X3329705Y-15195888D01*
X3329705Y-15195888D02*
X3320182Y-15214936D01*
X3320182Y-15214936D02*
X3310658Y-15224460D01*
X3310658Y-15224460D02*
X3291610Y-15233984D01*
X3291610Y-15233984D02*
X3272562Y-15233984D01*
X3272562Y-15233984D02*
X3253515Y-15224460D01*
X3253515Y-15224460D02*
X3243991Y-15214936D01*
X3243991Y-15214936D02*
X3234467Y-15195888D01*
X3234467Y-15195888D02*
X3224943Y-15157793D01*
X3224943Y-15157793D02*
X3224943Y-15110174D01*
X3224943Y-15110174D02*
X3234467Y-15072079D01*
X3234467Y-15072079D02*
X3243991Y-15053031D01*
X3243991Y-15053031D02*
X3253515Y-15043508D01*
X3253515Y-15043508D02*
X3272562Y-15033984D01*
X3463039Y-15033984D02*
X3482086Y-15033984D01*
X3482086Y-15033984D02*
X3501134Y-15043508D01*
X3501134Y-15043508D02*
X3510658Y-15053031D01*
X3510658Y-15053031D02*
X3520182Y-15072079D01*
X3520182Y-15072079D02*
X3529705Y-15110174D01*
X3529705Y-15110174D02*
X3529705Y-15157793D01*
X3529705Y-15157793D02*
X3520182Y-15195888D01*
X3520182Y-15195888D02*
X3510658Y-15214936D01*
X3510658Y-15214936D02*
X3501134Y-15224460D01*
X3501134Y-15224460D02*
X3482086Y-15233984D01*
X3482086Y-15233984D02*
X3463039Y-15233984D01*
X3463039Y-15233984D02*
X3443991Y-15224460D01*
X3443991Y-15224460D02*
X3434467Y-15214936D01*
X3434467Y-15214936D02*
X3424943Y-15195888D01*
X3424943Y-15195888D02*
X3415420Y-15157793D01*
X3415420Y-15157793D02*
X3415420Y-15110174D01*
X3415420Y-15110174D02*
X3424943Y-15072079D01*
X3424943Y-15072079D02*
X3434467Y-15053031D01*
X3434467Y-15053031D02*
X3443991Y-15043508D01*
X3443991Y-15043508D02*
X3463039Y-15033984D01*
X3615420Y-15233984D02*
X3615420Y-15100650D01*
X3615420Y-15119698D02*
X3624943Y-15110174D01*
X3624943Y-15110174D02*
X3643991Y-15100650D01*
X3643991Y-15100650D02*
X3672563Y-15100650D01*
X3672563Y-15100650D02*
X3691610Y-15110174D01*
X3691610Y-15110174D02*
X3701134Y-15129222D01*
X3701134Y-15129222D02*
X3701134Y-15233984D01*
X3701134Y-15129222D02*
X3710658Y-15110174D01*
X3710658Y-15110174D02*
X3729705Y-15100650D01*
X3729705Y-15100650D02*
X3758277Y-15100650D01*
X3758277Y-15100650D02*
X3777324Y-15110174D01*
X3777324Y-15110174D02*
X3786848Y-15129222D01*
X3786848Y-15129222D02*
X3786848Y-15233984D01*
X3882086Y-15233984D02*
X3882086Y-15100650D01*
X3882086Y-15119698D02*
X3891610Y-15110174D01*
X3891610Y-15110174D02*
X3910658Y-15100650D01*
X3910658Y-15100650D02*
X3939229Y-15100650D01*
X3939229Y-15100650D02*
X3958277Y-15110174D01*
X3958277Y-15110174D02*
X3967801Y-15129222D01*
X3967801Y-15129222D02*
X3967801Y-15233984D01*
X3967801Y-15129222D02*
X3977324Y-15110174D01*
X3977324Y-15110174D02*
X3996372Y-15100650D01*
X3996372Y-15100650D02*
X4024943Y-15100650D01*
X4024943Y-15100650D02*
X4043991Y-15110174D01*
X4043991Y-15110174D02*
X4053515Y-15129222D01*
X4053515Y-15129222D02*
X4053515Y-15233984D01*
X4443991Y-15024460D02*
X4272563Y-15281603D01*
X4701134Y-15033984D02*
X4720182Y-15033984D01*
X4720182Y-15033984D02*
X4739229Y-15043508D01*
X4739229Y-15043508D02*
X4748753Y-15053031D01*
X4748753Y-15053031D02*
X4758277Y-15072079D01*
X4758277Y-15072079D02*
X4767801Y-15110174D01*
X4767801Y-15110174D02*
X4767801Y-15157793D01*
X4767801Y-15157793D02*
X4758277Y-15195888D01*
X4758277Y-15195888D02*
X4748753Y-15214936D01*
X4748753Y-15214936D02*
X4739229Y-15224460D01*
X4739229Y-15224460D02*
X4720182Y-15233984D01*
X4720182Y-15233984D02*
X4701134Y-15233984D01*
X4701134Y-15233984D02*
X4682087Y-15224460D01*
X4682087Y-15224460D02*
X4672563Y-15214936D01*
X4672563Y-15214936D02*
X4663039Y-15195888D01*
X4663039Y-15195888D02*
X4653515Y-15157793D01*
X4653515Y-15157793D02*
X4653515Y-15110174D01*
X4653515Y-15110174D02*
X4663039Y-15072079D01*
X4663039Y-15072079D02*
X4672563Y-15053031D01*
X4672563Y-15053031D02*
X4682087Y-15043508D01*
X4682087Y-15043508D02*
X4701134Y-15033984D01*
X4853515Y-15214936D02*
X4863039Y-15224460D01*
X4863039Y-15224460D02*
X4853515Y-15233984D01*
X4853515Y-15233984D02*
X4843991Y-15224460D01*
X4843991Y-15224460D02*
X4853515Y-15214936D01*
X4853515Y-15214936D02*
X4853515Y-15233984D01*
X4986848Y-15033984D02*
X5005896Y-15033984D01*
X5005896Y-15033984D02*
X5024944Y-15043508D01*
X5024944Y-15043508D02*
X5034468Y-15053031D01*
X5034468Y-15053031D02*
X5043991Y-15072079D01*
X5043991Y-15072079D02*
X5053515Y-15110174D01*
X5053515Y-15110174D02*
X5053515Y-15157793D01*
X5053515Y-15157793D02*
X5043991Y-15195888D01*
X5043991Y-15195888D02*
X5034468Y-15214936D01*
X5034468Y-15214936D02*
X5024944Y-15224460D01*
X5024944Y-15224460D02*
X5005896Y-15233984D01*
X5005896Y-15233984D02*
X4986848Y-15233984D01*
X4986848Y-15233984D02*
X4967801Y-15224460D01*
X4967801Y-15224460D02*
X4958277Y-15214936D01*
X4958277Y-15214936D02*
X4948753Y-15195888D01*
X4948753Y-15195888D02*
X4939229Y-15157793D01*
X4939229Y-15157793D02*
X4939229Y-15110174D01*
X4939229Y-15110174D02*
X4948753Y-15072079D01*
X4948753Y-15072079D02*
X4958277Y-15053031D01*
X4958277Y-15053031D02*
X4967801Y-15043508D01*
X4967801Y-15043508D02*
X4986848Y-15033984D01*
X5243991Y-15233984D02*
X5129706Y-15233984D01*
X5186848Y-15233984D02*
X5186848Y-15033984D01*
X5186848Y-15033984D02*
X5167801Y-15062555D01*
X5167801Y-15062555D02*
X5148753Y-15081603D01*
X5148753Y-15081603D02*
X5129706Y-15091127D01*
X5434468Y-15233984D02*
X5320182Y-15233984D01*
X5377325Y-15233984D02*
X5377325Y-15033984D01*
X5377325Y-15033984D02*
X5358277Y-15062555D01*
X5358277Y-15062555D02*
X5339229Y-15081603D01*
X5339229Y-15081603D02*
X5320182Y-15091127D01*
X5548753Y-15119698D02*
X5529706Y-15110174D01*
X5529706Y-15110174D02*
X5520182Y-15100650D01*
X5520182Y-15100650D02*
X5510658Y-15081603D01*
X5510658Y-15081603D02*
X5510658Y-15072079D01*
X5510658Y-15072079D02*
X5520182Y-15053031D01*
X5520182Y-15053031D02*
X5529706Y-15043508D01*
X5529706Y-15043508D02*
X5548753Y-15033984D01*
X5548753Y-15033984D02*
X5586849Y-15033984D01*
X5586849Y-15033984D02*
X5605896Y-15043508D01*
X5605896Y-15043508D02*
X5615420Y-15053031D01*
X5615420Y-15053031D02*
X5624944Y-15072079D01*
X5624944Y-15072079D02*
X5624944Y-15081603D01*
X5624944Y-15081603D02*
X5615420Y-15100650D01*
X5615420Y-15100650D02*
X5605896Y-15110174D01*
X5605896Y-15110174D02*
X5586849Y-15119698D01*
X5586849Y-15119698D02*
X5548753Y-15119698D01*
X5548753Y-15119698D02*
X5529706Y-15129222D01*
X5529706Y-15129222D02*
X5520182Y-15138746D01*
X5520182Y-15138746D02*
X5510658Y-15157793D01*
X5510658Y-15157793D02*
X5510658Y-15195888D01*
X5510658Y-15195888D02*
X5520182Y-15214936D01*
X5520182Y-15214936D02*
X5529706Y-15224460D01*
X5529706Y-15224460D02*
X5548753Y-15233984D01*
X5548753Y-15233984D02*
X5586849Y-15233984D01*
X5586849Y-15233984D02*
X5605896Y-15224460D01*
X5605896Y-15224460D02*
X5615420Y-15214936D01*
X5615420Y-15214936D02*
X5624944Y-15195888D01*
X5624944Y-15195888D02*
X5624944Y-15157793D01*
X5624944Y-15157793D02*
X5615420Y-15138746D01*
X5615420Y-15138746D02*
X5605896Y-15129222D01*
X5605896Y-15129222D02*
X5586849Y-15119698D01*
X5701134Y-15033984D02*
X5701134Y-15072079D01*
X5777325Y-15033984D02*
X5777325Y-15072079D01*
X6072563Y-15310174D02*
X6063039Y-15300650D01*
X6063039Y-15300650D02*
X6043991Y-15272079D01*
X6043991Y-15272079D02*
X6034468Y-15253031D01*
X6034468Y-15253031D02*
X6024944Y-15224460D01*
X6024944Y-15224460D02*
X6015420Y-15176841D01*
X6015420Y-15176841D02*
X6015420Y-15138746D01*
X6015420Y-15138746D02*
X6024944Y-15091127D01*
X6024944Y-15091127D02*
X6034468Y-15062555D01*
X6034468Y-15062555D02*
X6043991Y-15043508D01*
X6043991Y-15043508D02*
X6063039Y-15014936D01*
X6063039Y-15014936D02*
X6072563Y-15005412D01*
X6158277Y-15233984D02*
X6196372Y-15233984D01*
X6196372Y-15233984D02*
X6215420Y-15224460D01*
X6215420Y-15224460D02*
X6224944Y-15214936D01*
X6224944Y-15214936D02*
X6243991Y-15186365D01*
X6243991Y-15186365D02*
X6253515Y-15148269D01*
X6253515Y-15148269D02*
X6253515Y-15072079D01*
X6253515Y-15072079D02*
X6243991Y-15053031D01*
X6243991Y-15053031D02*
X6234468Y-15043508D01*
X6234468Y-15043508D02*
X6215420Y-15033984D01*
X6215420Y-15033984D02*
X6177325Y-15033984D01*
X6177325Y-15033984D02*
X6158277Y-15043508D01*
X6158277Y-15043508D02*
X6148753Y-15053031D01*
X6148753Y-15053031D02*
X6139229Y-15072079D01*
X6139229Y-15072079D02*
X6139229Y-15119698D01*
X6139229Y-15119698D02*
X6148753Y-15138746D01*
X6148753Y-15138746D02*
X6158277Y-15148269D01*
X6158277Y-15148269D02*
X6177325Y-15157793D01*
X6177325Y-15157793D02*
X6215420Y-15157793D01*
X6215420Y-15157793D02*
X6234468Y-15148269D01*
X6234468Y-15148269D02*
X6243991Y-15138746D01*
X6243991Y-15138746D02*
X6253515Y-15119698D01*
X6434468Y-15033984D02*
X6339229Y-15033984D01*
X6339229Y-15033984D02*
X6329706Y-15129222D01*
X6329706Y-15129222D02*
X6339229Y-15119698D01*
X6339229Y-15119698D02*
X6358277Y-15110174D01*
X6358277Y-15110174D02*
X6405896Y-15110174D01*
X6405896Y-15110174D02*
X6424944Y-15119698D01*
X6424944Y-15119698D02*
X6434468Y-15129222D01*
X6434468Y-15129222D02*
X6443991Y-15148269D01*
X6443991Y-15148269D02*
X6443991Y-15195888D01*
X6443991Y-15195888D02*
X6434468Y-15214936D01*
X6434468Y-15214936D02*
X6424944Y-15224460D01*
X6424944Y-15224460D02*
X6405896Y-15233984D01*
X6405896Y-15233984D02*
X6358277Y-15233984D01*
X6358277Y-15233984D02*
X6339229Y-15224460D01*
X6339229Y-15224460D02*
X6329706Y-15214936D01*
X6682087Y-15233984D02*
X6682087Y-15033984D01*
X6767801Y-15233984D02*
X6767801Y-15129222D01*
X6767801Y-15129222D02*
X6758277Y-15110174D01*
X6758277Y-15110174D02*
X6739230Y-15100650D01*
X6739230Y-15100650D02*
X6710658Y-15100650D01*
X6710658Y-15100650D02*
X6691610Y-15110174D01*
X6691610Y-15110174D02*
X6682087Y-15119698D01*
X6891610Y-15233984D02*
X6872563Y-15224460D01*
X6872563Y-15224460D02*
X6863039Y-15214936D01*
X6863039Y-15214936D02*
X6853515Y-15195888D01*
X6853515Y-15195888D02*
X6853515Y-15138746D01*
X6853515Y-15138746D02*
X6863039Y-15119698D01*
X6863039Y-15119698D02*
X6872563Y-15110174D01*
X6872563Y-15110174D02*
X6891610Y-15100650D01*
X6891610Y-15100650D02*
X6920182Y-15100650D01*
X6920182Y-15100650D02*
X6939230Y-15110174D01*
X6939230Y-15110174D02*
X6948753Y-15119698D01*
X6948753Y-15119698D02*
X6958277Y-15138746D01*
X6958277Y-15138746D02*
X6958277Y-15195888D01*
X6958277Y-15195888D02*
X6948753Y-15214936D01*
X6948753Y-15214936D02*
X6939230Y-15224460D01*
X6939230Y-15224460D02*
X6920182Y-15233984D01*
X6920182Y-15233984D02*
X6891610Y-15233984D01*
X7072563Y-15233984D02*
X7053515Y-15224460D01*
X7053515Y-15224460D02*
X7043991Y-15205412D01*
X7043991Y-15205412D02*
X7043991Y-15033984D01*
X7224944Y-15224460D02*
X7205896Y-15233984D01*
X7205896Y-15233984D02*
X7167801Y-15233984D01*
X7167801Y-15233984D02*
X7148753Y-15224460D01*
X7148753Y-15224460D02*
X7139230Y-15205412D01*
X7139230Y-15205412D02*
X7139230Y-15129222D01*
X7139230Y-15129222D02*
X7148753Y-15110174D01*
X7148753Y-15110174D02*
X7167801Y-15100650D01*
X7167801Y-15100650D02*
X7205896Y-15100650D01*
X7205896Y-15100650D02*
X7224944Y-15110174D01*
X7224944Y-15110174D02*
X7234468Y-15129222D01*
X7234468Y-15129222D02*
X7234468Y-15148269D01*
X7234468Y-15148269D02*
X7139230Y-15167317D01*
X7310658Y-15224460D02*
X7329706Y-15233984D01*
X7329706Y-15233984D02*
X7367801Y-15233984D01*
X7367801Y-15233984D02*
X7386849Y-15224460D01*
X7386849Y-15224460D02*
X7396372Y-15205412D01*
X7396372Y-15205412D02*
X7396372Y-15195888D01*
X7396372Y-15195888D02*
X7386849Y-15176841D01*
X7386849Y-15176841D02*
X7367801Y-15167317D01*
X7367801Y-15167317D02*
X7339230Y-15167317D01*
X7339230Y-15167317D02*
X7320182Y-15157793D01*
X7320182Y-15157793D02*
X7310658Y-15138746D01*
X7310658Y-15138746D02*
X7310658Y-15129222D01*
X7310658Y-15129222D02*
X7320182Y-15110174D01*
X7320182Y-15110174D02*
X7339230Y-15100650D01*
X7339230Y-15100650D02*
X7367801Y-15100650D01*
X7367801Y-15100650D02*
X7386849Y-15110174D01*
X7463039Y-15310174D02*
X7472563Y-15300650D01*
X7472563Y-15300650D02*
X7491611Y-15272079D01*
X7491611Y-15272079D02*
X7501134Y-15253031D01*
X7501134Y-15253031D02*
X7510658Y-15224460D01*
X7510658Y-15224460D02*
X7520182Y-15176841D01*
X7520182Y-15176841D02*
X7520182Y-15138746D01*
X7520182Y-15138746D02*
X7510658Y-15091127D01*
X7510658Y-15091127D02*
X7501134Y-15062555D01*
X7501134Y-15062555D02*
X7491611Y-15043508D01*
X7491611Y-15043508D02*
X7472563Y-15014936D01*
X7472563Y-15014936D02*
X7463039Y-15005412D01*
D12*
X2497500Y-15406500D02*
G75*
G02*
X2422500Y-15406500I-37500J0D01*
G01*
X2422500Y-15406500D02*
G75*
G02*
X2497500Y-15406500I37500J0D01*
G01*
D11*
X2796372Y-15297984D02*
X2815420Y-15297984D01*
X2815420Y-15297984D02*
X2834467Y-15307508D01*
X2834467Y-15307508D02*
X2843991Y-15317031D01*
X2843991Y-15317031D02*
X2853515Y-15336079D01*
X2853515Y-15336079D02*
X2863039Y-15374174D01*
X2863039Y-15374174D02*
X2863039Y-15421793D01*
X2863039Y-15421793D02*
X2853515Y-15459888D01*
X2853515Y-15459888D02*
X2843991Y-15478936D01*
X2843991Y-15478936D02*
X2834467Y-15488460D01*
X2834467Y-15488460D02*
X2815420Y-15497984D01*
X2815420Y-15497984D02*
X2796372Y-15497984D01*
X2796372Y-15497984D02*
X2777324Y-15488460D01*
X2777324Y-15488460D02*
X2767801Y-15478936D01*
X2767801Y-15478936D02*
X2758277Y-15459888D01*
X2758277Y-15459888D02*
X2748753Y-15421793D01*
X2748753Y-15421793D02*
X2748753Y-15374174D01*
X2748753Y-15374174D02*
X2758277Y-15336079D01*
X2758277Y-15336079D02*
X2767801Y-15317031D01*
X2767801Y-15317031D02*
X2777324Y-15307508D01*
X2777324Y-15307508D02*
X2796372Y-15297984D01*
X2948753Y-15478936D02*
X2958277Y-15488460D01*
X2958277Y-15488460D02*
X2948753Y-15497984D01*
X2948753Y-15497984D02*
X2939229Y-15488460D01*
X2939229Y-15488460D02*
X2948753Y-15478936D01*
X2948753Y-15478936D02*
X2948753Y-15497984D01*
X3024943Y-15297984D02*
X3158277Y-15297984D01*
X3158277Y-15297984D02*
X3072562Y-15497984D01*
X3329705Y-15297984D02*
X3234467Y-15297984D01*
X3234467Y-15297984D02*
X3224943Y-15393222D01*
X3224943Y-15393222D02*
X3234467Y-15383698D01*
X3234467Y-15383698D02*
X3253515Y-15374174D01*
X3253515Y-15374174D02*
X3301134Y-15374174D01*
X3301134Y-15374174D02*
X3320182Y-15383698D01*
X3320182Y-15383698D02*
X3329705Y-15393222D01*
X3329705Y-15393222D02*
X3339229Y-15412269D01*
X3339229Y-15412269D02*
X3339229Y-15459888D01*
X3339229Y-15459888D02*
X3329705Y-15478936D01*
X3329705Y-15478936D02*
X3320182Y-15488460D01*
X3320182Y-15488460D02*
X3301134Y-15497984D01*
X3301134Y-15497984D02*
X3253515Y-15497984D01*
X3253515Y-15497984D02*
X3234467Y-15488460D01*
X3234467Y-15488460D02*
X3224943Y-15478936D01*
X3463039Y-15297984D02*
X3482086Y-15297984D01*
X3482086Y-15297984D02*
X3501134Y-15307508D01*
X3501134Y-15307508D02*
X3510658Y-15317031D01*
X3510658Y-15317031D02*
X3520182Y-15336079D01*
X3520182Y-15336079D02*
X3529705Y-15374174D01*
X3529705Y-15374174D02*
X3529705Y-15421793D01*
X3529705Y-15421793D02*
X3520182Y-15459888D01*
X3520182Y-15459888D02*
X3510658Y-15478936D01*
X3510658Y-15478936D02*
X3501134Y-15488460D01*
X3501134Y-15488460D02*
X3482086Y-15497984D01*
X3482086Y-15497984D02*
X3463039Y-15497984D01*
X3463039Y-15497984D02*
X3443991Y-15488460D01*
X3443991Y-15488460D02*
X3434467Y-15478936D01*
X3434467Y-15478936D02*
X3424943Y-15459888D01*
X3424943Y-15459888D02*
X3415420Y-15421793D01*
X3415420Y-15421793D02*
X3415420Y-15374174D01*
X3415420Y-15374174D02*
X3424943Y-15336079D01*
X3424943Y-15336079D02*
X3434467Y-15317031D01*
X3434467Y-15317031D02*
X3443991Y-15307508D01*
X3443991Y-15307508D02*
X3463039Y-15297984D01*
X3615420Y-15497984D02*
X3615420Y-15364650D01*
X3615420Y-15383698D02*
X3624943Y-15374174D01*
X3624943Y-15374174D02*
X3643991Y-15364650D01*
X3643991Y-15364650D02*
X3672563Y-15364650D01*
X3672563Y-15364650D02*
X3691610Y-15374174D01*
X3691610Y-15374174D02*
X3701134Y-15393222D01*
X3701134Y-15393222D02*
X3701134Y-15497984D01*
X3701134Y-15393222D02*
X3710658Y-15374174D01*
X3710658Y-15374174D02*
X3729705Y-15364650D01*
X3729705Y-15364650D02*
X3758277Y-15364650D01*
X3758277Y-15364650D02*
X3777324Y-15374174D01*
X3777324Y-15374174D02*
X3786848Y-15393222D01*
X3786848Y-15393222D02*
X3786848Y-15497984D01*
X3882086Y-15497984D02*
X3882086Y-15364650D01*
X3882086Y-15383698D02*
X3891610Y-15374174D01*
X3891610Y-15374174D02*
X3910658Y-15364650D01*
X3910658Y-15364650D02*
X3939229Y-15364650D01*
X3939229Y-15364650D02*
X3958277Y-15374174D01*
X3958277Y-15374174D02*
X3967801Y-15393222D01*
X3967801Y-15393222D02*
X3967801Y-15497984D01*
X3967801Y-15393222D02*
X3977324Y-15374174D01*
X3977324Y-15374174D02*
X3996372Y-15364650D01*
X3996372Y-15364650D02*
X4024943Y-15364650D01*
X4024943Y-15364650D02*
X4043991Y-15374174D01*
X4043991Y-15374174D02*
X4053515Y-15393222D01*
X4053515Y-15393222D02*
X4053515Y-15497984D01*
X4443991Y-15288460D02*
X4272563Y-15545603D01*
X4701134Y-15297984D02*
X4720182Y-15297984D01*
X4720182Y-15297984D02*
X4739229Y-15307508D01*
X4739229Y-15307508D02*
X4748753Y-15317031D01*
X4748753Y-15317031D02*
X4758277Y-15336079D01*
X4758277Y-15336079D02*
X4767801Y-15374174D01*
X4767801Y-15374174D02*
X4767801Y-15421793D01*
X4767801Y-15421793D02*
X4758277Y-15459888D01*
X4758277Y-15459888D02*
X4748753Y-15478936D01*
X4748753Y-15478936D02*
X4739229Y-15488460D01*
X4739229Y-15488460D02*
X4720182Y-15497984D01*
X4720182Y-15497984D02*
X4701134Y-15497984D01*
X4701134Y-15497984D02*
X4682087Y-15488460D01*
X4682087Y-15488460D02*
X4672563Y-15478936D01*
X4672563Y-15478936D02*
X4663039Y-15459888D01*
X4663039Y-15459888D02*
X4653515Y-15421793D01*
X4653515Y-15421793D02*
X4653515Y-15374174D01*
X4653515Y-15374174D02*
X4663039Y-15336079D01*
X4663039Y-15336079D02*
X4672563Y-15317031D01*
X4672563Y-15317031D02*
X4682087Y-15307508D01*
X4682087Y-15307508D02*
X4701134Y-15297984D01*
X4853515Y-15478936D02*
X4863039Y-15488460D01*
X4863039Y-15488460D02*
X4853515Y-15497984D01*
X4853515Y-15497984D02*
X4843991Y-15488460D01*
X4843991Y-15488460D02*
X4853515Y-15478936D01*
X4853515Y-15478936D02*
X4853515Y-15497984D01*
X4986848Y-15297984D02*
X5005896Y-15297984D01*
X5005896Y-15297984D02*
X5024944Y-15307508D01*
X5024944Y-15307508D02*
X5034468Y-15317031D01*
X5034468Y-15317031D02*
X5043991Y-15336079D01*
X5043991Y-15336079D02*
X5053515Y-15374174D01*
X5053515Y-15374174D02*
X5053515Y-15421793D01*
X5053515Y-15421793D02*
X5043991Y-15459888D01*
X5043991Y-15459888D02*
X5034468Y-15478936D01*
X5034468Y-15478936D02*
X5024944Y-15488460D01*
X5024944Y-15488460D02*
X5005896Y-15497984D01*
X5005896Y-15497984D02*
X4986848Y-15497984D01*
X4986848Y-15497984D02*
X4967801Y-15488460D01*
X4967801Y-15488460D02*
X4958277Y-15478936D01*
X4958277Y-15478936D02*
X4948753Y-15459888D01*
X4948753Y-15459888D02*
X4939229Y-15421793D01*
X4939229Y-15421793D02*
X4939229Y-15374174D01*
X4939229Y-15374174D02*
X4948753Y-15336079D01*
X4948753Y-15336079D02*
X4958277Y-15317031D01*
X4958277Y-15317031D02*
X4967801Y-15307508D01*
X4967801Y-15307508D02*
X4986848Y-15297984D01*
X5129706Y-15317031D02*
X5139229Y-15307508D01*
X5139229Y-15307508D02*
X5158277Y-15297984D01*
X5158277Y-15297984D02*
X5205896Y-15297984D01*
X5205896Y-15297984D02*
X5224944Y-15307508D01*
X5224944Y-15307508D02*
X5234468Y-15317031D01*
X5234468Y-15317031D02*
X5243991Y-15336079D01*
X5243991Y-15336079D02*
X5243991Y-15355127D01*
X5243991Y-15355127D02*
X5234468Y-15383698D01*
X5234468Y-15383698D02*
X5120182Y-15497984D01*
X5120182Y-15497984D02*
X5243991Y-15497984D01*
X5339229Y-15497984D02*
X5377325Y-15497984D01*
X5377325Y-15497984D02*
X5396372Y-15488460D01*
X5396372Y-15488460D02*
X5405896Y-15478936D01*
X5405896Y-15478936D02*
X5424944Y-15450365D01*
X5424944Y-15450365D02*
X5434468Y-15412269D01*
X5434468Y-15412269D02*
X5434468Y-15336079D01*
X5434468Y-15336079D02*
X5424944Y-15317031D01*
X5424944Y-15317031D02*
X5415420Y-15307508D01*
X5415420Y-15307508D02*
X5396372Y-15297984D01*
X5396372Y-15297984D02*
X5358277Y-15297984D01*
X5358277Y-15297984D02*
X5339229Y-15307508D01*
X5339229Y-15307508D02*
X5329706Y-15317031D01*
X5329706Y-15317031D02*
X5320182Y-15336079D01*
X5320182Y-15336079D02*
X5320182Y-15383698D01*
X5320182Y-15383698D02*
X5329706Y-15402746D01*
X5329706Y-15402746D02*
X5339229Y-15412269D01*
X5339229Y-15412269D02*
X5358277Y-15421793D01*
X5358277Y-15421793D02*
X5396372Y-15421793D01*
X5396372Y-15421793D02*
X5415420Y-15412269D01*
X5415420Y-15412269D02*
X5424944Y-15402746D01*
X5424944Y-15402746D02*
X5434468Y-15383698D01*
X5615420Y-15297984D02*
X5520182Y-15297984D01*
X5520182Y-15297984D02*
X5510658Y-15393222D01*
X5510658Y-15393222D02*
X5520182Y-15383698D01*
X5520182Y-15383698D02*
X5539229Y-15374174D01*
X5539229Y-15374174D02*
X5586849Y-15374174D01*
X5586849Y-15374174D02*
X5605896Y-15383698D01*
X5605896Y-15383698D02*
X5615420Y-15393222D01*
X5615420Y-15393222D02*
X5624944Y-15412269D01*
X5624944Y-15412269D02*
X5624944Y-15459888D01*
X5624944Y-15459888D02*
X5615420Y-15478936D01*
X5615420Y-15478936D02*
X5605896Y-15488460D01*
X5605896Y-15488460D02*
X5586849Y-15497984D01*
X5586849Y-15497984D02*
X5539229Y-15497984D01*
X5539229Y-15497984D02*
X5520182Y-15488460D01*
X5520182Y-15488460D02*
X5510658Y-15478936D01*
X5701134Y-15297984D02*
X5701134Y-15336079D01*
X5777325Y-15297984D02*
X5777325Y-15336079D01*
X6072563Y-15574174D02*
X6063039Y-15564650D01*
X6063039Y-15564650D02*
X6043991Y-15536079D01*
X6043991Y-15536079D02*
X6034468Y-15517031D01*
X6034468Y-15517031D02*
X6024944Y-15488460D01*
X6024944Y-15488460D02*
X6015420Y-15440841D01*
X6015420Y-15440841D02*
X6015420Y-15402746D01*
X6015420Y-15402746D02*
X6024944Y-15355127D01*
X6024944Y-15355127D02*
X6034468Y-15326555D01*
X6034468Y-15326555D02*
X6043991Y-15307508D01*
X6043991Y-15307508D02*
X6063039Y-15278936D01*
X6063039Y-15278936D02*
X6072563Y-15269412D01*
X6139229Y-15317031D02*
X6148753Y-15307508D01*
X6148753Y-15307508D02*
X6167801Y-15297984D01*
X6167801Y-15297984D02*
X6215420Y-15297984D01*
X6215420Y-15297984D02*
X6234468Y-15307508D01*
X6234468Y-15307508D02*
X6243991Y-15317031D01*
X6243991Y-15317031D02*
X6253515Y-15336079D01*
X6253515Y-15336079D02*
X6253515Y-15355127D01*
X6253515Y-15355127D02*
X6243991Y-15383698D01*
X6243991Y-15383698D02*
X6129706Y-15497984D01*
X6129706Y-15497984D02*
X6253515Y-15497984D01*
X6329706Y-15317031D02*
X6339229Y-15307508D01*
X6339229Y-15307508D02*
X6358277Y-15297984D01*
X6358277Y-15297984D02*
X6405896Y-15297984D01*
X6405896Y-15297984D02*
X6424944Y-15307508D01*
X6424944Y-15307508D02*
X6434468Y-15317031D01*
X6434468Y-15317031D02*
X6443991Y-15336079D01*
X6443991Y-15336079D02*
X6443991Y-15355127D01*
X6443991Y-15355127D02*
X6434468Y-15383698D01*
X6434468Y-15383698D02*
X6320182Y-15497984D01*
X6320182Y-15497984D02*
X6443991Y-15497984D01*
X6682087Y-15497984D02*
X6682087Y-15297984D01*
X6767801Y-15497984D02*
X6767801Y-15393222D01*
X6767801Y-15393222D02*
X6758277Y-15374174D01*
X6758277Y-15374174D02*
X6739230Y-15364650D01*
X6739230Y-15364650D02*
X6710658Y-15364650D01*
X6710658Y-15364650D02*
X6691610Y-15374174D01*
X6691610Y-15374174D02*
X6682087Y-15383698D01*
X6891610Y-15497984D02*
X6872563Y-15488460D01*
X6872563Y-15488460D02*
X6863039Y-15478936D01*
X6863039Y-15478936D02*
X6853515Y-15459888D01*
X6853515Y-15459888D02*
X6853515Y-15402746D01*
X6853515Y-15402746D02*
X6863039Y-15383698D01*
X6863039Y-15383698D02*
X6872563Y-15374174D01*
X6872563Y-15374174D02*
X6891610Y-15364650D01*
X6891610Y-15364650D02*
X6920182Y-15364650D01*
X6920182Y-15364650D02*
X6939230Y-15374174D01*
X6939230Y-15374174D02*
X6948753Y-15383698D01*
X6948753Y-15383698D02*
X6958277Y-15402746D01*
X6958277Y-15402746D02*
X6958277Y-15459888D01*
X6958277Y-15459888D02*
X6948753Y-15478936D01*
X6948753Y-15478936D02*
X6939230Y-15488460D01*
X6939230Y-15488460D02*
X6920182Y-15497984D01*
X6920182Y-15497984D02*
X6891610Y-15497984D01*
X7072563Y-15497984D02*
X7053515Y-15488460D01*
X7053515Y-15488460D02*
X7043991Y-15469412D01*
X7043991Y-15469412D02*
X7043991Y-15297984D01*
X7224944Y-15488460D02*
X7205896Y-15497984D01*
X7205896Y-15497984D02*
X7167801Y-15497984D01*
X7167801Y-15497984D02*
X7148753Y-15488460D01*
X7148753Y-15488460D02*
X7139230Y-15469412D01*
X7139230Y-15469412D02*
X7139230Y-15393222D01*
X7139230Y-15393222D02*
X7148753Y-15374174D01*
X7148753Y-15374174D02*
X7167801Y-15364650D01*
X7167801Y-15364650D02*
X7205896Y-15364650D01*
X7205896Y-15364650D02*
X7224944Y-15374174D01*
X7224944Y-15374174D02*
X7234468Y-15393222D01*
X7234468Y-15393222D02*
X7234468Y-15412269D01*
X7234468Y-15412269D02*
X7139230Y-15431317D01*
X7310658Y-15488460D02*
X7329706Y-15497984D01*
X7329706Y-15497984D02*
X7367801Y-15497984D01*
X7367801Y-15497984D02*
X7386849Y-15488460D01*
X7386849Y-15488460D02*
X7396372Y-15469412D01*
X7396372Y-15469412D02*
X7396372Y-15459888D01*
X7396372Y-15459888D02*
X7386849Y-15440841D01*
X7386849Y-15440841D02*
X7367801Y-15431317D01*
X7367801Y-15431317D02*
X7339230Y-15431317D01*
X7339230Y-15431317D02*
X7320182Y-15421793D01*
X7320182Y-15421793D02*
X7310658Y-15402746D01*
X7310658Y-15402746D02*
X7310658Y-15393222D01*
X7310658Y-15393222D02*
X7320182Y-15374174D01*
X7320182Y-15374174D02*
X7339230Y-15364650D01*
X7339230Y-15364650D02*
X7367801Y-15364650D01*
X7367801Y-15364650D02*
X7386849Y-15374174D01*
X7463039Y-15574174D02*
X7472563Y-15564650D01*
X7472563Y-15564650D02*
X7491611Y-15536079D01*
X7491611Y-15536079D02*
X7501134Y-15517031D01*
X7501134Y-15517031D02*
X7510658Y-15488460D01*
X7510658Y-15488460D02*
X7520182Y-15440841D01*
X7520182Y-15440841D02*
X7520182Y-15402746D01*
X7520182Y-15402746D02*
X7510658Y-15355127D01*
X7510658Y-15355127D02*
X7501134Y-15326555D01*
X7501134Y-15326555D02*
X7491611Y-15307508D01*
X7491611Y-15307508D02*
X7472563Y-15278936D01*
X7472563Y-15278936D02*
X7463039Y-15269412D01*
D12*
X2457500Y-15630500D02*
X2457500Y-15710500D01*
X2417500Y-15670500D02*
X2497500Y-15670500D01*
D11*
X2796372Y-15561984D02*
X2815420Y-15561984D01*
X2815420Y-15561984D02*
X2834467Y-15571508D01*
X2834467Y-15571508D02*
X2843991Y-15581031D01*
X2843991Y-15581031D02*
X2853515Y-15600079D01*
X2853515Y-15600079D02*
X2863039Y-15638174D01*
X2863039Y-15638174D02*
X2863039Y-15685793D01*
X2863039Y-15685793D02*
X2853515Y-15723888D01*
X2853515Y-15723888D02*
X2843991Y-15742936D01*
X2843991Y-15742936D02*
X2834467Y-15752460D01*
X2834467Y-15752460D02*
X2815420Y-15761984D01*
X2815420Y-15761984D02*
X2796372Y-15761984D01*
X2796372Y-15761984D02*
X2777324Y-15752460D01*
X2777324Y-15752460D02*
X2767801Y-15742936D01*
X2767801Y-15742936D02*
X2758277Y-15723888D01*
X2758277Y-15723888D02*
X2748753Y-15685793D01*
X2748753Y-15685793D02*
X2748753Y-15638174D01*
X2748753Y-15638174D02*
X2758277Y-15600079D01*
X2758277Y-15600079D02*
X2767801Y-15581031D01*
X2767801Y-15581031D02*
X2777324Y-15571508D01*
X2777324Y-15571508D02*
X2796372Y-15561984D01*
X2948753Y-15742936D02*
X2958277Y-15752460D01*
X2958277Y-15752460D02*
X2948753Y-15761984D01*
X2948753Y-15761984D02*
X2939229Y-15752460D01*
X2939229Y-15752460D02*
X2948753Y-15742936D01*
X2948753Y-15742936D02*
X2948753Y-15761984D01*
X3072562Y-15647698D02*
X3053515Y-15638174D01*
X3053515Y-15638174D02*
X3043991Y-15628650D01*
X3043991Y-15628650D02*
X3034467Y-15609603D01*
X3034467Y-15609603D02*
X3034467Y-15600079D01*
X3034467Y-15600079D02*
X3043991Y-15581031D01*
X3043991Y-15581031D02*
X3053515Y-15571508D01*
X3053515Y-15571508D02*
X3072562Y-15561984D01*
X3072562Y-15561984D02*
X3110658Y-15561984D01*
X3110658Y-15561984D02*
X3129705Y-15571508D01*
X3129705Y-15571508D02*
X3139229Y-15581031D01*
X3139229Y-15581031D02*
X3148753Y-15600079D01*
X3148753Y-15600079D02*
X3148753Y-15609603D01*
X3148753Y-15609603D02*
X3139229Y-15628650D01*
X3139229Y-15628650D02*
X3129705Y-15638174D01*
X3129705Y-15638174D02*
X3110658Y-15647698D01*
X3110658Y-15647698D02*
X3072562Y-15647698D01*
X3072562Y-15647698D02*
X3053515Y-15657222D01*
X3053515Y-15657222D02*
X3043991Y-15666746D01*
X3043991Y-15666746D02*
X3034467Y-15685793D01*
X3034467Y-15685793D02*
X3034467Y-15723888D01*
X3034467Y-15723888D02*
X3043991Y-15742936D01*
X3043991Y-15742936D02*
X3053515Y-15752460D01*
X3053515Y-15752460D02*
X3072562Y-15761984D01*
X3072562Y-15761984D02*
X3110658Y-15761984D01*
X3110658Y-15761984D02*
X3129705Y-15752460D01*
X3129705Y-15752460D02*
X3139229Y-15742936D01*
X3139229Y-15742936D02*
X3148753Y-15723888D01*
X3148753Y-15723888D02*
X3148753Y-15685793D01*
X3148753Y-15685793D02*
X3139229Y-15666746D01*
X3139229Y-15666746D02*
X3129705Y-15657222D01*
X3129705Y-15657222D02*
X3110658Y-15647698D01*
X3272562Y-15561984D02*
X3291610Y-15561984D01*
X3291610Y-15561984D02*
X3310658Y-15571508D01*
X3310658Y-15571508D02*
X3320182Y-15581031D01*
X3320182Y-15581031D02*
X3329705Y-15600079D01*
X3329705Y-15600079D02*
X3339229Y-15638174D01*
X3339229Y-15638174D02*
X3339229Y-15685793D01*
X3339229Y-15685793D02*
X3329705Y-15723888D01*
X3329705Y-15723888D02*
X3320182Y-15742936D01*
X3320182Y-15742936D02*
X3310658Y-15752460D01*
X3310658Y-15752460D02*
X3291610Y-15761984D01*
X3291610Y-15761984D02*
X3272562Y-15761984D01*
X3272562Y-15761984D02*
X3253515Y-15752460D01*
X3253515Y-15752460D02*
X3243991Y-15742936D01*
X3243991Y-15742936D02*
X3234467Y-15723888D01*
X3234467Y-15723888D02*
X3224943Y-15685793D01*
X3224943Y-15685793D02*
X3224943Y-15638174D01*
X3224943Y-15638174D02*
X3234467Y-15600079D01*
X3234467Y-15600079D02*
X3243991Y-15581031D01*
X3243991Y-15581031D02*
X3253515Y-15571508D01*
X3253515Y-15571508D02*
X3272562Y-15561984D01*
X3463039Y-15561984D02*
X3482086Y-15561984D01*
X3482086Y-15561984D02*
X3501134Y-15571508D01*
X3501134Y-15571508D02*
X3510658Y-15581031D01*
X3510658Y-15581031D02*
X3520182Y-15600079D01*
X3520182Y-15600079D02*
X3529705Y-15638174D01*
X3529705Y-15638174D02*
X3529705Y-15685793D01*
X3529705Y-15685793D02*
X3520182Y-15723888D01*
X3520182Y-15723888D02*
X3510658Y-15742936D01*
X3510658Y-15742936D02*
X3501134Y-15752460D01*
X3501134Y-15752460D02*
X3482086Y-15761984D01*
X3482086Y-15761984D02*
X3463039Y-15761984D01*
X3463039Y-15761984D02*
X3443991Y-15752460D01*
X3443991Y-15752460D02*
X3434467Y-15742936D01*
X3434467Y-15742936D02*
X3424943Y-15723888D01*
X3424943Y-15723888D02*
X3415420Y-15685793D01*
X3415420Y-15685793D02*
X3415420Y-15638174D01*
X3415420Y-15638174D02*
X3424943Y-15600079D01*
X3424943Y-15600079D02*
X3434467Y-15581031D01*
X3434467Y-15581031D02*
X3443991Y-15571508D01*
X3443991Y-15571508D02*
X3463039Y-15561984D01*
X3615420Y-15761984D02*
X3615420Y-15628650D01*
X3615420Y-15647698D02*
X3624943Y-15638174D01*
X3624943Y-15638174D02*
X3643991Y-15628650D01*
X3643991Y-15628650D02*
X3672563Y-15628650D01*
X3672563Y-15628650D02*
X3691610Y-15638174D01*
X3691610Y-15638174D02*
X3701134Y-15657222D01*
X3701134Y-15657222D02*
X3701134Y-15761984D01*
X3701134Y-15657222D02*
X3710658Y-15638174D01*
X3710658Y-15638174D02*
X3729705Y-15628650D01*
X3729705Y-15628650D02*
X3758277Y-15628650D01*
X3758277Y-15628650D02*
X3777324Y-15638174D01*
X3777324Y-15638174D02*
X3786848Y-15657222D01*
X3786848Y-15657222D02*
X3786848Y-15761984D01*
X3882086Y-15761984D02*
X3882086Y-15628650D01*
X3882086Y-15647698D02*
X3891610Y-15638174D01*
X3891610Y-15638174D02*
X3910658Y-15628650D01*
X3910658Y-15628650D02*
X3939229Y-15628650D01*
X3939229Y-15628650D02*
X3958277Y-15638174D01*
X3958277Y-15638174D02*
X3967801Y-15657222D01*
X3967801Y-15657222D02*
X3967801Y-15761984D01*
X3967801Y-15657222D02*
X3977324Y-15638174D01*
X3977324Y-15638174D02*
X3996372Y-15628650D01*
X3996372Y-15628650D02*
X4024943Y-15628650D01*
X4024943Y-15628650D02*
X4043991Y-15638174D01*
X4043991Y-15638174D02*
X4053515Y-15657222D01*
X4053515Y-15657222D02*
X4053515Y-15761984D01*
X4443991Y-15552460D02*
X4272563Y-15809603D01*
X4701134Y-15561984D02*
X4720182Y-15561984D01*
X4720182Y-15561984D02*
X4739229Y-15571508D01*
X4739229Y-15571508D02*
X4748753Y-15581031D01*
X4748753Y-15581031D02*
X4758277Y-15600079D01*
X4758277Y-15600079D02*
X4767801Y-15638174D01*
X4767801Y-15638174D02*
X4767801Y-15685793D01*
X4767801Y-15685793D02*
X4758277Y-15723888D01*
X4758277Y-15723888D02*
X4748753Y-15742936D01*
X4748753Y-15742936D02*
X4739229Y-15752460D01*
X4739229Y-15752460D02*
X4720182Y-15761984D01*
X4720182Y-15761984D02*
X4701134Y-15761984D01*
X4701134Y-15761984D02*
X4682087Y-15752460D01*
X4682087Y-15752460D02*
X4672563Y-15742936D01*
X4672563Y-15742936D02*
X4663039Y-15723888D01*
X4663039Y-15723888D02*
X4653515Y-15685793D01*
X4653515Y-15685793D02*
X4653515Y-15638174D01*
X4653515Y-15638174D02*
X4663039Y-15600079D01*
X4663039Y-15600079D02*
X4672563Y-15581031D01*
X4672563Y-15581031D02*
X4682087Y-15571508D01*
X4682087Y-15571508D02*
X4701134Y-15561984D01*
X4853515Y-15742936D02*
X4863039Y-15752460D01*
X4863039Y-15752460D02*
X4853515Y-15761984D01*
X4853515Y-15761984D02*
X4843991Y-15752460D01*
X4843991Y-15752460D02*
X4853515Y-15742936D01*
X4853515Y-15742936D02*
X4853515Y-15761984D01*
X4986848Y-15561984D02*
X5005896Y-15561984D01*
X5005896Y-15561984D02*
X5024944Y-15571508D01*
X5024944Y-15571508D02*
X5034468Y-15581031D01*
X5034468Y-15581031D02*
X5043991Y-15600079D01*
X5043991Y-15600079D02*
X5053515Y-15638174D01*
X5053515Y-15638174D02*
X5053515Y-15685793D01*
X5053515Y-15685793D02*
X5043991Y-15723888D01*
X5043991Y-15723888D02*
X5034468Y-15742936D01*
X5034468Y-15742936D02*
X5024944Y-15752460D01*
X5024944Y-15752460D02*
X5005896Y-15761984D01*
X5005896Y-15761984D02*
X4986848Y-15761984D01*
X4986848Y-15761984D02*
X4967801Y-15752460D01*
X4967801Y-15752460D02*
X4958277Y-15742936D01*
X4958277Y-15742936D02*
X4948753Y-15723888D01*
X4948753Y-15723888D02*
X4939229Y-15685793D01*
X4939229Y-15685793D02*
X4939229Y-15638174D01*
X4939229Y-15638174D02*
X4948753Y-15600079D01*
X4948753Y-15600079D02*
X4958277Y-15581031D01*
X4958277Y-15581031D02*
X4967801Y-15571508D01*
X4967801Y-15571508D02*
X4986848Y-15561984D01*
X5120182Y-15561984D02*
X5243991Y-15561984D01*
X5243991Y-15561984D02*
X5177325Y-15638174D01*
X5177325Y-15638174D02*
X5205896Y-15638174D01*
X5205896Y-15638174D02*
X5224944Y-15647698D01*
X5224944Y-15647698D02*
X5234468Y-15657222D01*
X5234468Y-15657222D02*
X5243991Y-15676269D01*
X5243991Y-15676269D02*
X5243991Y-15723888D01*
X5243991Y-15723888D02*
X5234468Y-15742936D01*
X5234468Y-15742936D02*
X5224944Y-15752460D01*
X5224944Y-15752460D02*
X5205896Y-15761984D01*
X5205896Y-15761984D02*
X5148753Y-15761984D01*
X5148753Y-15761984D02*
X5129706Y-15752460D01*
X5129706Y-15752460D02*
X5120182Y-15742936D01*
X5434468Y-15761984D02*
X5320182Y-15761984D01*
X5377325Y-15761984D02*
X5377325Y-15561984D01*
X5377325Y-15561984D02*
X5358277Y-15590555D01*
X5358277Y-15590555D02*
X5339229Y-15609603D01*
X5339229Y-15609603D02*
X5320182Y-15619127D01*
X5615420Y-15561984D02*
X5520182Y-15561984D01*
X5520182Y-15561984D02*
X5510658Y-15657222D01*
X5510658Y-15657222D02*
X5520182Y-15647698D01*
X5520182Y-15647698D02*
X5539229Y-15638174D01*
X5539229Y-15638174D02*
X5586849Y-15638174D01*
X5586849Y-15638174D02*
X5605896Y-15647698D01*
X5605896Y-15647698D02*
X5615420Y-15657222D01*
X5615420Y-15657222D02*
X5624944Y-15676269D01*
X5624944Y-15676269D02*
X5624944Y-15723888D01*
X5624944Y-15723888D02*
X5615420Y-15742936D01*
X5615420Y-15742936D02*
X5605896Y-15752460D01*
X5605896Y-15752460D02*
X5586849Y-15761984D01*
X5586849Y-15761984D02*
X5539229Y-15761984D01*
X5539229Y-15761984D02*
X5520182Y-15752460D01*
X5520182Y-15752460D02*
X5510658Y-15742936D01*
X5701134Y-15561984D02*
X5701134Y-15600079D01*
X5777325Y-15561984D02*
X5777325Y-15600079D01*
X6072563Y-15838174D02*
X6063039Y-15828650D01*
X6063039Y-15828650D02*
X6043991Y-15800079D01*
X6043991Y-15800079D02*
X6034468Y-15781031D01*
X6034468Y-15781031D02*
X6024944Y-15752460D01*
X6024944Y-15752460D02*
X6015420Y-15704841D01*
X6015420Y-15704841D02*
X6015420Y-15666746D01*
X6015420Y-15666746D02*
X6024944Y-15619127D01*
X6024944Y-15619127D02*
X6034468Y-15590555D01*
X6034468Y-15590555D02*
X6043991Y-15571508D01*
X6043991Y-15571508D02*
X6063039Y-15542936D01*
X6063039Y-15542936D02*
X6072563Y-15533412D01*
X6253515Y-15761984D02*
X6139229Y-15761984D01*
X6196372Y-15761984D02*
X6196372Y-15561984D01*
X6196372Y-15561984D02*
X6177325Y-15590555D01*
X6177325Y-15590555D02*
X6158277Y-15609603D01*
X6158277Y-15609603D02*
X6139229Y-15619127D01*
X6329706Y-15581031D02*
X6339229Y-15571508D01*
X6339229Y-15571508D02*
X6358277Y-15561984D01*
X6358277Y-15561984D02*
X6405896Y-15561984D01*
X6405896Y-15561984D02*
X6424944Y-15571508D01*
X6424944Y-15571508D02*
X6434468Y-15581031D01*
X6434468Y-15581031D02*
X6443991Y-15600079D01*
X6443991Y-15600079D02*
X6443991Y-15619127D01*
X6443991Y-15619127D02*
X6434468Y-15647698D01*
X6434468Y-15647698D02*
X6320182Y-15761984D01*
X6320182Y-15761984D02*
X6443991Y-15761984D01*
X6682087Y-15761984D02*
X6682087Y-15561984D01*
X6767801Y-15761984D02*
X6767801Y-15657222D01*
X6767801Y-15657222D02*
X6758277Y-15638174D01*
X6758277Y-15638174D02*
X6739230Y-15628650D01*
X6739230Y-15628650D02*
X6710658Y-15628650D01*
X6710658Y-15628650D02*
X6691610Y-15638174D01*
X6691610Y-15638174D02*
X6682087Y-15647698D01*
X6891610Y-15761984D02*
X6872563Y-15752460D01*
X6872563Y-15752460D02*
X6863039Y-15742936D01*
X6863039Y-15742936D02*
X6853515Y-15723888D01*
X6853515Y-15723888D02*
X6853515Y-15666746D01*
X6853515Y-15666746D02*
X6863039Y-15647698D01*
X6863039Y-15647698D02*
X6872563Y-15638174D01*
X6872563Y-15638174D02*
X6891610Y-15628650D01*
X6891610Y-15628650D02*
X6920182Y-15628650D01*
X6920182Y-15628650D02*
X6939230Y-15638174D01*
X6939230Y-15638174D02*
X6948753Y-15647698D01*
X6948753Y-15647698D02*
X6958277Y-15666746D01*
X6958277Y-15666746D02*
X6958277Y-15723888D01*
X6958277Y-15723888D02*
X6948753Y-15742936D01*
X6948753Y-15742936D02*
X6939230Y-15752460D01*
X6939230Y-15752460D02*
X6920182Y-15761984D01*
X6920182Y-15761984D02*
X6891610Y-15761984D01*
X7072563Y-15761984D02*
X7053515Y-15752460D01*
X7053515Y-15752460D02*
X7043991Y-15733412D01*
X7043991Y-15733412D02*
X7043991Y-15561984D01*
X7224944Y-15752460D02*
X7205896Y-15761984D01*
X7205896Y-15761984D02*
X7167801Y-15761984D01*
X7167801Y-15761984D02*
X7148753Y-15752460D01*
X7148753Y-15752460D02*
X7139230Y-15733412D01*
X7139230Y-15733412D02*
X7139230Y-15657222D01*
X7139230Y-15657222D02*
X7148753Y-15638174D01*
X7148753Y-15638174D02*
X7167801Y-15628650D01*
X7167801Y-15628650D02*
X7205896Y-15628650D01*
X7205896Y-15628650D02*
X7224944Y-15638174D01*
X7224944Y-15638174D02*
X7234468Y-15657222D01*
X7234468Y-15657222D02*
X7234468Y-15676269D01*
X7234468Y-15676269D02*
X7139230Y-15695317D01*
X7310658Y-15752460D02*
X7329706Y-15761984D01*
X7329706Y-15761984D02*
X7367801Y-15761984D01*
X7367801Y-15761984D02*
X7386849Y-15752460D01*
X7386849Y-15752460D02*
X7396372Y-15733412D01*
X7396372Y-15733412D02*
X7396372Y-15723888D01*
X7396372Y-15723888D02*
X7386849Y-15704841D01*
X7386849Y-15704841D02*
X7367801Y-15695317D01*
X7367801Y-15695317D02*
X7339230Y-15695317D01*
X7339230Y-15695317D02*
X7320182Y-15685793D01*
X7320182Y-15685793D02*
X7310658Y-15666746D01*
X7310658Y-15666746D02*
X7310658Y-15657222D01*
X7310658Y-15657222D02*
X7320182Y-15638174D01*
X7320182Y-15638174D02*
X7339230Y-15628650D01*
X7339230Y-15628650D02*
X7367801Y-15628650D01*
X7367801Y-15628650D02*
X7386849Y-15638174D01*
X7463039Y-15838174D02*
X7472563Y-15828650D01*
X7472563Y-15828650D02*
X7491611Y-15800079D01*
X7491611Y-15800079D02*
X7501134Y-15781031D01*
X7501134Y-15781031D02*
X7510658Y-15752460D01*
X7510658Y-15752460D02*
X7520182Y-15704841D01*
X7520182Y-15704841D02*
X7520182Y-15666746D01*
X7520182Y-15666746D02*
X7510658Y-15619127D01*
X7510658Y-15619127D02*
X7501134Y-15590555D01*
X7501134Y-15590555D02*
X7491611Y-15571508D01*
X7491611Y-15571508D02*
X7472563Y-15542936D01*
X7472563Y-15542936D02*
X7463039Y-15533412D01*
D12*
X2483588Y-15968088D02*
X2483588Y-15900912D01*
X2416412Y-15900912D01*
X2416412Y-15968088D01*
X2483588Y-15968088D01*
D11*
X2796372Y-15825984D02*
X2815420Y-15825984D01*
X2815420Y-15825984D02*
X2834467Y-15835508D01*
X2834467Y-15835508D02*
X2843991Y-15845031D01*
X2843991Y-15845031D02*
X2853515Y-15864079D01*
X2853515Y-15864079D02*
X2863039Y-15902174D01*
X2863039Y-15902174D02*
X2863039Y-15949793D01*
X2863039Y-15949793D02*
X2853515Y-15987888D01*
X2853515Y-15987888D02*
X2843991Y-16006936D01*
X2843991Y-16006936D02*
X2834467Y-16016460D01*
X2834467Y-16016460D02*
X2815420Y-16025984D01*
X2815420Y-16025984D02*
X2796372Y-16025984D01*
X2796372Y-16025984D02*
X2777324Y-16016460D01*
X2777324Y-16016460D02*
X2767801Y-16006936D01*
X2767801Y-16006936D02*
X2758277Y-15987888D01*
X2758277Y-15987888D02*
X2748753Y-15949793D01*
X2748753Y-15949793D02*
X2748753Y-15902174D01*
X2748753Y-15902174D02*
X2758277Y-15864079D01*
X2758277Y-15864079D02*
X2767801Y-15845031D01*
X2767801Y-15845031D02*
X2777324Y-15835508D01*
X2777324Y-15835508D02*
X2796372Y-15825984D01*
X2948753Y-16006936D02*
X2958277Y-16016460D01*
X2958277Y-16016460D02*
X2948753Y-16025984D01*
X2948753Y-16025984D02*
X2939229Y-16016460D01*
X2939229Y-16016460D02*
X2948753Y-16006936D01*
X2948753Y-16006936D02*
X2948753Y-16025984D01*
X3053515Y-16025984D02*
X3091610Y-16025984D01*
X3091610Y-16025984D02*
X3110658Y-16016460D01*
X3110658Y-16016460D02*
X3120182Y-16006936D01*
X3120182Y-16006936D02*
X3139229Y-15978365D01*
X3139229Y-15978365D02*
X3148753Y-15940269D01*
X3148753Y-15940269D02*
X3148753Y-15864079D01*
X3148753Y-15864079D02*
X3139229Y-15845031D01*
X3139229Y-15845031D02*
X3129705Y-15835508D01*
X3129705Y-15835508D02*
X3110658Y-15825984D01*
X3110658Y-15825984D02*
X3072562Y-15825984D01*
X3072562Y-15825984D02*
X3053515Y-15835508D01*
X3053515Y-15835508D02*
X3043991Y-15845031D01*
X3043991Y-15845031D02*
X3034467Y-15864079D01*
X3034467Y-15864079D02*
X3034467Y-15911698D01*
X3034467Y-15911698D02*
X3043991Y-15930746D01*
X3043991Y-15930746D02*
X3053515Y-15940269D01*
X3053515Y-15940269D02*
X3072562Y-15949793D01*
X3072562Y-15949793D02*
X3110658Y-15949793D01*
X3110658Y-15949793D02*
X3129705Y-15940269D01*
X3129705Y-15940269D02*
X3139229Y-15930746D01*
X3139229Y-15930746D02*
X3148753Y-15911698D01*
X3329705Y-15825984D02*
X3234467Y-15825984D01*
X3234467Y-15825984D02*
X3224943Y-15921222D01*
X3224943Y-15921222D02*
X3234467Y-15911698D01*
X3234467Y-15911698D02*
X3253515Y-15902174D01*
X3253515Y-15902174D02*
X3301134Y-15902174D01*
X3301134Y-15902174D02*
X3320182Y-15911698D01*
X3320182Y-15911698D02*
X3329705Y-15921222D01*
X3329705Y-15921222D02*
X3339229Y-15940269D01*
X3339229Y-15940269D02*
X3339229Y-15987888D01*
X3339229Y-15987888D02*
X3329705Y-16006936D01*
X3329705Y-16006936D02*
X3320182Y-16016460D01*
X3320182Y-16016460D02*
X3301134Y-16025984D01*
X3301134Y-16025984D02*
X3253515Y-16025984D01*
X3253515Y-16025984D02*
X3234467Y-16016460D01*
X3234467Y-16016460D02*
X3224943Y-16006936D01*
X3463039Y-15825984D02*
X3482086Y-15825984D01*
X3482086Y-15825984D02*
X3501134Y-15835508D01*
X3501134Y-15835508D02*
X3510658Y-15845031D01*
X3510658Y-15845031D02*
X3520182Y-15864079D01*
X3520182Y-15864079D02*
X3529705Y-15902174D01*
X3529705Y-15902174D02*
X3529705Y-15949793D01*
X3529705Y-15949793D02*
X3520182Y-15987888D01*
X3520182Y-15987888D02*
X3510658Y-16006936D01*
X3510658Y-16006936D02*
X3501134Y-16016460D01*
X3501134Y-16016460D02*
X3482086Y-16025984D01*
X3482086Y-16025984D02*
X3463039Y-16025984D01*
X3463039Y-16025984D02*
X3443991Y-16016460D01*
X3443991Y-16016460D02*
X3434467Y-16006936D01*
X3434467Y-16006936D02*
X3424943Y-15987888D01*
X3424943Y-15987888D02*
X3415420Y-15949793D01*
X3415420Y-15949793D02*
X3415420Y-15902174D01*
X3415420Y-15902174D02*
X3424943Y-15864079D01*
X3424943Y-15864079D02*
X3434467Y-15845031D01*
X3434467Y-15845031D02*
X3443991Y-15835508D01*
X3443991Y-15835508D02*
X3463039Y-15825984D01*
X3615420Y-16025984D02*
X3615420Y-15892650D01*
X3615420Y-15911698D02*
X3624943Y-15902174D01*
X3624943Y-15902174D02*
X3643991Y-15892650D01*
X3643991Y-15892650D02*
X3672563Y-15892650D01*
X3672563Y-15892650D02*
X3691610Y-15902174D01*
X3691610Y-15902174D02*
X3701134Y-15921222D01*
X3701134Y-15921222D02*
X3701134Y-16025984D01*
X3701134Y-15921222D02*
X3710658Y-15902174D01*
X3710658Y-15902174D02*
X3729705Y-15892650D01*
X3729705Y-15892650D02*
X3758277Y-15892650D01*
X3758277Y-15892650D02*
X3777324Y-15902174D01*
X3777324Y-15902174D02*
X3786848Y-15921222D01*
X3786848Y-15921222D02*
X3786848Y-16025984D01*
X3882086Y-16025984D02*
X3882086Y-15892650D01*
X3882086Y-15911698D02*
X3891610Y-15902174D01*
X3891610Y-15902174D02*
X3910658Y-15892650D01*
X3910658Y-15892650D02*
X3939229Y-15892650D01*
X3939229Y-15892650D02*
X3958277Y-15902174D01*
X3958277Y-15902174D02*
X3967801Y-15921222D01*
X3967801Y-15921222D02*
X3967801Y-16025984D01*
X3967801Y-15921222D02*
X3977324Y-15902174D01*
X3977324Y-15902174D02*
X3996372Y-15892650D01*
X3996372Y-15892650D02*
X4024943Y-15892650D01*
X4024943Y-15892650D02*
X4043991Y-15902174D01*
X4043991Y-15902174D02*
X4053515Y-15921222D01*
X4053515Y-15921222D02*
X4053515Y-16025984D01*
X4443991Y-15816460D02*
X4272563Y-16073603D01*
X4701134Y-15825984D02*
X4720182Y-15825984D01*
X4720182Y-15825984D02*
X4739229Y-15835508D01*
X4739229Y-15835508D02*
X4748753Y-15845031D01*
X4748753Y-15845031D02*
X4758277Y-15864079D01*
X4758277Y-15864079D02*
X4767801Y-15902174D01*
X4767801Y-15902174D02*
X4767801Y-15949793D01*
X4767801Y-15949793D02*
X4758277Y-15987888D01*
X4758277Y-15987888D02*
X4748753Y-16006936D01*
X4748753Y-16006936D02*
X4739229Y-16016460D01*
X4739229Y-16016460D02*
X4720182Y-16025984D01*
X4720182Y-16025984D02*
X4701134Y-16025984D01*
X4701134Y-16025984D02*
X4682087Y-16016460D01*
X4682087Y-16016460D02*
X4672563Y-16006936D01*
X4672563Y-16006936D02*
X4663039Y-15987888D01*
X4663039Y-15987888D02*
X4653515Y-15949793D01*
X4653515Y-15949793D02*
X4653515Y-15902174D01*
X4653515Y-15902174D02*
X4663039Y-15864079D01*
X4663039Y-15864079D02*
X4672563Y-15845031D01*
X4672563Y-15845031D02*
X4682087Y-15835508D01*
X4682087Y-15835508D02*
X4701134Y-15825984D01*
X4853515Y-16006936D02*
X4863039Y-16016460D01*
X4863039Y-16016460D02*
X4853515Y-16025984D01*
X4853515Y-16025984D02*
X4843991Y-16016460D01*
X4843991Y-16016460D02*
X4853515Y-16006936D01*
X4853515Y-16006936D02*
X4853515Y-16025984D01*
X4986848Y-15825984D02*
X5005896Y-15825984D01*
X5005896Y-15825984D02*
X5024944Y-15835508D01*
X5024944Y-15835508D02*
X5034468Y-15845031D01*
X5034468Y-15845031D02*
X5043991Y-15864079D01*
X5043991Y-15864079D02*
X5053515Y-15902174D01*
X5053515Y-15902174D02*
X5053515Y-15949793D01*
X5053515Y-15949793D02*
X5043991Y-15987888D01*
X5043991Y-15987888D02*
X5034468Y-16006936D01*
X5034468Y-16006936D02*
X5024944Y-16016460D01*
X5024944Y-16016460D02*
X5005896Y-16025984D01*
X5005896Y-16025984D02*
X4986848Y-16025984D01*
X4986848Y-16025984D02*
X4967801Y-16016460D01*
X4967801Y-16016460D02*
X4958277Y-16006936D01*
X4958277Y-16006936D02*
X4948753Y-15987888D01*
X4948753Y-15987888D02*
X4939229Y-15949793D01*
X4939229Y-15949793D02*
X4939229Y-15902174D01*
X4939229Y-15902174D02*
X4948753Y-15864079D01*
X4948753Y-15864079D02*
X4958277Y-15845031D01*
X4958277Y-15845031D02*
X4967801Y-15835508D01*
X4967801Y-15835508D02*
X4986848Y-15825984D01*
X5120182Y-15825984D02*
X5243991Y-15825984D01*
X5243991Y-15825984D02*
X5177325Y-15902174D01*
X5177325Y-15902174D02*
X5205896Y-15902174D01*
X5205896Y-15902174D02*
X5224944Y-15911698D01*
X5224944Y-15911698D02*
X5234468Y-15921222D01*
X5234468Y-15921222D02*
X5243991Y-15940269D01*
X5243991Y-15940269D02*
X5243991Y-15987888D01*
X5243991Y-15987888D02*
X5234468Y-16006936D01*
X5234468Y-16006936D02*
X5224944Y-16016460D01*
X5224944Y-16016460D02*
X5205896Y-16025984D01*
X5205896Y-16025984D02*
X5148753Y-16025984D01*
X5148753Y-16025984D02*
X5129706Y-16016460D01*
X5129706Y-16016460D02*
X5120182Y-16006936D01*
X5310658Y-15825984D02*
X5443991Y-15825984D01*
X5443991Y-15825984D02*
X5358277Y-16025984D01*
X5605896Y-15892650D02*
X5605896Y-16025984D01*
X5558277Y-15816460D02*
X5510658Y-15959317D01*
X5510658Y-15959317D02*
X5634467Y-15959317D01*
X5701134Y-15825984D02*
X5701134Y-15864079D01*
X5777325Y-15825984D02*
X5777325Y-15864079D01*
X6072563Y-16102174D02*
X6063039Y-16092650D01*
X6063039Y-16092650D02*
X6043991Y-16064079D01*
X6043991Y-16064079D02*
X6034468Y-16045031D01*
X6034468Y-16045031D02*
X6024944Y-16016460D01*
X6024944Y-16016460D02*
X6015420Y-15968841D01*
X6015420Y-15968841D02*
X6015420Y-15930746D01*
X6015420Y-15930746D02*
X6024944Y-15883127D01*
X6024944Y-15883127D02*
X6034468Y-15854555D01*
X6034468Y-15854555D02*
X6043991Y-15835508D01*
X6043991Y-15835508D02*
X6063039Y-15806936D01*
X6063039Y-15806936D02*
X6072563Y-15797412D01*
X6253515Y-16025984D02*
X6139229Y-16025984D01*
X6196372Y-16025984D02*
X6196372Y-15825984D01*
X6196372Y-15825984D02*
X6177325Y-15854555D01*
X6177325Y-15854555D02*
X6158277Y-15873603D01*
X6158277Y-15873603D02*
X6139229Y-15883127D01*
X6424944Y-15892650D02*
X6424944Y-16025984D01*
X6377325Y-15816460D02*
X6329706Y-15959317D01*
X6329706Y-15959317D02*
X6453515Y-15959317D01*
X6682087Y-16025984D02*
X6682087Y-15825984D01*
X6767801Y-16025984D02*
X6767801Y-15921222D01*
X6767801Y-15921222D02*
X6758277Y-15902174D01*
X6758277Y-15902174D02*
X6739230Y-15892650D01*
X6739230Y-15892650D02*
X6710658Y-15892650D01*
X6710658Y-15892650D02*
X6691610Y-15902174D01*
X6691610Y-15902174D02*
X6682087Y-15911698D01*
X6891610Y-16025984D02*
X6872563Y-16016460D01*
X6872563Y-16016460D02*
X6863039Y-16006936D01*
X6863039Y-16006936D02*
X6853515Y-15987888D01*
X6853515Y-15987888D02*
X6853515Y-15930746D01*
X6853515Y-15930746D02*
X6863039Y-15911698D01*
X6863039Y-15911698D02*
X6872563Y-15902174D01*
X6872563Y-15902174D02*
X6891610Y-15892650D01*
X6891610Y-15892650D02*
X6920182Y-15892650D01*
X6920182Y-15892650D02*
X6939230Y-15902174D01*
X6939230Y-15902174D02*
X6948753Y-15911698D01*
X6948753Y-15911698D02*
X6958277Y-15930746D01*
X6958277Y-15930746D02*
X6958277Y-15987888D01*
X6958277Y-15987888D02*
X6948753Y-16006936D01*
X6948753Y-16006936D02*
X6939230Y-16016460D01*
X6939230Y-16016460D02*
X6920182Y-16025984D01*
X6920182Y-16025984D02*
X6891610Y-16025984D01*
X7072563Y-16025984D02*
X7053515Y-16016460D01*
X7053515Y-16016460D02*
X7043991Y-15997412D01*
X7043991Y-15997412D02*
X7043991Y-15825984D01*
X7224944Y-16016460D02*
X7205896Y-16025984D01*
X7205896Y-16025984D02*
X7167801Y-16025984D01*
X7167801Y-16025984D02*
X7148753Y-16016460D01*
X7148753Y-16016460D02*
X7139230Y-15997412D01*
X7139230Y-15997412D02*
X7139230Y-15921222D01*
X7139230Y-15921222D02*
X7148753Y-15902174D01*
X7148753Y-15902174D02*
X7167801Y-15892650D01*
X7167801Y-15892650D02*
X7205896Y-15892650D01*
X7205896Y-15892650D02*
X7224944Y-15902174D01*
X7224944Y-15902174D02*
X7234468Y-15921222D01*
X7234468Y-15921222D02*
X7234468Y-15940269D01*
X7234468Y-15940269D02*
X7139230Y-15959317D01*
X7310658Y-16016460D02*
X7329706Y-16025984D01*
X7329706Y-16025984D02*
X7367801Y-16025984D01*
X7367801Y-16025984D02*
X7386849Y-16016460D01*
X7386849Y-16016460D02*
X7396372Y-15997412D01*
X7396372Y-15997412D02*
X7396372Y-15987888D01*
X7396372Y-15987888D02*
X7386849Y-15968841D01*
X7386849Y-15968841D02*
X7367801Y-15959317D01*
X7367801Y-15959317D02*
X7339230Y-15959317D01*
X7339230Y-15959317D02*
X7320182Y-15949793D01*
X7320182Y-15949793D02*
X7310658Y-15930746D01*
X7310658Y-15930746D02*
X7310658Y-15921222D01*
X7310658Y-15921222D02*
X7320182Y-15902174D01*
X7320182Y-15902174D02*
X7339230Y-15892650D01*
X7339230Y-15892650D02*
X7367801Y-15892650D01*
X7367801Y-15892650D02*
X7386849Y-15902174D01*
X7463039Y-16102174D02*
X7472563Y-16092650D01*
X7472563Y-16092650D02*
X7491611Y-16064079D01*
X7491611Y-16064079D02*
X7501134Y-16045031D01*
X7501134Y-16045031D02*
X7510658Y-16016460D01*
X7510658Y-16016460D02*
X7520182Y-15968841D01*
X7520182Y-15968841D02*
X7520182Y-15930746D01*
X7520182Y-15930746D02*
X7510658Y-15883127D01*
X7510658Y-15883127D02*
X7501134Y-15854555D01*
X7501134Y-15854555D02*
X7491611Y-15835508D01*
X7491611Y-15835508D02*
X7472563Y-15806936D01*
X7472563Y-15806936D02*
X7463039Y-15797412D01*
D12*
X2447500Y-16248500D02*
X2497500Y-16198500D01*
X2447500Y-16148500D01*
X2397500Y-16198500D01*
X2447500Y-16248500D01*
D11*
X2863039Y-16289984D02*
X2748753Y-16289984D01*
X2805896Y-16289984D02*
X2805896Y-16089984D01*
X2805896Y-16089984D02*
X2786848Y-16118555D01*
X2786848Y-16118555D02*
X2767801Y-16137603D01*
X2767801Y-16137603D02*
X2748753Y-16147127D01*
X2948753Y-16270936D02*
X2958277Y-16280460D01*
X2958277Y-16280460D02*
X2948753Y-16289984D01*
X2948753Y-16289984D02*
X2939229Y-16280460D01*
X2939229Y-16280460D02*
X2948753Y-16270936D01*
X2948753Y-16270936D02*
X2948753Y-16289984D01*
X3082086Y-16089984D02*
X3101134Y-16089984D01*
X3101134Y-16089984D02*
X3120182Y-16099508D01*
X3120182Y-16099508D02*
X3129705Y-16109031D01*
X3129705Y-16109031D02*
X3139229Y-16128079D01*
X3139229Y-16128079D02*
X3148753Y-16166174D01*
X3148753Y-16166174D02*
X3148753Y-16213793D01*
X3148753Y-16213793D02*
X3139229Y-16251888D01*
X3139229Y-16251888D02*
X3129705Y-16270936D01*
X3129705Y-16270936D02*
X3120182Y-16280460D01*
X3120182Y-16280460D02*
X3101134Y-16289984D01*
X3101134Y-16289984D02*
X3082086Y-16289984D01*
X3082086Y-16289984D02*
X3063039Y-16280460D01*
X3063039Y-16280460D02*
X3053515Y-16270936D01*
X3053515Y-16270936D02*
X3043991Y-16251888D01*
X3043991Y-16251888D02*
X3034467Y-16213793D01*
X3034467Y-16213793D02*
X3034467Y-16166174D01*
X3034467Y-16166174D02*
X3043991Y-16128079D01*
X3043991Y-16128079D02*
X3053515Y-16109031D01*
X3053515Y-16109031D02*
X3063039Y-16099508D01*
X3063039Y-16099508D02*
X3082086Y-16089984D01*
X3272562Y-16089984D02*
X3291610Y-16089984D01*
X3291610Y-16089984D02*
X3310658Y-16099508D01*
X3310658Y-16099508D02*
X3320182Y-16109031D01*
X3320182Y-16109031D02*
X3329705Y-16128079D01*
X3329705Y-16128079D02*
X3339229Y-16166174D01*
X3339229Y-16166174D02*
X3339229Y-16213793D01*
X3339229Y-16213793D02*
X3329705Y-16251888D01*
X3329705Y-16251888D02*
X3320182Y-16270936D01*
X3320182Y-16270936D02*
X3310658Y-16280460D01*
X3310658Y-16280460D02*
X3291610Y-16289984D01*
X3291610Y-16289984D02*
X3272562Y-16289984D01*
X3272562Y-16289984D02*
X3253515Y-16280460D01*
X3253515Y-16280460D02*
X3243991Y-16270936D01*
X3243991Y-16270936D02*
X3234467Y-16251888D01*
X3234467Y-16251888D02*
X3224943Y-16213793D01*
X3224943Y-16213793D02*
X3224943Y-16166174D01*
X3224943Y-16166174D02*
X3234467Y-16128079D01*
X3234467Y-16128079D02*
X3243991Y-16109031D01*
X3243991Y-16109031D02*
X3253515Y-16099508D01*
X3253515Y-16099508D02*
X3272562Y-16089984D01*
X3463039Y-16089984D02*
X3482086Y-16089984D01*
X3482086Y-16089984D02*
X3501134Y-16099508D01*
X3501134Y-16099508D02*
X3510658Y-16109031D01*
X3510658Y-16109031D02*
X3520182Y-16128079D01*
X3520182Y-16128079D02*
X3529705Y-16166174D01*
X3529705Y-16166174D02*
X3529705Y-16213793D01*
X3529705Y-16213793D02*
X3520182Y-16251888D01*
X3520182Y-16251888D02*
X3510658Y-16270936D01*
X3510658Y-16270936D02*
X3501134Y-16280460D01*
X3501134Y-16280460D02*
X3482086Y-16289984D01*
X3482086Y-16289984D02*
X3463039Y-16289984D01*
X3463039Y-16289984D02*
X3443991Y-16280460D01*
X3443991Y-16280460D02*
X3434467Y-16270936D01*
X3434467Y-16270936D02*
X3424943Y-16251888D01*
X3424943Y-16251888D02*
X3415420Y-16213793D01*
X3415420Y-16213793D02*
X3415420Y-16166174D01*
X3415420Y-16166174D02*
X3424943Y-16128079D01*
X3424943Y-16128079D02*
X3434467Y-16109031D01*
X3434467Y-16109031D02*
X3443991Y-16099508D01*
X3443991Y-16099508D02*
X3463039Y-16089984D01*
X3615420Y-16289984D02*
X3615420Y-16156650D01*
X3615420Y-16175698D02*
X3624943Y-16166174D01*
X3624943Y-16166174D02*
X3643991Y-16156650D01*
X3643991Y-16156650D02*
X3672563Y-16156650D01*
X3672563Y-16156650D02*
X3691610Y-16166174D01*
X3691610Y-16166174D02*
X3701134Y-16185222D01*
X3701134Y-16185222D02*
X3701134Y-16289984D01*
X3701134Y-16185222D02*
X3710658Y-16166174D01*
X3710658Y-16166174D02*
X3729705Y-16156650D01*
X3729705Y-16156650D02*
X3758277Y-16156650D01*
X3758277Y-16156650D02*
X3777324Y-16166174D01*
X3777324Y-16166174D02*
X3786848Y-16185222D01*
X3786848Y-16185222D02*
X3786848Y-16289984D01*
X3882086Y-16289984D02*
X3882086Y-16156650D01*
X3882086Y-16175698D02*
X3891610Y-16166174D01*
X3891610Y-16166174D02*
X3910658Y-16156650D01*
X3910658Y-16156650D02*
X3939229Y-16156650D01*
X3939229Y-16156650D02*
X3958277Y-16166174D01*
X3958277Y-16166174D02*
X3967801Y-16185222D01*
X3967801Y-16185222D02*
X3967801Y-16289984D01*
X3967801Y-16185222D02*
X3977324Y-16166174D01*
X3977324Y-16166174D02*
X3996372Y-16156650D01*
X3996372Y-16156650D02*
X4024943Y-16156650D01*
X4024943Y-16156650D02*
X4043991Y-16166174D01*
X4043991Y-16166174D02*
X4053515Y-16185222D01*
X4053515Y-16185222D02*
X4053515Y-16289984D01*
X4443991Y-16080460D02*
X4272563Y-16337603D01*
X4701134Y-16089984D02*
X4720182Y-16089984D01*
X4720182Y-16089984D02*
X4739229Y-16099508D01*
X4739229Y-16099508D02*
X4748753Y-16109031D01*
X4748753Y-16109031D02*
X4758277Y-16128079D01*
X4758277Y-16128079D02*
X4767801Y-16166174D01*
X4767801Y-16166174D02*
X4767801Y-16213793D01*
X4767801Y-16213793D02*
X4758277Y-16251888D01*
X4758277Y-16251888D02*
X4748753Y-16270936D01*
X4748753Y-16270936D02*
X4739229Y-16280460D01*
X4739229Y-16280460D02*
X4720182Y-16289984D01*
X4720182Y-16289984D02*
X4701134Y-16289984D01*
X4701134Y-16289984D02*
X4682087Y-16280460D01*
X4682087Y-16280460D02*
X4672563Y-16270936D01*
X4672563Y-16270936D02*
X4663039Y-16251888D01*
X4663039Y-16251888D02*
X4653515Y-16213793D01*
X4653515Y-16213793D02*
X4653515Y-16166174D01*
X4653515Y-16166174D02*
X4663039Y-16128079D01*
X4663039Y-16128079D02*
X4672563Y-16109031D01*
X4672563Y-16109031D02*
X4682087Y-16099508D01*
X4682087Y-16099508D02*
X4701134Y-16089984D01*
X4853515Y-16270936D02*
X4863039Y-16280460D01*
X4863039Y-16280460D02*
X4853515Y-16289984D01*
X4853515Y-16289984D02*
X4843991Y-16280460D01*
X4843991Y-16280460D02*
X4853515Y-16270936D01*
X4853515Y-16270936D02*
X4853515Y-16289984D01*
X4986848Y-16089984D02*
X5005896Y-16089984D01*
X5005896Y-16089984D02*
X5024944Y-16099508D01*
X5024944Y-16099508D02*
X5034468Y-16109031D01*
X5034468Y-16109031D02*
X5043991Y-16128079D01*
X5043991Y-16128079D02*
X5053515Y-16166174D01*
X5053515Y-16166174D02*
X5053515Y-16213793D01*
X5053515Y-16213793D02*
X5043991Y-16251888D01*
X5043991Y-16251888D02*
X5034468Y-16270936D01*
X5034468Y-16270936D02*
X5024944Y-16280460D01*
X5024944Y-16280460D02*
X5005896Y-16289984D01*
X5005896Y-16289984D02*
X4986848Y-16289984D01*
X4986848Y-16289984D02*
X4967801Y-16280460D01*
X4967801Y-16280460D02*
X4958277Y-16270936D01*
X4958277Y-16270936D02*
X4948753Y-16251888D01*
X4948753Y-16251888D02*
X4939229Y-16213793D01*
X4939229Y-16213793D02*
X4939229Y-16166174D01*
X4939229Y-16166174D02*
X4948753Y-16128079D01*
X4948753Y-16128079D02*
X4958277Y-16109031D01*
X4958277Y-16109031D02*
X4967801Y-16099508D01*
X4967801Y-16099508D02*
X4986848Y-16089984D01*
X5120182Y-16089984D02*
X5243991Y-16089984D01*
X5243991Y-16089984D02*
X5177325Y-16166174D01*
X5177325Y-16166174D02*
X5205896Y-16166174D01*
X5205896Y-16166174D02*
X5224944Y-16175698D01*
X5224944Y-16175698D02*
X5234468Y-16185222D01*
X5234468Y-16185222D02*
X5243991Y-16204269D01*
X5243991Y-16204269D02*
X5243991Y-16251888D01*
X5243991Y-16251888D02*
X5234468Y-16270936D01*
X5234468Y-16270936D02*
X5224944Y-16280460D01*
X5224944Y-16280460D02*
X5205896Y-16289984D01*
X5205896Y-16289984D02*
X5148753Y-16289984D01*
X5148753Y-16289984D02*
X5129706Y-16280460D01*
X5129706Y-16280460D02*
X5120182Y-16270936D01*
X5339229Y-16289984D02*
X5377325Y-16289984D01*
X5377325Y-16289984D02*
X5396372Y-16280460D01*
X5396372Y-16280460D02*
X5405896Y-16270936D01*
X5405896Y-16270936D02*
X5424944Y-16242365D01*
X5424944Y-16242365D02*
X5434468Y-16204269D01*
X5434468Y-16204269D02*
X5434468Y-16128079D01*
X5434468Y-16128079D02*
X5424944Y-16109031D01*
X5424944Y-16109031D02*
X5415420Y-16099508D01*
X5415420Y-16099508D02*
X5396372Y-16089984D01*
X5396372Y-16089984D02*
X5358277Y-16089984D01*
X5358277Y-16089984D02*
X5339229Y-16099508D01*
X5339229Y-16099508D02*
X5329706Y-16109031D01*
X5329706Y-16109031D02*
X5320182Y-16128079D01*
X5320182Y-16128079D02*
X5320182Y-16175698D01*
X5320182Y-16175698D02*
X5329706Y-16194746D01*
X5329706Y-16194746D02*
X5339229Y-16204269D01*
X5339229Y-16204269D02*
X5358277Y-16213793D01*
X5358277Y-16213793D02*
X5396372Y-16213793D01*
X5396372Y-16213793D02*
X5415420Y-16204269D01*
X5415420Y-16204269D02*
X5424944Y-16194746D01*
X5424944Y-16194746D02*
X5434468Y-16175698D01*
X5605896Y-16156650D02*
X5605896Y-16289984D01*
X5558277Y-16080460D02*
X5510658Y-16223317D01*
X5510658Y-16223317D02*
X5634467Y-16223317D01*
X5701134Y-16089984D02*
X5701134Y-16128079D01*
X5777325Y-16089984D02*
X5777325Y-16128079D01*
X6072563Y-16366174D02*
X6063039Y-16356650D01*
X6063039Y-16356650D02*
X6043991Y-16328079D01*
X6043991Y-16328079D02*
X6034468Y-16309031D01*
X6034468Y-16309031D02*
X6024944Y-16280460D01*
X6024944Y-16280460D02*
X6015420Y-16232841D01*
X6015420Y-16232841D02*
X6015420Y-16194746D01*
X6015420Y-16194746D02*
X6024944Y-16147127D01*
X6024944Y-16147127D02*
X6034468Y-16118555D01*
X6034468Y-16118555D02*
X6043991Y-16099508D01*
X6043991Y-16099508D02*
X6063039Y-16070936D01*
X6063039Y-16070936D02*
X6072563Y-16061412D01*
X6139229Y-16109031D02*
X6148753Y-16099508D01*
X6148753Y-16099508D02*
X6167801Y-16089984D01*
X6167801Y-16089984D02*
X6215420Y-16089984D01*
X6215420Y-16089984D02*
X6234468Y-16099508D01*
X6234468Y-16099508D02*
X6243991Y-16109031D01*
X6243991Y-16109031D02*
X6253515Y-16128079D01*
X6253515Y-16128079D02*
X6253515Y-16147127D01*
X6253515Y-16147127D02*
X6243991Y-16175698D01*
X6243991Y-16175698D02*
X6129706Y-16289984D01*
X6129706Y-16289984D02*
X6253515Y-16289984D01*
X6424944Y-16089984D02*
X6386848Y-16089984D01*
X6386848Y-16089984D02*
X6367801Y-16099508D01*
X6367801Y-16099508D02*
X6358277Y-16109031D01*
X6358277Y-16109031D02*
X6339229Y-16137603D01*
X6339229Y-16137603D02*
X6329706Y-16175698D01*
X6329706Y-16175698D02*
X6329706Y-16251888D01*
X6329706Y-16251888D02*
X6339229Y-16270936D01*
X6339229Y-16270936D02*
X6348753Y-16280460D01*
X6348753Y-16280460D02*
X6367801Y-16289984D01*
X6367801Y-16289984D02*
X6405896Y-16289984D01*
X6405896Y-16289984D02*
X6424944Y-16280460D01*
X6424944Y-16280460D02*
X6434468Y-16270936D01*
X6434468Y-16270936D02*
X6443991Y-16251888D01*
X6443991Y-16251888D02*
X6443991Y-16204269D01*
X6443991Y-16204269D02*
X6434468Y-16185222D01*
X6434468Y-16185222D02*
X6424944Y-16175698D01*
X6424944Y-16175698D02*
X6405896Y-16166174D01*
X6405896Y-16166174D02*
X6367801Y-16166174D01*
X6367801Y-16166174D02*
X6348753Y-16175698D01*
X6348753Y-16175698D02*
X6339229Y-16185222D01*
X6339229Y-16185222D02*
X6329706Y-16204269D01*
X6558277Y-16175698D02*
X6539229Y-16166174D01*
X6539229Y-16166174D02*
X6529706Y-16156650D01*
X6529706Y-16156650D02*
X6520182Y-16137603D01*
X6520182Y-16137603D02*
X6520182Y-16128079D01*
X6520182Y-16128079D02*
X6529706Y-16109031D01*
X6529706Y-16109031D02*
X6539229Y-16099508D01*
X6539229Y-16099508D02*
X6558277Y-16089984D01*
X6558277Y-16089984D02*
X6596372Y-16089984D01*
X6596372Y-16089984D02*
X6615420Y-16099508D01*
X6615420Y-16099508D02*
X6624944Y-16109031D01*
X6624944Y-16109031D02*
X6634468Y-16128079D01*
X6634468Y-16128079D02*
X6634468Y-16137603D01*
X6634468Y-16137603D02*
X6624944Y-16156650D01*
X6624944Y-16156650D02*
X6615420Y-16166174D01*
X6615420Y-16166174D02*
X6596372Y-16175698D01*
X6596372Y-16175698D02*
X6558277Y-16175698D01*
X6558277Y-16175698D02*
X6539229Y-16185222D01*
X6539229Y-16185222D02*
X6529706Y-16194746D01*
X6529706Y-16194746D02*
X6520182Y-16213793D01*
X6520182Y-16213793D02*
X6520182Y-16251888D01*
X6520182Y-16251888D02*
X6529706Y-16270936D01*
X6529706Y-16270936D02*
X6539229Y-16280460D01*
X6539229Y-16280460D02*
X6558277Y-16289984D01*
X6558277Y-16289984D02*
X6596372Y-16289984D01*
X6596372Y-16289984D02*
X6615420Y-16280460D01*
X6615420Y-16280460D02*
X6624944Y-16270936D01*
X6624944Y-16270936D02*
X6634468Y-16251888D01*
X6634468Y-16251888D02*
X6634468Y-16213793D01*
X6634468Y-16213793D02*
X6624944Y-16194746D01*
X6624944Y-16194746D02*
X6615420Y-16185222D01*
X6615420Y-16185222D02*
X6596372Y-16175698D01*
X6872563Y-16289984D02*
X6872563Y-16089984D01*
X6958277Y-16289984D02*
X6958277Y-16185222D01*
X6958277Y-16185222D02*
X6948753Y-16166174D01*
X6948753Y-16166174D02*
X6929706Y-16156650D01*
X6929706Y-16156650D02*
X6901134Y-16156650D01*
X6901134Y-16156650D02*
X6882087Y-16166174D01*
X6882087Y-16166174D02*
X6872563Y-16175698D01*
X7082087Y-16289984D02*
X7063039Y-16280460D01*
X7063039Y-16280460D02*
X7053515Y-16270936D01*
X7053515Y-16270936D02*
X7043991Y-16251888D01*
X7043991Y-16251888D02*
X7043991Y-16194746D01*
X7043991Y-16194746D02*
X7053515Y-16175698D01*
X7053515Y-16175698D02*
X7063039Y-16166174D01*
X7063039Y-16166174D02*
X7082087Y-16156650D01*
X7082087Y-16156650D02*
X7110658Y-16156650D01*
X7110658Y-16156650D02*
X7129706Y-16166174D01*
X7129706Y-16166174D02*
X7139230Y-16175698D01*
X7139230Y-16175698D02*
X7148753Y-16194746D01*
X7148753Y-16194746D02*
X7148753Y-16251888D01*
X7148753Y-16251888D02*
X7139230Y-16270936D01*
X7139230Y-16270936D02*
X7129706Y-16280460D01*
X7129706Y-16280460D02*
X7110658Y-16289984D01*
X7110658Y-16289984D02*
X7082087Y-16289984D01*
X7263039Y-16289984D02*
X7243991Y-16280460D01*
X7243991Y-16280460D02*
X7234468Y-16261412D01*
X7234468Y-16261412D02*
X7234468Y-16089984D01*
X7415420Y-16280460D02*
X7396372Y-16289984D01*
X7396372Y-16289984D02*
X7358277Y-16289984D01*
X7358277Y-16289984D02*
X7339230Y-16280460D01*
X7339230Y-16280460D02*
X7329706Y-16261412D01*
X7329706Y-16261412D02*
X7329706Y-16185222D01*
X7329706Y-16185222D02*
X7339230Y-16166174D01*
X7339230Y-16166174D02*
X7358277Y-16156650D01*
X7358277Y-16156650D02*
X7396372Y-16156650D01*
X7396372Y-16156650D02*
X7415420Y-16166174D01*
X7415420Y-16166174D02*
X7424944Y-16185222D01*
X7424944Y-16185222D02*
X7424944Y-16204269D01*
X7424944Y-16204269D02*
X7329706Y-16223317D01*
X7501134Y-16280460D02*
X7520182Y-16289984D01*
X7520182Y-16289984D02*
X7558277Y-16289984D01*
X7558277Y-16289984D02*
X7577325Y-16280460D01*
X7577325Y-16280460D02*
X7586849Y-16261412D01*
X7586849Y-16261412D02*
X7586849Y-16251888D01*
X7586849Y-16251888D02*
X7577325Y-16232841D01*
X7577325Y-16232841D02*
X7558277Y-16223317D01*
X7558277Y-16223317D02*
X7529706Y-16223317D01*
X7529706Y-16223317D02*
X7510658Y-16213793D01*
X7510658Y-16213793D02*
X7501134Y-16194746D01*
X7501134Y-16194746D02*
X7501134Y-16185222D01*
X7501134Y-16185222D02*
X7510658Y-16166174D01*
X7510658Y-16166174D02*
X7529706Y-16156650D01*
X7529706Y-16156650D02*
X7558277Y-16156650D01*
X7558277Y-16156650D02*
X7577325Y-16166174D01*
X7653515Y-16366174D02*
X7663039Y-16356650D01*
X7663039Y-16356650D02*
X7682087Y-16328079D01*
X7682087Y-16328079D02*
X7691611Y-16309031D01*
X7691611Y-16309031D02*
X7701134Y-16280460D01*
X7701134Y-16280460D02*
X7710658Y-16232841D01*
X7710658Y-16232841D02*
X7710658Y-16194746D01*
X7710658Y-16194746D02*
X7701134Y-16147127D01*
X7701134Y-16147127D02*
X7691611Y-16118555D01*
X7691611Y-16118555D02*
X7682087Y-16099508D01*
X7682087Y-16099508D02*
X7663039Y-16070936D01*
X7663039Y-16070936D02*
X7653515Y-16061412D01*
D13*
X2387500Y-16407500D02*
X2497500Y-16517500D01*
X2497500Y-16407500D02*
X2387500Y-16517500D01*
X2497500Y-16462500D02*
G75*
G02*
X2387500Y-16462500I-55000J0D01*
G01*
X2387500Y-16462500D02*
G75*
G02*
X2497500Y-16462500I55000J0D01*
G01*
D11*
X2863039Y-16553984D02*
X2748753Y-16553984D01*
X2805896Y-16553984D02*
X2805896Y-16353984D01*
X2805896Y-16353984D02*
X2786848Y-16382555D01*
X2786848Y-16382555D02*
X2767801Y-16401603D01*
X2767801Y-16401603D02*
X2748753Y-16411127D01*
X2948753Y-16534936D02*
X2958277Y-16544460D01*
X2958277Y-16544460D02*
X2948753Y-16553984D01*
X2948753Y-16553984D02*
X2939229Y-16544460D01*
X2939229Y-16544460D02*
X2948753Y-16534936D01*
X2948753Y-16534936D02*
X2948753Y-16553984D01*
X3148753Y-16553984D02*
X3034467Y-16553984D01*
X3091610Y-16553984D02*
X3091610Y-16353984D01*
X3091610Y-16353984D02*
X3072562Y-16382555D01*
X3072562Y-16382555D02*
X3053515Y-16401603D01*
X3053515Y-16401603D02*
X3034467Y-16411127D01*
X3272562Y-16353984D02*
X3291610Y-16353984D01*
X3291610Y-16353984D02*
X3310658Y-16363508D01*
X3310658Y-16363508D02*
X3320182Y-16373031D01*
X3320182Y-16373031D02*
X3329705Y-16392079D01*
X3329705Y-16392079D02*
X3339229Y-16430174D01*
X3339229Y-16430174D02*
X3339229Y-16477793D01*
X3339229Y-16477793D02*
X3329705Y-16515888D01*
X3329705Y-16515888D02*
X3320182Y-16534936D01*
X3320182Y-16534936D02*
X3310658Y-16544460D01*
X3310658Y-16544460D02*
X3291610Y-16553984D01*
X3291610Y-16553984D02*
X3272562Y-16553984D01*
X3272562Y-16553984D02*
X3253515Y-16544460D01*
X3253515Y-16544460D02*
X3243991Y-16534936D01*
X3243991Y-16534936D02*
X3234467Y-16515888D01*
X3234467Y-16515888D02*
X3224943Y-16477793D01*
X3224943Y-16477793D02*
X3224943Y-16430174D01*
X3224943Y-16430174D02*
X3234467Y-16392079D01*
X3234467Y-16392079D02*
X3243991Y-16373031D01*
X3243991Y-16373031D02*
X3253515Y-16363508D01*
X3253515Y-16363508D02*
X3272562Y-16353984D01*
X3463039Y-16353984D02*
X3482086Y-16353984D01*
X3482086Y-16353984D02*
X3501134Y-16363508D01*
X3501134Y-16363508D02*
X3510658Y-16373031D01*
X3510658Y-16373031D02*
X3520182Y-16392079D01*
X3520182Y-16392079D02*
X3529705Y-16430174D01*
X3529705Y-16430174D02*
X3529705Y-16477793D01*
X3529705Y-16477793D02*
X3520182Y-16515888D01*
X3520182Y-16515888D02*
X3510658Y-16534936D01*
X3510658Y-16534936D02*
X3501134Y-16544460D01*
X3501134Y-16544460D02*
X3482086Y-16553984D01*
X3482086Y-16553984D02*
X3463039Y-16553984D01*
X3463039Y-16553984D02*
X3443991Y-16544460D01*
X3443991Y-16544460D02*
X3434467Y-16534936D01*
X3434467Y-16534936D02*
X3424943Y-16515888D01*
X3424943Y-16515888D02*
X3415420Y-16477793D01*
X3415420Y-16477793D02*
X3415420Y-16430174D01*
X3415420Y-16430174D02*
X3424943Y-16392079D01*
X3424943Y-16392079D02*
X3434467Y-16373031D01*
X3434467Y-16373031D02*
X3443991Y-16363508D01*
X3443991Y-16363508D02*
X3463039Y-16353984D01*
X3615420Y-16553984D02*
X3615420Y-16420650D01*
X3615420Y-16439698D02*
X3624943Y-16430174D01*
X3624943Y-16430174D02*
X3643991Y-16420650D01*
X3643991Y-16420650D02*
X3672563Y-16420650D01*
X3672563Y-16420650D02*
X3691610Y-16430174D01*
X3691610Y-16430174D02*
X3701134Y-16449222D01*
X3701134Y-16449222D02*
X3701134Y-16553984D01*
X3701134Y-16449222D02*
X3710658Y-16430174D01*
X3710658Y-16430174D02*
X3729705Y-16420650D01*
X3729705Y-16420650D02*
X3758277Y-16420650D01*
X3758277Y-16420650D02*
X3777324Y-16430174D01*
X3777324Y-16430174D02*
X3786848Y-16449222D01*
X3786848Y-16449222D02*
X3786848Y-16553984D01*
X3882086Y-16553984D02*
X3882086Y-16420650D01*
X3882086Y-16439698D02*
X3891610Y-16430174D01*
X3891610Y-16430174D02*
X3910658Y-16420650D01*
X3910658Y-16420650D02*
X3939229Y-16420650D01*
X3939229Y-16420650D02*
X3958277Y-16430174D01*
X3958277Y-16430174D02*
X3967801Y-16449222D01*
X3967801Y-16449222D02*
X3967801Y-16553984D01*
X3967801Y-16449222D02*
X3977324Y-16430174D01*
X3977324Y-16430174D02*
X3996372Y-16420650D01*
X3996372Y-16420650D02*
X4024943Y-16420650D01*
X4024943Y-16420650D02*
X4043991Y-16430174D01*
X4043991Y-16430174D02*
X4053515Y-16449222D01*
X4053515Y-16449222D02*
X4053515Y-16553984D01*
X4443991Y-16344460D02*
X4272563Y-16601603D01*
X4701134Y-16353984D02*
X4720182Y-16353984D01*
X4720182Y-16353984D02*
X4739229Y-16363508D01*
X4739229Y-16363508D02*
X4748753Y-16373031D01*
X4748753Y-16373031D02*
X4758277Y-16392079D01*
X4758277Y-16392079D02*
X4767801Y-16430174D01*
X4767801Y-16430174D02*
X4767801Y-16477793D01*
X4767801Y-16477793D02*
X4758277Y-16515888D01*
X4758277Y-16515888D02*
X4748753Y-16534936D01*
X4748753Y-16534936D02*
X4739229Y-16544460D01*
X4739229Y-16544460D02*
X4720182Y-16553984D01*
X4720182Y-16553984D02*
X4701134Y-16553984D01*
X4701134Y-16553984D02*
X4682087Y-16544460D01*
X4682087Y-16544460D02*
X4672563Y-16534936D01*
X4672563Y-16534936D02*
X4663039Y-16515888D01*
X4663039Y-16515888D02*
X4653515Y-16477793D01*
X4653515Y-16477793D02*
X4653515Y-16430174D01*
X4653515Y-16430174D02*
X4663039Y-16392079D01*
X4663039Y-16392079D02*
X4672563Y-16373031D01*
X4672563Y-16373031D02*
X4682087Y-16363508D01*
X4682087Y-16363508D02*
X4701134Y-16353984D01*
X4853515Y-16534936D02*
X4863039Y-16544460D01*
X4863039Y-16544460D02*
X4853515Y-16553984D01*
X4853515Y-16553984D02*
X4843991Y-16544460D01*
X4843991Y-16544460D02*
X4853515Y-16534936D01*
X4853515Y-16534936D02*
X4853515Y-16553984D01*
X4986848Y-16353984D02*
X5005896Y-16353984D01*
X5005896Y-16353984D02*
X5024944Y-16363508D01*
X5024944Y-16363508D02*
X5034468Y-16373031D01*
X5034468Y-16373031D02*
X5043991Y-16392079D01*
X5043991Y-16392079D02*
X5053515Y-16430174D01*
X5053515Y-16430174D02*
X5053515Y-16477793D01*
X5053515Y-16477793D02*
X5043991Y-16515888D01*
X5043991Y-16515888D02*
X5034468Y-16534936D01*
X5034468Y-16534936D02*
X5024944Y-16544460D01*
X5024944Y-16544460D02*
X5005896Y-16553984D01*
X5005896Y-16553984D02*
X4986848Y-16553984D01*
X4986848Y-16553984D02*
X4967801Y-16544460D01*
X4967801Y-16544460D02*
X4958277Y-16534936D01*
X4958277Y-16534936D02*
X4948753Y-16515888D01*
X4948753Y-16515888D02*
X4939229Y-16477793D01*
X4939229Y-16477793D02*
X4939229Y-16430174D01*
X4939229Y-16430174D02*
X4948753Y-16392079D01*
X4948753Y-16392079D02*
X4958277Y-16373031D01*
X4958277Y-16373031D02*
X4967801Y-16363508D01*
X4967801Y-16363508D02*
X4986848Y-16353984D01*
X5224944Y-16420650D02*
X5224944Y-16553984D01*
X5177325Y-16344460D02*
X5129706Y-16487317D01*
X5129706Y-16487317D02*
X5253515Y-16487317D01*
X5310658Y-16353984D02*
X5434468Y-16353984D01*
X5434468Y-16353984D02*
X5367801Y-16430174D01*
X5367801Y-16430174D02*
X5396372Y-16430174D01*
X5396372Y-16430174D02*
X5415420Y-16439698D01*
X5415420Y-16439698D02*
X5424944Y-16449222D01*
X5424944Y-16449222D02*
X5434468Y-16468269D01*
X5434468Y-16468269D02*
X5434468Y-16515888D01*
X5434468Y-16515888D02*
X5424944Y-16534936D01*
X5424944Y-16534936D02*
X5415420Y-16544460D01*
X5415420Y-16544460D02*
X5396372Y-16553984D01*
X5396372Y-16553984D02*
X5339229Y-16553984D01*
X5339229Y-16553984D02*
X5320182Y-16544460D01*
X5320182Y-16544460D02*
X5310658Y-16534936D01*
X5501134Y-16353984D02*
X5624944Y-16353984D01*
X5624944Y-16353984D02*
X5558277Y-16430174D01*
X5558277Y-16430174D02*
X5586849Y-16430174D01*
X5586849Y-16430174D02*
X5605896Y-16439698D01*
X5605896Y-16439698D02*
X5615420Y-16449222D01*
X5615420Y-16449222D02*
X5624944Y-16468269D01*
X5624944Y-16468269D02*
X5624944Y-16515888D01*
X5624944Y-16515888D02*
X5615420Y-16534936D01*
X5615420Y-16534936D02*
X5605896Y-16544460D01*
X5605896Y-16544460D02*
X5586849Y-16553984D01*
X5586849Y-16553984D02*
X5529706Y-16553984D01*
X5529706Y-16553984D02*
X5510658Y-16544460D01*
X5510658Y-16544460D02*
X5501134Y-16534936D01*
X5701134Y-16353984D02*
X5701134Y-16392079D01*
X5777325Y-16353984D02*
X5777325Y-16392079D01*
X6072563Y-16630174D02*
X6063039Y-16620650D01*
X6063039Y-16620650D02*
X6043991Y-16592079D01*
X6043991Y-16592079D02*
X6034468Y-16573031D01*
X6034468Y-16573031D02*
X6024944Y-16544460D01*
X6024944Y-16544460D02*
X6015420Y-16496841D01*
X6015420Y-16496841D02*
X6015420Y-16458746D01*
X6015420Y-16458746D02*
X6024944Y-16411127D01*
X6024944Y-16411127D02*
X6034468Y-16382555D01*
X6034468Y-16382555D02*
X6043991Y-16363508D01*
X6043991Y-16363508D02*
X6063039Y-16334936D01*
X6063039Y-16334936D02*
X6072563Y-16325412D01*
X6234468Y-16420650D02*
X6234468Y-16553984D01*
X6186848Y-16344460D02*
X6139229Y-16487317D01*
X6139229Y-16487317D02*
X6263039Y-16487317D01*
X6491610Y-16553984D02*
X6491610Y-16353984D01*
X6577325Y-16553984D02*
X6577325Y-16449222D01*
X6577325Y-16449222D02*
X6567801Y-16430174D01*
X6567801Y-16430174D02*
X6548753Y-16420650D01*
X6548753Y-16420650D02*
X6520182Y-16420650D01*
X6520182Y-16420650D02*
X6501134Y-16430174D01*
X6501134Y-16430174D02*
X6491610Y-16439698D01*
X6701134Y-16553984D02*
X6682087Y-16544460D01*
X6682087Y-16544460D02*
X6672563Y-16534936D01*
X6672563Y-16534936D02*
X6663039Y-16515888D01*
X6663039Y-16515888D02*
X6663039Y-16458746D01*
X6663039Y-16458746D02*
X6672563Y-16439698D01*
X6672563Y-16439698D02*
X6682087Y-16430174D01*
X6682087Y-16430174D02*
X6701134Y-16420650D01*
X6701134Y-16420650D02*
X6729706Y-16420650D01*
X6729706Y-16420650D02*
X6748753Y-16430174D01*
X6748753Y-16430174D02*
X6758277Y-16439698D01*
X6758277Y-16439698D02*
X6767801Y-16458746D01*
X6767801Y-16458746D02*
X6767801Y-16515888D01*
X6767801Y-16515888D02*
X6758277Y-16534936D01*
X6758277Y-16534936D02*
X6748753Y-16544460D01*
X6748753Y-16544460D02*
X6729706Y-16553984D01*
X6729706Y-16553984D02*
X6701134Y-16553984D01*
X6882087Y-16553984D02*
X6863039Y-16544460D01*
X6863039Y-16544460D02*
X6853515Y-16525412D01*
X6853515Y-16525412D02*
X6853515Y-16353984D01*
X7034468Y-16544460D02*
X7015420Y-16553984D01*
X7015420Y-16553984D02*
X6977325Y-16553984D01*
X6977325Y-16553984D02*
X6958277Y-16544460D01*
X6958277Y-16544460D02*
X6948753Y-16525412D01*
X6948753Y-16525412D02*
X6948753Y-16449222D01*
X6948753Y-16449222D02*
X6958277Y-16430174D01*
X6958277Y-16430174D02*
X6977325Y-16420650D01*
X6977325Y-16420650D02*
X7015420Y-16420650D01*
X7015420Y-16420650D02*
X7034468Y-16430174D01*
X7034468Y-16430174D02*
X7043991Y-16449222D01*
X7043991Y-16449222D02*
X7043991Y-16468269D01*
X7043991Y-16468269D02*
X6948753Y-16487317D01*
X7120182Y-16544460D02*
X7139230Y-16553984D01*
X7139230Y-16553984D02*
X7177325Y-16553984D01*
X7177325Y-16553984D02*
X7196372Y-16544460D01*
X7196372Y-16544460D02*
X7205896Y-16525412D01*
X7205896Y-16525412D02*
X7205896Y-16515888D01*
X7205896Y-16515888D02*
X7196372Y-16496841D01*
X7196372Y-16496841D02*
X7177325Y-16487317D01*
X7177325Y-16487317D02*
X7148753Y-16487317D01*
X7148753Y-16487317D02*
X7129706Y-16477793D01*
X7129706Y-16477793D02*
X7120182Y-16458746D01*
X7120182Y-16458746D02*
X7120182Y-16449222D01*
X7120182Y-16449222D02*
X7129706Y-16430174D01*
X7129706Y-16430174D02*
X7148753Y-16420650D01*
X7148753Y-16420650D02*
X7177325Y-16420650D01*
X7177325Y-16420650D02*
X7196372Y-16430174D01*
X7272563Y-16630174D02*
X7282087Y-16620650D01*
X7282087Y-16620650D02*
X7301134Y-16592079D01*
X7301134Y-16592079D02*
X7310658Y-16573031D01*
X7310658Y-16573031D02*
X7320182Y-16544460D01*
X7320182Y-16544460D02*
X7329706Y-16496841D01*
X7329706Y-16496841D02*
X7329706Y-16458746D01*
X7329706Y-16458746D02*
X7320182Y-16411127D01*
X7320182Y-16411127D02*
X7310658Y-16382555D01*
X7310658Y-16382555D02*
X7301134Y-16363508D01*
X7301134Y-16363508D02*
X7282087Y-16334936D01*
X7282087Y-16334936D02*
X7272563Y-16325412D01*
D14*
X2377500Y-16666500D02*
X2497500Y-16786500D01*
X2497500Y-16666500D02*
X2377500Y-16786500D01*
X2437500Y-16666500D02*
X2437500Y-16786500D01*
X2377500Y-16726500D02*
X2497500Y-16726500D01*
D11*
X2863039Y-16817984D02*
X2748753Y-16817984D01*
X2805896Y-16817984D02*
X2805896Y-16617984D01*
X2805896Y-16617984D02*
X2786848Y-16646555D01*
X2786848Y-16646555D02*
X2767801Y-16665603D01*
X2767801Y-16665603D02*
X2748753Y-16675127D01*
X2948753Y-16798936D02*
X2958277Y-16808460D01*
X2958277Y-16808460D02*
X2948753Y-16817984D01*
X2948753Y-16817984D02*
X2939229Y-16808460D01*
X2939229Y-16808460D02*
X2948753Y-16798936D01*
X2948753Y-16798936D02*
X2948753Y-16817984D01*
X3034467Y-16637031D02*
X3043991Y-16627508D01*
X3043991Y-16627508D02*
X3063039Y-16617984D01*
X3063039Y-16617984D02*
X3110658Y-16617984D01*
X3110658Y-16617984D02*
X3129705Y-16627508D01*
X3129705Y-16627508D02*
X3139229Y-16637031D01*
X3139229Y-16637031D02*
X3148753Y-16656079D01*
X3148753Y-16656079D02*
X3148753Y-16675127D01*
X3148753Y-16675127D02*
X3139229Y-16703698D01*
X3139229Y-16703698D02*
X3024943Y-16817984D01*
X3024943Y-16817984D02*
X3148753Y-16817984D01*
X3272562Y-16617984D02*
X3291610Y-16617984D01*
X3291610Y-16617984D02*
X3310658Y-16627508D01*
X3310658Y-16627508D02*
X3320182Y-16637031D01*
X3320182Y-16637031D02*
X3329705Y-16656079D01*
X3329705Y-16656079D02*
X3339229Y-16694174D01*
X3339229Y-16694174D02*
X3339229Y-16741793D01*
X3339229Y-16741793D02*
X3329705Y-16779889D01*
X3329705Y-16779889D02*
X3320182Y-16798936D01*
X3320182Y-16798936D02*
X3310658Y-16808460D01*
X3310658Y-16808460D02*
X3291610Y-16817984D01*
X3291610Y-16817984D02*
X3272562Y-16817984D01*
X3272562Y-16817984D02*
X3253515Y-16808460D01*
X3253515Y-16808460D02*
X3243991Y-16798936D01*
X3243991Y-16798936D02*
X3234467Y-16779889D01*
X3234467Y-16779889D02*
X3224943Y-16741793D01*
X3224943Y-16741793D02*
X3224943Y-16694174D01*
X3224943Y-16694174D02*
X3234467Y-16656079D01*
X3234467Y-16656079D02*
X3243991Y-16637031D01*
X3243991Y-16637031D02*
X3253515Y-16627508D01*
X3253515Y-16627508D02*
X3272562Y-16617984D01*
X3463039Y-16617984D02*
X3482086Y-16617984D01*
X3482086Y-16617984D02*
X3501134Y-16627508D01*
X3501134Y-16627508D02*
X3510658Y-16637031D01*
X3510658Y-16637031D02*
X3520182Y-16656079D01*
X3520182Y-16656079D02*
X3529705Y-16694174D01*
X3529705Y-16694174D02*
X3529705Y-16741793D01*
X3529705Y-16741793D02*
X3520182Y-16779889D01*
X3520182Y-16779889D02*
X3510658Y-16798936D01*
X3510658Y-16798936D02*
X3501134Y-16808460D01*
X3501134Y-16808460D02*
X3482086Y-16817984D01*
X3482086Y-16817984D02*
X3463039Y-16817984D01*
X3463039Y-16817984D02*
X3443991Y-16808460D01*
X3443991Y-16808460D02*
X3434467Y-16798936D01*
X3434467Y-16798936D02*
X3424943Y-16779889D01*
X3424943Y-16779889D02*
X3415420Y-16741793D01*
X3415420Y-16741793D02*
X3415420Y-16694174D01*
X3415420Y-16694174D02*
X3424943Y-16656079D01*
X3424943Y-16656079D02*
X3434467Y-16637031D01*
X3434467Y-16637031D02*
X3443991Y-16627508D01*
X3443991Y-16627508D02*
X3463039Y-16617984D01*
X3615420Y-16817984D02*
X3615420Y-16684650D01*
X3615420Y-16703698D02*
X3624943Y-16694174D01*
X3624943Y-16694174D02*
X3643991Y-16684650D01*
X3643991Y-16684650D02*
X3672563Y-16684650D01*
X3672563Y-16684650D02*
X3691610Y-16694174D01*
X3691610Y-16694174D02*
X3701134Y-16713222D01*
X3701134Y-16713222D02*
X3701134Y-16817984D01*
X3701134Y-16713222D02*
X3710658Y-16694174D01*
X3710658Y-16694174D02*
X3729705Y-16684650D01*
X3729705Y-16684650D02*
X3758277Y-16684650D01*
X3758277Y-16684650D02*
X3777324Y-16694174D01*
X3777324Y-16694174D02*
X3786848Y-16713222D01*
X3786848Y-16713222D02*
X3786848Y-16817984D01*
X3882086Y-16817984D02*
X3882086Y-16684650D01*
X3882086Y-16703698D02*
X3891610Y-16694174D01*
X3891610Y-16694174D02*
X3910658Y-16684650D01*
X3910658Y-16684650D02*
X3939229Y-16684650D01*
X3939229Y-16684650D02*
X3958277Y-16694174D01*
X3958277Y-16694174D02*
X3967801Y-16713222D01*
X3967801Y-16713222D02*
X3967801Y-16817984D01*
X3967801Y-16713222D02*
X3977324Y-16694174D01*
X3977324Y-16694174D02*
X3996372Y-16684650D01*
X3996372Y-16684650D02*
X4024943Y-16684650D01*
X4024943Y-16684650D02*
X4043991Y-16694174D01*
X4043991Y-16694174D02*
X4053515Y-16713222D01*
X4053515Y-16713222D02*
X4053515Y-16817984D01*
X4443991Y-16608460D02*
X4272563Y-16865603D01*
X4701134Y-16617984D02*
X4720182Y-16617984D01*
X4720182Y-16617984D02*
X4739229Y-16627508D01*
X4739229Y-16627508D02*
X4748753Y-16637031D01*
X4748753Y-16637031D02*
X4758277Y-16656079D01*
X4758277Y-16656079D02*
X4767801Y-16694174D01*
X4767801Y-16694174D02*
X4767801Y-16741793D01*
X4767801Y-16741793D02*
X4758277Y-16779889D01*
X4758277Y-16779889D02*
X4748753Y-16798936D01*
X4748753Y-16798936D02*
X4739229Y-16808460D01*
X4739229Y-16808460D02*
X4720182Y-16817984D01*
X4720182Y-16817984D02*
X4701134Y-16817984D01*
X4701134Y-16817984D02*
X4682087Y-16808460D01*
X4682087Y-16808460D02*
X4672563Y-16798936D01*
X4672563Y-16798936D02*
X4663039Y-16779889D01*
X4663039Y-16779889D02*
X4653515Y-16741793D01*
X4653515Y-16741793D02*
X4653515Y-16694174D01*
X4653515Y-16694174D02*
X4663039Y-16656079D01*
X4663039Y-16656079D02*
X4672563Y-16637031D01*
X4672563Y-16637031D02*
X4682087Y-16627508D01*
X4682087Y-16627508D02*
X4701134Y-16617984D01*
X4853515Y-16798936D02*
X4863039Y-16808460D01*
X4863039Y-16808460D02*
X4853515Y-16817984D01*
X4853515Y-16817984D02*
X4843991Y-16808460D01*
X4843991Y-16808460D02*
X4853515Y-16798936D01*
X4853515Y-16798936D02*
X4853515Y-16817984D01*
X4986848Y-16617984D02*
X5005896Y-16617984D01*
X5005896Y-16617984D02*
X5024944Y-16627508D01*
X5024944Y-16627508D02*
X5034468Y-16637031D01*
X5034468Y-16637031D02*
X5043991Y-16656079D01*
X5043991Y-16656079D02*
X5053515Y-16694174D01*
X5053515Y-16694174D02*
X5053515Y-16741793D01*
X5053515Y-16741793D02*
X5043991Y-16779889D01*
X5043991Y-16779889D02*
X5034468Y-16798936D01*
X5034468Y-16798936D02*
X5024944Y-16808460D01*
X5024944Y-16808460D02*
X5005896Y-16817984D01*
X5005896Y-16817984D02*
X4986848Y-16817984D01*
X4986848Y-16817984D02*
X4967801Y-16808460D01*
X4967801Y-16808460D02*
X4958277Y-16798936D01*
X4958277Y-16798936D02*
X4948753Y-16779889D01*
X4948753Y-16779889D02*
X4939229Y-16741793D01*
X4939229Y-16741793D02*
X4939229Y-16694174D01*
X4939229Y-16694174D02*
X4948753Y-16656079D01*
X4948753Y-16656079D02*
X4958277Y-16637031D01*
X4958277Y-16637031D02*
X4967801Y-16627508D01*
X4967801Y-16627508D02*
X4986848Y-16617984D01*
X5224944Y-16684650D02*
X5224944Y-16817984D01*
X5177325Y-16608460D02*
X5129706Y-16751317D01*
X5129706Y-16751317D02*
X5253515Y-16751317D01*
X5310658Y-16617984D02*
X5443991Y-16617984D01*
X5443991Y-16617984D02*
X5358277Y-16817984D01*
X5510658Y-16637031D02*
X5520182Y-16627508D01*
X5520182Y-16627508D02*
X5539229Y-16617984D01*
X5539229Y-16617984D02*
X5586849Y-16617984D01*
X5586849Y-16617984D02*
X5605896Y-16627508D01*
X5605896Y-16627508D02*
X5615420Y-16637031D01*
X5615420Y-16637031D02*
X5624944Y-16656079D01*
X5624944Y-16656079D02*
X5624944Y-16675127D01*
X5624944Y-16675127D02*
X5615420Y-16703698D01*
X5615420Y-16703698D02*
X5501134Y-16817984D01*
X5501134Y-16817984D02*
X5624944Y-16817984D01*
X5701134Y-16617984D02*
X5701134Y-16656079D01*
X5777325Y-16617984D02*
X5777325Y-16656079D01*
X6072563Y-16894174D02*
X6063039Y-16884650D01*
X6063039Y-16884650D02*
X6043991Y-16856079D01*
X6043991Y-16856079D02*
X6034468Y-16837031D01*
X6034468Y-16837031D02*
X6024944Y-16808460D01*
X6024944Y-16808460D02*
X6015420Y-16760841D01*
X6015420Y-16760841D02*
X6015420Y-16722746D01*
X6015420Y-16722746D02*
X6024944Y-16675127D01*
X6024944Y-16675127D02*
X6034468Y-16646555D01*
X6034468Y-16646555D02*
X6043991Y-16627508D01*
X6043991Y-16627508D02*
X6063039Y-16598936D01*
X6063039Y-16598936D02*
X6072563Y-16589412D01*
X6129706Y-16617984D02*
X6253515Y-16617984D01*
X6253515Y-16617984D02*
X6186848Y-16694174D01*
X6186848Y-16694174D02*
X6215420Y-16694174D01*
X6215420Y-16694174D02*
X6234468Y-16703698D01*
X6234468Y-16703698D02*
X6243991Y-16713222D01*
X6243991Y-16713222D02*
X6253515Y-16732269D01*
X6253515Y-16732269D02*
X6253515Y-16779889D01*
X6253515Y-16779889D02*
X6243991Y-16798936D01*
X6243991Y-16798936D02*
X6234468Y-16808460D01*
X6234468Y-16808460D02*
X6215420Y-16817984D01*
X6215420Y-16817984D02*
X6158277Y-16817984D01*
X6158277Y-16817984D02*
X6139229Y-16808460D01*
X6139229Y-16808460D02*
X6129706Y-16798936D01*
X6491610Y-16817984D02*
X6491610Y-16617984D01*
X6577325Y-16817984D02*
X6577325Y-16713222D01*
X6577325Y-16713222D02*
X6567801Y-16694174D01*
X6567801Y-16694174D02*
X6548753Y-16684650D01*
X6548753Y-16684650D02*
X6520182Y-16684650D01*
X6520182Y-16684650D02*
X6501134Y-16694174D01*
X6501134Y-16694174D02*
X6491610Y-16703698D01*
X6701134Y-16817984D02*
X6682087Y-16808460D01*
X6682087Y-16808460D02*
X6672563Y-16798936D01*
X6672563Y-16798936D02*
X6663039Y-16779889D01*
X6663039Y-16779889D02*
X6663039Y-16722746D01*
X6663039Y-16722746D02*
X6672563Y-16703698D01*
X6672563Y-16703698D02*
X6682087Y-16694174D01*
X6682087Y-16694174D02*
X6701134Y-16684650D01*
X6701134Y-16684650D02*
X6729706Y-16684650D01*
X6729706Y-16684650D02*
X6748753Y-16694174D01*
X6748753Y-16694174D02*
X6758277Y-16703698D01*
X6758277Y-16703698D02*
X6767801Y-16722746D01*
X6767801Y-16722746D02*
X6767801Y-16779889D01*
X6767801Y-16779889D02*
X6758277Y-16798936D01*
X6758277Y-16798936D02*
X6748753Y-16808460D01*
X6748753Y-16808460D02*
X6729706Y-16817984D01*
X6729706Y-16817984D02*
X6701134Y-16817984D01*
X6882087Y-16817984D02*
X6863039Y-16808460D01*
X6863039Y-16808460D02*
X6853515Y-16789412D01*
X6853515Y-16789412D02*
X6853515Y-16617984D01*
X7034468Y-16808460D02*
X7015420Y-16817984D01*
X7015420Y-16817984D02*
X6977325Y-16817984D01*
X6977325Y-16817984D02*
X6958277Y-16808460D01*
X6958277Y-16808460D02*
X6948753Y-16789412D01*
X6948753Y-16789412D02*
X6948753Y-16713222D01*
X6948753Y-16713222D02*
X6958277Y-16694174D01*
X6958277Y-16694174D02*
X6977325Y-16684650D01*
X6977325Y-16684650D02*
X7015420Y-16684650D01*
X7015420Y-16684650D02*
X7034468Y-16694174D01*
X7034468Y-16694174D02*
X7043991Y-16713222D01*
X7043991Y-16713222D02*
X7043991Y-16732269D01*
X7043991Y-16732269D02*
X6948753Y-16751317D01*
X7120182Y-16808460D02*
X7139230Y-16817984D01*
X7139230Y-16817984D02*
X7177325Y-16817984D01*
X7177325Y-16817984D02*
X7196372Y-16808460D01*
X7196372Y-16808460D02*
X7205896Y-16789412D01*
X7205896Y-16789412D02*
X7205896Y-16779889D01*
X7205896Y-16779889D02*
X7196372Y-16760841D01*
X7196372Y-16760841D02*
X7177325Y-16751317D01*
X7177325Y-16751317D02*
X7148753Y-16751317D01*
X7148753Y-16751317D02*
X7129706Y-16741793D01*
X7129706Y-16741793D02*
X7120182Y-16722746D01*
X7120182Y-16722746D02*
X7120182Y-16713222D01*
X7120182Y-16713222D02*
X7129706Y-16694174D01*
X7129706Y-16694174D02*
X7148753Y-16684650D01*
X7148753Y-16684650D02*
X7177325Y-16684650D01*
X7177325Y-16684650D02*
X7196372Y-16694174D01*
X7272563Y-16894174D02*
X7282087Y-16884650D01*
X7282087Y-16884650D02*
X7301134Y-16856079D01*
X7301134Y-16856079D02*
X7310658Y-16837031D01*
X7310658Y-16837031D02*
X7320182Y-16808460D01*
X7320182Y-16808460D02*
X7329706Y-16760841D01*
X7329706Y-16760841D02*
X7329706Y-16722746D01*
X7329706Y-16722746D02*
X7320182Y-16675127D01*
X7320182Y-16675127D02*
X7310658Y-16646555D01*
X7310658Y-16646555D02*
X7301134Y-16627508D01*
X7301134Y-16627508D02*
X7282087Y-16598936D01*
X7282087Y-16598936D02*
X7272563Y-16589412D01*
D15*
X2327500Y-16905500D02*
X2497500Y-17075500D01*
X2497500Y-16905500D02*
X2327500Y-17075500D01*
X2472605Y-17050605D02*
X2472605Y-16930395D01*
X2352395Y-16930395D01*
X2352395Y-17050605D01*
X2472605Y-17050605D01*
D11*
X2863039Y-17081984D02*
X2748753Y-17081984D01*
X2805896Y-17081984D02*
X2805896Y-16881984D01*
X2805896Y-16881984D02*
X2786848Y-16910555D01*
X2786848Y-16910555D02*
X2767801Y-16929603D01*
X2767801Y-16929603D02*
X2748753Y-16939127D01*
X2948753Y-17062936D02*
X2958277Y-17072460D01*
X2958277Y-17072460D02*
X2948753Y-17081984D01*
X2948753Y-17081984D02*
X2939229Y-17072460D01*
X2939229Y-17072460D02*
X2948753Y-17062936D01*
X2948753Y-17062936D02*
X2948753Y-17081984D01*
X3024943Y-16881984D02*
X3158277Y-16881984D01*
X3158277Y-16881984D02*
X3072562Y-17081984D01*
X3272562Y-16881984D02*
X3291610Y-16881984D01*
X3291610Y-16881984D02*
X3310658Y-16891508D01*
X3310658Y-16891508D02*
X3320182Y-16901031D01*
X3320182Y-16901031D02*
X3329705Y-16920079D01*
X3329705Y-16920079D02*
X3339229Y-16958174D01*
X3339229Y-16958174D02*
X3339229Y-17005793D01*
X3339229Y-17005793D02*
X3329705Y-17043889D01*
X3329705Y-17043889D02*
X3320182Y-17062936D01*
X3320182Y-17062936D02*
X3310658Y-17072460D01*
X3310658Y-17072460D02*
X3291610Y-17081984D01*
X3291610Y-17081984D02*
X3272562Y-17081984D01*
X3272562Y-17081984D02*
X3253515Y-17072460D01*
X3253515Y-17072460D02*
X3243991Y-17062936D01*
X3243991Y-17062936D02*
X3234467Y-17043889D01*
X3234467Y-17043889D02*
X3224943Y-17005793D01*
X3224943Y-17005793D02*
X3224943Y-16958174D01*
X3224943Y-16958174D02*
X3234467Y-16920079D01*
X3234467Y-16920079D02*
X3243991Y-16901031D01*
X3243991Y-16901031D02*
X3253515Y-16891508D01*
X3253515Y-16891508D02*
X3272562Y-16881984D01*
X3463039Y-16881984D02*
X3482086Y-16881984D01*
X3482086Y-16881984D02*
X3501134Y-16891508D01*
X3501134Y-16891508D02*
X3510658Y-16901031D01*
X3510658Y-16901031D02*
X3520182Y-16920079D01*
X3520182Y-16920079D02*
X3529705Y-16958174D01*
X3529705Y-16958174D02*
X3529705Y-17005793D01*
X3529705Y-17005793D02*
X3520182Y-17043889D01*
X3520182Y-17043889D02*
X3510658Y-17062936D01*
X3510658Y-17062936D02*
X3501134Y-17072460D01*
X3501134Y-17072460D02*
X3482086Y-17081984D01*
X3482086Y-17081984D02*
X3463039Y-17081984D01*
X3463039Y-17081984D02*
X3443991Y-17072460D01*
X3443991Y-17072460D02*
X3434467Y-17062936D01*
X3434467Y-17062936D02*
X3424943Y-17043889D01*
X3424943Y-17043889D02*
X3415420Y-17005793D01*
X3415420Y-17005793D02*
X3415420Y-16958174D01*
X3415420Y-16958174D02*
X3424943Y-16920079D01*
X3424943Y-16920079D02*
X3434467Y-16901031D01*
X3434467Y-16901031D02*
X3443991Y-16891508D01*
X3443991Y-16891508D02*
X3463039Y-16881984D01*
X3615420Y-17081984D02*
X3615420Y-16948650D01*
X3615420Y-16967698D02*
X3624943Y-16958174D01*
X3624943Y-16958174D02*
X3643991Y-16948650D01*
X3643991Y-16948650D02*
X3672563Y-16948650D01*
X3672563Y-16948650D02*
X3691610Y-16958174D01*
X3691610Y-16958174D02*
X3701134Y-16977222D01*
X3701134Y-16977222D02*
X3701134Y-17081984D01*
X3701134Y-16977222D02*
X3710658Y-16958174D01*
X3710658Y-16958174D02*
X3729705Y-16948650D01*
X3729705Y-16948650D02*
X3758277Y-16948650D01*
X3758277Y-16948650D02*
X3777324Y-16958174D01*
X3777324Y-16958174D02*
X3786848Y-16977222D01*
X3786848Y-16977222D02*
X3786848Y-17081984D01*
X3882086Y-17081984D02*
X3882086Y-16948650D01*
X3882086Y-16967698D02*
X3891610Y-16958174D01*
X3891610Y-16958174D02*
X3910658Y-16948650D01*
X3910658Y-16948650D02*
X3939229Y-16948650D01*
X3939229Y-16948650D02*
X3958277Y-16958174D01*
X3958277Y-16958174D02*
X3967801Y-16977222D01*
X3967801Y-16977222D02*
X3967801Y-17081984D01*
X3967801Y-16977222D02*
X3977324Y-16958174D01*
X3977324Y-16958174D02*
X3996372Y-16948650D01*
X3996372Y-16948650D02*
X4024943Y-16948650D01*
X4024943Y-16948650D02*
X4043991Y-16958174D01*
X4043991Y-16958174D02*
X4053515Y-16977222D01*
X4053515Y-16977222D02*
X4053515Y-17081984D01*
X4443991Y-16872460D02*
X4272563Y-17129603D01*
X4701134Y-16881984D02*
X4720182Y-16881984D01*
X4720182Y-16881984D02*
X4739229Y-16891508D01*
X4739229Y-16891508D02*
X4748753Y-16901031D01*
X4748753Y-16901031D02*
X4758277Y-16920079D01*
X4758277Y-16920079D02*
X4767801Y-16958174D01*
X4767801Y-16958174D02*
X4767801Y-17005793D01*
X4767801Y-17005793D02*
X4758277Y-17043889D01*
X4758277Y-17043889D02*
X4748753Y-17062936D01*
X4748753Y-17062936D02*
X4739229Y-17072460D01*
X4739229Y-17072460D02*
X4720182Y-17081984D01*
X4720182Y-17081984D02*
X4701134Y-17081984D01*
X4701134Y-17081984D02*
X4682087Y-17072460D01*
X4682087Y-17072460D02*
X4672563Y-17062936D01*
X4672563Y-17062936D02*
X4663039Y-17043889D01*
X4663039Y-17043889D02*
X4653515Y-17005793D01*
X4653515Y-17005793D02*
X4653515Y-16958174D01*
X4653515Y-16958174D02*
X4663039Y-16920079D01*
X4663039Y-16920079D02*
X4672563Y-16901031D01*
X4672563Y-16901031D02*
X4682087Y-16891508D01*
X4682087Y-16891508D02*
X4701134Y-16881984D01*
X4853515Y-17062936D02*
X4863039Y-17072460D01*
X4863039Y-17072460D02*
X4853515Y-17081984D01*
X4853515Y-17081984D02*
X4843991Y-17072460D01*
X4843991Y-17072460D02*
X4853515Y-17062936D01*
X4853515Y-17062936D02*
X4853515Y-17081984D01*
X4986848Y-16881984D02*
X5005896Y-16881984D01*
X5005896Y-16881984D02*
X5024944Y-16891508D01*
X5024944Y-16891508D02*
X5034468Y-16901031D01*
X5034468Y-16901031D02*
X5043991Y-16920079D01*
X5043991Y-16920079D02*
X5053515Y-16958174D01*
X5053515Y-16958174D02*
X5053515Y-17005793D01*
X5053515Y-17005793D02*
X5043991Y-17043889D01*
X5043991Y-17043889D02*
X5034468Y-17062936D01*
X5034468Y-17062936D02*
X5024944Y-17072460D01*
X5024944Y-17072460D02*
X5005896Y-17081984D01*
X5005896Y-17081984D02*
X4986848Y-17081984D01*
X4986848Y-17081984D02*
X4967801Y-17072460D01*
X4967801Y-17072460D02*
X4958277Y-17062936D01*
X4958277Y-17062936D02*
X4948753Y-17043889D01*
X4948753Y-17043889D02*
X4939229Y-17005793D01*
X4939229Y-17005793D02*
X4939229Y-16958174D01*
X4939229Y-16958174D02*
X4948753Y-16920079D01*
X4948753Y-16920079D02*
X4958277Y-16901031D01*
X4958277Y-16901031D02*
X4967801Y-16891508D01*
X4967801Y-16891508D02*
X4986848Y-16881984D01*
X5224944Y-16881984D02*
X5186848Y-16881984D01*
X5186848Y-16881984D02*
X5167801Y-16891508D01*
X5167801Y-16891508D02*
X5158277Y-16901031D01*
X5158277Y-16901031D02*
X5139229Y-16929603D01*
X5139229Y-16929603D02*
X5129706Y-16967698D01*
X5129706Y-16967698D02*
X5129706Y-17043889D01*
X5129706Y-17043889D02*
X5139229Y-17062936D01*
X5139229Y-17062936D02*
X5148753Y-17072460D01*
X5148753Y-17072460D02*
X5167801Y-17081984D01*
X5167801Y-17081984D02*
X5205896Y-17081984D01*
X5205896Y-17081984D02*
X5224944Y-17072460D01*
X5224944Y-17072460D02*
X5234468Y-17062936D01*
X5234468Y-17062936D02*
X5243991Y-17043889D01*
X5243991Y-17043889D02*
X5243991Y-16996270D01*
X5243991Y-16996270D02*
X5234468Y-16977222D01*
X5234468Y-16977222D02*
X5224944Y-16967698D01*
X5224944Y-16967698D02*
X5205896Y-16958174D01*
X5205896Y-16958174D02*
X5167801Y-16958174D01*
X5167801Y-16958174D02*
X5148753Y-16967698D01*
X5148753Y-16967698D02*
X5139229Y-16977222D01*
X5139229Y-16977222D02*
X5129706Y-16996270D01*
X5415420Y-16881984D02*
X5377325Y-16881984D01*
X5377325Y-16881984D02*
X5358277Y-16891508D01*
X5358277Y-16891508D02*
X5348753Y-16901031D01*
X5348753Y-16901031D02*
X5329706Y-16929603D01*
X5329706Y-16929603D02*
X5320182Y-16967698D01*
X5320182Y-16967698D02*
X5320182Y-17043889D01*
X5320182Y-17043889D02*
X5329706Y-17062936D01*
X5329706Y-17062936D02*
X5339229Y-17072460D01*
X5339229Y-17072460D02*
X5358277Y-17081984D01*
X5358277Y-17081984D02*
X5396372Y-17081984D01*
X5396372Y-17081984D02*
X5415420Y-17072460D01*
X5415420Y-17072460D02*
X5424944Y-17062936D01*
X5424944Y-17062936D02*
X5434468Y-17043889D01*
X5434468Y-17043889D02*
X5434468Y-16996270D01*
X5434468Y-16996270D02*
X5424944Y-16977222D01*
X5424944Y-16977222D02*
X5415420Y-16967698D01*
X5415420Y-16967698D02*
X5396372Y-16958174D01*
X5396372Y-16958174D02*
X5358277Y-16958174D01*
X5358277Y-16958174D02*
X5339229Y-16967698D01*
X5339229Y-16967698D02*
X5329706Y-16977222D01*
X5329706Y-16977222D02*
X5320182Y-16996270D01*
X5529706Y-17081984D02*
X5567801Y-17081984D01*
X5567801Y-17081984D02*
X5586849Y-17072460D01*
X5586849Y-17072460D02*
X5596372Y-17062936D01*
X5596372Y-17062936D02*
X5615420Y-17034365D01*
X5615420Y-17034365D02*
X5624944Y-16996270D01*
X5624944Y-16996270D02*
X5624944Y-16920079D01*
X5624944Y-16920079D02*
X5615420Y-16901031D01*
X5615420Y-16901031D02*
X5605896Y-16891508D01*
X5605896Y-16891508D02*
X5586849Y-16881984D01*
X5586849Y-16881984D02*
X5548753Y-16881984D01*
X5548753Y-16881984D02*
X5529706Y-16891508D01*
X5529706Y-16891508D02*
X5520182Y-16901031D01*
X5520182Y-16901031D02*
X5510658Y-16920079D01*
X5510658Y-16920079D02*
X5510658Y-16967698D01*
X5510658Y-16967698D02*
X5520182Y-16986746D01*
X5520182Y-16986746D02*
X5529706Y-16996270D01*
X5529706Y-16996270D02*
X5548753Y-17005793D01*
X5548753Y-17005793D02*
X5586849Y-17005793D01*
X5586849Y-17005793D02*
X5605896Y-16996270D01*
X5605896Y-16996270D02*
X5615420Y-16986746D01*
X5615420Y-16986746D02*
X5624944Y-16967698D01*
X5701134Y-16881984D02*
X5701134Y-16920079D01*
X5777325Y-16881984D02*
X5777325Y-16920079D01*
X6072563Y-17158174D02*
X6063039Y-17148650D01*
X6063039Y-17148650D02*
X6043991Y-17120079D01*
X6043991Y-17120079D02*
X6034468Y-17101031D01*
X6034468Y-17101031D02*
X6024944Y-17072460D01*
X6024944Y-17072460D02*
X6015420Y-17024841D01*
X6015420Y-17024841D02*
X6015420Y-16986746D01*
X6015420Y-16986746D02*
X6024944Y-16939127D01*
X6024944Y-16939127D02*
X6034468Y-16910555D01*
X6034468Y-16910555D02*
X6043991Y-16891508D01*
X6043991Y-16891508D02*
X6063039Y-16862936D01*
X6063039Y-16862936D02*
X6072563Y-16853412D01*
X6139229Y-16901031D02*
X6148753Y-16891508D01*
X6148753Y-16891508D02*
X6167801Y-16881984D01*
X6167801Y-16881984D02*
X6215420Y-16881984D01*
X6215420Y-16881984D02*
X6234468Y-16891508D01*
X6234468Y-16891508D02*
X6243991Y-16901031D01*
X6243991Y-16901031D02*
X6253515Y-16920079D01*
X6253515Y-16920079D02*
X6253515Y-16939127D01*
X6253515Y-16939127D02*
X6243991Y-16967698D01*
X6243991Y-16967698D02*
X6129706Y-17081984D01*
X6129706Y-17081984D02*
X6253515Y-17081984D01*
X6491610Y-17081984D02*
X6491610Y-16881984D01*
X6577325Y-17081984D02*
X6577325Y-16977222D01*
X6577325Y-16977222D02*
X6567801Y-16958174D01*
X6567801Y-16958174D02*
X6548753Y-16948650D01*
X6548753Y-16948650D02*
X6520182Y-16948650D01*
X6520182Y-16948650D02*
X6501134Y-16958174D01*
X6501134Y-16958174D02*
X6491610Y-16967698D01*
X6701134Y-17081984D02*
X6682087Y-17072460D01*
X6682087Y-17072460D02*
X6672563Y-17062936D01*
X6672563Y-17062936D02*
X6663039Y-17043889D01*
X6663039Y-17043889D02*
X6663039Y-16986746D01*
X6663039Y-16986746D02*
X6672563Y-16967698D01*
X6672563Y-16967698D02*
X6682087Y-16958174D01*
X6682087Y-16958174D02*
X6701134Y-16948650D01*
X6701134Y-16948650D02*
X6729706Y-16948650D01*
X6729706Y-16948650D02*
X6748753Y-16958174D01*
X6748753Y-16958174D02*
X6758277Y-16967698D01*
X6758277Y-16967698D02*
X6767801Y-16986746D01*
X6767801Y-16986746D02*
X6767801Y-17043889D01*
X6767801Y-17043889D02*
X6758277Y-17062936D01*
X6758277Y-17062936D02*
X6748753Y-17072460D01*
X6748753Y-17072460D02*
X6729706Y-17081984D01*
X6729706Y-17081984D02*
X6701134Y-17081984D01*
X6882087Y-17081984D02*
X6863039Y-17072460D01*
X6863039Y-17072460D02*
X6853515Y-17053412D01*
X6853515Y-17053412D02*
X6853515Y-16881984D01*
X7034468Y-17072460D02*
X7015420Y-17081984D01*
X7015420Y-17081984D02*
X6977325Y-17081984D01*
X6977325Y-17081984D02*
X6958277Y-17072460D01*
X6958277Y-17072460D02*
X6948753Y-17053412D01*
X6948753Y-17053412D02*
X6948753Y-16977222D01*
X6948753Y-16977222D02*
X6958277Y-16958174D01*
X6958277Y-16958174D02*
X6977325Y-16948650D01*
X6977325Y-16948650D02*
X7015420Y-16948650D01*
X7015420Y-16948650D02*
X7034468Y-16958174D01*
X7034468Y-16958174D02*
X7043991Y-16977222D01*
X7043991Y-16977222D02*
X7043991Y-16996270D01*
X7043991Y-16996270D02*
X6948753Y-17015317D01*
X7120182Y-17072460D02*
X7139230Y-17081984D01*
X7139230Y-17081984D02*
X7177325Y-17081984D01*
X7177325Y-17081984D02*
X7196372Y-17072460D01*
X7196372Y-17072460D02*
X7205896Y-17053412D01*
X7205896Y-17053412D02*
X7205896Y-17043889D01*
X7205896Y-17043889D02*
X7196372Y-17024841D01*
X7196372Y-17024841D02*
X7177325Y-17015317D01*
X7177325Y-17015317D02*
X7148753Y-17015317D01*
X7148753Y-17015317D02*
X7129706Y-17005793D01*
X7129706Y-17005793D02*
X7120182Y-16986746D01*
X7120182Y-16986746D02*
X7120182Y-16977222D01*
X7120182Y-16977222D02*
X7129706Y-16958174D01*
X7129706Y-16958174D02*
X7148753Y-16948650D01*
X7148753Y-16948650D02*
X7177325Y-16948650D01*
X7177325Y-16948650D02*
X7196372Y-16958174D01*
X7272563Y-17158174D02*
X7282087Y-17148650D01*
X7282087Y-17148650D02*
X7301134Y-17120079D01*
X7301134Y-17120079D02*
X7310658Y-17101031D01*
X7310658Y-17101031D02*
X7320182Y-17072460D01*
X7320182Y-17072460D02*
X7329706Y-17024841D01*
X7329706Y-17024841D02*
X7329706Y-16986746D01*
X7329706Y-16986746D02*
X7320182Y-16939127D01*
X7320182Y-16939127D02*
X7310658Y-16910555D01*
X7310658Y-16910555D02*
X7301134Y-16891508D01*
X7301134Y-16891508D02*
X7282087Y-16862936D01*
X7282087Y-16862936D02*
X7272563Y-16853412D01*
D15*
X2327500Y-17195500D02*
X2497500Y-17365500D01*
X2497500Y-17195500D02*
X2327500Y-17365500D01*
X2412500Y-17365500D02*
X2497500Y-17280500D01*
X2412500Y-17195500D01*
X2327500Y-17280500D01*
X2412500Y-17365500D01*
D11*
X2863039Y-17371984D02*
X2748753Y-17371984D01*
X2805896Y-17371984D02*
X2805896Y-17171984D01*
X2805896Y-17171984D02*
X2786848Y-17200555D01*
X2786848Y-17200555D02*
X2767801Y-17219603D01*
X2767801Y-17219603D02*
X2748753Y-17229127D01*
X2948753Y-17352936D02*
X2958277Y-17362460D01*
X2958277Y-17362460D02*
X2948753Y-17371984D01*
X2948753Y-17371984D02*
X2939229Y-17362460D01*
X2939229Y-17362460D02*
X2948753Y-17352936D01*
X2948753Y-17352936D02*
X2948753Y-17371984D01*
X3024943Y-17171984D02*
X3158277Y-17171984D01*
X3158277Y-17171984D02*
X3072562Y-17371984D01*
X3272562Y-17171984D02*
X3291610Y-17171984D01*
X3291610Y-17171984D02*
X3310658Y-17181508D01*
X3310658Y-17181508D02*
X3320182Y-17191031D01*
X3320182Y-17191031D02*
X3329705Y-17210079D01*
X3329705Y-17210079D02*
X3339229Y-17248174D01*
X3339229Y-17248174D02*
X3339229Y-17295793D01*
X3339229Y-17295793D02*
X3329705Y-17333889D01*
X3329705Y-17333889D02*
X3320182Y-17352936D01*
X3320182Y-17352936D02*
X3310658Y-17362460D01*
X3310658Y-17362460D02*
X3291610Y-17371984D01*
X3291610Y-17371984D02*
X3272562Y-17371984D01*
X3272562Y-17371984D02*
X3253515Y-17362460D01*
X3253515Y-17362460D02*
X3243991Y-17352936D01*
X3243991Y-17352936D02*
X3234467Y-17333889D01*
X3234467Y-17333889D02*
X3224943Y-17295793D01*
X3224943Y-17295793D02*
X3224943Y-17248174D01*
X3224943Y-17248174D02*
X3234467Y-17210079D01*
X3234467Y-17210079D02*
X3243991Y-17191031D01*
X3243991Y-17191031D02*
X3253515Y-17181508D01*
X3253515Y-17181508D02*
X3272562Y-17171984D01*
X3463039Y-17171984D02*
X3482086Y-17171984D01*
X3482086Y-17171984D02*
X3501134Y-17181508D01*
X3501134Y-17181508D02*
X3510658Y-17191031D01*
X3510658Y-17191031D02*
X3520182Y-17210079D01*
X3520182Y-17210079D02*
X3529705Y-17248174D01*
X3529705Y-17248174D02*
X3529705Y-17295793D01*
X3529705Y-17295793D02*
X3520182Y-17333889D01*
X3520182Y-17333889D02*
X3510658Y-17352936D01*
X3510658Y-17352936D02*
X3501134Y-17362460D01*
X3501134Y-17362460D02*
X3482086Y-17371984D01*
X3482086Y-17371984D02*
X3463039Y-17371984D01*
X3463039Y-17371984D02*
X3443991Y-17362460D01*
X3443991Y-17362460D02*
X3434467Y-17352936D01*
X3434467Y-17352936D02*
X3424943Y-17333889D01*
X3424943Y-17333889D02*
X3415420Y-17295793D01*
X3415420Y-17295793D02*
X3415420Y-17248174D01*
X3415420Y-17248174D02*
X3424943Y-17210079D01*
X3424943Y-17210079D02*
X3434467Y-17191031D01*
X3434467Y-17191031D02*
X3443991Y-17181508D01*
X3443991Y-17181508D02*
X3463039Y-17171984D01*
X3615420Y-17371984D02*
X3615420Y-17238650D01*
X3615420Y-17257698D02*
X3624943Y-17248174D01*
X3624943Y-17248174D02*
X3643991Y-17238650D01*
X3643991Y-17238650D02*
X3672563Y-17238650D01*
X3672563Y-17238650D02*
X3691610Y-17248174D01*
X3691610Y-17248174D02*
X3701134Y-17267222D01*
X3701134Y-17267222D02*
X3701134Y-17371984D01*
X3701134Y-17267222D02*
X3710658Y-17248174D01*
X3710658Y-17248174D02*
X3729705Y-17238650D01*
X3729705Y-17238650D02*
X3758277Y-17238650D01*
X3758277Y-17238650D02*
X3777324Y-17248174D01*
X3777324Y-17248174D02*
X3786848Y-17267222D01*
X3786848Y-17267222D02*
X3786848Y-17371984D01*
X3882086Y-17371984D02*
X3882086Y-17238650D01*
X3882086Y-17257698D02*
X3891610Y-17248174D01*
X3891610Y-17248174D02*
X3910658Y-17238650D01*
X3910658Y-17238650D02*
X3939229Y-17238650D01*
X3939229Y-17238650D02*
X3958277Y-17248174D01*
X3958277Y-17248174D02*
X3967801Y-17267222D01*
X3967801Y-17267222D02*
X3967801Y-17371984D01*
X3967801Y-17267222D02*
X3977324Y-17248174D01*
X3977324Y-17248174D02*
X3996372Y-17238650D01*
X3996372Y-17238650D02*
X4024943Y-17238650D01*
X4024943Y-17238650D02*
X4043991Y-17248174D01*
X4043991Y-17248174D02*
X4053515Y-17267222D01*
X4053515Y-17267222D02*
X4053515Y-17371984D01*
X4443991Y-17162460D02*
X4272563Y-17419603D01*
X4701134Y-17171984D02*
X4720182Y-17171984D01*
X4720182Y-17171984D02*
X4739229Y-17181508D01*
X4739229Y-17181508D02*
X4748753Y-17191031D01*
X4748753Y-17191031D02*
X4758277Y-17210079D01*
X4758277Y-17210079D02*
X4767801Y-17248174D01*
X4767801Y-17248174D02*
X4767801Y-17295793D01*
X4767801Y-17295793D02*
X4758277Y-17333889D01*
X4758277Y-17333889D02*
X4748753Y-17352936D01*
X4748753Y-17352936D02*
X4739229Y-17362460D01*
X4739229Y-17362460D02*
X4720182Y-17371984D01*
X4720182Y-17371984D02*
X4701134Y-17371984D01*
X4701134Y-17371984D02*
X4682087Y-17362460D01*
X4682087Y-17362460D02*
X4672563Y-17352936D01*
X4672563Y-17352936D02*
X4663039Y-17333889D01*
X4663039Y-17333889D02*
X4653515Y-17295793D01*
X4653515Y-17295793D02*
X4653515Y-17248174D01*
X4653515Y-17248174D02*
X4663039Y-17210079D01*
X4663039Y-17210079D02*
X4672563Y-17191031D01*
X4672563Y-17191031D02*
X4682087Y-17181508D01*
X4682087Y-17181508D02*
X4701134Y-17171984D01*
X4853515Y-17352936D02*
X4863039Y-17362460D01*
X4863039Y-17362460D02*
X4853515Y-17371984D01*
X4853515Y-17371984D02*
X4843991Y-17362460D01*
X4843991Y-17362460D02*
X4853515Y-17352936D01*
X4853515Y-17352936D02*
X4853515Y-17371984D01*
X4986848Y-17171984D02*
X5005896Y-17171984D01*
X5005896Y-17171984D02*
X5024944Y-17181508D01*
X5024944Y-17181508D02*
X5034468Y-17191031D01*
X5034468Y-17191031D02*
X5043991Y-17210079D01*
X5043991Y-17210079D02*
X5053515Y-17248174D01*
X5053515Y-17248174D02*
X5053515Y-17295793D01*
X5053515Y-17295793D02*
X5043991Y-17333889D01*
X5043991Y-17333889D02*
X5034468Y-17352936D01*
X5034468Y-17352936D02*
X5024944Y-17362460D01*
X5024944Y-17362460D02*
X5005896Y-17371984D01*
X5005896Y-17371984D02*
X4986848Y-17371984D01*
X4986848Y-17371984D02*
X4967801Y-17362460D01*
X4967801Y-17362460D02*
X4958277Y-17352936D01*
X4958277Y-17352936D02*
X4948753Y-17333889D01*
X4948753Y-17333889D02*
X4939229Y-17295793D01*
X4939229Y-17295793D02*
X4939229Y-17248174D01*
X4939229Y-17248174D02*
X4948753Y-17210079D01*
X4948753Y-17210079D02*
X4958277Y-17191031D01*
X4958277Y-17191031D02*
X4967801Y-17181508D01*
X4967801Y-17181508D02*
X4986848Y-17171984D01*
X5224944Y-17171984D02*
X5186848Y-17171984D01*
X5186848Y-17171984D02*
X5167801Y-17181508D01*
X5167801Y-17181508D02*
X5158277Y-17191031D01*
X5158277Y-17191031D02*
X5139229Y-17219603D01*
X5139229Y-17219603D02*
X5129706Y-17257698D01*
X5129706Y-17257698D02*
X5129706Y-17333889D01*
X5129706Y-17333889D02*
X5139229Y-17352936D01*
X5139229Y-17352936D02*
X5148753Y-17362460D01*
X5148753Y-17362460D02*
X5167801Y-17371984D01*
X5167801Y-17371984D02*
X5205896Y-17371984D01*
X5205896Y-17371984D02*
X5224944Y-17362460D01*
X5224944Y-17362460D02*
X5234468Y-17352936D01*
X5234468Y-17352936D02*
X5243991Y-17333889D01*
X5243991Y-17333889D02*
X5243991Y-17286270D01*
X5243991Y-17286270D02*
X5234468Y-17267222D01*
X5234468Y-17267222D02*
X5224944Y-17257698D01*
X5224944Y-17257698D02*
X5205896Y-17248174D01*
X5205896Y-17248174D02*
X5167801Y-17248174D01*
X5167801Y-17248174D02*
X5148753Y-17257698D01*
X5148753Y-17257698D02*
X5139229Y-17267222D01*
X5139229Y-17267222D02*
X5129706Y-17286270D01*
X5415420Y-17171984D02*
X5377325Y-17171984D01*
X5377325Y-17171984D02*
X5358277Y-17181508D01*
X5358277Y-17181508D02*
X5348753Y-17191031D01*
X5348753Y-17191031D02*
X5329706Y-17219603D01*
X5329706Y-17219603D02*
X5320182Y-17257698D01*
X5320182Y-17257698D02*
X5320182Y-17333889D01*
X5320182Y-17333889D02*
X5329706Y-17352936D01*
X5329706Y-17352936D02*
X5339229Y-17362460D01*
X5339229Y-17362460D02*
X5358277Y-17371984D01*
X5358277Y-17371984D02*
X5396372Y-17371984D01*
X5396372Y-17371984D02*
X5415420Y-17362460D01*
X5415420Y-17362460D02*
X5424944Y-17352936D01*
X5424944Y-17352936D02*
X5434468Y-17333889D01*
X5434468Y-17333889D02*
X5434468Y-17286270D01*
X5434468Y-17286270D02*
X5424944Y-17267222D01*
X5424944Y-17267222D02*
X5415420Y-17257698D01*
X5415420Y-17257698D02*
X5396372Y-17248174D01*
X5396372Y-17248174D02*
X5358277Y-17248174D01*
X5358277Y-17248174D02*
X5339229Y-17257698D01*
X5339229Y-17257698D02*
X5329706Y-17267222D01*
X5329706Y-17267222D02*
X5320182Y-17286270D01*
X5529706Y-17371984D02*
X5567801Y-17371984D01*
X5567801Y-17371984D02*
X5586849Y-17362460D01*
X5586849Y-17362460D02*
X5596372Y-17352936D01*
X5596372Y-17352936D02*
X5615420Y-17324365D01*
X5615420Y-17324365D02*
X5624944Y-17286270D01*
X5624944Y-17286270D02*
X5624944Y-17210079D01*
X5624944Y-17210079D02*
X5615420Y-17191031D01*
X5615420Y-17191031D02*
X5605896Y-17181508D01*
X5605896Y-17181508D02*
X5586849Y-17171984D01*
X5586849Y-17171984D02*
X5548753Y-17171984D01*
X5548753Y-17171984D02*
X5529706Y-17181508D01*
X5529706Y-17181508D02*
X5520182Y-17191031D01*
X5520182Y-17191031D02*
X5510658Y-17210079D01*
X5510658Y-17210079D02*
X5510658Y-17257698D01*
X5510658Y-17257698D02*
X5520182Y-17276746D01*
X5520182Y-17276746D02*
X5529706Y-17286270D01*
X5529706Y-17286270D02*
X5548753Y-17295793D01*
X5548753Y-17295793D02*
X5586849Y-17295793D01*
X5586849Y-17295793D02*
X5605896Y-17286270D01*
X5605896Y-17286270D02*
X5615420Y-17276746D01*
X5615420Y-17276746D02*
X5624944Y-17257698D01*
X5701134Y-17171984D02*
X5701134Y-17210079D01*
X5777325Y-17171984D02*
X5777325Y-17210079D01*
X6072563Y-17448174D02*
X6063039Y-17438650D01*
X6063039Y-17438650D02*
X6043991Y-17410079D01*
X6043991Y-17410079D02*
X6034468Y-17391031D01*
X6034468Y-17391031D02*
X6024944Y-17362460D01*
X6024944Y-17362460D02*
X6015420Y-17314841D01*
X6015420Y-17314841D02*
X6015420Y-17276746D01*
X6015420Y-17276746D02*
X6024944Y-17229127D01*
X6024944Y-17229127D02*
X6034468Y-17200555D01*
X6034468Y-17200555D02*
X6043991Y-17181508D01*
X6043991Y-17181508D02*
X6063039Y-17152936D01*
X6063039Y-17152936D02*
X6072563Y-17143412D01*
X6234468Y-17171984D02*
X6196372Y-17171984D01*
X6196372Y-17171984D02*
X6177325Y-17181508D01*
X6177325Y-17181508D02*
X6167801Y-17191031D01*
X6167801Y-17191031D02*
X6148753Y-17219603D01*
X6148753Y-17219603D02*
X6139229Y-17257698D01*
X6139229Y-17257698D02*
X6139229Y-17333889D01*
X6139229Y-17333889D02*
X6148753Y-17352936D01*
X6148753Y-17352936D02*
X6158277Y-17362460D01*
X6158277Y-17362460D02*
X6177325Y-17371984D01*
X6177325Y-17371984D02*
X6215420Y-17371984D01*
X6215420Y-17371984D02*
X6234468Y-17362460D01*
X6234468Y-17362460D02*
X6243991Y-17352936D01*
X6243991Y-17352936D02*
X6253515Y-17333889D01*
X6253515Y-17333889D02*
X6253515Y-17286270D01*
X6253515Y-17286270D02*
X6243991Y-17267222D01*
X6243991Y-17267222D02*
X6234468Y-17257698D01*
X6234468Y-17257698D02*
X6215420Y-17248174D01*
X6215420Y-17248174D02*
X6177325Y-17248174D01*
X6177325Y-17248174D02*
X6158277Y-17257698D01*
X6158277Y-17257698D02*
X6148753Y-17267222D01*
X6148753Y-17267222D02*
X6139229Y-17286270D01*
X6491610Y-17371984D02*
X6491610Y-17171984D01*
X6577325Y-17371984D02*
X6577325Y-17267222D01*
X6577325Y-17267222D02*
X6567801Y-17248174D01*
X6567801Y-17248174D02*
X6548753Y-17238650D01*
X6548753Y-17238650D02*
X6520182Y-17238650D01*
X6520182Y-17238650D02*
X6501134Y-17248174D01*
X6501134Y-17248174D02*
X6491610Y-17257698D01*
X6701134Y-17371984D02*
X6682087Y-17362460D01*
X6682087Y-17362460D02*
X6672563Y-17352936D01*
X6672563Y-17352936D02*
X6663039Y-17333889D01*
X6663039Y-17333889D02*
X6663039Y-17276746D01*
X6663039Y-17276746D02*
X6672563Y-17257698D01*
X6672563Y-17257698D02*
X6682087Y-17248174D01*
X6682087Y-17248174D02*
X6701134Y-17238650D01*
X6701134Y-17238650D02*
X6729706Y-17238650D01*
X6729706Y-17238650D02*
X6748753Y-17248174D01*
X6748753Y-17248174D02*
X6758277Y-17257698D01*
X6758277Y-17257698D02*
X6767801Y-17276746D01*
X6767801Y-17276746D02*
X6767801Y-17333889D01*
X6767801Y-17333889D02*
X6758277Y-17352936D01*
X6758277Y-17352936D02*
X6748753Y-17362460D01*
X6748753Y-17362460D02*
X6729706Y-17371984D01*
X6729706Y-17371984D02*
X6701134Y-17371984D01*
X6882087Y-17371984D02*
X6863039Y-17362460D01*
X6863039Y-17362460D02*
X6853515Y-17343412D01*
X6853515Y-17343412D02*
X6853515Y-17171984D01*
X7034468Y-17362460D02*
X7015420Y-17371984D01*
X7015420Y-17371984D02*
X6977325Y-17371984D01*
X6977325Y-17371984D02*
X6958277Y-17362460D01*
X6958277Y-17362460D02*
X6948753Y-17343412D01*
X6948753Y-17343412D02*
X6948753Y-17267222D01*
X6948753Y-17267222D02*
X6958277Y-17248174D01*
X6958277Y-17248174D02*
X6977325Y-17238650D01*
X6977325Y-17238650D02*
X7015420Y-17238650D01*
X7015420Y-17238650D02*
X7034468Y-17248174D01*
X7034468Y-17248174D02*
X7043991Y-17267222D01*
X7043991Y-17267222D02*
X7043991Y-17286270D01*
X7043991Y-17286270D02*
X6948753Y-17305317D01*
X7120182Y-17362460D02*
X7139230Y-17371984D01*
X7139230Y-17371984D02*
X7177325Y-17371984D01*
X7177325Y-17371984D02*
X7196372Y-17362460D01*
X7196372Y-17362460D02*
X7205896Y-17343412D01*
X7205896Y-17343412D02*
X7205896Y-17333889D01*
X7205896Y-17333889D02*
X7196372Y-17314841D01*
X7196372Y-17314841D02*
X7177325Y-17305317D01*
X7177325Y-17305317D02*
X7148753Y-17305317D01*
X7148753Y-17305317D02*
X7129706Y-17295793D01*
X7129706Y-17295793D02*
X7120182Y-17276746D01*
X7120182Y-17276746D02*
X7120182Y-17267222D01*
X7120182Y-17267222D02*
X7129706Y-17248174D01*
X7129706Y-17248174D02*
X7148753Y-17238650D01*
X7148753Y-17238650D02*
X7177325Y-17238650D01*
X7177325Y-17238650D02*
X7196372Y-17248174D01*
X7272563Y-17448174D02*
X7282087Y-17438650D01*
X7282087Y-17438650D02*
X7301134Y-17410079D01*
X7301134Y-17410079D02*
X7310658Y-17391031D01*
X7310658Y-17391031D02*
X7320182Y-17362460D01*
X7320182Y-17362460D02*
X7329706Y-17314841D01*
X7329706Y-17314841D02*
X7329706Y-17276746D01*
X7329706Y-17276746D02*
X7320182Y-17229127D01*
X7320182Y-17229127D02*
X7310658Y-17200555D01*
X7310658Y-17200555D02*
X7301134Y-17181508D01*
X7301134Y-17181508D02*
X7282087Y-17152936D01*
X7282087Y-17152936D02*
X7272563Y-17143412D01*
X2397500Y-17470500D02*
X2397500Y-17670500D01*
X2297500Y-17570500D02*
X2497500Y-17570500D01*
X2497500Y-17570500D02*
G75*
G02*
X2297500Y-17570500I-100000J0D01*
G01*
X2297500Y-17570500D02*
G75*
G02*
X2497500Y-17570500I100000J0D01*
G01*
X2739229Y-17461984D02*
X2863039Y-17461984D01*
X2863039Y-17461984D02*
X2796372Y-17538174D01*
X2796372Y-17538174D02*
X2824943Y-17538174D01*
X2824943Y-17538174D02*
X2843991Y-17547698D01*
X2843991Y-17547698D02*
X2853515Y-17557222D01*
X2853515Y-17557222D02*
X2863039Y-17576270D01*
X2863039Y-17576270D02*
X2863039Y-17623889D01*
X2863039Y-17623889D02*
X2853515Y-17642936D01*
X2853515Y-17642936D02*
X2843991Y-17652460D01*
X2843991Y-17652460D02*
X2824943Y-17661984D01*
X2824943Y-17661984D02*
X2767801Y-17661984D01*
X2767801Y-17661984D02*
X2748753Y-17652460D01*
X2748753Y-17652460D02*
X2739229Y-17642936D01*
X2948753Y-17642936D02*
X2958277Y-17652460D01*
X2958277Y-17652460D02*
X2948753Y-17661984D01*
X2948753Y-17661984D02*
X2939229Y-17652460D01*
X2939229Y-17652460D02*
X2948753Y-17642936D01*
X2948753Y-17642936D02*
X2948753Y-17661984D01*
X3034467Y-17481031D02*
X3043991Y-17471508D01*
X3043991Y-17471508D02*
X3063039Y-17461984D01*
X3063039Y-17461984D02*
X3110658Y-17461984D01*
X3110658Y-17461984D02*
X3129705Y-17471508D01*
X3129705Y-17471508D02*
X3139229Y-17481031D01*
X3139229Y-17481031D02*
X3148753Y-17500079D01*
X3148753Y-17500079D02*
X3148753Y-17519127D01*
X3148753Y-17519127D02*
X3139229Y-17547698D01*
X3139229Y-17547698D02*
X3024943Y-17661984D01*
X3024943Y-17661984D02*
X3148753Y-17661984D01*
X3272562Y-17461984D02*
X3291610Y-17461984D01*
X3291610Y-17461984D02*
X3310658Y-17471508D01*
X3310658Y-17471508D02*
X3320182Y-17481031D01*
X3320182Y-17481031D02*
X3329705Y-17500079D01*
X3329705Y-17500079D02*
X3339229Y-17538174D01*
X3339229Y-17538174D02*
X3339229Y-17585793D01*
X3339229Y-17585793D02*
X3329705Y-17623889D01*
X3329705Y-17623889D02*
X3320182Y-17642936D01*
X3320182Y-17642936D02*
X3310658Y-17652460D01*
X3310658Y-17652460D02*
X3291610Y-17661984D01*
X3291610Y-17661984D02*
X3272562Y-17661984D01*
X3272562Y-17661984D02*
X3253515Y-17652460D01*
X3253515Y-17652460D02*
X3243991Y-17642936D01*
X3243991Y-17642936D02*
X3234467Y-17623889D01*
X3234467Y-17623889D02*
X3224943Y-17585793D01*
X3224943Y-17585793D02*
X3224943Y-17538174D01*
X3224943Y-17538174D02*
X3234467Y-17500079D01*
X3234467Y-17500079D02*
X3243991Y-17481031D01*
X3243991Y-17481031D02*
X3253515Y-17471508D01*
X3253515Y-17471508D02*
X3272562Y-17461984D01*
X3463039Y-17461984D02*
X3482086Y-17461984D01*
X3482086Y-17461984D02*
X3501134Y-17471508D01*
X3501134Y-17471508D02*
X3510658Y-17481031D01*
X3510658Y-17481031D02*
X3520182Y-17500079D01*
X3520182Y-17500079D02*
X3529705Y-17538174D01*
X3529705Y-17538174D02*
X3529705Y-17585793D01*
X3529705Y-17585793D02*
X3520182Y-17623889D01*
X3520182Y-17623889D02*
X3510658Y-17642936D01*
X3510658Y-17642936D02*
X3501134Y-17652460D01*
X3501134Y-17652460D02*
X3482086Y-17661984D01*
X3482086Y-17661984D02*
X3463039Y-17661984D01*
X3463039Y-17661984D02*
X3443991Y-17652460D01*
X3443991Y-17652460D02*
X3434467Y-17642936D01*
X3434467Y-17642936D02*
X3424943Y-17623889D01*
X3424943Y-17623889D02*
X3415420Y-17585793D01*
X3415420Y-17585793D02*
X3415420Y-17538174D01*
X3415420Y-17538174D02*
X3424943Y-17500079D01*
X3424943Y-17500079D02*
X3434467Y-17481031D01*
X3434467Y-17481031D02*
X3443991Y-17471508D01*
X3443991Y-17471508D02*
X3463039Y-17461984D01*
X3615420Y-17661984D02*
X3615420Y-17528650D01*
X3615420Y-17547698D02*
X3624943Y-17538174D01*
X3624943Y-17538174D02*
X3643991Y-17528650D01*
X3643991Y-17528650D02*
X3672563Y-17528650D01*
X3672563Y-17528650D02*
X3691610Y-17538174D01*
X3691610Y-17538174D02*
X3701134Y-17557222D01*
X3701134Y-17557222D02*
X3701134Y-17661984D01*
X3701134Y-17557222D02*
X3710658Y-17538174D01*
X3710658Y-17538174D02*
X3729705Y-17528650D01*
X3729705Y-17528650D02*
X3758277Y-17528650D01*
X3758277Y-17528650D02*
X3777324Y-17538174D01*
X3777324Y-17538174D02*
X3786848Y-17557222D01*
X3786848Y-17557222D02*
X3786848Y-17661984D01*
X3882086Y-17661984D02*
X3882086Y-17528650D01*
X3882086Y-17547698D02*
X3891610Y-17538174D01*
X3891610Y-17538174D02*
X3910658Y-17528650D01*
X3910658Y-17528650D02*
X3939229Y-17528650D01*
X3939229Y-17528650D02*
X3958277Y-17538174D01*
X3958277Y-17538174D02*
X3967801Y-17557222D01*
X3967801Y-17557222D02*
X3967801Y-17661984D01*
X3967801Y-17557222D02*
X3977324Y-17538174D01*
X3977324Y-17538174D02*
X3996372Y-17528650D01*
X3996372Y-17528650D02*
X4024943Y-17528650D01*
X4024943Y-17528650D02*
X4043991Y-17538174D01*
X4043991Y-17538174D02*
X4053515Y-17557222D01*
X4053515Y-17557222D02*
X4053515Y-17661984D01*
X4443991Y-17452460D02*
X4272563Y-17709603D01*
X4701134Y-17461984D02*
X4720182Y-17461984D01*
X4720182Y-17461984D02*
X4739229Y-17471508D01*
X4739229Y-17471508D02*
X4748753Y-17481031D01*
X4748753Y-17481031D02*
X4758277Y-17500079D01*
X4758277Y-17500079D02*
X4767801Y-17538174D01*
X4767801Y-17538174D02*
X4767801Y-17585793D01*
X4767801Y-17585793D02*
X4758277Y-17623889D01*
X4758277Y-17623889D02*
X4748753Y-17642936D01*
X4748753Y-17642936D02*
X4739229Y-17652460D01*
X4739229Y-17652460D02*
X4720182Y-17661984D01*
X4720182Y-17661984D02*
X4701134Y-17661984D01*
X4701134Y-17661984D02*
X4682087Y-17652460D01*
X4682087Y-17652460D02*
X4672563Y-17642936D01*
X4672563Y-17642936D02*
X4663039Y-17623889D01*
X4663039Y-17623889D02*
X4653515Y-17585793D01*
X4653515Y-17585793D02*
X4653515Y-17538174D01*
X4653515Y-17538174D02*
X4663039Y-17500079D01*
X4663039Y-17500079D02*
X4672563Y-17481031D01*
X4672563Y-17481031D02*
X4682087Y-17471508D01*
X4682087Y-17471508D02*
X4701134Y-17461984D01*
X4853515Y-17642936D02*
X4863039Y-17652460D01*
X4863039Y-17652460D02*
X4853515Y-17661984D01*
X4853515Y-17661984D02*
X4843991Y-17652460D01*
X4843991Y-17652460D02*
X4853515Y-17642936D01*
X4853515Y-17642936D02*
X4853515Y-17661984D01*
X5053515Y-17661984D02*
X4939229Y-17661984D01*
X4996372Y-17661984D02*
X4996372Y-17461984D01*
X4996372Y-17461984D02*
X4977325Y-17490555D01*
X4977325Y-17490555D02*
X4958277Y-17509603D01*
X4958277Y-17509603D02*
X4939229Y-17519127D01*
X5129706Y-17481031D02*
X5139229Y-17471508D01*
X5139229Y-17471508D02*
X5158277Y-17461984D01*
X5158277Y-17461984D02*
X5205896Y-17461984D01*
X5205896Y-17461984D02*
X5224944Y-17471508D01*
X5224944Y-17471508D02*
X5234468Y-17481031D01*
X5234468Y-17481031D02*
X5243991Y-17500079D01*
X5243991Y-17500079D02*
X5243991Y-17519127D01*
X5243991Y-17519127D02*
X5234468Y-17547698D01*
X5234468Y-17547698D02*
X5120182Y-17661984D01*
X5120182Y-17661984D02*
X5243991Y-17661984D01*
X5415420Y-17461984D02*
X5377325Y-17461984D01*
X5377325Y-17461984D02*
X5358277Y-17471508D01*
X5358277Y-17471508D02*
X5348753Y-17481031D01*
X5348753Y-17481031D02*
X5329706Y-17509603D01*
X5329706Y-17509603D02*
X5320182Y-17547698D01*
X5320182Y-17547698D02*
X5320182Y-17623889D01*
X5320182Y-17623889D02*
X5329706Y-17642936D01*
X5329706Y-17642936D02*
X5339229Y-17652460D01*
X5339229Y-17652460D02*
X5358277Y-17661984D01*
X5358277Y-17661984D02*
X5396372Y-17661984D01*
X5396372Y-17661984D02*
X5415420Y-17652460D01*
X5415420Y-17652460D02*
X5424944Y-17642936D01*
X5424944Y-17642936D02*
X5434468Y-17623889D01*
X5434468Y-17623889D02*
X5434468Y-17576270D01*
X5434468Y-17576270D02*
X5424944Y-17557222D01*
X5424944Y-17557222D02*
X5415420Y-17547698D01*
X5415420Y-17547698D02*
X5396372Y-17538174D01*
X5396372Y-17538174D02*
X5358277Y-17538174D01*
X5358277Y-17538174D02*
X5339229Y-17547698D01*
X5339229Y-17547698D02*
X5329706Y-17557222D01*
X5329706Y-17557222D02*
X5320182Y-17576270D01*
X5558277Y-17461984D02*
X5577325Y-17461984D01*
X5577325Y-17461984D02*
X5596372Y-17471508D01*
X5596372Y-17471508D02*
X5605896Y-17481031D01*
X5605896Y-17481031D02*
X5615420Y-17500079D01*
X5615420Y-17500079D02*
X5624944Y-17538174D01*
X5624944Y-17538174D02*
X5624944Y-17585793D01*
X5624944Y-17585793D02*
X5615420Y-17623889D01*
X5615420Y-17623889D02*
X5605896Y-17642936D01*
X5605896Y-17642936D02*
X5596372Y-17652460D01*
X5596372Y-17652460D02*
X5577325Y-17661984D01*
X5577325Y-17661984D02*
X5558277Y-17661984D01*
X5558277Y-17661984D02*
X5539229Y-17652460D01*
X5539229Y-17652460D02*
X5529706Y-17642936D01*
X5529706Y-17642936D02*
X5520182Y-17623889D01*
X5520182Y-17623889D02*
X5510658Y-17585793D01*
X5510658Y-17585793D02*
X5510658Y-17538174D01*
X5510658Y-17538174D02*
X5520182Y-17500079D01*
X5520182Y-17500079D02*
X5529706Y-17481031D01*
X5529706Y-17481031D02*
X5539229Y-17471508D01*
X5539229Y-17471508D02*
X5558277Y-17461984D01*
X5701134Y-17461984D02*
X5701134Y-17500079D01*
X5777325Y-17461984D02*
X5777325Y-17500079D01*
X6072563Y-17738174D02*
X6063039Y-17728650D01*
X6063039Y-17728650D02*
X6043991Y-17700079D01*
X6043991Y-17700079D02*
X6034468Y-17681031D01*
X6034468Y-17681031D02*
X6024944Y-17652460D01*
X6024944Y-17652460D02*
X6015420Y-17604841D01*
X6015420Y-17604841D02*
X6015420Y-17566746D01*
X6015420Y-17566746D02*
X6024944Y-17519127D01*
X6024944Y-17519127D02*
X6034468Y-17490555D01*
X6034468Y-17490555D02*
X6043991Y-17471508D01*
X6043991Y-17471508D02*
X6063039Y-17442936D01*
X6063039Y-17442936D02*
X6072563Y-17433412D01*
X6234468Y-17528650D02*
X6234468Y-17661984D01*
X6186848Y-17452460D02*
X6139229Y-17595317D01*
X6139229Y-17595317D02*
X6263039Y-17595317D01*
X6491610Y-17661984D02*
X6491610Y-17461984D01*
X6577325Y-17661984D02*
X6577325Y-17557222D01*
X6577325Y-17557222D02*
X6567801Y-17538174D01*
X6567801Y-17538174D02*
X6548753Y-17528650D01*
X6548753Y-17528650D02*
X6520182Y-17528650D01*
X6520182Y-17528650D02*
X6501134Y-17538174D01*
X6501134Y-17538174D02*
X6491610Y-17547698D01*
X6701134Y-17661984D02*
X6682087Y-17652460D01*
X6682087Y-17652460D02*
X6672563Y-17642936D01*
X6672563Y-17642936D02*
X6663039Y-17623889D01*
X6663039Y-17623889D02*
X6663039Y-17566746D01*
X6663039Y-17566746D02*
X6672563Y-17547698D01*
X6672563Y-17547698D02*
X6682087Y-17538174D01*
X6682087Y-17538174D02*
X6701134Y-17528650D01*
X6701134Y-17528650D02*
X6729706Y-17528650D01*
X6729706Y-17528650D02*
X6748753Y-17538174D01*
X6748753Y-17538174D02*
X6758277Y-17547698D01*
X6758277Y-17547698D02*
X6767801Y-17566746D01*
X6767801Y-17566746D02*
X6767801Y-17623889D01*
X6767801Y-17623889D02*
X6758277Y-17642936D01*
X6758277Y-17642936D02*
X6748753Y-17652460D01*
X6748753Y-17652460D02*
X6729706Y-17661984D01*
X6729706Y-17661984D02*
X6701134Y-17661984D01*
X6882087Y-17661984D02*
X6863039Y-17652460D01*
X6863039Y-17652460D02*
X6853515Y-17633412D01*
X6853515Y-17633412D02*
X6853515Y-17461984D01*
X7034468Y-17652460D02*
X7015420Y-17661984D01*
X7015420Y-17661984D02*
X6977325Y-17661984D01*
X6977325Y-17661984D02*
X6958277Y-17652460D01*
X6958277Y-17652460D02*
X6948753Y-17633412D01*
X6948753Y-17633412D02*
X6948753Y-17557222D01*
X6948753Y-17557222D02*
X6958277Y-17538174D01*
X6958277Y-17538174D02*
X6977325Y-17528650D01*
X6977325Y-17528650D02*
X7015420Y-17528650D01*
X7015420Y-17528650D02*
X7034468Y-17538174D01*
X7034468Y-17538174D02*
X7043991Y-17557222D01*
X7043991Y-17557222D02*
X7043991Y-17576270D01*
X7043991Y-17576270D02*
X6948753Y-17595317D01*
X7120182Y-17652460D02*
X7139230Y-17661984D01*
X7139230Y-17661984D02*
X7177325Y-17661984D01*
X7177325Y-17661984D02*
X7196372Y-17652460D01*
X7196372Y-17652460D02*
X7205896Y-17633412D01*
X7205896Y-17633412D02*
X7205896Y-17623889D01*
X7205896Y-17623889D02*
X7196372Y-17604841D01*
X7196372Y-17604841D02*
X7177325Y-17595317D01*
X7177325Y-17595317D02*
X7148753Y-17595317D01*
X7148753Y-17595317D02*
X7129706Y-17585793D01*
X7129706Y-17585793D02*
X7120182Y-17566746D01*
X7120182Y-17566746D02*
X7120182Y-17557222D01*
X7120182Y-17557222D02*
X7129706Y-17538174D01*
X7129706Y-17538174D02*
X7148753Y-17528650D01*
X7148753Y-17528650D02*
X7177325Y-17528650D01*
X7177325Y-17528650D02*
X7196372Y-17538174D01*
X7272563Y-17738174D02*
X7282087Y-17728650D01*
X7282087Y-17728650D02*
X7301134Y-17700079D01*
X7301134Y-17700079D02*
X7310658Y-17681031D01*
X7310658Y-17681031D02*
X7320182Y-17652460D01*
X7320182Y-17652460D02*
X7329706Y-17604841D01*
X7329706Y-17604841D02*
X7329706Y-17566746D01*
X7329706Y-17566746D02*
X7320182Y-17519127D01*
X7320182Y-17519127D02*
X7310658Y-17490555D01*
X7310658Y-17490555D02*
X7301134Y-17471508D01*
X7301134Y-17471508D02*
X7282087Y-17442936D01*
X7282087Y-17442936D02*
X7272563Y-17433412D01*
M02*
