%TF.GenerationSoftware,KiCad,Pcbnew,9.0.6*%
%TF.CreationDate,2026-02-07T15:44:04-05:00*%
%TF.ProjectId,1_Distribution_Board,315f4469-7374-4726-9962-7574696f6e5f,0.2*%
%TF.SameCoordinates,Original*%
%TF.FileFunction,OtherDrawing,Comment*%
%FSLAX46Y46*%
G04 Gerber Fmt 4.6, Leading zero omitted, Abs format (unit mm)*
G04 Created by KiCad (PCBNEW 9.0.6) date 2026-02-07 15:44:04*
%MOMM*%
%LPD*%
G01*
G04 APERTURE LIST*
%ADD10C,0.100000*%
%ADD11C,0.150000*%
%ADD12C,0.300000*%
%ADD13C,0.400000*%
%ADD14C,0.000000*%
%ADD15C,0.200000*%
%ADD16C,0.120000*%
%ADD17C,0.050000*%
%TA.AperFunction,Profile*%
%ADD18C,0.050000*%
%TD*%
G04 APERTURE END LIST*
D10*
D11*
X177002200Y-166007200D02*
X285002200Y-166007200D01*
X285002200Y-198007200D01*
X177002200Y-198007200D01*
X177002200Y-166007200D01*
D10*
D11*
X10000000Y-10000000D02*
X287002200Y-10000000D01*
X287002200Y-200007200D01*
X10000000Y-200007200D01*
X10000000Y-10000000D01*
D10*
D11*
X12000000Y-12000000D02*
X285002200Y-12000000D01*
X285002200Y-198007200D01*
X12000000Y-198007200D01*
X12000000Y-12000000D01*
D10*
D11*
X60000000Y-12000000D02*
X60000000Y-10000000D01*
D10*
D11*
X110000000Y-12000000D02*
X110000000Y-10000000D01*
D10*
D11*
X160000000Y-12000000D02*
X160000000Y-10000000D01*
D10*
D11*
X210000000Y-12000000D02*
X210000000Y-10000000D01*
D10*
D11*
X260000000Y-12000000D02*
X260000000Y-10000000D01*
D10*
D11*
X36089160Y-11593604D02*
X35346303Y-11593604D01*
X35717731Y-11593604D02*
X35717731Y-10293604D01*
X35717731Y-10293604D02*
X35593922Y-10479319D01*
X35593922Y-10479319D02*
X35470112Y-10603128D01*
X35470112Y-10603128D02*
X35346303Y-10665033D01*
D10*
D11*
X85346303Y-10417414D02*
X85408207Y-10355509D01*
X85408207Y-10355509D02*
X85532017Y-10293604D01*
X85532017Y-10293604D02*
X85841541Y-10293604D01*
X85841541Y-10293604D02*
X85965350Y-10355509D01*
X85965350Y-10355509D02*
X86027255Y-10417414D01*
X86027255Y-10417414D02*
X86089160Y-10541223D01*
X86089160Y-10541223D02*
X86089160Y-10665033D01*
X86089160Y-10665033D02*
X86027255Y-10850747D01*
X86027255Y-10850747D02*
X85284398Y-11593604D01*
X85284398Y-11593604D02*
X86089160Y-11593604D01*
D10*
D11*
X135284398Y-10293604D02*
X136089160Y-10293604D01*
X136089160Y-10293604D02*
X135655826Y-10788842D01*
X135655826Y-10788842D02*
X135841541Y-10788842D01*
X135841541Y-10788842D02*
X135965350Y-10850747D01*
X135965350Y-10850747D02*
X136027255Y-10912652D01*
X136027255Y-10912652D02*
X136089160Y-11036461D01*
X136089160Y-11036461D02*
X136089160Y-11345985D01*
X136089160Y-11345985D02*
X136027255Y-11469795D01*
X136027255Y-11469795D02*
X135965350Y-11531700D01*
X135965350Y-11531700D02*
X135841541Y-11593604D01*
X135841541Y-11593604D02*
X135470112Y-11593604D01*
X135470112Y-11593604D02*
X135346303Y-11531700D01*
X135346303Y-11531700D02*
X135284398Y-11469795D01*
D10*
D11*
X185965350Y-10726938D02*
X185965350Y-11593604D01*
X185655826Y-10231700D02*
X185346303Y-11160271D01*
X185346303Y-11160271D02*
X186151064Y-11160271D01*
D10*
D11*
X236027255Y-10293604D02*
X235408207Y-10293604D01*
X235408207Y-10293604D02*
X235346303Y-10912652D01*
X235346303Y-10912652D02*
X235408207Y-10850747D01*
X235408207Y-10850747D02*
X235532017Y-10788842D01*
X235532017Y-10788842D02*
X235841541Y-10788842D01*
X235841541Y-10788842D02*
X235965350Y-10850747D01*
X235965350Y-10850747D02*
X236027255Y-10912652D01*
X236027255Y-10912652D02*
X236089160Y-11036461D01*
X236089160Y-11036461D02*
X236089160Y-11345985D01*
X236089160Y-11345985D02*
X236027255Y-11469795D01*
X236027255Y-11469795D02*
X235965350Y-11531700D01*
X235965350Y-11531700D02*
X235841541Y-11593604D01*
X235841541Y-11593604D02*
X235532017Y-11593604D01*
X235532017Y-11593604D02*
X235408207Y-11531700D01*
X235408207Y-11531700D02*
X235346303Y-11469795D01*
D10*
D11*
X285965350Y-10293604D02*
X285717731Y-10293604D01*
X285717731Y-10293604D02*
X285593922Y-10355509D01*
X285593922Y-10355509D02*
X285532017Y-10417414D01*
X285532017Y-10417414D02*
X285408207Y-10603128D01*
X285408207Y-10603128D02*
X285346303Y-10850747D01*
X285346303Y-10850747D02*
X285346303Y-11345985D01*
X285346303Y-11345985D02*
X285408207Y-11469795D01*
X285408207Y-11469795D02*
X285470112Y-11531700D01*
X285470112Y-11531700D02*
X285593922Y-11593604D01*
X285593922Y-11593604D02*
X285841541Y-11593604D01*
X285841541Y-11593604D02*
X285965350Y-11531700D01*
X285965350Y-11531700D02*
X286027255Y-11469795D01*
X286027255Y-11469795D02*
X286089160Y-11345985D01*
X286089160Y-11345985D02*
X286089160Y-11036461D01*
X286089160Y-11036461D02*
X286027255Y-10912652D01*
X286027255Y-10912652D02*
X285965350Y-10850747D01*
X285965350Y-10850747D02*
X285841541Y-10788842D01*
X285841541Y-10788842D02*
X285593922Y-10788842D01*
X285593922Y-10788842D02*
X285470112Y-10850747D01*
X285470112Y-10850747D02*
X285408207Y-10912652D01*
X285408207Y-10912652D02*
X285346303Y-11036461D01*
D10*
D11*
X60000000Y-198007200D02*
X60000000Y-200007200D01*
D10*
D11*
X110000000Y-198007200D02*
X110000000Y-200007200D01*
D10*
D11*
X160000000Y-198007200D02*
X160000000Y-200007200D01*
D10*
D11*
X210000000Y-198007200D02*
X210000000Y-200007200D01*
D10*
D11*
X260000000Y-198007200D02*
X260000000Y-200007200D01*
D10*
D11*
X36089160Y-199600804D02*
X35346303Y-199600804D01*
X35717731Y-199600804D02*
X35717731Y-198300804D01*
X35717731Y-198300804D02*
X35593922Y-198486519D01*
X35593922Y-198486519D02*
X35470112Y-198610328D01*
X35470112Y-198610328D02*
X35346303Y-198672233D01*
D10*
D11*
X85346303Y-198424614D02*
X85408207Y-198362709D01*
X85408207Y-198362709D02*
X85532017Y-198300804D01*
X85532017Y-198300804D02*
X85841541Y-198300804D01*
X85841541Y-198300804D02*
X85965350Y-198362709D01*
X85965350Y-198362709D02*
X86027255Y-198424614D01*
X86027255Y-198424614D02*
X86089160Y-198548423D01*
X86089160Y-198548423D02*
X86089160Y-198672233D01*
X86089160Y-198672233D02*
X86027255Y-198857947D01*
X86027255Y-198857947D02*
X85284398Y-199600804D01*
X85284398Y-199600804D02*
X86089160Y-199600804D01*
D10*
D11*
X135284398Y-198300804D02*
X136089160Y-198300804D01*
X136089160Y-198300804D02*
X135655826Y-198796042D01*
X135655826Y-198796042D02*
X135841541Y-198796042D01*
X135841541Y-198796042D02*
X135965350Y-198857947D01*
X135965350Y-198857947D02*
X136027255Y-198919852D01*
X136027255Y-198919852D02*
X136089160Y-199043661D01*
X136089160Y-199043661D02*
X136089160Y-199353185D01*
X136089160Y-199353185D02*
X136027255Y-199476995D01*
X136027255Y-199476995D02*
X135965350Y-199538900D01*
X135965350Y-199538900D02*
X135841541Y-199600804D01*
X135841541Y-199600804D02*
X135470112Y-199600804D01*
X135470112Y-199600804D02*
X135346303Y-199538900D01*
X135346303Y-199538900D02*
X135284398Y-199476995D01*
D10*
D11*
X185965350Y-198734138D02*
X185965350Y-199600804D01*
X185655826Y-198238900D02*
X185346303Y-199167471D01*
X185346303Y-199167471D02*
X186151064Y-199167471D01*
D10*
D11*
X236027255Y-198300804D02*
X235408207Y-198300804D01*
X235408207Y-198300804D02*
X235346303Y-198919852D01*
X235346303Y-198919852D02*
X235408207Y-198857947D01*
X235408207Y-198857947D02*
X235532017Y-198796042D01*
X235532017Y-198796042D02*
X235841541Y-198796042D01*
X235841541Y-198796042D02*
X235965350Y-198857947D01*
X235965350Y-198857947D02*
X236027255Y-198919852D01*
X236027255Y-198919852D02*
X236089160Y-199043661D01*
X236089160Y-199043661D02*
X236089160Y-199353185D01*
X236089160Y-199353185D02*
X236027255Y-199476995D01*
X236027255Y-199476995D02*
X235965350Y-199538900D01*
X235965350Y-199538900D02*
X235841541Y-199600804D01*
X235841541Y-199600804D02*
X235532017Y-199600804D01*
X235532017Y-199600804D02*
X235408207Y-199538900D01*
X235408207Y-199538900D02*
X235346303Y-199476995D01*
D10*
D11*
X285965350Y-198300804D02*
X285717731Y-198300804D01*
X285717731Y-198300804D02*
X285593922Y-198362709D01*
X285593922Y-198362709D02*
X285532017Y-198424614D01*
X285532017Y-198424614D02*
X285408207Y-198610328D01*
X285408207Y-198610328D02*
X285346303Y-198857947D01*
X285346303Y-198857947D02*
X285346303Y-199353185D01*
X285346303Y-199353185D02*
X285408207Y-199476995D01*
X285408207Y-199476995D02*
X285470112Y-199538900D01*
X285470112Y-199538900D02*
X285593922Y-199600804D01*
X285593922Y-199600804D02*
X285841541Y-199600804D01*
X285841541Y-199600804D02*
X285965350Y-199538900D01*
X285965350Y-199538900D02*
X286027255Y-199476995D01*
X286027255Y-199476995D02*
X286089160Y-199353185D01*
X286089160Y-199353185D02*
X286089160Y-199043661D01*
X286089160Y-199043661D02*
X286027255Y-198919852D01*
X286027255Y-198919852D02*
X285965350Y-198857947D01*
X285965350Y-198857947D02*
X285841541Y-198796042D01*
X285841541Y-198796042D02*
X285593922Y-198796042D01*
X285593922Y-198796042D02*
X285470112Y-198857947D01*
X285470112Y-198857947D02*
X285408207Y-198919852D01*
X285408207Y-198919852D02*
X285346303Y-199043661D01*
D10*
D11*
X10000000Y-60000000D02*
X12000000Y-60000000D01*
D10*
D11*
X10000000Y-110000000D02*
X12000000Y-110000000D01*
D10*
D11*
X10000000Y-160000000D02*
X12000000Y-160000000D01*
D10*
D11*
X10690476Y-35222176D02*
X11309523Y-35222176D01*
X10566666Y-35593604D02*
X10999999Y-34293604D01*
X10999999Y-34293604D02*
X11433333Y-35593604D01*
D10*
D11*
X11092857Y-84912652D02*
X11278571Y-84974557D01*
X11278571Y-84974557D02*
X11340476Y-85036461D01*
X11340476Y-85036461D02*
X11402380Y-85160271D01*
X11402380Y-85160271D02*
X11402380Y-85345985D01*
X11402380Y-85345985D02*
X11340476Y-85469795D01*
X11340476Y-85469795D02*
X11278571Y-85531700D01*
X11278571Y-85531700D02*
X11154761Y-85593604D01*
X11154761Y-85593604D02*
X10659523Y-85593604D01*
X10659523Y-85593604D02*
X10659523Y-84293604D01*
X10659523Y-84293604D02*
X11092857Y-84293604D01*
X11092857Y-84293604D02*
X11216666Y-84355509D01*
X11216666Y-84355509D02*
X11278571Y-84417414D01*
X11278571Y-84417414D02*
X11340476Y-84541223D01*
X11340476Y-84541223D02*
X11340476Y-84665033D01*
X11340476Y-84665033D02*
X11278571Y-84788842D01*
X11278571Y-84788842D02*
X11216666Y-84850747D01*
X11216666Y-84850747D02*
X11092857Y-84912652D01*
X11092857Y-84912652D02*
X10659523Y-84912652D01*
D10*
D11*
X11402380Y-135469795D02*
X11340476Y-135531700D01*
X11340476Y-135531700D02*
X11154761Y-135593604D01*
X11154761Y-135593604D02*
X11030952Y-135593604D01*
X11030952Y-135593604D02*
X10845238Y-135531700D01*
X10845238Y-135531700D02*
X10721428Y-135407890D01*
X10721428Y-135407890D02*
X10659523Y-135284080D01*
X10659523Y-135284080D02*
X10597619Y-135036461D01*
X10597619Y-135036461D02*
X10597619Y-134850747D01*
X10597619Y-134850747D02*
X10659523Y-134603128D01*
X10659523Y-134603128D02*
X10721428Y-134479319D01*
X10721428Y-134479319D02*
X10845238Y-134355509D01*
X10845238Y-134355509D02*
X11030952Y-134293604D01*
X11030952Y-134293604D02*
X11154761Y-134293604D01*
X11154761Y-134293604D02*
X11340476Y-134355509D01*
X11340476Y-134355509D02*
X11402380Y-134417414D01*
D10*
D11*
X10659523Y-185593604D02*
X10659523Y-184293604D01*
X10659523Y-184293604D02*
X10969047Y-184293604D01*
X10969047Y-184293604D02*
X11154761Y-184355509D01*
X11154761Y-184355509D02*
X11278571Y-184479319D01*
X11278571Y-184479319D02*
X11340476Y-184603128D01*
X11340476Y-184603128D02*
X11402380Y-184850747D01*
X11402380Y-184850747D02*
X11402380Y-185036461D01*
X11402380Y-185036461D02*
X11340476Y-185284080D01*
X11340476Y-185284080D02*
X11278571Y-185407890D01*
X11278571Y-185407890D02*
X11154761Y-185531700D01*
X11154761Y-185531700D02*
X10969047Y-185593604D01*
X10969047Y-185593604D02*
X10659523Y-185593604D01*
D10*
D11*
X287002200Y-60000000D02*
X285002200Y-60000000D01*
D10*
D11*
X287002200Y-110000000D02*
X285002200Y-110000000D01*
D10*
D11*
X287002200Y-160000000D02*
X285002200Y-160000000D01*
D10*
D11*
X285692676Y-35222176D02*
X286311723Y-35222176D01*
X285568866Y-35593604D02*
X286002199Y-34293604D01*
X286002199Y-34293604D02*
X286435533Y-35593604D01*
D10*
D11*
X286095057Y-84912652D02*
X286280771Y-84974557D01*
X286280771Y-84974557D02*
X286342676Y-85036461D01*
X286342676Y-85036461D02*
X286404580Y-85160271D01*
X286404580Y-85160271D02*
X286404580Y-85345985D01*
X286404580Y-85345985D02*
X286342676Y-85469795D01*
X286342676Y-85469795D02*
X286280771Y-85531700D01*
X286280771Y-85531700D02*
X286156961Y-85593604D01*
X286156961Y-85593604D02*
X285661723Y-85593604D01*
X285661723Y-85593604D02*
X285661723Y-84293604D01*
X285661723Y-84293604D02*
X286095057Y-84293604D01*
X286095057Y-84293604D02*
X286218866Y-84355509D01*
X286218866Y-84355509D02*
X286280771Y-84417414D01*
X286280771Y-84417414D02*
X286342676Y-84541223D01*
X286342676Y-84541223D02*
X286342676Y-84665033D01*
X286342676Y-84665033D02*
X286280771Y-84788842D01*
X286280771Y-84788842D02*
X286218866Y-84850747D01*
X286218866Y-84850747D02*
X286095057Y-84912652D01*
X286095057Y-84912652D02*
X285661723Y-84912652D01*
D10*
D11*
X286404580Y-135469795D02*
X286342676Y-135531700D01*
X286342676Y-135531700D02*
X286156961Y-135593604D01*
X286156961Y-135593604D02*
X286033152Y-135593604D01*
X286033152Y-135593604D02*
X285847438Y-135531700D01*
X285847438Y-135531700D02*
X285723628Y-135407890D01*
X285723628Y-135407890D02*
X285661723Y-135284080D01*
X285661723Y-135284080D02*
X285599819Y-135036461D01*
X285599819Y-135036461D02*
X285599819Y-134850747D01*
X285599819Y-134850747D02*
X285661723Y-134603128D01*
X285661723Y-134603128D02*
X285723628Y-134479319D01*
X285723628Y-134479319D02*
X285847438Y-134355509D01*
X285847438Y-134355509D02*
X286033152Y-134293604D01*
X286033152Y-134293604D02*
X286156961Y-134293604D01*
X286156961Y-134293604D02*
X286342676Y-134355509D01*
X286342676Y-134355509D02*
X286404580Y-134417414D01*
D10*
D11*
X285661723Y-185593604D02*
X285661723Y-184293604D01*
X285661723Y-184293604D02*
X285971247Y-184293604D01*
X285971247Y-184293604D02*
X286156961Y-184355509D01*
X286156961Y-184355509D02*
X286280771Y-184479319D01*
X286280771Y-184479319D02*
X286342676Y-184603128D01*
X286342676Y-184603128D02*
X286404580Y-184850747D01*
X286404580Y-184850747D02*
X286404580Y-185036461D01*
X286404580Y-185036461D02*
X286342676Y-185284080D01*
X286342676Y-185284080D02*
X286280771Y-185407890D01*
X286280771Y-185407890D02*
X286156961Y-185531700D01*
X286156961Y-185531700D02*
X285971247Y-185593604D01*
X285971247Y-185593604D02*
X285661723Y-185593604D01*
D10*
D11*
X200458026Y-193793328D02*
X200458026Y-192293328D01*
X200458026Y-192293328D02*
X200815169Y-192293328D01*
X200815169Y-192293328D02*
X201029455Y-192364757D01*
X201029455Y-192364757D02*
X201172312Y-192507614D01*
X201172312Y-192507614D02*
X201243741Y-192650471D01*
X201243741Y-192650471D02*
X201315169Y-192936185D01*
X201315169Y-192936185D02*
X201315169Y-193150471D01*
X201315169Y-193150471D02*
X201243741Y-193436185D01*
X201243741Y-193436185D02*
X201172312Y-193579042D01*
X201172312Y-193579042D02*
X201029455Y-193721900D01*
X201029455Y-193721900D02*
X200815169Y-193793328D01*
X200815169Y-193793328D02*
X200458026Y-193793328D01*
X202600884Y-193793328D02*
X202600884Y-193007614D01*
X202600884Y-193007614D02*
X202529455Y-192864757D01*
X202529455Y-192864757D02*
X202386598Y-192793328D01*
X202386598Y-192793328D02*
X202100884Y-192793328D01*
X202100884Y-192793328D02*
X201958026Y-192864757D01*
X202600884Y-193721900D02*
X202458026Y-193793328D01*
X202458026Y-193793328D02*
X202100884Y-193793328D01*
X202100884Y-193793328D02*
X201958026Y-193721900D01*
X201958026Y-193721900D02*
X201886598Y-193579042D01*
X201886598Y-193579042D02*
X201886598Y-193436185D01*
X201886598Y-193436185D02*
X201958026Y-193293328D01*
X201958026Y-193293328D02*
X202100884Y-193221900D01*
X202100884Y-193221900D02*
X202458026Y-193221900D01*
X202458026Y-193221900D02*
X202600884Y-193150471D01*
X203100884Y-192793328D02*
X203672312Y-192793328D01*
X203315169Y-192293328D02*
X203315169Y-193579042D01*
X203315169Y-193579042D02*
X203386598Y-193721900D01*
X203386598Y-193721900D02*
X203529455Y-193793328D01*
X203529455Y-193793328D02*
X203672312Y-193793328D01*
X204743741Y-193721900D02*
X204600884Y-193793328D01*
X204600884Y-193793328D02*
X204315170Y-193793328D01*
X204315170Y-193793328D02*
X204172312Y-193721900D01*
X204172312Y-193721900D02*
X204100884Y-193579042D01*
X204100884Y-193579042D02*
X204100884Y-193007614D01*
X204100884Y-193007614D02*
X204172312Y-192864757D01*
X204172312Y-192864757D02*
X204315170Y-192793328D01*
X204315170Y-192793328D02*
X204600884Y-192793328D01*
X204600884Y-192793328D02*
X204743741Y-192864757D01*
X204743741Y-192864757D02*
X204815170Y-193007614D01*
X204815170Y-193007614D02*
X204815170Y-193150471D01*
X204815170Y-193150471D02*
X204100884Y-193293328D01*
X205458026Y-193650471D02*
X205529455Y-193721900D01*
X205529455Y-193721900D02*
X205458026Y-193793328D01*
X205458026Y-193793328D02*
X205386598Y-193721900D01*
X205386598Y-193721900D02*
X205458026Y-193650471D01*
X205458026Y-193650471D02*
X205458026Y-193793328D01*
X205458026Y-192864757D02*
X205529455Y-192936185D01*
X205529455Y-192936185D02*
X205458026Y-193007614D01*
X205458026Y-193007614D02*
X205386598Y-192936185D01*
X205386598Y-192936185D02*
X205458026Y-192864757D01*
X205458026Y-192864757D02*
X205458026Y-193007614D01*
X207243741Y-192436185D02*
X207315169Y-192364757D01*
X207315169Y-192364757D02*
X207458027Y-192293328D01*
X207458027Y-192293328D02*
X207815169Y-192293328D01*
X207815169Y-192293328D02*
X207958027Y-192364757D01*
X207958027Y-192364757D02*
X208029455Y-192436185D01*
X208029455Y-192436185D02*
X208100884Y-192579042D01*
X208100884Y-192579042D02*
X208100884Y-192721900D01*
X208100884Y-192721900D02*
X208029455Y-192936185D01*
X208029455Y-192936185D02*
X207172312Y-193793328D01*
X207172312Y-193793328D02*
X208100884Y-193793328D01*
X209029455Y-192293328D02*
X209172312Y-192293328D01*
X209172312Y-192293328D02*
X209315169Y-192364757D01*
X209315169Y-192364757D02*
X209386598Y-192436185D01*
X209386598Y-192436185D02*
X209458026Y-192579042D01*
X209458026Y-192579042D02*
X209529455Y-192864757D01*
X209529455Y-192864757D02*
X209529455Y-193221900D01*
X209529455Y-193221900D02*
X209458026Y-193507614D01*
X209458026Y-193507614D02*
X209386598Y-193650471D01*
X209386598Y-193650471D02*
X209315169Y-193721900D01*
X209315169Y-193721900D02*
X209172312Y-193793328D01*
X209172312Y-193793328D02*
X209029455Y-193793328D01*
X209029455Y-193793328D02*
X208886598Y-193721900D01*
X208886598Y-193721900D02*
X208815169Y-193650471D01*
X208815169Y-193650471D02*
X208743740Y-193507614D01*
X208743740Y-193507614D02*
X208672312Y-193221900D01*
X208672312Y-193221900D02*
X208672312Y-192864757D01*
X208672312Y-192864757D02*
X208743740Y-192579042D01*
X208743740Y-192579042D02*
X208815169Y-192436185D01*
X208815169Y-192436185D02*
X208886598Y-192364757D01*
X208886598Y-192364757D02*
X209029455Y-192293328D01*
X210100883Y-192436185D02*
X210172311Y-192364757D01*
X210172311Y-192364757D02*
X210315169Y-192293328D01*
X210315169Y-192293328D02*
X210672311Y-192293328D01*
X210672311Y-192293328D02*
X210815169Y-192364757D01*
X210815169Y-192364757D02*
X210886597Y-192436185D01*
X210886597Y-192436185D02*
X210958026Y-192579042D01*
X210958026Y-192579042D02*
X210958026Y-192721900D01*
X210958026Y-192721900D02*
X210886597Y-192936185D01*
X210886597Y-192936185D02*
X210029454Y-193793328D01*
X210029454Y-193793328D02*
X210958026Y-193793328D01*
X212243740Y-192293328D02*
X211958025Y-192293328D01*
X211958025Y-192293328D02*
X211815168Y-192364757D01*
X211815168Y-192364757D02*
X211743740Y-192436185D01*
X211743740Y-192436185D02*
X211600882Y-192650471D01*
X211600882Y-192650471D02*
X211529454Y-192936185D01*
X211529454Y-192936185D02*
X211529454Y-193507614D01*
X211529454Y-193507614D02*
X211600882Y-193650471D01*
X211600882Y-193650471D02*
X211672311Y-193721900D01*
X211672311Y-193721900D02*
X211815168Y-193793328D01*
X211815168Y-193793328D02*
X212100882Y-193793328D01*
X212100882Y-193793328D02*
X212243740Y-193721900D01*
X212243740Y-193721900D02*
X212315168Y-193650471D01*
X212315168Y-193650471D02*
X212386597Y-193507614D01*
X212386597Y-193507614D02*
X212386597Y-193150471D01*
X212386597Y-193150471D02*
X212315168Y-193007614D01*
X212315168Y-193007614D02*
X212243740Y-192936185D01*
X212243740Y-192936185D02*
X212100882Y-192864757D01*
X212100882Y-192864757D02*
X211815168Y-192864757D01*
X211815168Y-192864757D02*
X211672311Y-192936185D01*
X211672311Y-192936185D02*
X211600882Y-193007614D01*
X211600882Y-193007614D02*
X211529454Y-193150471D01*
X213029453Y-193221900D02*
X214172311Y-193221900D01*
X215172311Y-192293328D02*
X215315168Y-192293328D01*
X215315168Y-192293328D02*
X215458025Y-192364757D01*
X215458025Y-192364757D02*
X215529454Y-192436185D01*
X215529454Y-192436185D02*
X215600882Y-192579042D01*
X215600882Y-192579042D02*
X215672311Y-192864757D01*
X215672311Y-192864757D02*
X215672311Y-193221900D01*
X215672311Y-193221900D02*
X215600882Y-193507614D01*
X215600882Y-193507614D02*
X215529454Y-193650471D01*
X215529454Y-193650471D02*
X215458025Y-193721900D01*
X215458025Y-193721900D02*
X215315168Y-193793328D01*
X215315168Y-193793328D02*
X215172311Y-193793328D01*
X215172311Y-193793328D02*
X215029454Y-193721900D01*
X215029454Y-193721900D02*
X214958025Y-193650471D01*
X214958025Y-193650471D02*
X214886596Y-193507614D01*
X214886596Y-193507614D02*
X214815168Y-193221900D01*
X214815168Y-193221900D02*
X214815168Y-192864757D01*
X214815168Y-192864757D02*
X214886596Y-192579042D01*
X214886596Y-192579042D02*
X214958025Y-192436185D01*
X214958025Y-192436185D02*
X215029454Y-192364757D01*
X215029454Y-192364757D02*
X215172311Y-192293328D01*
X216243739Y-192436185D02*
X216315167Y-192364757D01*
X216315167Y-192364757D02*
X216458025Y-192293328D01*
X216458025Y-192293328D02*
X216815167Y-192293328D01*
X216815167Y-192293328D02*
X216958025Y-192364757D01*
X216958025Y-192364757D02*
X217029453Y-192436185D01*
X217029453Y-192436185D02*
X217100882Y-192579042D01*
X217100882Y-192579042D02*
X217100882Y-192721900D01*
X217100882Y-192721900D02*
X217029453Y-192936185D01*
X217029453Y-192936185D02*
X216172310Y-193793328D01*
X216172310Y-193793328D02*
X217100882Y-193793328D01*
X217743738Y-193221900D02*
X218886596Y-193221900D01*
X219886596Y-192293328D02*
X220029453Y-192293328D01*
X220029453Y-192293328D02*
X220172310Y-192364757D01*
X220172310Y-192364757D02*
X220243739Y-192436185D01*
X220243739Y-192436185D02*
X220315167Y-192579042D01*
X220315167Y-192579042D02*
X220386596Y-192864757D01*
X220386596Y-192864757D02*
X220386596Y-193221900D01*
X220386596Y-193221900D02*
X220315167Y-193507614D01*
X220315167Y-193507614D02*
X220243739Y-193650471D01*
X220243739Y-193650471D02*
X220172310Y-193721900D01*
X220172310Y-193721900D02*
X220029453Y-193793328D01*
X220029453Y-193793328D02*
X219886596Y-193793328D01*
X219886596Y-193793328D02*
X219743739Y-193721900D01*
X219743739Y-193721900D02*
X219672310Y-193650471D01*
X219672310Y-193650471D02*
X219600881Y-193507614D01*
X219600881Y-193507614D02*
X219529453Y-193221900D01*
X219529453Y-193221900D02*
X219529453Y-192864757D01*
X219529453Y-192864757D02*
X219600881Y-192579042D01*
X219600881Y-192579042D02*
X219672310Y-192436185D01*
X219672310Y-192436185D02*
X219743739Y-192364757D01*
X219743739Y-192364757D02*
X219886596Y-192293328D01*
X221743738Y-192293328D02*
X221029452Y-192293328D01*
X221029452Y-192293328D02*
X220958024Y-193007614D01*
X220958024Y-193007614D02*
X221029452Y-192936185D01*
X221029452Y-192936185D02*
X221172310Y-192864757D01*
X221172310Y-192864757D02*
X221529452Y-192864757D01*
X221529452Y-192864757D02*
X221672310Y-192936185D01*
X221672310Y-192936185D02*
X221743738Y-193007614D01*
X221743738Y-193007614D02*
X221815167Y-193150471D01*
X221815167Y-193150471D02*
X221815167Y-193507614D01*
X221815167Y-193507614D02*
X221743738Y-193650471D01*
X221743738Y-193650471D02*
X221672310Y-193721900D01*
X221672310Y-193721900D02*
X221529452Y-193793328D01*
X221529452Y-193793328D02*
X221172310Y-193793328D01*
X221172310Y-193793328D02*
X221029452Y-193721900D01*
X221029452Y-193721900D02*
X220958024Y-193650471D01*
D10*
D11*
X177002200Y-194507200D02*
X285002200Y-194507200D01*
D10*
D11*
X178458026Y-196593328D02*
X178458026Y-195093328D01*
X179315169Y-196593328D02*
X178672312Y-195736185D01*
X179315169Y-195093328D02*
X178458026Y-195950471D01*
X179958026Y-196593328D02*
X179958026Y-195593328D01*
X179958026Y-195093328D02*
X179886598Y-195164757D01*
X179886598Y-195164757D02*
X179958026Y-195236185D01*
X179958026Y-195236185D02*
X180029455Y-195164757D01*
X180029455Y-195164757D02*
X179958026Y-195093328D01*
X179958026Y-195093328D02*
X179958026Y-195236185D01*
X181529455Y-196450471D02*
X181458027Y-196521900D01*
X181458027Y-196521900D02*
X181243741Y-196593328D01*
X181243741Y-196593328D02*
X181100884Y-196593328D01*
X181100884Y-196593328D02*
X180886598Y-196521900D01*
X180886598Y-196521900D02*
X180743741Y-196379042D01*
X180743741Y-196379042D02*
X180672312Y-196236185D01*
X180672312Y-196236185D02*
X180600884Y-195950471D01*
X180600884Y-195950471D02*
X180600884Y-195736185D01*
X180600884Y-195736185D02*
X180672312Y-195450471D01*
X180672312Y-195450471D02*
X180743741Y-195307614D01*
X180743741Y-195307614D02*
X180886598Y-195164757D01*
X180886598Y-195164757D02*
X181100884Y-195093328D01*
X181100884Y-195093328D02*
X181243741Y-195093328D01*
X181243741Y-195093328D02*
X181458027Y-195164757D01*
X181458027Y-195164757D02*
X181529455Y-195236185D01*
X182815170Y-196593328D02*
X182815170Y-195807614D01*
X182815170Y-195807614D02*
X182743741Y-195664757D01*
X182743741Y-195664757D02*
X182600884Y-195593328D01*
X182600884Y-195593328D02*
X182315170Y-195593328D01*
X182315170Y-195593328D02*
X182172312Y-195664757D01*
X182815170Y-196521900D02*
X182672312Y-196593328D01*
X182672312Y-196593328D02*
X182315170Y-196593328D01*
X182315170Y-196593328D02*
X182172312Y-196521900D01*
X182172312Y-196521900D02*
X182100884Y-196379042D01*
X182100884Y-196379042D02*
X182100884Y-196236185D01*
X182100884Y-196236185D02*
X182172312Y-196093328D01*
X182172312Y-196093328D02*
X182315170Y-196021900D01*
X182315170Y-196021900D02*
X182672312Y-196021900D01*
X182672312Y-196021900D02*
X182815170Y-195950471D01*
X184172313Y-196593328D02*
X184172313Y-195093328D01*
X184172313Y-196521900D02*
X184029455Y-196593328D01*
X184029455Y-196593328D02*
X183743741Y-196593328D01*
X183743741Y-196593328D02*
X183600884Y-196521900D01*
X183600884Y-196521900D02*
X183529455Y-196450471D01*
X183529455Y-196450471D02*
X183458027Y-196307614D01*
X183458027Y-196307614D02*
X183458027Y-195879042D01*
X183458027Y-195879042D02*
X183529455Y-195736185D01*
X183529455Y-195736185D02*
X183600884Y-195664757D01*
X183600884Y-195664757D02*
X183743741Y-195593328D01*
X183743741Y-195593328D02*
X184029455Y-195593328D01*
X184029455Y-195593328D02*
X184172313Y-195664757D01*
X186029455Y-195807614D02*
X186529455Y-195807614D01*
X186743741Y-196593328D02*
X186029455Y-196593328D01*
X186029455Y-196593328D02*
X186029455Y-195093328D01*
X186029455Y-195093328D02*
X186743741Y-195093328D01*
X187386598Y-196450471D02*
X187458027Y-196521900D01*
X187458027Y-196521900D02*
X187386598Y-196593328D01*
X187386598Y-196593328D02*
X187315170Y-196521900D01*
X187315170Y-196521900D02*
X187386598Y-196450471D01*
X187386598Y-196450471D02*
X187386598Y-196593328D01*
X188100884Y-196593328D02*
X188100884Y-195093328D01*
X188100884Y-195093328D02*
X188458027Y-195093328D01*
X188458027Y-195093328D02*
X188672313Y-195164757D01*
X188672313Y-195164757D02*
X188815170Y-195307614D01*
X188815170Y-195307614D02*
X188886599Y-195450471D01*
X188886599Y-195450471D02*
X188958027Y-195736185D01*
X188958027Y-195736185D02*
X188958027Y-195950471D01*
X188958027Y-195950471D02*
X188886599Y-196236185D01*
X188886599Y-196236185D02*
X188815170Y-196379042D01*
X188815170Y-196379042D02*
X188672313Y-196521900D01*
X188672313Y-196521900D02*
X188458027Y-196593328D01*
X188458027Y-196593328D02*
X188100884Y-196593328D01*
X189600884Y-196450471D02*
X189672313Y-196521900D01*
X189672313Y-196521900D02*
X189600884Y-196593328D01*
X189600884Y-196593328D02*
X189529456Y-196521900D01*
X189529456Y-196521900D02*
X189600884Y-196450471D01*
X189600884Y-196450471D02*
X189600884Y-196593328D01*
X190243742Y-196164757D02*
X190958028Y-196164757D01*
X190100885Y-196593328D02*
X190600885Y-195093328D01*
X190600885Y-195093328D02*
X191100885Y-196593328D01*
X191600884Y-196450471D02*
X191672313Y-196521900D01*
X191672313Y-196521900D02*
X191600884Y-196593328D01*
X191600884Y-196593328D02*
X191529456Y-196521900D01*
X191529456Y-196521900D02*
X191600884Y-196450471D01*
X191600884Y-196450471D02*
X191600884Y-196593328D01*
X193529456Y-196593328D02*
X193815170Y-196593328D01*
X193815170Y-196593328D02*
X193958027Y-196521900D01*
X193958027Y-196521900D02*
X194029456Y-196450471D01*
X194029456Y-196450471D02*
X194172313Y-196236185D01*
X194172313Y-196236185D02*
X194243742Y-195950471D01*
X194243742Y-195950471D02*
X194243742Y-195379042D01*
X194243742Y-195379042D02*
X194172313Y-195236185D01*
X194172313Y-195236185D02*
X194100885Y-195164757D01*
X194100885Y-195164757D02*
X193958027Y-195093328D01*
X193958027Y-195093328D02*
X193672313Y-195093328D01*
X193672313Y-195093328D02*
X193529456Y-195164757D01*
X193529456Y-195164757D02*
X193458027Y-195236185D01*
X193458027Y-195236185D02*
X193386599Y-195379042D01*
X193386599Y-195379042D02*
X193386599Y-195736185D01*
X193386599Y-195736185D02*
X193458027Y-195879042D01*
X193458027Y-195879042D02*
X193529456Y-195950471D01*
X193529456Y-195950471D02*
X193672313Y-196021900D01*
X193672313Y-196021900D02*
X193958027Y-196021900D01*
X193958027Y-196021900D02*
X194100885Y-195950471D01*
X194100885Y-195950471D02*
X194172313Y-195879042D01*
X194172313Y-195879042D02*
X194243742Y-195736185D01*
X194886598Y-196450471D02*
X194958027Y-196521900D01*
X194958027Y-196521900D02*
X194886598Y-196593328D01*
X194886598Y-196593328D02*
X194815170Y-196521900D01*
X194815170Y-196521900D02*
X194886598Y-196450471D01*
X194886598Y-196450471D02*
X194886598Y-196593328D01*
X195886599Y-195093328D02*
X196029456Y-195093328D01*
X196029456Y-195093328D02*
X196172313Y-195164757D01*
X196172313Y-195164757D02*
X196243742Y-195236185D01*
X196243742Y-195236185D02*
X196315170Y-195379042D01*
X196315170Y-195379042D02*
X196386599Y-195664757D01*
X196386599Y-195664757D02*
X196386599Y-196021900D01*
X196386599Y-196021900D02*
X196315170Y-196307614D01*
X196315170Y-196307614D02*
X196243742Y-196450471D01*
X196243742Y-196450471D02*
X196172313Y-196521900D01*
X196172313Y-196521900D02*
X196029456Y-196593328D01*
X196029456Y-196593328D02*
X195886599Y-196593328D01*
X195886599Y-196593328D02*
X195743742Y-196521900D01*
X195743742Y-196521900D02*
X195672313Y-196450471D01*
X195672313Y-196450471D02*
X195600884Y-196307614D01*
X195600884Y-196307614D02*
X195529456Y-196021900D01*
X195529456Y-196021900D02*
X195529456Y-195664757D01*
X195529456Y-195664757D02*
X195600884Y-195379042D01*
X195600884Y-195379042D02*
X195672313Y-195236185D01*
X195672313Y-195236185D02*
X195743742Y-195164757D01*
X195743742Y-195164757D02*
X195886599Y-195093328D01*
X197029455Y-196450471D02*
X197100884Y-196521900D01*
X197100884Y-196521900D02*
X197029455Y-196593328D01*
X197029455Y-196593328D02*
X196958027Y-196521900D01*
X196958027Y-196521900D02*
X197029455Y-196450471D01*
X197029455Y-196450471D02*
X197029455Y-196593328D01*
X198386599Y-195093328D02*
X198100884Y-195093328D01*
X198100884Y-195093328D02*
X197958027Y-195164757D01*
X197958027Y-195164757D02*
X197886599Y-195236185D01*
X197886599Y-195236185D02*
X197743741Y-195450471D01*
X197743741Y-195450471D02*
X197672313Y-195736185D01*
X197672313Y-195736185D02*
X197672313Y-196307614D01*
X197672313Y-196307614D02*
X197743741Y-196450471D01*
X197743741Y-196450471D02*
X197815170Y-196521900D01*
X197815170Y-196521900D02*
X197958027Y-196593328D01*
X197958027Y-196593328D02*
X198243741Y-196593328D01*
X198243741Y-196593328D02*
X198386599Y-196521900D01*
X198386599Y-196521900D02*
X198458027Y-196450471D01*
X198458027Y-196450471D02*
X198529456Y-196307614D01*
X198529456Y-196307614D02*
X198529456Y-195950471D01*
X198529456Y-195950471D02*
X198458027Y-195807614D01*
X198458027Y-195807614D02*
X198386599Y-195736185D01*
X198386599Y-195736185D02*
X198243741Y-195664757D01*
X198243741Y-195664757D02*
X197958027Y-195664757D01*
X197958027Y-195664757D02*
X197815170Y-195736185D01*
X197815170Y-195736185D02*
X197743741Y-195807614D01*
X197743741Y-195807614D02*
X197672313Y-195950471D01*
D10*
D11*
X177002200Y-191507200D02*
X285002200Y-191507200D01*
D10*
D12*
X264413853Y-193785528D02*
X263913853Y-193071242D01*
X263556710Y-193785528D02*
X263556710Y-192285528D01*
X263556710Y-192285528D02*
X264128139Y-192285528D01*
X264128139Y-192285528D02*
X264270996Y-192356957D01*
X264270996Y-192356957D02*
X264342425Y-192428385D01*
X264342425Y-192428385D02*
X264413853Y-192571242D01*
X264413853Y-192571242D02*
X264413853Y-192785528D01*
X264413853Y-192785528D02*
X264342425Y-192928385D01*
X264342425Y-192928385D02*
X264270996Y-192999814D01*
X264270996Y-192999814D02*
X264128139Y-193071242D01*
X264128139Y-193071242D02*
X263556710Y-193071242D01*
X265628139Y-193714100D02*
X265485282Y-193785528D01*
X265485282Y-193785528D02*
X265199568Y-193785528D01*
X265199568Y-193785528D02*
X265056710Y-193714100D01*
X265056710Y-193714100D02*
X264985282Y-193571242D01*
X264985282Y-193571242D02*
X264985282Y-192999814D01*
X264985282Y-192999814D02*
X265056710Y-192856957D01*
X265056710Y-192856957D02*
X265199568Y-192785528D01*
X265199568Y-192785528D02*
X265485282Y-192785528D01*
X265485282Y-192785528D02*
X265628139Y-192856957D01*
X265628139Y-192856957D02*
X265699568Y-192999814D01*
X265699568Y-192999814D02*
X265699568Y-193142671D01*
X265699568Y-193142671D02*
X264985282Y-193285528D01*
X266199567Y-192785528D02*
X266556710Y-193785528D01*
X266556710Y-193785528D02*
X266913853Y-192785528D01*
X267485281Y-193642671D02*
X267556710Y-193714100D01*
X267556710Y-193714100D02*
X267485281Y-193785528D01*
X267485281Y-193785528D02*
X267413853Y-193714100D01*
X267413853Y-193714100D02*
X267485281Y-193642671D01*
X267485281Y-193642671D02*
X267485281Y-193785528D01*
X267485281Y-192856957D02*
X267556710Y-192928385D01*
X267556710Y-192928385D02*
X267485281Y-192999814D01*
X267485281Y-192999814D02*
X267413853Y-192928385D01*
X267413853Y-192928385D02*
X267485281Y-192856957D01*
X267485281Y-192856957D02*
X267485281Y-192999814D01*
X269628139Y-192285528D02*
X269770996Y-192285528D01*
X269770996Y-192285528D02*
X269913853Y-192356957D01*
X269913853Y-192356957D02*
X269985282Y-192428385D01*
X269985282Y-192428385D02*
X270056710Y-192571242D01*
X270056710Y-192571242D02*
X270128139Y-192856957D01*
X270128139Y-192856957D02*
X270128139Y-193214100D01*
X270128139Y-193214100D02*
X270056710Y-193499814D01*
X270056710Y-193499814D02*
X269985282Y-193642671D01*
X269985282Y-193642671D02*
X269913853Y-193714100D01*
X269913853Y-193714100D02*
X269770996Y-193785528D01*
X269770996Y-193785528D02*
X269628139Y-193785528D01*
X269628139Y-193785528D02*
X269485282Y-193714100D01*
X269485282Y-193714100D02*
X269413853Y-193642671D01*
X269413853Y-193642671D02*
X269342424Y-193499814D01*
X269342424Y-193499814D02*
X269270996Y-193214100D01*
X269270996Y-193214100D02*
X269270996Y-192856957D01*
X269270996Y-192856957D02*
X269342424Y-192571242D01*
X269342424Y-192571242D02*
X269413853Y-192428385D01*
X269413853Y-192428385D02*
X269485282Y-192356957D01*
X269485282Y-192356957D02*
X269628139Y-192285528D01*
X270770995Y-193642671D02*
X270842424Y-193714100D01*
X270842424Y-193714100D02*
X270770995Y-193785528D01*
X270770995Y-193785528D02*
X270699567Y-193714100D01*
X270699567Y-193714100D02*
X270770995Y-193642671D01*
X270770995Y-193642671D02*
X270770995Y-193785528D01*
X271413853Y-192428385D02*
X271485281Y-192356957D01*
X271485281Y-192356957D02*
X271628139Y-192285528D01*
X271628139Y-192285528D02*
X271985281Y-192285528D01*
X271985281Y-192285528D02*
X272128139Y-192356957D01*
X272128139Y-192356957D02*
X272199567Y-192428385D01*
X272199567Y-192428385D02*
X272270996Y-192571242D01*
X272270996Y-192571242D02*
X272270996Y-192714100D01*
X272270996Y-192714100D02*
X272199567Y-192928385D01*
X272199567Y-192928385D02*
X271342424Y-193785528D01*
X271342424Y-193785528D02*
X272270996Y-193785528D01*
D10*
D11*
X178386598Y-193721900D02*
X178600884Y-193793328D01*
X178600884Y-193793328D02*
X178958026Y-193793328D01*
X178958026Y-193793328D02*
X179100884Y-193721900D01*
X179100884Y-193721900D02*
X179172312Y-193650471D01*
X179172312Y-193650471D02*
X179243741Y-193507614D01*
X179243741Y-193507614D02*
X179243741Y-193364757D01*
X179243741Y-193364757D02*
X179172312Y-193221900D01*
X179172312Y-193221900D02*
X179100884Y-193150471D01*
X179100884Y-193150471D02*
X178958026Y-193079042D01*
X178958026Y-193079042D02*
X178672312Y-193007614D01*
X178672312Y-193007614D02*
X178529455Y-192936185D01*
X178529455Y-192936185D02*
X178458026Y-192864757D01*
X178458026Y-192864757D02*
X178386598Y-192721900D01*
X178386598Y-192721900D02*
X178386598Y-192579042D01*
X178386598Y-192579042D02*
X178458026Y-192436185D01*
X178458026Y-192436185D02*
X178529455Y-192364757D01*
X178529455Y-192364757D02*
X178672312Y-192293328D01*
X178672312Y-192293328D02*
X179029455Y-192293328D01*
X179029455Y-192293328D02*
X179243741Y-192364757D01*
X179886597Y-193793328D02*
X179886597Y-192793328D01*
X179886597Y-192293328D02*
X179815169Y-192364757D01*
X179815169Y-192364757D02*
X179886597Y-192436185D01*
X179886597Y-192436185D02*
X179958026Y-192364757D01*
X179958026Y-192364757D02*
X179886597Y-192293328D01*
X179886597Y-192293328D02*
X179886597Y-192436185D01*
X180458026Y-192793328D02*
X181243741Y-192793328D01*
X181243741Y-192793328D02*
X180458026Y-193793328D01*
X180458026Y-193793328D02*
X181243741Y-193793328D01*
X182386598Y-193721900D02*
X182243741Y-193793328D01*
X182243741Y-193793328D02*
X181958027Y-193793328D01*
X181958027Y-193793328D02*
X181815169Y-193721900D01*
X181815169Y-193721900D02*
X181743741Y-193579042D01*
X181743741Y-193579042D02*
X181743741Y-193007614D01*
X181743741Y-193007614D02*
X181815169Y-192864757D01*
X181815169Y-192864757D02*
X181958027Y-192793328D01*
X181958027Y-192793328D02*
X182243741Y-192793328D01*
X182243741Y-192793328D02*
X182386598Y-192864757D01*
X182386598Y-192864757D02*
X182458027Y-193007614D01*
X182458027Y-193007614D02*
X182458027Y-193150471D01*
X182458027Y-193150471D02*
X181743741Y-193293328D01*
X183100883Y-193650471D02*
X183172312Y-193721900D01*
X183172312Y-193721900D02*
X183100883Y-193793328D01*
X183100883Y-193793328D02*
X183029455Y-193721900D01*
X183029455Y-193721900D02*
X183100883Y-193650471D01*
X183100883Y-193650471D02*
X183100883Y-193793328D01*
X183100883Y-192864757D02*
X183172312Y-192936185D01*
X183172312Y-192936185D02*
X183100883Y-193007614D01*
X183100883Y-193007614D02*
X183029455Y-192936185D01*
X183029455Y-192936185D02*
X183100883Y-192864757D01*
X183100883Y-192864757D02*
X183100883Y-193007614D01*
X184886598Y-193364757D02*
X185600884Y-193364757D01*
X184743741Y-193793328D02*
X185243741Y-192293328D01*
X185243741Y-192293328D02*
X185743741Y-193793328D01*
X186886598Y-192793328D02*
X186886598Y-193793328D01*
X186529455Y-192221900D02*
X186172312Y-193293328D01*
X186172312Y-193293328D02*
X187100883Y-193293328D01*
D10*
D11*
X263458026Y-196593328D02*
X263458026Y-195093328D01*
X264815170Y-196593328D02*
X264815170Y-195093328D01*
X264815170Y-196521900D02*
X264672312Y-196593328D01*
X264672312Y-196593328D02*
X264386598Y-196593328D01*
X264386598Y-196593328D02*
X264243741Y-196521900D01*
X264243741Y-196521900D02*
X264172312Y-196450471D01*
X264172312Y-196450471D02*
X264100884Y-196307614D01*
X264100884Y-196307614D02*
X264100884Y-195879042D01*
X264100884Y-195879042D02*
X264172312Y-195736185D01*
X264172312Y-195736185D02*
X264243741Y-195664757D01*
X264243741Y-195664757D02*
X264386598Y-195593328D01*
X264386598Y-195593328D02*
X264672312Y-195593328D01*
X264672312Y-195593328D02*
X264815170Y-195664757D01*
X265529455Y-196450471D02*
X265600884Y-196521900D01*
X265600884Y-196521900D02*
X265529455Y-196593328D01*
X265529455Y-196593328D02*
X265458027Y-196521900D01*
X265458027Y-196521900D02*
X265529455Y-196450471D01*
X265529455Y-196450471D02*
X265529455Y-196593328D01*
X265529455Y-195664757D02*
X265600884Y-195736185D01*
X265600884Y-195736185D02*
X265529455Y-195807614D01*
X265529455Y-195807614D02*
X265458027Y-195736185D01*
X265458027Y-195736185D02*
X265529455Y-195664757D01*
X265529455Y-195664757D02*
X265529455Y-195807614D01*
X267458027Y-196593328D02*
X267743741Y-196593328D01*
X267743741Y-196593328D02*
X267886598Y-196521900D01*
X267886598Y-196521900D02*
X267958027Y-196450471D01*
X267958027Y-196450471D02*
X268100884Y-196236185D01*
X268100884Y-196236185D02*
X268172313Y-195950471D01*
X268172313Y-195950471D02*
X268172313Y-195379042D01*
X268172313Y-195379042D02*
X268100884Y-195236185D01*
X268100884Y-195236185D02*
X268029456Y-195164757D01*
X268029456Y-195164757D02*
X267886598Y-195093328D01*
X267886598Y-195093328D02*
X267600884Y-195093328D01*
X267600884Y-195093328D02*
X267458027Y-195164757D01*
X267458027Y-195164757D02*
X267386598Y-195236185D01*
X267386598Y-195236185D02*
X267315170Y-195379042D01*
X267315170Y-195379042D02*
X267315170Y-195736185D01*
X267315170Y-195736185D02*
X267386598Y-195879042D01*
X267386598Y-195879042D02*
X267458027Y-195950471D01*
X267458027Y-195950471D02*
X267600884Y-196021900D01*
X267600884Y-196021900D02*
X267886598Y-196021900D01*
X267886598Y-196021900D02*
X268029456Y-195950471D01*
X268029456Y-195950471D02*
X268100884Y-195879042D01*
X268100884Y-195879042D02*
X268172313Y-195736185D01*
X269886598Y-195021900D02*
X268600884Y-196950471D01*
X271172313Y-196593328D02*
X270315170Y-196593328D01*
X270743741Y-196593328D02*
X270743741Y-195093328D01*
X270743741Y-195093328D02*
X270600884Y-195307614D01*
X270600884Y-195307614D02*
X270458027Y-195450471D01*
X270458027Y-195450471D02*
X270315170Y-195521900D01*
X271672312Y-195093328D02*
X272600884Y-195093328D01*
X272600884Y-195093328D02*
X272100884Y-195664757D01*
X272100884Y-195664757D02*
X272315169Y-195664757D01*
X272315169Y-195664757D02*
X272458027Y-195736185D01*
X272458027Y-195736185D02*
X272529455Y-195807614D01*
X272529455Y-195807614D02*
X272600884Y-195950471D01*
X272600884Y-195950471D02*
X272600884Y-196307614D01*
X272600884Y-196307614D02*
X272529455Y-196450471D01*
X272529455Y-196450471D02*
X272458027Y-196521900D01*
X272458027Y-196521900D02*
X272315169Y-196593328D01*
X272315169Y-196593328D02*
X271886598Y-196593328D01*
X271886598Y-196593328D02*
X271743741Y-196521900D01*
X271743741Y-196521900D02*
X271672312Y-196450471D01*
D10*
D11*
X177002200Y-187507200D02*
X285002200Y-187507200D01*
D10*
D13*
X178693928Y-188211638D02*
X179836785Y-188211638D01*
X179015357Y-190211638D02*
X179265357Y-188211638D01*
X180253452Y-190211638D02*
X180420119Y-188878304D01*
X180503452Y-188211638D02*
X180396309Y-188306876D01*
X180396309Y-188306876D02*
X180479643Y-188402114D01*
X180479643Y-188402114D02*
X180586786Y-188306876D01*
X180586786Y-188306876D02*
X180503452Y-188211638D01*
X180503452Y-188211638D02*
X180479643Y-188402114D01*
X181086786Y-188878304D02*
X181848690Y-188878304D01*
X181455833Y-188211638D02*
X181241548Y-189925923D01*
X181241548Y-189925923D02*
X181312976Y-190116400D01*
X181312976Y-190116400D02*
X181491548Y-190211638D01*
X181491548Y-190211638D02*
X181682024Y-190211638D01*
X182634405Y-190211638D02*
X182455833Y-190116400D01*
X182455833Y-190116400D02*
X182384405Y-189925923D01*
X182384405Y-189925923D02*
X182598690Y-188211638D01*
X184170119Y-190116400D02*
X183967738Y-190211638D01*
X183967738Y-190211638D02*
X183586785Y-190211638D01*
X183586785Y-190211638D02*
X183408214Y-190116400D01*
X183408214Y-190116400D02*
X183336785Y-189925923D01*
X183336785Y-189925923D02*
X183432024Y-189164019D01*
X183432024Y-189164019D02*
X183551071Y-188973542D01*
X183551071Y-188973542D02*
X183753452Y-188878304D01*
X183753452Y-188878304D02*
X184134404Y-188878304D01*
X184134404Y-188878304D02*
X184312976Y-188973542D01*
X184312976Y-188973542D02*
X184384404Y-189164019D01*
X184384404Y-189164019D02*
X184360595Y-189354495D01*
X184360595Y-189354495D02*
X183384404Y-189544971D01*
X185134405Y-190021161D02*
X185217738Y-190116400D01*
X185217738Y-190116400D02*
X185110595Y-190211638D01*
X185110595Y-190211638D02*
X185027262Y-190116400D01*
X185027262Y-190116400D02*
X185134405Y-190021161D01*
X185134405Y-190021161D02*
X185110595Y-190211638D01*
X185265357Y-188973542D02*
X185348690Y-189068780D01*
X185348690Y-189068780D02*
X185241548Y-189164019D01*
X185241548Y-189164019D02*
X185158214Y-189068780D01*
X185158214Y-189068780D02*
X185265357Y-188973542D01*
X185265357Y-188973542D02*
X185241548Y-189164019D01*
X188634405Y-190211638D02*
X187491548Y-190211638D01*
X188062977Y-190211638D02*
X188312977Y-188211638D01*
X188312977Y-188211638D02*
X188086786Y-188497352D01*
X188086786Y-188497352D02*
X187872501Y-188687828D01*
X187872501Y-188687828D02*
X187670120Y-188783066D01*
X188991548Y-190402114D02*
X190515358Y-190402114D01*
X191015358Y-190211638D02*
X191265358Y-188211638D01*
X191265358Y-188211638D02*
X191741549Y-188211638D01*
X191741549Y-188211638D02*
X192015358Y-188306876D01*
X192015358Y-188306876D02*
X192182025Y-188497352D01*
X192182025Y-188497352D02*
X192253453Y-188687828D01*
X192253453Y-188687828D02*
X192301073Y-189068780D01*
X192301073Y-189068780D02*
X192265358Y-189354495D01*
X192265358Y-189354495D02*
X192122501Y-189735447D01*
X192122501Y-189735447D02*
X192003453Y-189925923D01*
X192003453Y-189925923D02*
X191789168Y-190116400D01*
X191789168Y-190116400D02*
X191491549Y-190211638D01*
X191491549Y-190211638D02*
X191015358Y-190211638D01*
X193015358Y-190211638D02*
X193182025Y-188878304D01*
X193265358Y-188211638D02*
X193158215Y-188306876D01*
X193158215Y-188306876D02*
X193241549Y-188402114D01*
X193241549Y-188402114D02*
X193348692Y-188306876D01*
X193348692Y-188306876D02*
X193265358Y-188211638D01*
X193265358Y-188211638D02*
X193241549Y-188402114D01*
X193884406Y-190116400D02*
X194062977Y-190211638D01*
X194062977Y-190211638D02*
X194443930Y-190211638D01*
X194443930Y-190211638D02*
X194646311Y-190116400D01*
X194646311Y-190116400D02*
X194765358Y-189925923D01*
X194765358Y-189925923D02*
X194777263Y-189830685D01*
X194777263Y-189830685D02*
X194705834Y-189640209D01*
X194705834Y-189640209D02*
X194527263Y-189544971D01*
X194527263Y-189544971D02*
X194241549Y-189544971D01*
X194241549Y-189544971D02*
X194062977Y-189449733D01*
X194062977Y-189449733D02*
X193991549Y-189259257D01*
X193991549Y-189259257D02*
X194003454Y-189164019D01*
X194003454Y-189164019D02*
X194122501Y-188973542D01*
X194122501Y-188973542D02*
X194324882Y-188878304D01*
X194324882Y-188878304D02*
X194610596Y-188878304D01*
X194610596Y-188878304D02*
X194789168Y-188973542D01*
X195467740Y-188878304D02*
X196229644Y-188878304D01*
X195836787Y-188211638D02*
X195622502Y-189925923D01*
X195622502Y-189925923D02*
X195693930Y-190116400D01*
X195693930Y-190116400D02*
X195872502Y-190211638D01*
X195872502Y-190211638D02*
X196062978Y-190211638D01*
X196729644Y-190211638D02*
X196896311Y-188878304D01*
X196848692Y-189259257D02*
X196967739Y-189068780D01*
X196967739Y-189068780D02*
X197074882Y-188973542D01*
X197074882Y-188973542D02*
X197277263Y-188878304D01*
X197277263Y-188878304D02*
X197467739Y-188878304D01*
X197967739Y-190211638D02*
X198134406Y-188878304D01*
X198217739Y-188211638D02*
X198110596Y-188306876D01*
X198110596Y-188306876D02*
X198193930Y-188402114D01*
X198193930Y-188402114D02*
X198301073Y-188306876D01*
X198301073Y-188306876D02*
X198217739Y-188211638D01*
X198217739Y-188211638D02*
X198193930Y-188402114D01*
X198920120Y-190211638D02*
X199170120Y-188211638D01*
X199074882Y-188973542D02*
X199277263Y-188878304D01*
X199277263Y-188878304D02*
X199658215Y-188878304D01*
X199658215Y-188878304D02*
X199836787Y-188973542D01*
X199836787Y-188973542D02*
X199920120Y-189068780D01*
X199920120Y-189068780D02*
X199991549Y-189259257D01*
X199991549Y-189259257D02*
X199920120Y-189830685D01*
X199920120Y-189830685D02*
X199801073Y-190021161D01*
X199801073Y-190021161D02*
X199693930Y-190116400D01*
X199693930Y-190116400D02*
X199491549Y-190211638D01*
X199491549Y-190211638D02*
X199110596Y-190211638D01*
X199110596Y-190211638D02*
X198932025Y-190116400D01*
X201753454Y-188878304D02*
X201586787Y-190211638D01*
X200896311Y-188878304D02*
X200765359Y-189925923D01*
X200765359Y-189925923D02*
X200836787Y-190116400D01*
X200836787Y-190116400D02*
X201015359Y-190211638D01*
X201015359Y-190211638D02*
X201301073Y-190211638D01*
X201301073Y-190211638D02*
X201503454Y-190116400D01*
X201503454Y-190116400D02*
X201610597Y-190021161D01*
X202420121Y-188878304D02*
X203182025Y-188878304D01*
X202789168Y-188211638D02*
X202574883Y-189925923D01*
X202574883Y-189925923D02*
X202646311Y-190116400D01*
X202646311Y-190116400D02*
X202824883Y-190211638D01*
X202824883Y-190211638D02*
X203015359Y-190211638D01*
X203682025Y-190211638D02*
X203848692Y-188878304D01*
X203932025Y-188211638D02*
X203824882Y-188306876D01*
X203824882Y-188306876D02*
X203908216Y-188402114D01*
X203908216Y-188402114D02*
X204015359Y-188306876D01*
X204015359Y-188306876D02*
X203932025Y-188211638D01*
X203932025Y-188211638D02*
X203908216Y-188402114D01*
X204920121Y-190211638D02*
X204741549Y-190116400D01*
X204741549Y-190116400D02*
X204658216Y-190021161D01*
X204658216Y-190021161D02*
X204586787Y-189830685D01*
X204586787Y-189830685D02*
X204658216Y-189259257D01*
X204658216Y-189259257D02*
X204777263Y-189068780D01*
X204777263Y-189068780D02*
X204884406Y-188973542D01*
X204884406Y-188973542D02*
X205086787Y-188878304D01*
X205086787Y-188878304D02*
X205372501Y-188878304D01*
X205372501Y-188878304D02*
X205551073Y-188973542D01*
X205551073Y-188973542D02*
X205634406Y-189068780D01*
X205634406Y-189068780D02*
X205705835Y-189259257D01*
X205705835Y-189259257D02*
X205634406Y-189830685D01*
X205634406Y-189830685D02*
X205515359Y-190021161D01*
X205515359Y-190021161D02*
X205408216Y-190116400D01*
X205408216Y-190116400D02*
X205205835Y-190211638D01*
X205205835Y-190211638D02*
X204920121Y-190211638D01*
X206610597Y-188878304D02*
X206443930Y-190211638D01*
X206586787Y-189068780D02*
X206693930Y-188973542D01*
X206693930Y-188973542D02*
X206896311Y-188878304D01*
X206896311Y-188878304D02*
X207182025Y-188878304D01*
X207182025Y-188878304D02*
X207360597Y-188973542D01*
X207360597Y-188973542D02*
X207432025Y-189164019D01*
X207432025Y-189164019D02*
X207301073Y-190211638D01*
X210574883Y-189164019D02*
X210848693Y-189259257D01*
X210848693Y-189259257D02*
X210932026Y-189354495D01*
X210932026Y-189354495D02*
X211003455Y-189544971D01*
X211003455Y-189544971D02*
X210967740Y-189830685D01*
X210967740Y-189830685D02*
X210848693Y-190021161D01*
X210848693Y-190021161D02*
X210741550Y-190116400D01*
X210741550Y-190116400D02*
X210539169Y-190211638D01*
X210539169Y-190211638D02*
X209777264Y-190211638D01*
X209777264Y-190211638D02*
X210027264Y-188211638D01*
X210027264Y-188211638D02*
X210693931Y-188211638D01*
X210693931Y-188211638D02*
X210872502Y-188306876D01*
X210872502Y-188306876D02*
X210955836Y-188402114D01*
X210955836Y-188402114D02*
X211027264Y-188592590D01*
X211027264Y-188592590D02*
X211003455Y-188783066D01*
X211003455Y-188783066D02*
X210884407Y-188973542D01*
X210884407Y-188973542D02*
X210777264Y-189068780D01*
X210777264Y-189068780D02*
X210574883Y-189164019D01*
X210574883Y-189164019D02*
X209908217Y-189164019D01*
X212062979Y-190211638D02*
X211884407Y-190116400D01*
X211884407Y-190116400D02*
X211801074Y-190021161D01*
X211801074Y-190021161D02*
X211729645Y-189830685D01*
X211729645Y-189830685D02*
X211801074Y-189259257D01*
X211801074Y-189259257D02*
X211920121Y-189068780D01*
X211920121Y-189068780D02*
X212027264Y-188973542D01*
X212027264Y-188973542D02*
X212229645Y-188878304D01*
X212229645Y-188878304D02*
X212515359Y-188878304D01*
X212515359Y-188878304D02*
X212693931Y-188973542D01*
X212693931Y-188973542D02*
X212777264Y-189068780D01*
X212777264Y-189068780D02*
X212848693Y-189259257D01*
X212848693Y-189259257D02*
X212777264Y-189830685D01*
X212777264Y-189830685D02*
X212658217Y-190021161D01*
X212658217Y-190021161D02*
X212551074Y-190116400D01*
X212551074Y-190116400D02*
X212348693Y-190211638D01*
X212348693Y-190211638D02*
X212062979Y-190211638D01*
X214443931Y-190211638D02*
X214574883Y-189164019D01*
X214574883Y-189164019D02*
X214503455Y-188973542D01*
X214503455Y-188973542D02*
X214324883Y-188878304D01*
X214324883Y-188878304D02*
X213943931Y-188878304D01*
X213943931Y-188878304D02*
X213741550Y-188973542D01*
X214455836Y-190116400D02*
X214253455Y-190211638D01*
X214253455Y-190211638D02*
X213777264Y-190211638D01*
X213777264Y-190211638D02*
X213598693Y-190116400D01*
X213598693Y-190116400D02*
X213527264Y-189925923D01*
X213527264Y-189925923D02*
X213551074Y-189735447D01*
X213551074Y-189735447D02*
X213670122Y-189544971D01*
X213670122Y-189544971D02*
X213872503Y-189449733D01*
X213872503Y-189449733D02*
X214348693Y-189449733D01*
X214348693Y-189449733D02*
X214551074Y-189354495D01*
X215396312Y-190211638D02*
X215562979Y-188878304D01*
X215515360Y-189259257D02*
X215634407Y-189068780D01*
X215634407Y-189068780D02*
X215741550Y-188973542D01*
X215741550Y-188973542D02*
X215943931Y-188878304D01*
X215943931Y-188878304D02*
X216134407Y-188878304D01*
X217491550Y-190211638D02*
X217741550Y-188211638D01*
X217503455Y-190116400D02*
X217301074Y-190211638D01*
X217301074Y-190211638D02*
X216920122Y-190211638D01*
X216920122Y-190211638D02*
X216741550Y-190116400D01*
X216741550Y-190116400D02*
X216658217Y-190021161D01*
X216658217Y-190021161D02*
X216586788Y-189830685D01*
X216586788Y-189830685D02*
X216658217Y-189259257D01*
X216658217Y-189259257D02*
X216777264Y-189068780D01*
X216777264Y-189068780D02*
X216884407Y-188973542D01*
X216884407Y-188973542D02*
X217086788Y-188878304D01*
X217086788Y-188878304D02*
X217467741Y-188878304D01*
X217467741Y-188878304D02*
X217646312Y-188973542D01*
D10*
D11*
X178958026Y-185607614D02*
X178458026Y-185607614D01*
X178458026Y-186393328D02*
X178458026Y-184893328D01*
X178458026Y-184893328D02*
X179172312Y-184893328D01*
X179743740Y-186393328D02*
X179743740Y-185393328D01*
X179743740Y-184893328D02*
X179672312Y-184964757D01*
X179672312Y-184964757D02*
X179743740Y-185036185D01*
X179743740Y-185036185D02*
X179815169Y-184964757D01*
X179815169Y-184964757D02*
X179743740Y-184893328D01*
X179743740Y-184893328D02*
X179743740Y-185036185D01*
X180672312Y-186393328D02*
X180529455Y-186321900D01*
X180529455Y-186321900D02*
X180458026Y-186179042D01*
X180458026Y-186179042D02*
X180458026Y-184893328D01*
X181815169Y-186321900D02*
X181672312Y-186393328D01*
X181672312Y-186393328D02*
X181386598Y-186393328D01*
X181386598Y-186393328D02*
X181243740Y-186321900D01*
X181243740Y-186321900D02*
X181172312Y-186179042D01*
X181172312Y-186179042D02*
X181172312Y-185607614D01*
X181172312Y-185607614D02*
X181243740Y-185464757D01*
X181243740Y-185464757D02*
X181386598Y-185393328D01*
X181386598Y-185393328D02*
X181672312Y-185393328D01*
X181672312Y-185393328D02*
X181815169Y-185464757D01*
X181815169Y-185464757D02*
X181886598Y-185607614D01*
X181886598Y-185607614D02*
X181886598Y-185750471D01*
X181886598Y-185750471D02*
X181172312Y-185893328D01*
X182529454Y-186250471D02*
X182600883Y-186321900D01*
X182600883Y-186321900D02*
X182529454Y-186393328D01*
X182529454Y-186393328D02*
X182458026Y-186321900D01*
X182458026Y-186321900D02*
X182529454Y-186250471D01*
X182529454Y-186250471D02*
X182529454Y-186393328D01*
X182529454Y-185464757D02*
X182600883Y-185536185D01*
X182600883Y-185536185D02*
X182529454Y-185607614D01*
X182529454Y-185607614D02*
X182458026Y-185536185D01*
X182458026Y-185536185D02*
X182529454Y-185464757D01*
X182529454Y-185464757D02*
X182529454Y-185607614D01*
X185172312Y-186393328D02*
X184315169Y-186393328D01*
X184743740Y-186393328D02*
X184743740Y-184893328D01*
X184743740Y-184893328D02*
X184600883Y-185107614D01*
X184600883Y-185107614D02*
X184458026Y-185250471D01*
X184458026Y-185250471D02*
X184315169Y-185321900D01*
X185458026Y-186536185D02*
X186600883Y-186536185D01*
X186958025Y-186393328D02*
X186958025Y-184893328D01*
X186958025Y-184893328D02*
X187315168Y-184893328D01*
X187315168Y-184893328D02*
X187529454Y-184964757D01*
X187529454Y-184964757D02*
X187672311Y-185107614D01*
X187672311Y-185107614D02*
X187743740Y-185250471D01*
X187743740Y-185250471D02*
X187815168Y-185536185D01*
X187815168Y-185536185D02*
X187815168Y-185750471D01*
X187815168Y-185750471D02*
X187743740Y-186036185D01*
X187743740Y-186036185D02*
X187672311Y-186179042D01*
X187672311Y-186179042D02*
X187529454Y-186321900D01*
X187529454Y-186321900D02*
X187315168Y-186393328D01*
X187315168Y-186393328D02*
X186958025Y-186393328D01*
X188458025Y-186393328D02*
X188458025Y-185393328D01*
X188458025Y-184893328D02*
X188386597Y-184964757D01*
X188386597Y-184964757D02*
X188458025Y-185036185D01*
X188458025Y-185036185D02*
X188529454Y-184964757D01*
X188529454Y-184964757D02*
X188458025Y-184893328D01*
X188458025Y-184893328D02*
X188458025Y-185036185D01*
X189100883Y-186321900D02*
X189243740Y-186393328D01*
X189243740Y-186393328D02*
X189529454Y-186393328D01*
X189529454Y-186393328D02*
X189672311Y-186321900D01*
X189672311Y-186321900D02*
X189743740Y-186179042D01*
X189743740Y-186179042D02*
X189743740Y-186107614D01*
X189743740Y-186107614D02*
X189672311Y-185964757D01*
X189672311Y-185964757D02*
X189529454Y-185893328D01*
X189529454Y-185893328D02*
X189315169Y-185893328D01*
X189315169Y-185893328D02*
X189172311Y-185821900D01*
X189172311Y-185821900D02*
X189100883Y-185679042D01*
X189100883Y-185679042D02*
X189100883Y-185607614D01*
X189100883Y-185607614D02*
X189172311Y-185464757D01*
X189172311Y-185464757D02*
X189315169Y-185393328D01*
X189315169Y-185393328D02*
X189529454Y-185393328D01*
X189529454Y-185393328D02*
X189672311Y-185464757D01*
X190172312Y-185393328D02*
X190743740Y-185393328D01*
X190386597Y-184893328D02*
X190386597Y-186179042D01*
X190386597Y-186179042D02*
X190458026Y-186321900D01*
X190458026Y-186321900D02*
X190600883Y-186393328D01*
X190600883Y-186393328D02*
X190743740Y-186393328D01*
X191243740Y-186393328D02*
X191243740Y-185393328D01*
X191243740Y-185679042D02*
X191315169Y-185536185D01*
X191315169Y-185536185D02*
X191386598Y-185464757D01*
X191386598Y-185464757D02*
X191529455Y-185393328D01*
X191529455Y-185393328D02*
X191672312Y-185393328D01*
X192172311Y-186393328D02*
X192172311Y-185393328D01*
X192172311Y-184893328D02*
X192100883Y-184964757D01*
X192100883Y-184964757D02*
X192172311Y-185036185D01*
X192172311Y-185036185D02*
X192243740Y-184964757D01*
X192243740Y-184964757D02*
X192172311Y-184893328D01*
X192172311Y-184893328D02*
X192172311Y-185036185D01*
X192886597Y-186393328D02*
X192886597Y-184893328D01*
X192886597Y-185464757D02*
X193029455Y-185393328D01*
X193029455Y-185393328D02*
X193315169Y-185393328D01*
X193315169Y-185393328D02*
X193458026Y-185464757D01*
X193458026Y-185464757D02*
X193529455Y-185536185D01*
X193529455Y-185536185D02*
X193600883Y-185679042D01*
X193600883Y-185679042D02*
X193600883Y-186107614D01*
X193600883Y-186107614D02*
X193529455Y-186250471D01*
X193529455Y-186250471D02*
X193458026Y-186321900D01*
X193458026Y-186321900D02*
X193315169Y-186393328D01*
X193315169Y-186393328D02*
X193029455Y-186393328D01*
X193029455Y-186393328D02*
X192886597Y-186321900D01*
X194886598Y-185393328D02*
X194886598Y-186393328D01*
X194243740Y-185393328D02*
X194243740Y-186179042D01*
X194243740Y-186179042D02*
X194315169Y-186321900D01*
X194315169Y-186321900D02*
X194458026Y-186393328D01*
X194458026Y-186393328D02*
X194672312Y-186393328D01*
X194672312Y-186393328D02*
X194815169Y-186321900D01*
X194815169Y-186321900D02*
X194886598Y-186250471D01*
X195386598Y-185393328D02*
X195958026Y-185393328D01*
X195600883Y-184893328D02*
X195600883Y-186179042D01*
X195600883Y-186179042D02*
X195672312Y-186321900D01*
X195672312Y-186321900D02*
X195815169Y-186393328D01*
X195815169Y-186393328D02*
X195958026Y-186393328D01*
X196458026Y-186393328D02*
X196458026Y-185393328D01*
X196458026Y-184893328D02*
X196386598Y-184964757D01*
X196386598Y-184964757D02*
X196458026Y-185036185D01*
X196458026Y-185036185D02*
X196529455Y-184964757D01*
X196529455Y-184964757D02*
X196458026Y-184893328D01*
X196458026Y-184893328D02*
X196458026Y-185036185D01*
X197386598Y-186393328D02*
X197243741Y-186321900D01*
X197243741Y-186321900D02*
X197172312Y-186250471D01*
X197172312Y-186250471D02*
X197100884Y-186107614D01*
X197100884Y-186107614D02*
X197100884Y-185679042D01*
X197100884Y-185679042D02*
X197172312Y-185536185D01*
X197172312Y-185536185D02*
X197243741Y-185464757D01*
X197243741Y-185464757D02*
X197386598Y-185393328D01*
X197386598Y-185393328D02*
X197600884Y-185393328D01*
X197600884Y-185393328D02*
X197743741Y-185464757D01*
X197743741Y-185464757D02*
X197815170Y-185536185D01*
X197815170Y-185536185D02*
X197886598Y-185679042D01*
X197886598Y-185679042D02*
X197886598Y-186107614D01*
X197886598Y-186107614D02*
X197815170Y-186250471D01*
X197815170Y-186250471D02*
X197743741Y-186321900D01*
X197743741Y-186321900D02*
X197600884Y-186393328D01*
X197600884Y-186393328D02*
X197386598Y-186393328D01*
X198529455Y-185393328D02*
X198529455Y-186393328D01*
X198529455Y-185536185D02*
X198600884Y-185464757D01*
X198600884Y-185464757D02*
X198743741Y-185393328D01*
X198743741Y-185393328D02*
X198958027Y-185393328D01*
X198958027Y-185393328D02*
X199100884Y-185464757D01*
X199100884Y-185464757D02*
X199172313Y-185607614D01*
X199172313Y-185607614D02*
X199172313Y-186393328D01*
X199529456Y-186536185D02*
X200672313Y-186536185D01*
X201529455Y-185607614D02*
X201743741Y-185679042D01*
X201743741Y-185679042D02*
X201815170Y-185750471D01*
X201815170Y-185750471D02*
X201886598Y-185893328D01*
X201886598Y-185893328D02*
X201886598Y-186107614D01*
X201886598Y-186107614D02*
X201815170Y-186250471D01*
X201815170Y-186250471D02*
X201743741Y-186321900D01*
X201743741Y-186321900D02*
X201600884Y-186393328D01*
X201600884Y-186393328D02*
X201029455Y-186393328D01*
X201029455Y-186393328D02*
X201029455Y-184893328D01*
X201029455Y-184893328D02*
X201529455Y-184893328D01*
X201529455Y-184893328D02*
X201672313Y-184964757D01*
X201672313Y-184964757D02*
X201743741Y-185036185D01*
X201743741Y-185036185D02*
X201815170Y-185179042D01*
X201815170Y-185179042D02*
X201815170Y-185321900D01*
X201815170Y-185321900D02*
X201743741Y-185464757D01*
X201743741Y-185464757D02*
X201672313Y-185536185D01*
X201672313Y-185536185D02*
X201529455Y-185607614D01*
X201529455Y-185607614D02*
X201029455Y-185607614D01*
X202743741Y-186393328D02*
X202600884Y-186321900D01*
X202600884Y-186321900D02*
X202529455Y-186250471D01*
X202529455Y-186250471D02*
X202458027Y-186107614D01*
X202458027Y-186107614D02*
X202458027Y-185679042D01*
X202458027Y-185679042D02*
X202529455Y-185536185D01*
X202529455Y-185536185D02*
X202600884Y-185464757D01*
X202600884Y-185464757D02*
X202743741Y-185393328D01*
X202743741Y-185393328D02*
X202958027Y-185393328D01*
X202958027Y-185393328D02*
X203100884Y-185464757D01*
X203100884Y-185464757D02*
X203172313Y-185536185D01*
X203172313Y-185536185D02*
X203243741Y-185679042D01*
X203243741Y-185679042D02*
X203243741Y-186107614D01*
X203243741Y-186107614D02*
X203172313Y-186250471D01*
X203172313Y-186250471D02*
X203100884Y-186321900D01*
X203100884Y-186321900D02*
X202958027Y-186393328D01*
X202958027Y-186393328D02*
X202743741Y-186393328D01*
X204529456Y-186393328D02*
X204529456Y-185607614D01*
X204529456Y-185607614D02*
X204458027Y-185464757D01*
X204458027Y-185464757D02*
X204315170Y-185393328D01*
X204315170Y-185393328D02*
X204029456Y-185393328D01*
X204029456Y-185393328D02*
X203886598Y-185464757D01*
X204529456Y-186321900D02*
X204386598Y-186393328D01*
X204386598Y-186393328D02*
X204029456Y-186393328D01*
X204029456Y-186393328D02*
X203886598Y-186321900D01*
X203886598Y-186321900D02*
X203815170Y-186179042D01*
X203815170Y-186179042D02*
X203815170Y-186036185D01*
X203815170Y-186036185D02*
X203886598Y-185893328D01*
X203886598Y-185893328D02*
X204029456Y-185821900D01*
X204029456Y-185821900D02*
X204386598Y-185821900D01*
X204386598Y-185821900D02*
X204529456Y-185750471D01*
X205243741Y-186393328D02*
X205243741Y-185393328D01*
X205243741Y-185679042D02*
X205315170Y-185536185D01*
X205315170Y-185536185D02*
X205386599Y-185464757D01*
X205386599Y-185464757D02*
X205529456Y-185393328D01*
X205529456Y-185393328D02*
X205672313Y-185393328D01*
X206815170Y-186393328D02*
X206815170Y-184893328D01*
X206815170Y-186321900D02*
X206672312Y-186393328D01*
X206672312Y-186393328D02*
X206386598Y-186393328D01*
X206386598Y-186393328D02*
X206243741Y-186321900D01*
X206243741Y-186321900D02*
X206172312Y-186250471D01*
X206172312Y-186250471D02*
X206100884Y-186107614D01*
X206100884Y-186107614D02*
X206100884Y-185679042D01*
X206100884Y-185679042D02*
X206172312Y-185536185D01*
X206172312Y-185536185D02*
X206243741Y-185464757D01*
X206243741Y-185464757D02*
X206386598Y-185393328D01*
X206386598Y-185393328D02*
X206672312Y-185393328D01*
X206672312Y-185393328D02*
X206815170Y-185464757D01*
X207529455Y-186250471D02*
X207600884Y-186321900D01*
X207600884Y-186321900D02*
X207529455Y-186393328D01*
X207529455Y-186393328D02*
X207458027Y-186321900D01*
X207458027Y-186321900D02*
X207529455Y-186250471D01*
X207529455Y-186250471D02*
X207529455Y-186393328D01*
X208243741Y-186393328D02*
X208243741Y-184893328D01*
X208386599Y-185821900D02*
X208815170Y-186393328D01*
X208815170Y-185393328D02*
X208243741Y-185964757D01*
X209458027Y-186393328D02*
X209458027Y-185393328D01*
X209458027Y-184893328D02*
X209386599Y-184964757D01*
X209386599Y-184964757D02*
X209458027Y-185036185D01*
X209458027Y-185036185D02*
X209529456Y-184964757D01*
X209529456Y-184964757D02*
X209458027Y-184893328D01*
X209458027Y-184893328D02*
X209458027Y-185036185D01*
X210815171Y-186321900D02*
X210672313Y-186393328D01*
X210672313Y-186393328D02*
X210386599Y-186393328D01*
X210386599Y-186393328D02*
X210243742Y-186321900D01*
X210243742Y-186321900D02*
X210172313Y-186250471D01*
X210172313Y-186250471D02*
X210100885Y-186107614D01*
X210100885Y-186107614D02*
X210100885Y-185679042D01*
X210100885Y-185679042D02*
X210172313Y-185536185D01*
X210172313Y-185536185D02*
X210243742Y-185464757D01*
X210243742Y-185464757D02*
X210386599Y-185393328D01*
X210386599Y-185393328D02*
X210672313Y-185393328D01*
X210672313Y-185393328D02*
X210815171Y-185464757D01*
X212100885Y-186393328D02*
X212100885Y-185607614D01*
X212100885Y-185607614D02*
X212029456Y-185464757D01*
X212029456Y-185464757D02*
X211886599Y-185393328D01*
X211886599Y-185393328D02*
X211600885Y-185393328D01*
X211600885Y-185393328D02*
X211458027Y-185464757D01*
X212100885Y-186321900D02*
X211958027Y-186393328D01*
X211958027Y-186393328D02*
X211600885Y-186393328D01*
X211600885Y-186393328D02*
X211458027Y-186321900D01*
X211458027Y-186321900D02*
X211386599Y-186179042D01*
X211386599Y-186179042D02*
X211386599Y-186036185D01*
X211386599Y-186036185D02*
X211458027Y-185893328D01*
X211458027Y-185893328D02*
X211600885Y-185821900D01*
X211600885Y-185821900D02*
X211958027Y-185821900D01*
X211958027Y-185821900D02*
X212100885Y-185750471D01*
X213458028Y-186393328D02*
X213458028Y-184893328D01*
X213458028Y-186321900D02*
X213315170Y-186393328D01*
X213315170Y-186393328D02*
X213029456Y-186393328D01*
X213029456Y-186393328D02*
X212886599Y-186321900D01*
X212886599Y-186321900D02*
X212815170Y-186250471D01*
X212815170Y-186250471D02*
X212743742Y-186107614D01*
X212743742Y-186107614D02*
X212743742Y-185679042D01*
X212743742Y-185679042D02*
X212815170Y-185536185D01*
X212815170Y-185536185D02*
X212886599Y-185464757D01*
X212886599Y-185464757D02*
X213029456Y-185393328D01*
X213029456Y-185393328D02*
X213315170Y-185393328D01*
X213315170Y-185393328D02*
X213458028Y-185464757D01*
X213815171Y-186536185D02*
X214958028Y-186536185D01*
X215315170Y-185393328D02*
X215315170Y-186893328D01*
X215315170Y-185464757D02*
X215458028Y-185393328D01*
X215458028Y-185393328D02*
X215743742Y-185393328D01*
X215743742Y-185393328D02*
X215886599Y-185464757D01*
X215886599Y-185464757D02*
X215958028Y-185536185D01*
X215958028Y-185536185D02*
X216029456Y-185679042D01*
X216029456Y-185679042D02*
X216029456Y-186107614D01*
X216029456Y-186107614D02*
X215958028Y-186250471D01*
X215958028Y-186250471D02*
X215886599Y-186321900D01*
X215886599Y-186321900D02*
X215743742Y-186393328D01*
X215743742Y-186393328D02*
X215458028Y-186393328D01*
X215458028Y-186393328D02*
X215315170Y-186321900D01*
X217315171Y-186321900D02*
X217172313Y-186393328D01*
X217172313Y-186393328D02*
X216886599Y-186393328D01*
X216886599Y-186393328D02*
X216743742Y-186321900D01*
X216743742Y-186321900D02*
X216672313Y-186250471D01*
X216672313Y-186250471D02*
X216600885Y-186107614D01*
X216600885Y-186107614D02*
X216600885Y-185679042D01*
X216600885Y-185679042D02*
X216672313Y-185536185D01*
X216672313Y-185536185D02*
X216743742Y-185464757D01*
X216743742Y-185464757D02*
X216886599Y-185393328D01*
X216886599Y-185393328D02*
X217172313Y-185393328D01*
X217172313Y-185393328D02*
X217315171Y-185464757D01*
X217958027Y-186393328D02*
X217958027Y-184893328D01*
X217958027Y-185464757D02*
X218100885Y-185393328D01*
X218100885Y-185393328D02*
X218386599Y-185393328D01*
X218386599Y-185393328D02*
X218529456Y-185464757D01*
X218529456Y-185464757D02*
X218600885Y-185536185D01*
X218600885Y-185536185D02*
X218672313Y-185679042D01*
X218672313Y-185679042D02*
X218672313Y-186107614D01*
X218672313Y-186107614D02*
X218600885Y-186250471D01*
X218600885Y-186250471D02*
X218529456Y-186321900D01*
X218529456Y-186321900D02*
X218386599Y-186393328D01*
X218386599Y-186393328D02*
X218100885Y-186393328D01*
X218100885Y-186393328D02*
X217958027Y-186321900D01*
D10*
D11*
X177002200Y-181507200D02*
X285002200Y-181507200D01*
D10*
D11*
X178386598Y-183621900D02*
X178600884Y-183693328D01*
X178600884Y-183693328D02*
X178958026Y-183693328D01*
X178958026Y-183693328D02*
X179100884Y-183621900D01*
X179100884Y-183621900D02*
X179172312Y-183550471D01*
X179172312Y-183550471D02*
X179243741Y-183407614D01*
X179243741Y-183407614D02*
X179243741Y-183264757D01*
X179243741Y-183264757D02*
X179172312Y-183121900D01*
X179172312Y-183121900D02*
X179100884Y-183050471D01*
X179100884Y-183050471D02*
X178958026Y-182979042D01*
X178958026Y-182979042D02*
X178672312Y-182907614D01*
X178672312Y-182907614D02*
X178529455Y-182836185D01*
X178529455Y-182836185D02*
X178458026Y-182764757D01*
X178458026Y-182764757D02*
X178386598Y-182621900D01*
X178386598Y-182621900D02*
X178386598Y-182479042D01*
X178386598Y-182479042D02*
X178458026Y-182336185D01*
X178458026Y-182336185D02*
X178529455Y-182264757D01*
X178529455Y-182264757D02*
X178672312Y-182193328D01*
X178672312Y-182193328D02*
X179029455Y-182193328D01*
X179029455Y-182193328D02*
X179243741Y-182264757D01*
X179886597Y-183693328D02*
X179886597Y-182193328D01*
X180529455Y-183693328D02*
X180529455Y-182907614D01*
X180529455Y-182907614D02*
X180458026Y-182764757D01*
X180458026Y-182764757D02*
X180315169Y-182693328D01*
X180315169Y-182693328D02*
X180100883Y-182693328D01*
X180100883Y-182693328D02*
X179958026Y-182764757D01*
X179958026Y-182764757D02*
X179886597Y-182836185D01*
X181815169Y-183621900D02*
X181672312Y-183693328D01*
X181672312Y-183693328D02*
X181386598Y-183693328D01*
X181386598Y-183693328D02*
X181243740Y-183621900D01*
X181243740Y-183621900D02*
X181172312Y-183479042D01*
X181172312Y-183479042D02*
X181172312Y-182907614D01*
X181172312Y-182907614D02*
X181243740Y-182764757D01*
X181243740Y-182764757D02*
X181386598Y-182693328D01*
X181386598Y-182693328D02*
X181672312Y-182693328D01*
X181672312Y-182693328D02*
X181815169Y-182764757D01*
X181815169Y-182764757D02*
X181886598Y-182907614D01*
X181886598Y-182907614D02*
X181886598Y-183050471D01*
X181886598Y-183050471D02*
X181172312Y-183193328D01*
X183100883Y-183621900D02*
X182958026Y-183693328D01*
X182958026Y-183693328D02*
X182672312Y-183693328D01*
X182672312Y-183693328D02*
X182529454Y-183621900D01*
X182529454Y-183621900D02*
X182458026Y-183479042D01*
X182458026Y-183479042D02*
X182458026Y-182907614D01*
X182458026Y-182907614D02*
X182529454Y-182764757D01*
X182529454Y-182764757D02*
X182672312Y-182693328D01*
X182672312Y-182693328D02*
X182958026Y-182693328D01*
X182958026Y-182693328D02*
X183100883Y-182764757D01*
X183100883Y-182764757D02*
X183172312Y-182907614D01*
X183172312Y-182907614D02*
X183172312Y-183050471D01*
X183172312Y-183050471D02*
X182458026Y-183193328D01*
X183600883Y-182693328D02*
X184172311Y-182693328D01*
X183815168Y-182193328D02*
X183815168Y-183479042D01*
X183815168Y-183479042D02*
X183886597Y-183621900D01*
X183886597Y-183621900D02*
X184029454Y-183693328D01*
X184029454Y-183693328D02*
X184172311Y-183693328D01*
X184672311Y-183550471D02*
X184743740Y-183621900D01*
X184743740Y-183621900D02*
X184672311Y-183693328D01*
X184672311Y-183693328D02*
X184600883Y-183621900D01*
X184600883Y-183621900D02*
X184672311Y-183550471D01*
X184672311Y-183550471D02*
X184672311Y-183693328D01*
X184672311Y-182764757D02*
X184743740Y-182836185D01*
X184743740Y-182836185D02*
X184672311Y-182907614D01*
X184672311Y-182907614D02*
X184600883Y-182836185D01*
X184600883Y-182836185D02*
X184672311Y-182764757D01*
X184672311Y-182764757D02*
X184672311Y-182907614D01*
D10*
D12*
X178556710Y-180685528D02*
X178556710Y-179185528D01*
X178556710Y-179756957D02*
X178699568Y-179685528D01*
X178699568Y-179685528D02*
X178985282Y-179685528D01*
X178985282Y-179685528D02*
X179128139Y-179756957D01*
X179128139Y-179756957D02*
X179199568Y-179828385D01*
X179199568Y-179828385D02*
X179270996Y-179971242D01*
X179270996Y-179971242D02*
X179270996Y-180399814D01*
X179270996Y-180399814D02*
X179199568Y-180542671D01*
X179199568Y-180542671D02*
X179128139Y-180614100D01*
X179128139Y-180614100D02*
X178985282Y-180685528D01*
X178985282Y-180685528D02*
X178699568Y-180685528D01*
X178699568Y-180685528D02*
X178556710Y-180614100D01*
X180556711Y-180685528D02*
X180556711Y-179899814D01*
X180556711Y-179899814D02*
X180485282Y-179756957D01*
X180485282Y-179756957D02*
X180342425Y-179685528D01*
X180342425Y-179685528D02*
X180056711Y-179685528D01*
X180056711Y-179685528D02*
X179913853Y-179756957D01*
X180556711Y-180614100D02*
X180413853Y-180685528D01*
X180413853Y-180685528D02*
X180056711Y-180685528D01*
X180056711Y-180685528D02*
X179913853Y-180614100D01*
X179913853Y-180614100D02*
X179842425Y-180471242D01*
X179842425Y-180471242D02*
X179842425Y-180328385D01*
X179842425Y-180328385D02*
X179913853Y-180185528D01*
X179913853Y-180185528D02*
X180056711Y-180114100D01*
X180056711Y-180114100D02*
X180413853Y-180114100D01*
X180413853Y-180114100D02*
X180556711Y-180042671D01*
X181199568Y-180614100D02*
X181342425Y-180685528D01*
X181342425Y-180685528D02*
X181628139Y-180685528D01*
X181628139Y-180685528D02*
X181770996Y-180614100D01*
X181770996Y-180614100D02*
X181842425Y-180471242D01*
X181842425Y-180471242D02*
X181842425Y-180399814D01*
X181842425Y-180399814D02*
X181770996Y-180256957D01*
X181770996Y-180256957D02*
X181628139Y-180185528D01*
X181628139Y-180185528D02*
X181413854Y-180185528D01*
X181413854Y-180185528D02*
X181270996Y-180114100D01*
X181270996Y-180114100D02*
X181199568Y-179971242D01*
X181199568Y-179971242D02*
X181199568Y-179899814D01*
X181199568Y-179899814D02*
X181270996Y-179756957D01*
X181270996Y-179756957D02*
X181413854Y-179685528D01*
X181413854Y-179685528D02*
X181628139Y-179685528D01*
X181628139Y-179685528D02*
X181770996Y-179756957D01*
X182485282Y-180685528D02*
X182485282Y-179685528D01*
X182485282Y-179185528D02*
X182413854Y-179256957D01*
X182413854Y-179256957D02*
X182485282Y-179328385D01*
X182485282Y-179328385D02*
X182556711Y-179256957D01*
X182556711Y-179256957D02*
X182485282Y-179185528D01*
X182485282Y-179185528D02*
X182485282Y-179328385D01*
X183842426Y-180614100D02*
X183699568Y-180685528D01*
X183699568Y-180685528D02*
X183413854Y-180685528D01*
X183413854Y-180685528D02*
X183270997Y-180614100D01*
X183270997Y-180614100D02*
X183199568Y-180542671D01*
X183199568Y-180542671D02*
X183128140Y-180399814D01*
X183128140Y-180399814D02*
X183128140Y-179971242D01*
X183128140Y-179971242D02*
X183199568Y-179828385D01*
X183199568Y-179828385D02*
X183270997Y-179756957D01*
X183270997Y-179756957D02*
X183413854Y-179685528D01*
X183413854Y-179685528D02*
X183699568Y-179685528D01*
X183699568Y-179685528D02*
X183842426Y-179756957D01*
X185128140Y-180685528D02*
X185128140Y-179899814D01*
X185128140Y-179899814D02*
X185056711Y-179756957D01*
X185056711Y-179756957D02*
X184913854Y-179685528D01*
X184913854Y-179685528D02*
X184628140Y-179685528D01*
X184628140Y-179685528D02*
X184485282Y-179756957D01*
X185128140Y-180614100D02*
X184985282Y-180685528D01*
X184985282Y-180685528D02*
X184628140Y-180685528D01*
X184628140Y-180685528D02*
X184485282Y-180614100D01*
X184485282Y-180614100D02*
X184413854Y-180471242D01*
X184413854Y-180471242D02*
X184413854Y-180328385D01*
X184413854Y-180328385D02*
X184485282Y-180185528D01*
X184485282Y-180185528D02*
X184628140Y-180114100D01*
X184628140Y-180114100D02*
X184985282Y-180114100D01*
X184985282Y-180114100D02*
X185128140Y-180042671D01*
X186056711Y-180685528D02*
X185913854Y-180614100D01*
X185913854Y-180614100D02*
X185842425Y-180471242D01*
X185842425Y-180471242D02*
X185842425Y-179185528D01*
X186485282Y-179685528D02*
X186842425Y-180685528D01*
X187199568Y-179685528D02*
X186842425Y-180685528D01*
X186842425Y-180685528D02*
X186699568Y-181042671D01*
X186699568Y-181042671D02*
X186628139Y-181114100D01*
X186628139Y-181114100D02*
X186485282Y-181185528D01*
D10*
D11*
X197002200Y-191507200D02*
X197002200Y-194507200D01*
D10*
D11*
X261002200Y-191507200D02*
X261002200Y-198007200D01*
D14*
G36*
X190760492Y-171807556D02*
G01*
X190760492Y-175485793D01*
X187052198Y-177625426D01*
X179895325Y-173497608D01*
X179895325Y-173299911D01*
X179895325Y-170117292D01*
X180230393Y-170117292D01*
X180230393Y-173299911D01*
X186915038Y-177159335D01*
X186915038Y-177125681D01*
X187250000Y-177125681D01*
X190424153Y-175293070D01*
X190424153Y-172167390D01*
X187250000Y-174000000D01*
X187250000Y-177125681D01*
X186915038Y-177125681D01*
X186915038Y-174000000D01*
X186915038Y-173976610D01*
X180230393Y-170117292D01*
X179895325Y-170117292D01*
X179895325Y-169835775D01*
X180412850Y-169835775D01*
X187102787Y-173698162D01*
X190237781Y-171888201D01*
X183546786Y-168025178D01*
X180412850Y-169835775D01*
X179895325Y-169835775D01*
X179895325Y-169750050D01*
X183528795Y-167627880D01*
X190760492Y-171807556D01*
G37*
G36*
X189158387Y-171749665D02*
G01*
X186854925Y-173120100D01*
X184498443Y-171780250D01*
X185166883Y-171780250D01*
X186690354Y-172659831D01*
X186690354Y-172609137D01*
X186690354Y-170900776D01*
X187022459Y-170900776D01*
X187022459Y-172609137D01*
X188491849Y-171751675D01*
X187022459Y-170900776D01*
X186690354Y-170900776D01*
X186690354Y-170900775D01*
X185166883Y-171780250D01*
X184498443Y-171780250D01*
X184497699Y-171779827D01*
X186854501Y-170419128D01*
X189158387Y-171749665D01*
G37*
G36*
X185981800Y-169912928D02*
G01*
X183678231Y-171283258D01*
X181322042Y-169943513D01*
X181990296Y-169943513D01*
X183513661Y-170823094D01*
X183513661Y-170772294D01*
X183845765Y-170772294D01*
X185315262Y-169914938D01*
X183845765Y-169063932D01*
X183845765Y-169063933D01*
X183845765Y-170772294D01*
X183513661Y-170772294D01*
X183513661Y-169063933D01*
X183513661Y-169063932D01*
X181990296Y-169943513D01*
X181322042Y-169943513D01*
X181321112Y-169942984D01*
X183677914Y-168582285D01*
X185981800Y-169912928D01*
G37*
D12*
X161572469Y-146907937D02*
X161072469Y-146193651D01*
X160715326Y-146907937D02*
X160715326Y-145407937D01*
X160715326Y-145407937D02*
X161286755Y-145407937D01*
X161286755Y-145407937D02*
X161429612Y-145479366D01*
X161429612Y-145479366D02*
X161501041Y-145550794D01*
X161501041Y-145550794D02*
X161572469Y-145693651D01*
X161572469Y-145693651D02*
X161572469Y-145907937D01*
X161572469Y-145907937D02*
X161501041Y-146050794D01*
X161501041Y-146050794D02*
X161429612Y-146122223D01*
X161429612Y-146122223D02*
X161286755Y-146193651D01*
X161286755Y-146193651D02*
X160715326Y-146193651D01*
X164072469Y-145407937D02*
X163358183Y-145407937D01*
X163358183Y-145407937D02*
X163286755Y-146122223D01*
X163286755Y-146122223D02*
X163358183Y-146050794D01*
X163358183Y-146050794D02*
X163501041Y-145979366D01*
X163501041Y-145979366D02*
X163858183Y-145979366D01*
X163858183Y-145979366D02*
X164001041Y-146050794D01*
X164001041Y-146050794D02*
X164072469Y-146122223D01*
X164072469Y-146122223D02*
X164143898Y-146265080D01*
X164143898Y-146265080D02*
X164143898Y-146622223D01*
X164143898Y-146622223D02*
X164072469Y-146765080D01*
X164072469Y-146765080D02*
X164001041Y-146836509D01*
X164001041Y-146836509D02*
X163858183Y-146907937D01*
X163858183Y-146907937D02*
X163501041Y-146907937D01*
X163501041Y-146907937D02*
X163358183Y-146836509D01*
X163358183Y-146836509D02*
X163286755Y-146765080D01*
X164786754Y-146907937D02*
X164786754Y-145907937D01*
X164786754Y-146050794D02*
X164858183Y-145979366D01*
X164858183Y-145979366D02*
X165001040Y-145907937D01*
X165001040Y-145907937D02*
X165215326Y-145907937D01*
X165215326Y-145907937D02*
X165358183Y-145979366D01*
X165358183Y-145979366D02*
X165429612Y-146122223D01*
X165429612Y-146122223D02*
X165429612Y-146907937D01*
X165429612Y-146122223D02*
X165501040Y-145979366D01*
X165501040Y-145979366D02*
X165643897Y-145907937D01*
X165643897Y-145907937D02*
X165858183Y-145907937D01*
X165858183Y-145907937D02*
X166001040Y-145979366D01*
X166001040Y-145979366D02*
X166072469Y-146122223D01*
X166072469Y-146122223D02*
X166072469Y-146907937D01*
X166786754Y-146907937D02*
X166786754Y-145907937D01*
X166786754Y-146050794D02*
X166858183Y-145979366D01*
X166858183Y-145979366D02*
X167001040Y-145907937D01*
X167001040Y-145907937D02*
X167215326Y-145907937D01*
X167215326Y-145907937D02*
X167358183Y-145979366D01*
X167358183Y-145979366D02*
X167429612Y-146122223D01*
X167429612Y-146122223D02*
X167429612Y-146907937D01*
X167429612Y-146122223D02*
X167501040Y-145979366D01*
X167501040Y-145979366D02*
X167643897Y-145907937D01*
X167643897Y-145907937D02*
X167858183Y-145907937D01*
X167858183Y-145907937D02*
X168001040Y-145979366D01*
X168001040Y-145979366D02*
X168072469Y-146122223D01*
X168072469Y-146122223D02*
X168072469Y-146907937D01*
X169715326Y-145407937D02*
X170572469Y-145407937D01*
X170143897Y-146907937D02*
X170143897Y-145407937D01*
X171358183Y-146193651D02*
X171358183Y-146907937D01*
X170858183Y-145407937D02*
X171358183Y-146193651D01*
X171358183Y-146193651D02*
X171858183Y-145407937D01*
X172358182Y-146907937D02*
X172358182Y-145407937D01*
X172358182Y-145407937D02*
X172929611Y-145407937D01*
X172929611Y-145407937D02*
X173072468Y-145479366D01*
X173072468Y-145479366D02*
X173143897Y-145550794D01*
X173143897Y-145550794D02*
X173215325Y-145693651D01*
X173215325Y-145693651D02*
X173215325Y-145907937D01*
X173215325Y-145907937D02*
X173143897Y-146050794D01*
X173143897Y-146050794D02*
X173072468Y-146122223D01*
X173072468Y-146122223D02*
X172929611Y-146193651D01*
X172929611Y-146193651D02*
X172358182Y-146193651D01*
X175643897Y-145907937D02*
X175643897Y-146907937D01*
X175286754Y-145336509D02*
X174929611Y-146407937D01*
X174929611Y-146407937D02*
X175858182Y-146407937D01*
X176286753Y-145407937D02*
X177286753Y-146907937D01*
X177286753Y-145407937D02*
X176286753Y-146907937D01*
D15*
X150000000Y-138730000D02*
X150000000Y-141270000D01*
X151270000Y-140000000D02*
X148730000Y-140000000D01*
X153535534Y-143535533D02*
X156229611Y-146229609D01*
X156229611Y-146229609D02*
X159308184Y-146229609D01*
X153535534Y-143535533D02*
X154746755Y-143917429D01*
X153535534Y-143535533D02*
X153917431Y-144746753D01*
D12*
X18128328Y-87999998D02*
X18128328Y-88857141D01*
X18128328Y-88428570D02*
X16628328Y-88428570D01*
X16628328Y-88428570D02*
X16842614Y-88571427D01*
X16842614Y-88571427D02*
X16985471Y-88714284D01*
X16985471Y-88714284D02*
X17056900Y-88857141D01*
X16771185Y-87428570D02*
X16699757Y-87357142D01*
X16699757Y-87357142D02*
X16628328Y-87214285D01*
X16628328Y-87214285D02*
X16628328Y-86857142D01*
X16628328Y-86857142D02*
X16699757Y-86714285D01*
X16699757Y-86714285D02*
X16771185Y-86642856D01*
X16771185Y-86642856D02*
X16914042Y-86571427D01*
X16914042Y-86571427D02*
X17056900Y-86571427D01*
X17056900Y-86571427D02*
X17271185Y-86642856D01*
X17271185Y-86642856D02*
X18128328Y-87499999D01*
X18128328Y-87499999D02*
X18128328Y-86571427D01*
X16628328Y-85642856D02*
X16628328Y-85499999D01*
X16628328Y-85499999D02*
X16699757Y-85357142D01*
X16699757Y-85357142D02*
X16771185Y-85285714D01*
X16771185Y-85285714D02*
X16914042Y-85214285D01*
X16914042Y-85214285D02*
X17199757Y-85142856D01*
X17199757Y-85142856D02*
X17556900Y-85142856D01*
X17556900Y-85142856D02*
X17842614Y-85214285D01*
X17842614Y-85214285D02*
X17985471Y-85285714D01*
X17985471Y-85285714D02*
X18056900Y-85357142D01*
X18056900Y-85357142D02*
X18128328Y-85499999D01*
X18128328Y-85499999D02*
X18128328Y-85642856D01*
X18128328Y-85642856D02*
X18056900Y-85785714D01*
X18056900Y-85785714D02*
X17985471Y-85857142D01*
X17985471Y-85857142D02*
X17842614Y-85928571D01*
X17842614Y-85928571D02*
X17556900Y-85999999D01*
X17556900Y-85999999D02*
X17199757Y-85999999D01*
X17199757Y-85999999D02*
X16914042Y-85928571D01*
X16914042Y-85928571D02*
X16771185Y-85857142D01*
X16771185Y-85857142D02*
X16699757Y-85785714D01*
X16699757Y-85785714D02*
X16628328Y-85642856D01*
X18128328Y-84500000D02*
X17128328Y-84500000D01*
X17271185Y-84500000D02*
X17199757Y-84428571D01*
X17199757Y-84428571D02*
X17128328Y-84285714D01*
X17128328Y-84285714D02*
X17128328Y-84071428D01*
X17128328Y-84071428D02*
X17199757Y-83928571D01*
X17199757Y-83928571D02*
X17342614Y-83857143D01*
X17342614Y-83857143D02*
X18128328Y-83857143D01*
X17342614Y-83857143D02*
X17199757Y-83785714D01*
X17199757Y-83785714D02*
X17128328Y-83642857D01*
X17128328Y-83642857D02*
X17128328Y-83428571D01*
X17128328Y-83428571D02*
X17199757Y-83285714D01*
X17199757Y-83285714D02*
X17342614Y-83214285D01*
X17342614Y-83214285D02*
X18128328Y-83214285D01*
X18128328Y-82500000D02*
X17128328Y-82500000D01*
X17271185Y-82500000D02*
X17199757Y-82428571D01*
X17199757Y-82428571D02*
X17128328Y-82285714D01*
X17128328Y-82285714D02*
X17128328Y-82071428D01*
X17128328Y-82071428D02*
X17199757Y-81928571D01*
X17199757Y-81928571D02*
X17342614Y-81857143D01*
X17342614Y-81857143D02*
X18128328Y-81857143D01*
X17342614Y-81857143D02*
X17199757Y-81785714D01*
X17199757Y-81785714D02*
X17128328Y-81642857D01*
X17128328Y-81642857D02*
X17128328Y-81428571D01*
X17128328Y-81428571D02*
X17199757Y-81285714D01*
X17199757Y-81285714D02*
X17342614Y-81214285D01*
X17342614Y-81214285D02*
X18128328Y-81214285D01*
D15*
X29500000Y-25000000D02*
X18663580Y-25000000D01*
X18663580Y-145000000D02*
X29500000Y-145000000D01*
X19250000Y-25000000D02*
X19250000Y-145000000D01*
X19250000Y-25000000D02*
X19836421Y-26126504D01*
X19250000Y-25000000D02*
X18663579Y-26126504D01*
X19250000Y-145000000D02*
X18663579Y-143873496D01*
X19250000Y-145000000D02*
X19836421Y-143873496D01*
D12*
X87000001Y-151378328D02*
X86142858Y-151378328D01*
X86571429Y-151378328D02*
X86571429Y-149878328D01*
X86571429Y-149878328D02*
X86428572Y-150092614D01*
X86428572Y-150092614D02*
X86285715Y-150235471D01*
X86285715Y-150235471D02*
X86142858Y-150306900D01*
X87500000Y-149878328D02*
X88428572Y-149878328D01*
X88428572Y-149878328D02*
X87928572Y-150449757D01*
X87928572Y-150449757D02*
X88142857Y-150449757D01*
X88142857Y-150449757D02*
X88285715Y-150521185D01*
X88285715Y-150521185D02*
X88357143Y-150592614D01*
X88357143Y-150592614D02*
X88428572Y-150735471D01*
X88428572Y-150735471D02*
X88428572Y-151092614D01*
X88428572Y-151092614D02*
X88357143Y-151235471D01*
X88357143Y-151235471D02*
X88285715Y-151306900D01*
X88285715Y-151306900D02*
X88142857Y-151378328D01*
X88142857Y-151378328D02*
X87714286Y-151378328D01*
X87714286Y-151378328D02*
X87571429Y-151306900D01*
X87571429Y-151306900D02*
X87500000Y-151235471D01*
X89357143Y-149878328D02*
X89500000Y-149878328D01*
X89500000Y-149878328D02*
X89642857Y-149949757D01*
X89642857Y-149949757D02*
X89714286Y-150021185D01*
X89714286Y-150021185D02*
X89785714Y-150164042D01*
X89785714Y-150164042D02*
X89857143Y-150449757D01*
X89857143Y-150449757D02*
X89857143Y-150806900D01*
X89857143Y-150806900D02*
X89785714Y-151092614D01*
X89785714Y-151092614D02*
X89714286Y-151235471D01*
X89714286Y-151235471D02*
X89642857Y-151306900D01*
X89642857Y-151306900D02*
X89500000Y-151378328D01*
X89500000Y-151378328D02*
X89357143Y-151378328D01*
X89357143Y-151378328D02*
X89214286Y-151306900D01*
X89214286Y-151306900D02*
X89142857Y-151235471D01*
X89142857Y-151235471D02*
X89071428Y-151092614D01*
X89071428Y-151092614D02*
X89000000Y-150806900D01*
X89000000Y-150806900D02*
X89000000Y-150449757D01*
X89000000Y-150449757D02*
X89071428Y-150164042D01*
X89071428Y-150164042D02*
X89142857Y-150021185D01*
X89142857Y-150021185D02*
X89214286Y-149949757D01*
X89214286Y-149949757D02*
X89357143Y-149878328D01*
X90499999Y-151378328D02*
X90499999Y-150378328D01*
X90499999Y-150521185D02*
X90571428Y-150449757D01*
X90571428Y-150449757D02*
X90714285Y-150378328D01*
X90714285Y-150378328D02*
X90928571Y-150378328D01*
X90928571Y-150378328D02*
X91071428Y-150449757D01*
X91071428Y-150449757D02*
X91142857Y-150592614D01*
X91142857Y-150592614D02*
X91142857Y-151378328D01*
X91142857Y-150592614D02*
X91214285Y-150449757D01*
X91214285Y-150449757D02*
X91357142Y-150378328D01*
X91357142Y-150378328D02*
X91571428Y-150378328D01*
X91571428Y-150378328D02*
X91714285Y-150449757D01*
X91714285Y-150449757D02*
X91785714Y-150592614D01*
X91785714Y-150592614D02*
X91785714Y-151378328D01*
X92499999Y-151378328D02*
X92499999Y-150378328D01*
X92499999Y-150521185D02*
X92571428Y-150449757D01*
X92571428Y-150449757D02*
X92714285Y-150378328D01*
X92714285Y-150378328D02*
X92928571Y-150378328D01*
X92928571Y-150378328D02*
X93071428Y-150449757D01*
X93071428Y-150449757D02*
X93142857Y-150592614D01*
X93142857Y-150592614D02*
X93142857Y-151378328D01*
X93142857Y-150592614D02*
X93214285Y-150449757D01*
X93214285Y-150449757D02*
X93357142Y-150378328D01*
X93357142Y-150378328D02*
X93571428Y-150378328D01*
X93571428Y-150378328D02*
X93714285Y-150449757D01*
X93714285Y-150449757D02*
X93785714Y-150592614D01*
X93785714Y-150592614D02*
X93785714Y-151378328D01*
D15*
X25000000Y-140500000D02*
X25000000Y-153086420D01*
X155000000Y-153086420D02*
X155000000Y-140500000D01*
X25000000Y-152500000D02*
X155000000Y-152500000D01*
X25000000Y-152500000D02*
X26126504Y-151913579D01*
X25000000Y-152500000D02*
X26126504Y-153086421D01*
X155000000Y-152500000D02*
X153873496Y-153086421D01*
X155000000Y-152500000D02*
X153873496Y-151913579D01*
D16*
%TO.C,A1*%
X76350000Y-28310000D02*
G75*
G02*
X74250000Y-28310000I-1050000J0D01*
G01*
X74250000Y-28310000D02*
G75*
G02*
X76350000Y-28310000I1050000J0D01*
G01*
X76350000Y-75310000D02*
G75*
G02*
X74250000Y-75310000I-1050000J0D01*
G01*
X74250000Y-75310000D02*
G75*
G02*
X76350000Y-75310000I1050000J0D01*
G01*
X87750000Y-28310000D02*
G75*
G02*
X85650000Y-28310000I-1050000J0D01*
G01*
X85650000Y-28310000D02*
G75*
G02*
X87750000Y-28310000I1050000J0D01*
G01*
X87750000Y-75310000D02*
G75*
G02*
X85650000Y-75310000I-1050000J0D01*
G01*
X85650000Y-75310000D02*
G75*
G02*
X87750000Y-75310000I1050000J0D01*
G01*
D17*
X91500000Y-51340000D02*
X90950000Y-51340000D01*
X90750000Y-51340000D02*
X90200000Y-51340000D01*
X90000000Y-51340000D02*
X89450000Y-51340000D01*
X89250000Y-51340000D02*
X88700000Y-51340000D01*
X88500000Y-51340000D02*
X87950000Y-51340000D01*
X87750000Y-51340000D02*
X87200000Y-51340000D01*
X87000000Y-51340000D02*
X86450000Y-51340000D01*
X86250000Y-51340000D02*
X85700000Y-51340000D01*
X85500000Y-51340000D02*
X84950000Y-51340000D01*
X84750000Y-51340000D02*
X84200000Y-51340000D01*
X84000000Y-51340000D02*
X83450000Y-51340000D01*
X83250000Y-51340000D02*
X83120000Y-51340000D01*
X83120000Y-51340000D02*
X82900001Y-51110000D01*
X82900000Y-51110000D02*
X82900000Y-50560000D01*
X82900000Y-50360000D02*
X82900000Y-50210000D01*
X82900000Y-50210000D02*
X83288909Y-49821091D01*
X83370000Y-49740000D02*
X83920000Y-49740000D01*
X84120000Y-49740000D02*
X84670000Y-49740000D01*
X84870000Y-49740000D02*
X85420000Y-49740000D01*
X85620000Y-49740000D02*
X86170000Y-49740000D01*
X86370000Y-49740000D02*
X86650000Y-49740000D01*
X86650000Y-49740000D02*
X86900000Y-49510000D01*
X86900000Y-49510000D02*
X86900000Y-48960000D01*
X86900000Y-48760000D02*
X86900000Y-48610000D01*
X86900000Y-48610000D02*
X86511091Y-48221091D01*
X86369670Y-48079670D02*
X86200000Y-47910000D01*
X86200000Y-47910000D02*
X85650000Y-47910000D01*
X85550000Y-47910000D02*
X85300000Y-47660000D01*
X85300000Y-47660000D02*
X85300000Y-47110000D01*
X85300000Y-46910000D02*
X85300000Y-46360000D01*
X85300000Y-46160000D02*
X85300000Y-45610000D01*
X85300000Y-45410000D02*
X85300000Y-44860000D01*
X85300000Y-44660000D02*
X85300000Y-44110000D01*
X85300000Y-43910000D02*
X85300000Y-43360000D01*
X85300000Y-43160000D02*
X85300000Y-42610000D01*
X85300000Y-42410000D02*
X85300000Y-41860000D01*
X85300000Y-41660000D02*
X85300000Y-41110000D01*
X85300000Y-40910000D02*
X85300000Y-40760000D01*
X85300000Y-40760000D02*
X85688909Y-40371091D01*
X85830330Y-40229670D02*
X85850000Y-40210000D01*
X85850000Y-40210000D02*
X86400000Y-40210000D01*
X86600000Y-40210000D02*
X87150000Y-40210000D01*
X87350000Y-40210000D02*
X87900000Y-40210000D01*
X88100000Y-40210000D02*
X88150000Y-40210000D01*
X88150000Y-40210000D02*
X88538909Y-39821091D01*
X88680330Y-39679670D02*
X88780000Y-39580000D01*
X88780000Y-39580000D02*
X89330000Y-39580000D01*
X89530000Y-39580000D02*
X90080000Y-39580000D01*
X90280000Y-39580000D02*
X90830000Y-39580000D01*
X91030000Y-39580000D02*
X91500000Y-39580000D01*
X91500000Y-39580000D02*
X91500000Y-40130000D01*
X91500000Y-40330000D02*
X91500000Y-40880000D01*
X91500000Y-41080000D02*
X91500000Y-41630000D01*
X91500000Y-41830000D02*
X91500000Y-42380000D01*
X91500000Y-42580000D02*
X91500000Y-43130000D01*
X91500000Y-43330000D02*
X91500000Y-43880000D01*
X91500000Y-44080000D02*
X91500000Y-44630000D01*
X91500000Y-44830000D02*
X91500000Y-45380000D01*
X91500000Y-45580000D02*
X91500000Y-46130000D01*
X91500000Y-46330000D02*
X91500000Y-46880000D01*
X91500000Y-47080000D02*
X91500000Y-47630000D01*
X91500000Y-47830000D02*
X91500000Y-48380000D01*
X91500000Y-48580000D02*
X91500000Y-49130000D01*
X91500000Y-49330000D02*
X91500000Y-49880000D01*
X91500000Y-50080000D02*
X91500000Y-50630000D01*
X91500000Y-50830000D02*
X91500000Y-51340000D01*
%TD*%
D18*
X30000000Y-145000000D02*
G75*
G02*
X25000000Y-140000000I0J5000000D01*
G01*
X30000000Y-145000000D02*
X150000000Y-145000000D01*
X150000000Y-25000000D02*
X30000000Y-25000000D01*
X155000000Y-140000000D02*
X155000000Y-30000000D01*
X150000000Y-25000000D02*
G75*
G02*
X155000000Y-30000000I0J-5000000D01*
G01*
X155000000Y-140000000D02*
G75*
G02*
X150000000Y-145000000I-5000000J0D01*
G01*
X25000000Y-30000000D02*
G75*
G02*
X30000000Y-25000000I5000000J0D01*
G01*
X25000000Y-30000000D02*
X25000000Y-140000000D01*
M02*
