<?xml version="1.0" encoding="UTF-8"?>
<svg id="Layer_2" data-name="Layer 2" xmlns="http://www.w3.org/2000/svg" viewBox="0 0 1026.63 944.65">
  <g id="Layer_3" data-name="Layer 3">
    <g>
      <path d="M343.32,0L0,200.52v354.1l676.24,390.03,350.39-202.17v-347.55L343.32,0ZM663.28,900.61L31.66,535.94V235.22l631.62,364.66v300.73ZM48.9,208.62L345.02,37.54l632.22,365.01-296.22,171.02L48.9,208.62ZM994.85,724.27l-299.92,173.16v-295.34l299.92-173.16v295.34Z"/>
      <path d="M357.41,90.18l-222.69,128.57,222.72,126.64,217.66-129.48-217.69-125.73ZM341.89,301.91l-143.94-83.11,143.94-83.11v166.22ZM373.27,135.69l138.85,80.41-138.85,81.01v-161.42Z"/>
      <path d="M657.56,263.74l-222.69,128.57,222.73,126.64,217.65-129.49-217.69-125.72ZM642.05,475.46l-143.95-83.11,143.95-83.1v166.21ZM673.43,309.25l138.84,80.4-138.84,81.02v-161.42Z"/>
    </g>
  </g>
</svg>